G04 ================== begin FILE IDENTIFICATION RECORD ==================*
G04 Layout Name:  MYB-YF13X-V10-230424.brd*
G04 Film Name:    L3*
G04 File Format:  Gerber RS274X*
G04 File Origin:  Cadence Allegro 16.6-2015-S108*
G04 Origin Date:  Mon Apr 24 16:41:07 2023*
G04 *
G04 Layer:  VIA CLASS/L3*
G04 Layer:  PIN/L3*
G04 Layer:  ETCH/L3*
G04 Layer:  BOARD GEOMETRY/OUTLINE*
G04 *
G04 Offset:    (0.000 0.000)*
G04 Mirror:    No*
G04 Mode:      Positive*
G04 Rotation:  0*
G04 FullContactRelief:  No*
G04 UndefLineWidth:     6.000*
G04 ================== end FILE IDENTIFICATION RECORD ====================*
%FSLAX25Y25*MOIN*%
%IR0*IPPOS*OFA0.00000B0.00000*MIA0B0*SFA1.00000B1.00000*%
%ADD12C,.236*%
%ADD10C,.11811*%
%ADD16C,.102362*%
%ADD18O,.11811X.090551*%
%ADD32O,.062992X.110236*%
%ADD15C,.127953*%
%ADD35C,.125984*%
%ADD14C,.137795*%
%ADD22O,.070866X.129921*%
%ADD19O,.15748X.062992*%
%ADD23C,.02*%
%ADD39C,.05512*%
%ADD28C,.061024*%
%ADD29C,.037402*%
%ADD31C,.043307*%
%ADD34O,.05906X.03543*%
%ADD26C,.090551*%
%ADD38O,.033465X.037402*%
%ADD13C,.033465*%
%ADD27C,.03937*%
%ADD24C,.01598*%
%ADD36C,.059055*%
%ADD40C,.086614*%
%ADD30O,.051181X.086614*%
%ADD20C,.07874*%
%ADD17C,.070866*%
%ADD21C,.062992*%
%ADD11C,.019685*%
%ADD25C,.082677*%
%ADD37C,.066929*%
%ADD33O,.059055X.098425*%
%ADD41C,.006*%
%ADD42C,.0054*%
%ADD43C,.015*%
%ADD56C,.11458*%
%ADD55C,.112682*%
%ADD59C,.106618*%
%ADD44O,.062996X.11024*%
%ADD46C,.125988*%
%ADD47C,.032004*%
%ADD61C,.036004*%
%ADD57C,.08702*%
%ADD49C,.077004*%
%ADD48C,.05535*%
%ADD60C,.057406*%
%ADD52C,.09087*%
%ADD54C,.086934*%
%ADD51C,.027984*%
%ADD58C,.059288*%
%ADD53C,.098744*%
%ADD45C,.078972*%
%ADD50C,.082996*%
G75*
%LPD*%
G75*
G36*
G01X10000Y2057D02*
G02X2000Y10057I0J8000D01*
G01Y403443D01*
G02X10000Y411443I8000J0D01*
G01X25900D01*
X29300Y408043D01*
Y392043D01*
X5800Y368543D01*
Y342398D01*
X5036D01*
Y329387D01*
X5800D01*
Y125043D01*
X7800Y123043D01*
Y58043D01*
X10171Y55671D01*
Y49329D01*
X12000Y47500D01*
Y33500D01*
X13957Y31543D01*
X22800D01*
X28300Y26043D01*
X34300D01*
X40300Y20043D01*
X68300D01*
X68629Y20371D01*
X72906D01*
Y16889D01*
G03X82992I5044J0D01*
G01Y20500D01*
X87464D01*
G03X87742Y19782I4461J1311D01*
G03X87778Y19708I4184J2029D01*
G01X87800Y19665D01*
Y19543D01*
X87960Y19383D01*
X87972Y19364D01*
G03X89479Y17857I3954J2447D01*
G01X89498Y17844D01*
X90800Y16543D01*
X103457D01*
X108000Y12000D01*
X114111D01*
X114135Y11994D01*
G03X116567I1216J4895D01*
G01X116591Y12000D01*
X121500D01*
X124000Y14500D01*
Y47343D01*
X124079Y47421D01*
Y53822D01*
X129379Y59121D01*
X137000D01*
X139561Y56561D01*
Y51304D01*
X133629Y45371D01*
Y18914D01*
X137500Y15043D01*
X194000D01*
X198500Y19543D01*
Y43800D01*
X191800Y50500D01*
Y55543D01*
X195379Y59121D01*
X219500D01*
Y59000D01*
X221500Y57000D01*
Y52000D01*
X210000Y40500D01*
Y20000D01*
X218957Y11043D01*
X273043D01*
X280171Y18171D01*
Y42957D01*
X272129Y51000D01*
Y56000D01*
X285672Y69543D01*
X297500D01*
X298106Y68937D01*
G02X297798Y68255I-283J-283D01*
G03X303694Y62359I-391J-6287D01*
G02X304376Y62667I399J25D01*
G01X304800Y62243D01*
Y44543D01*
X306800Y42543D01*
X337800D01*
X342257Y47000D01*
X342500D01*
X343000Y47500D01*
Y58511D01*
G02X343743Y58718I400J0D01*
G03X353804Y57734I5396J3250D01*
G02X354500Y57465I296J-269D01*
G01Y44800D01*
X354700Y44600D01*
Y43799D01*
G02X353992Y43544I-400J0D01*
G03Y35511I-4853J-4017D01*
G02X354700Y35256I308J-255D01*
G01Y33898D01*
G02X354800Y33633I-300J-265D01*
G01Y17043D01*
X355000Y16843D01*
Y16757D01*
X363257Y8500D01*
X404743D01*
X404786Y8543D01*
X408743D01*
X417200Y17000D01*
Y32943D01*
X419800Y35543D01*
X423800D01*
X426800Y32543D01*
Y30804D01*
G02X426051Y30610I-400J0D01*
G03X425900Y30859I-3628J-2023D01*
G01Y23089D01*
X425735Y23060D01*
G03X425636Y23039I311J-1756D01*
G02X425172Y23574I-91J389D01*
G03X425375Y24650I-2750J1075D01*
G01Y28587D01*
G03X419469I-2953J0D01*
G01Y24650D01*
G03X423711Y21993I2953J0D01*
G02X424281Y21573I175J-360D01*
G03X425733Y19547I1763J-269D01*
G01X425930Y19512D01*
X425800Y18775D01*
Y15043D01*
X428300Y12543D01*
Y9543D01*
X429300Y8543D01*
X447300D01*
X451800Y13043D01*
Y19209D01*
G02X452313Y19592I400J0D01*
G03X452877Y19521I503J1711D01*
G03X454434Y20553I-61J1782D01*
G03X454579Y21573I-1618J750D01*
G02X455149Y21993I395J60D01*
G03X459391Y24650I1289J2657D01*
G01Y28587D01*
G03X456029Y31511I-2953J0D01*
G02X455690Y32190I-55J396D01*
G01X456000Y32500D01*
X459103D01*
G02X459283Y32543I180J-357D01*
G01X461800D01*
X464800Y29543D01*
Y7543D01*
X465800Y6543D01*
X499400D01*
X513100Y20243D01*
Y26543D01*
X517700Y31143D01*
X538496D01*
Y10057D01*
G02X530496Y2057I-8000J0D01*
G01X10000D01*
G37*
G36*
G01X42000Y128000D02*
X39921Y130079D01*
Y149079D01*
X38500Y150500D01*
X16000D01*
X11000Y155500D01*
Y336300D01*
X17900Y343200D01*
X131940D01*
G03X132525Y342643I1360J843D01*
G02Y341943I-194J-350D01*
G03X134075I775J-1400D01*
G02Y342643I194J350D01*
G03X134660Y343200I-775J1400D01*
G01X151730D01*
X151774Y343060D01*
G03X152525Y342143I1526J483D01*
G02Y341443I-194J-350D01*
G03X154074I775J-1400D01*
G02Y342143I194J350D01*
G03X154825Y343060I-775J1400D01*
G01X154870Y343200D01*
X181600D01*
X184000Y340800D01*
Y269000D01*
X182421Y267421D01*
X179579D01*
X179514Y267356D01*
X179422Y267364D01*
G03X177705Y265646I-122J-1596D01*
G01X177712Y265554D01*
X175157Y263000D01*
X153500D01*
X143000Y252500D01*
Y229500D01*
X145500Y227000D01*
X156500D01*
X159000Y229500D01*
Y232500D01*
X164500Y238000D01*
X188500D01*
X190000Y236500D01*
Y224500D01*
X188000Y222500D01*
X169500D01*
X163500Y216500D01*
X126500D01*
X119000Y224000D01*
Y228800D01*
X119200Y229000D01*
Y303000D01*
X104100Y318100D01*
X39700D01*
Y318050D01*
X38250Y316600D01*
Y305850D01*
X40200Y303900D01*
X86353D01*
G02X86742Y303409I0J-400D01*
G03X89858I1558J-366D01*
G02X90247Y303900I389J91D01*
G01X94100D01*
X97500Y300500D01*
Y257464D01*
G02X96989Y257080I-400J0D01*
G03Y254006I-446J-1537D01*
G02X97500Y253622I111J-384D01*
G01Y228000D01*
X95500Y226000D01*
X74857D01*
X74292Y225435D01*
G03X73889Y225152I708J-1435D01*
G02X73611I-139J144D01*
G03X71288Y222955I-1111J-1152D01*
G02X71268Y222411I-303J-261D01*
G01X59900Y211043D01*
Y187943D01*
X69421Y178421D01*
Y130421D01*
X67000Y128000D01*
X42000D01*
G37*
G36*
G01X62500Y210000D02*
X74901Y222401D01*
X74985Y222400D01*
G03X76249Y223000I15J1600D01*
G01X95500D01*
X97500Y221000D01*
Y156000D01*
X96500Y155000D01*
X75500D01*
X72500Y158000D01*
Y179500D01*
X62500Y189500D01*
Y210000D01*
G37*
G36*
G01X221500Y122273D02*
Y125000D01*
X221000Y125500D01*
Y148257D01*
G02X221580Y148614I400J0D01*
G03X223500Y148984I720J1429D01*
G02X224100I300J-265D01*
G03Y151102I1200J1059D01*
G02X223500I-300J265D01*
G03X222530Y151626I-1200J-1059D01*
G02X222305Y152305I58J396D01*
G01X223500Y153500D01*
Y177000D01*
X220900Y179600D01*
Y184873D01*
X220000Y185773D01*
Y197534D01*
G02X220480Y197925I400J0D01*
G03Y201061I320J1568D01*
G02X220000Y201453I-80J392D01*
G01Y202372D01*
G03X220233Y202718I-1200J1058D01*
G01X220247Y202747D01*
X224000Y206500D01*
X235440D01*
G03X238160I1360J843D01*
G01X241002D01*
G02X241402Y206080I0J-400D01*
G03X244598I1598J-80D01*
G02X244998Y206500I399J20D01*
G01X245408D01*
X245473Y206489D01*
X245488Y206484D01*
G03X246526Y206489I512J1516D01*
G01X246558Y206500D01*
X277500D01*
X289500Y194500D01*
Y182000D01*
X286500Y179000D01*
X265000D01*
X264250Y179750D01*
G02X264270Y180335I283J283D01*
G03X264026Y182925I-1050J1208D01*
G02X264042Y183625I201J346D01*
G03X262494Y183660I-742J1418D01*
G02X262478Y182961I-201J-346D01*
G03X262013Y182593I742J-1418D01*
G02X261428Y182572I-302J262D01*
G01X256500Y187500D01*
X255116D01*
X254831Y187785D01*
G02X255051Y188463I283J283D01*
G03X253400Y190818I-251J1580D01*
G02X252700I-350J194D01*
G03X251504Y188456I-1400J-775D01*
G01X251602Y188468D01*
X252228Y187841D01*
G02X252087Y187500I-141J-141D01*
G01X252003D01*
X251926Y187516D01*
X251908Y187523D01*
G03X249715Y185826I-608J-1480D01*
G01X249728Y185728D01*
X249500Y185500D01*
Y182500D01*
X258000Y174000D01*
X285500D01*
X286824Y172676D01*
G02X286693Y172023I-283J-283D01*
G03X286100Y171602I607J-1480D01*
G02X285500I-300J265D01*
G03Y169484I-1200J-1059D01*
G02X286100I300J-265D01*
G03X288780Y169936I1200J1059D01*
G02X289433Y170067I370J-152D01*
G01X293000Y166500D01*
Y116000D01*
X289500Y112500D01*
Y109900D01*
X289201D01*
G02X288802Y110272I0J400D01*
G03X287410Y108574I-1596J-111D01*
G01X287507Y108586D01*
X287994Y108100D01*
X289500D01*
Y108000D01*
X295000Y102500D01*
X331000D01*
X332081Y101419D01*
X332074Y101326D01*
G03X333467Y99810I1395J-116D01*
G01X336067D01*
G03X336729Y99976I0J1400D01*
G01X336774Y100000D01*
X343271D01*
X343316Y99976D01*
G03X343976Y99810I662J1234D01*
G01X346576D01*
G03X347238Y99976I0J1400D01*
G01X347283Y100000D01*
X347500D01*
X348500Y101000D01*
X351000D01*
X351500Y100500D01*
Y94000D01*
X349500Y92000D01*
Y77500D01*
X341000Y69000D01*
Y67243D01*
X340000Y66243D01*
Y49500D01*
X337000Y46500D01*
X330347D01*
G02X330071Y47190I0J400D01*
G03X323619Y52276I-2861J3006D01*
G02X322927I-346J201D01*
G03X316475Y47190I-3591J-2080D01*
G02X316199Y46500I-276J-290D01*
G01X312500D01*
X312365Y46635D01*
G02X312371Y47206I283J283D01*
G03X310645Y54183I-2878J2990D01*
G01X310500Y54224D01*
Y56483D01*
X310645Y56525D01*
G03Y64498I-1152J3987D01*
G01X310500Y64540D01*
Y68000D01*
X302500Y76000D01*
X282500D01*
X273845Y67345D01*
G02X273168Y67561I-283J283D01*
G03X266608Y62756I-4478J-767D01*
G02X266424Y62000I-183J-356D01*
G01X260955D01*
G02X260772Y62756I0J400D01*
G03X256608I-2082J4038D01*
G02X256424Y62000I-183J-356D01*
G01X250955D01*
G02X250772Y62756I0J400D01*
G03X246608I-2082J4038D01*
G02X246424Y62000I-183J-356D01*
G01X240955D01*
G02X240772Y62756I0J400D01*
G03X236608I-2082J4038D01*
G02X236424Y62000I-183J-356D01*
G01X230956D01*
G02X230772Y62756I0J400D01*
G03X226608I-2082J4038D01*
G02X226424Y62000I-183J-356D01*
G01X222500D01*
Y62122D01*
X194136D01*
X194014Y62000D01*
X189558D01*
G02X189397Y62766I0J400D01*
G03X185754I-1822J4162D01*
G02X185594Y62000I-160J-366D01*
G01X179558D01*
G02X179397Y62766I0J400D01*
G03X175754I-1822J4162D01*
G02X175594Y62000I-160J-366D01*
G01X169558D01*
G02X169397Y62766I0J400D01*
G03X165754I-1822J4162D01*
G02X165594Y62000I-160J-366D01*
G01X159558D01*
G02X159397Y62766I0J400D01*
G03X155754I-1822J4162D01*
G02X155594Y62000I-160J-366D01*
G01X149558D01*
G02X149397Y62766I0J400D01*
G03X145754I-1822J4162D01*
G02X145594Y62000I-160J-366D01*
G01X138364D01*
X138243Y62122D01*
X128136D01*
X128014Y62000D01*
X127000D01*
X120500Y55500D01*
Y31500D01*
X116249Y27249D01*
X116147Y27268D01*
G03X110970Y24000I-796J-4473D01*
G01X104900D01*
G03X101374Y25960I-3525J-2189D01*
G01X91926D01*
G03X88400Y24000I0J-4150D01*
G01X82330D01*
G03X73568I-4381J-1206D01*
G01X42500D01*
X36000Y30500D01*
X28500D01*
X24000Y35000D01*
X16500D01*
X15500Y36000D01*
Y50000D01*
X13172Y52328D01*
Y56914D01*
X12500Y57586D01*
Y144000D01*
X16500Y148000D01*
X34000D01*
X35500Y146500D01*
X38721D01*
Y129582D01*
X41503Y126800D01*
X67497D01*
X70622Y129924D01*
Y150122D01*
X73000Y152500D01*
Y154837D01*
G02X73683Y155120I400J0D01*
G01X75003Y153800D01*
X96997D01*
X98700Y155503D01*
Y208500D01*
X170500D01*
X173000Y206000D01*
Y181500D01*
X169864Y178364D01*
X169796Y178355D01*
G03X168481Y176264I204J-1587D01*
G01X168484Y176256D01*
X168500Y176210D01*
Y175000D01*
X171500Y172000D01*
X189000D01*
X194500Y177500D01*
Y199500D01*
X197000Y202000D01*
X216500Y182500D01*
Y160843D01*
G02X216300Y160643I-200J0D01*
G03X214702Y159124I0J-1600D01*
G02X214272Y158746I-400J20D01*
G03X213749Y155601I-122J-1596D01*
G02X213931Y154931I-100J-387D01*
G01X210500Y151500D01*
Y121000D01*
X218000Y113500D01*
X219000D01*
X220836Y115336D01*
G02X221395Y115342I283J-283D01*
G03X222340Y118092I1105J1158D01*
G02X221900Y118490I-40J398D01*
G01Y121873D01*
X221500Y122273D01*
G37*
G36*
G01X148000Y228500D02*
X145500Y231000D01*
Y252000D01*
X153500Y260000D01*
X156304D01*
G02X156703Y259622I0J-400D01*
G03X159497I1397J78D01*
G02X159896Y260000I399J-22D01*
G01X176500D01*
X182721Y266221D01*
X182918D01*
X185200Y268503D01*
Y268700D01*
X187500Y271000D01*
Y291114D01*
G02X188180Y291400I400J0D01*
G03Y293686I1120J1143D01*
G02X187500Y293972I-280J286D01*
G01Y384500D01*
X202500Y399500D01*
X302003D01*
G02X302403Y399076I0J-400D01*
G03X305597I1597J-94D01*
G02X305997Y399500I399J23D01*
G01X411790D01*
G02X412171Y398980I0J-400D01*
G03X415224I1526J-480D01*
G02X415606Y399500I382J120D01*
G01X477000D01*
X482600Y405100D01*
X482800Y404900D01*
X504200D01*
X506850Y402250D01*
Y362350D01*
X499000Y354500D01*
X479750D01*
X471500Y346250D01*
X337500D01*
X330944Y352806D01*
G02X331142Y353480I283J283D01*
G03X329237Y355384I-341J1563D01*
G02X328563Y355187I-391J85D01*
G01X326250Y357500D01*
X295250D01*
X284000Y346250D01*
X230250D01*
X223500Y339500D01*
Y299429D01*
G03X222872Y298766I800J-1386D01*
G02X222173Y298741I-357J181D01*
G03X222228Y297195I-1373J-823D01*
G02X222927Y297220I357J-181D01*
G03X223500Y296657I1373J823D01*
G01Y248000D01*
X215000Y239500D01*
X199442D01*
G02X199113Y240129I0J400D01*
G03X196892Y239726I-1313J914D01*
G01X196907Y239715D01*
X197061Y239561D01*
X196750Y239250D01*
X163750D01*
X158000Y233500D01*
Y233197D01*
X157800Y232997D01*
Y230800D01*
X155500Y228500D01*
X148000D01*
G37*
G36*
G01X342161Y159111D02*
X345961D01*
G03X345938Y162311I-12J1600D01*
G01X342161D01*
G03X340656Y161253I0J-1600D01*
G02X339984Y161120I-376J136D01*
G03X337680Y161186I-1184J-1077D01*
G02X337000Y161472I-280J286D01*
G01Y164500D01*
X346000Y173500D01*
Y192500D01*
X340000Y198500D01*
X313500D01*
X293333Y218667D01*
G02X293524Y219339I283J283D01*
G03X291839Y221024I-324J1361D01*
G02X291167Y220833I-389J93D01*
G01X289000Y223000D01*
X267500D01*
X264500Y220000D01*
X258582D01*
G03X256018I-1282J-957D01*
G01X193500D01*
X191500Y222000D01*
Y238050D01*
X197247D01*
X197497Y238300D01*
X215497D01*
X224700Y247503D01*
Y296487D01*
X224834Y296534D01*
G03Y299552I-534J1509D01*
G01X224700Y299599D01*
Y339003D01*
X229197Y343500D01*
X284000D01*
X294500Y354000D01*
X294556D01*
G03X296422I933J1043D01*
G01X304602D01*
G02X304942Y353389I0J-400D01*
G03X307252Y351257I1358J-846D01*
G02X307890Y350948I238J-322D01*
G03X310784Y350061I1599J52D01*
G02X311391Y350109I324J-235D01*
G01X322500Y339000D01*
X324957D01*
G02X325208Y338289I0J-400D01*
G03X327795Y336804I1004J-1246D01*
G02X328473Y337027I396J-60D01*
G01X333500Y332000D01*
Y271500D01*
X350000Y255000D01*
Y247000D01*
X371500Y225500D01*
Y214500D01*
X370500Y213500D01*
X351000D01*
X349500Y212000D01*
Y211067D01*
G03Y211019I1600J-24D01*
G01Y206500D01*
X350507D01*
X350546Y206482D01*
G03X351854I654J1460D01*
G01X351893Y206500D01*
X375000D01*
X394000Y187500D01*
X418000D01*
X446600Y158900D01*
Y157799D01*
X463500Y140898D01*
Y121773D01*
X450127Y108400D01*
X450071D01*
G03X449773Y108666I-1071J-900D01*
G02Y109334I221J334D01*
G03X448227I-773J1166D01*
G02Y108666I-221J-334D01*
G03X447601Y107463I773J-1166D01*
G01X447604Y107377D01*
X444227Y104000D01*
X441000D01*
X439500Y105500D01*
Y120500D01*
X443000Y124000D01*
X452000D01*
X453343Y125343D01*
X456040D01*
X457700Y127003D01*
Y135997D01*
X455997Y137700D01*
X414003D01*
X413663Y137360D01*
G02X412980Y137623I-283J283D01*
G03X411302Y135945I-1598J-80D01*
G02X411600Y135302I-20J-399D01*
G01Y122540D01*
X407678Y118618D01*
Y111000D01*
X376000D01*
X375500Y111500D01*
Y115500D01*
X384500Y124500D01*
X387804D01*
X388975Y123330D01*
X394165D01*
X394668Y123833D01*
X395500Y123000D01*
X397500D01*
X405000Y130500D01*
Y139000D01*
X403000Y141000D01*
Y151500D01*
X399870Y154630D01*
Y154650D01*
X384360Y170160D01*
X384340D01*
X383500Y171000D01*
X359500D01*
X357500Y169000D01*
Y166573D01*
G03Y164734I1056J-920D01*
G01Y163180D01*
G02X357159Y163039I-200J0D01*
G01X356997Y163200D01*
X352003D01*
X350300Y161497D01*
Y154003D01*
X355003Y149300D01*
X367003D01*
X369003Y147300D01*
X386003D01*
X386300Y147003D01*
Y137203D01*
X387751Y135751D01*
X387000Y135000D01*
X378500D01*
X376500Y133000D01*
Y132038D01*
G02X375795Y131779I-400J0D01*
G03X374553Y132343I-1220J-1036D01*
G01X371553Y132343D01*
G03X370676Y132081I0J-1600D01*
G02X370065Y132333I-219J335D01*
G03X369377Y130662I-1565J-333D01*
G02X369988Y130410I219J-335D01*
G03X371553Y129143I1565J333D01*
G01X374553D01*
G03X376108Y130284I23J1600D01*
G01X376151Y130426D01*
X376500D01*
Y129500D01*
X373000Y126000D01*
X365500D01*
X365053Y125553D01*
X364756D01*
G03X363367Y123977I0J-1400D01*
G01X363379Y123879D01*
X362500Y123000D01*
X355996D01*
Y123420D01*
X354946Y124470D01*
X353145D01*
X352095Y123420D01*
Y123000D01*
X349000D01*
X337000Y135000D01*
Y155614D01*
G02X337680Y155900I400J0D01*
G03X339859Y158243I1120J1143D01*
G02Y158843I265J300D01*
G03X340305Y159500I-1059J1200D01*
G02X340978Y159634I376J-136D01*
G03X342161Y159111I1184J1077D01*
G37*
G36*
G01X12400Y346200D02*
X11800Y346800D01*
Y370000D01*
X32600Y390800D01*
Y411443D01*
X183700D01*
Y380112D01*
G02X183122Y379753I-400J0D01*
G03Y377247I-622J-1253D01*
G02X183700Y376888I178J-358D01*
G01Y349100D01*
X180800Y346200D01*
X174995D01*
G02X174685Y346852I0J400D01*
G03X172515I-1085J883D01*
G02X172205Y346200I-310J-253D01*
G01X12400D01*
G37*
G36*
G01X373042Y17590D02*
G02X373400Y18067I392J79D01*
G03X376654Y21613I-305J3546D01*
G01Y25157D01*
G03X373009Y28715I-3559J0D01*
G02X372651Y29312I-10J400D01*
G03X373111Y31062I-3099J1751D01*
G01Y34606D01*
G03X365993I-3559J0D01*
G01Y31062D01*
G03X369638Y27504I3559J0D01*
G02X369996Y26908I10J-400D01*
G03X369536Y25157I3099J-1751D01*
G01Y21613D01*
G03X369605Y20913I3559J0D01*
G02X369247Y20436I-392J-79D01*
G03X365993Y16890I305J-3546D01*
G01Y13346D01*
G03X366239Y12046I3559J0D01*
G02X365866Y11500I-372J-146D01*
G01X364500D01*
X358000Y18000D01*
Y65000D01*
X355500Y67500D01*
Y76000D01*
X356000Y76500D01*
X360000D01*
X361500Y78000D01*
Y81000D01*
X362000Y81500D01*
X364924D01*
G03X367728Y83037I1365J835D01*
G01X367665Y83165D01*
X368000Y83500D01*
X373500D01*
X374000Y84000D01*
Y93000D01*
X384500D01*
Y96870D01*
G02X385044Y97243I400J0D01*
G03X386947Y98588I504J1305D01*
G02X387347Y99000I400J11D01*
G01X391000D01*
X393500Y101500D01*
X407000D01*
X408000Y100500D01*
Y88500D01*
X407000Y87500D01*
X403500D01*
X401000Y85000D01*
Y83000D01*
X399400Y81400D01*
X388672D01*
X385172Y77900D01*
X379872D01*
X378200Y76228D01*
Y75374D01*
X378062Y75329D01*
G03X377135Y74308I438J-1329D01*
G01X377122Y74251D01*
X375200Y72328D01*
Y68772D01*
X377272Y66700D01*
X391000D01*
Y66000D01*
X394000Y63000D01*
X410000D01*
X413000Y60000D01*
Y58672D01*
X413000Y58671D01*
Y21000D01*
X403500Y11500D01*
X373238D01*
G02X372865Y12046I0J400D01*
G03X373111Y13346I-3313J1300D01*
G01Y16890D01*
G03X373042Y17590I-3559J0D01*
G37*
G36*
G01X378100Y68700D02*
X377200Y69600D01*
Y71500D01*
X377900Y72200D01*
X379200D01*
X380200Y73200D01*
Y75400D01*
X380700Y75900D01*
X384176D01*
G02X384475Y75234I0J-400D01*
G03X386419Y75586I1196J-1063D01*
G02X386323Y76223I187J354D01*
G01X389500Y79400D01*
X399600D01*
X400200Y78800D01*
Y74500D01*
X399200Y73500D01*
X395700D01*
X394900Y72700D01*
Y69200D01*
X394400Y68700D01*
X378100D01*
G37*
G36*
G01X425700Y101143D02*
X425522Y101321D01*
G02X425781Y102003I283J283D01*
G03X426714Y102436I-81J1397D01*
G02X427279Y102451I290J-276D01*
G03X429640Y103467I962J1018D01*
G01Y106067D01*
G03X427265Y107071I-1400J0D01*
G02X426700Y107079I-279J287D01*
G03X424775Y105050I-1000J-979D01*
G02Y104450I-264J-300D01*
G03X424303Y103481I925J-1050D01*
G02X423621Y103222I-399J23D01*
G01X419643Y107200D01*
X409700D01*
X408879Y108021D01*
Y118121D01*
X412800Y122043D01*
Y134800D01*
X414500Y136500D01*
X455500D01*
X456500Y135500D01*
Y131867D01*
G03X455841Y127042I3000J-2867D01*
G01X455911Y126911D01*
X455543Y126543D01*
X438600D01*
X437500Y125443D01*
Y102543D01*
X436100Y101143D01*
X425700D01*
G37*
G36*
G01X453900Y160600D02*
Y160873D01*
X421873Y192900D01*
X421600D01*
X421000Y193500D01*
X409500D01*
X372000Y231000D01*
Y260500D01*
X370000Y262500D01*
X365400D01*
Y267627D01*
X368400Y270627D01*
Y285036D01*
G03X366600I-900J1071D01*
G01Y271373D01*
X363600Y268373D01*
Y262500D01*
X359500D01*
X347500Y274500D01*
Y292500D01*
X350000Y295000D01*
X388000D01*
X390000Y297000D01*
Y299500D01*
X369500Y320000D01*
X348500D01*
X346500Y322000D01*
Y341500D01*
X349500Y344500D01*
X467500D01*
Y327500D01*
X464500Y324500D01*
X439500D01*
X435500Y320500D01*
Y238000D01*
X439000Y234500D01*
X449000D01*
X451500Y232000D01*
Y209500D01*
X456500Y204500D01*
X493500D01*
X507000Y218000D01*
X537000D01*
X538000Y217000D01*
Y35500D01*
X537000Y34500D01*
X515500D01*
X508500Y27500D01*
Y20500D01*
X498000Y10000D01*
X486536D01*
G02X486181Y10585I0J400D01*
G03X478819I-3681J1915D01*
G02X478464Y10000I-355J-185D01*
G01X476536D01*
G02X476181Y10585I0J400D01*
G03X468760Y14299I-3681J1915D01*
G02X468000Y14472I-360J173D01*
G01Y32000D01*
X464000Y36000D01*
X455000D01*
X452000Y33000D01*
X451497D01*
Y33200D01*
X451509Y33267D01*
G03X448432Y33480I-1509J534D01*
G02X448040Y33000I-392J-80D01*
G01X444000D01*
X443083Y33917D01*
X443085Y34003D01*
G03X443000Y34563I-1600J43D01*
G01Y40500D01*
X441500Y42000D01*
X417500D01*
X416000Y43500D01*
Y55500D01*
X417500Y57000D01*
X422500D01*
X424000Y58500D01*
Y67500D01*
X426500Y70000D01*
X436500D01*
X445000Y78500D01*
X445631D01*
G02X445924Y77829I0J-400D01*
G03X448276I1175J-1086D01*
G02X448569Y78500I294J271D01*
G01X456000D01*
X456720Y79220D01*
X456795Y79224D01*
G03X458297Y80726I-95J1597D01*
G01X458302Y80802D01*
X462500Y85000D01*
Y110500D01*
X471000Y119000D01*
Y126576D01*
G02X471644Y126893I400J0D01*
G03Y129107I856J1107D01*
G02X471000Y129424I-245J317D01*
G01Y143500D01*
X453900Y160600D01*
G37*
G36*
G01X414000Y71000D02*
X414500Y71500D01*
X420500D01*
X421500Y70500D01*
Y59500D01*
X420500Y58500D01*
X416000D01*
X415000Y59500D01*
Y61500D01*
X414000Y62500D01*
Y71000D01*
G37*
G36*
G01X394500Y134000D02*
X392300Y136200D01*
X389000D01*
X387500Y137700D01*
Y147500D01*
X386500Y148500D01*
X369500D01*
X367500Y150500D01*
X355500D01*
X351500Y154500D01*
Y161000D01*
X352500Y162000D01*
X356500D01*
X358500Y160000D01*
X359529D01*
G02X359864Y159380I0J-400D01*
G03X362536I1336J-880D01*
G02X362871Y160000I334J220D01*
G01X365557D01*
X365693Y159699D01*
X365476Y159600D01*
X365436Y159599D01*
G03X367033Y158459I64J-1599D01*
G02X367347Y158967I383J115D01*
G03X368525Y159883I-279J1576D01*
G01X368578Y160000D01*
X385500D01*
X394000Y151500D01*
Y150978D01*
X393967Y150928D01*
G03X394000Y149110I1333J-885D01*
G01Y145500D01*
X395000Y144500D01*
X397500D01*
X403000Y139000D01*
Y134500D01*
X402500Y134000D01*
X394500D01*
G37*
G36*
G01X449800Y252000D02*
X440800Y261000D01*
Y319700D01*
X442100Y321000D01*
X471094D01*
G02X471441Y320400I0J-400D01*
G03X471705Y318250I1559J-900D01*
G03Y315750I1295J-1250D01*
G03X471237Y314136I1296J-1250D01*
G02X470764Y313663I-392J-81D01*
G03X469250Y313285I-364J-1763D01*
G03X466930Y313268I-1150J-1385D01*
G02X466670I-130J152D01*
G03X464194Y313139I-1170J-1368D01*
G02X463914Y313129I-145J138D01*
G03X464006Y310561I-1214J-1329D01*
G02X464286Y310571I145J-138D01*
G03X466670Y310532I1214J1329D01*
G02X466930I130J-152D01*
G03X469250Y310515I1170J1368D01*
G03X472163Y312264I1150J1385D01*
G02X472636Y312737I392J81D01*
G03X474296Y315750I364J1763D01*
G03Y318250I-1295J1250D01*
G03X474559Y320400I-1295J1250D01*
G02X474906Y321000I346J200D01*
G01X484500D01*
X487000Y323500D01*
Y328750D01*
G02X487760Y328924I400J0D01*
G03Y332541I3740J1808D01*
G02X487000Y332715I-360J174D01*
G01Y345000D01*
X490000Y348000D01*
X506500D01*
X509500Y351000D01*
X531500D01*
X533500Y349000D01*
Y255000D01*
X530500Y252000D01*
X513251D01*
G02X512940Y252653I0J400D01*
G03X504674I-4134J3366D01*
G02X504363Y252000I-310J-253D01*
G01X449800D01*
G37*
G36*
G01X537000Y370600D02*
X515300D01*
X513700Y372200D01*
Y381300D01*
X510000Y385000D01*
Y411443D01*
X530496D01*
G02X538496Y403443I0J-8000D01*
G01Y372096D01*
X537000Y370600D01*
G37*
%LPC*%
G75*
G36*
G01X48949Y5511D02*
G02Y17567I0J6028D01*
G01X51705D01*
G02Y5511I0J-6028D01*
G01X48949D01*
G37*
G36*
G01X150475Y318379D02*
G02X148000Y317751I-1475J621D01*
G02X145751Y320000I-1000J1249D01*
G02Y322000I1249J1000D01*
G02X148000Y324249I1249J1000D01*
G02X150171Y324090I1000J-1249D01*
G03X150775Y324111I293J273D01*
G02X151121Y318511I3225J-2611D01*
G03X150475Y318379I-277J-288D01*
G37*
G36*
G01X156389Y313848D02*
G03X156111I-139J-144D01*
G02X153889I-1111J1151D01*
G03X153611I-139J-144D01*
G02Y316152I-1111J1151D01*
G03X153889I139J144D01*
G02X156111I1111J-1152D01*
G03X156389I139J144D01*
G02X158940Y315699I1111J-1152D01*
G03X159440Y315499I360J175D01*
G02X158560Y313301I560J-1499D01*
G03X158060Y313501I-360J-175D01*
G02X156389Y313848I-560J1499D01*
G37*
G36*
G01X170559Y311800D02*
G03Y311200I265J-300D01*
G02X168441I-1059J-1200D01*
G03Y311800I-265J300D01*
G02X170559I1059J1200D01*
G37*
G36*
G01X156800Y268441D02*
G03X156200I-300J-265D01*
G02Y270559I-1200J1059D01*
G03X156800I300J265D01*
G02X159200I1200J-1059D01*
G03X159800I300J265D01*
G02Y268441I1200J-1059D01*
G03X159200I-300J-265D01*
G02X156800I-1200J1059D01*
G37*
G36*
G01X170414Y268394D02*
G03X170454Y267785I278J-287D01*
G02X168386Y267649I-954J-1285D01*
G03X168346Y268258I-278J287D01*
G02X170414Y268394I954J1285D01*
G37*
G36*
G01X51282Y333515D02*
G02X51066Y334919I-1525J485D01*
G03X51775Y335028I327J230D01*
G02X54539Y335555I1525J-485D01*
G03X55159I310J253D01*
G02Y333531I1239J-1012D01*
G03X54539I-310J-253D01*
G02X51990Y333624I-1239J1012D01*
G03X51282Y333515I-327J-230D01*
G37*
G36*
G01X134075Y332443D02*
G02X132525I-775J-1400D01*
G03Y333143I-194J350D01*
G02X134075I775J1400D01*
G03Y332443I194J-350D01*
G37*
G36*
G01X154074Y331943D02*
G02X152525I-775J-1400D01*
G03Y332643I-194J350D01*
G02X154074I775J1400D01*
G03Y331943I194J-350D01*
G37*
G36*
G01X134075Y293943D02*
G02X132525I-775J-1400D01*
G03Y294643I-194J350D01*
G02X134075I775J1400D01*
G03Y293943I194J-350D01*
G37*
G36*
G01X79623Y286373D02*
G02X78056Y285392I-91J-1598D01*
G03X77709Y285945I-369J154D01*
G02X79277Y286926I91J1598D01*
G03X79623Y286373I369J-154D01*
G37*
G36*
G01X134075Y283943D02*
G02X132525I-775J-1400D01*
G03Y284643I-194J350D01*
G02X134075I775J1400D01*
G03Y283943I194J-350D01*
G37*
G36*
G01X154535Y280115D02*
G02X150963Y273172I-535J-4115D01*
G03X150336Y273120I-293J-273D01*
G02X148000Y272751I-1336J880D01*
G02X145751Y275000I-1000J1249D01*
G02Y277000I1249J1000D01*
G02X148000Y279249I1249J1000D01*
G02X150336Y278880I1000J-1249D01*
G03X150963Y278828I334J220D01*
G02X152538Y279884I3037J-2828D01*
G03X152577Y280615I-141J374D01*
G02X152525Y283443I722J1428D01*
G03X152525Y284143I-194J350D01*
G02X154075Y284143I775J1400D01*
G03X154075Y283443I194J-350D01*
G02X154329Y280818I-775J-1400D01*
G03X154535Y280115I257J-306D01*
G37*
G36*
G01X72575Y269443D02*
G02X71025Y269443I-775J-1400D01*
G03Y270143I-194J350D01*
G02X72575Y270143I775J1400D01*
G03Y269443I194J-350D01*
G37*
G36*
G01X134075Y248943D02*
G02X132525I-775J-1400D01*
G03Y249643I-194J350D01*
G02X134075I775J1400D01*
G03Y248943I194J-350D01*
G37*
G36*
G01Y238943D02*
G02X132525I-775J-1400D01*
G03Y239643I-194J350D01*
G02X134075I775J1400D01*
G03Y238943I194J-350D01*
G37*
G36*
G01X73152Y214889D02*
G03Y214611I144J-139D01*
G02X70848I-1152J-1111D01*
G03Y214889I-144J139D01*
G02X73152I1151J1111D01*
G37*
G36*
G01X64200Y25268D02*
G02Y26818I-1400J775D01*
G03X64900I350J194D01*
G02Y25268I1400J-775D01*
G03X64200I-350J-194D01*
G37*
G36*
G01Y29768D02*
G02Y31318I-1400J775D01*
G03X64900I350J194D01*
G02Y29768I1400J-775D01*
G03X64200I-350J-194D01*
G37*
G36*
G01Y34768D02*
G02Y36318I-1400J775D01*
G03X64900I350J194D01*
G02Y34768I1400J-775D01*
G03X64200I-350J-194D01*
G37*
G36*
G01Y39268D02*
G02Y40818I-1400J775D01*
G03X64900I350J194D01*
G02Y39268I1400J-775D01*
G03X64200I-350J-194D01*
G37*
G36*
G01X106200Y103768D02*
G02Y105318I-1400J775D01*
G03X106900I350J194D01*
G02Y103768I1400J-775D01*
G03X106200I-350J-194D01*
G37*
G36*
G01X202997Y108800D02*
X155703D01*
X153400Y111103D01*
Y116442D01*
G03X152760Y116763I-400J0D01*
G02Y119323I-960J1280D01*
G03X153400Y119643I240J320D01*
G01Y136597D01*
X155800Y138997D01*
Y168697D01*
X157103Y170000D01*
X183097D01*
X184200Y168897D01*
Y152796D01*
G03X184578Y152397I400J0D01*
G02X185375Y152092I-78J-1397D01*
G03X185625I125J156D01*
G02Y149908I875J-1092D01*
G03X185375I-125J-156D01*
G02X184578Y149603I-875J1092D01*
G03X184200Y149204I22J-399D01*
G01Y147497D01*
X185997Y145700D01*
X203497D01*
X205700Y143497D01*
Y120929D01*
G03X206380Y120643I400J0D01*
G02Y118357I1120J-1143D01*
G03X205700Y118071I-280J-286D01*
G01Y111503D01*
X202997Y108800D01*
G37*
G36*
G01X230700Y202768D02*
G02Y204318I-1400J775D01*
G03X231400I350J194D01*
G02Y202768I1400J-775D01*
G03X230700I-350J-194D01*
G37*
G36*
G01X27100Y51484D02*
G03X26500I-300J-265D01*
G02X24241Y53743I-1200J1059D01*
G03Y54343I-265J300D01*
G02X26500Y56602I1059J1200D01*
G03X27100I300J265D01*
G02X29500I1200J-1059D01*
G03X30100I300J265D01*
G02X32500I1200J-1059D01*
G03X33100I300J265D01*
G02X35500I1200J-1059D01*
G03X36100I300J265D01*
G02X38359Y54343I1200J-1059D01*
G03Y53743I265J-300D01*
G02X36100Y51484I-1059J-1200D01*
G03X35500I-300J-265D01*
G02X33100I-1200J1059D01*
G03X32500I-300J-265D01*
G02X30100I-1200J1059D01*
G03X29500I-300J-265D01*
G02X27100I-1200J1059D01*
G37*
G36*
G01X323619Y58432D02*
G03X322927I-346J-201D01*
G02Y62592I-3591J2080D01*
G03X323619I346J201D01*
G02Y58432I3591J-2080D01*
G37*
G36*
G01X313412Y74198D02*
G03X313245Y74420I-198J25D01*
G02X314611Y77152I255J1580D01*
G03X314889I139J144D01*
G02X316524Y74488I1111J-1152D01*
G02X313412Y74198I-1524J-488D01*
G37*
G36*
G01X288152Y93389D02*
G03Y93111I144J-139D01*
G02X285849I-1151J-1111D01*
G03Y93389I-144J139D01*
G02Y95611I1151J1111D01*
G03Y95889I-144J139D01*
G02X288152I1151J1111D01*
G03Y95611I144J-139D01*
G02Y93389I-1151J-1111D01*
G37*
G36*
G01X322389Y98848D02*
G03X322111I-139J-144D01*
G02Y101152I-1111J1151D01*
G03X322389I139J144D01*
G02X324611I1111J-1151D01*
G03X324889I139J144D01*
G02Y98848I1111J-1151D01*
G03X324611I-139J-144D01*
G02X322389I-1111J1151D01*
G37*
G36*
G01X279600Y100484D02*
G03X279000I-300J-265D01*
G02Y102602I-1200J1059D01*
G03X279600I300J265D01*
G02Y100484I1200J-1059D01*
G37*
G36*
G01X198600Y102484D02*
G03X198000I-300J-265D01*
G02Y104602I-1200J1059D01*
G03X198600I300J265D01*
G02Y102484I1200J-1059D01*
G37*
G36*
G01X273537Y152343D02*
X276868Y155674D01*
G02X279132Y153411I1132J-1131D01*
G01X274863Y149143D01*
X267500D01*
G02X266485Y149506I0J1600D01*
G02X266218Y151701I-985J994D01*
G02X267500Y152343I1282J-958D01*
G01X273537D01*
G37*
G36*
G01X192950Y167575D02*
G03X192350I-300J-264D01*
G02Y169425I-1050J925D01*
G03X192950I300J264D01*
G02Y167575I1050J-925D01*
G37*
G36*
G01X150171Y184410D02*
G02X148000Y184251I-1171J1090D01*
G02X145751Y186500I-1000J1249D01*
G02Y188500I1249J1000D01*
G02X148000Y190749I1249J1000D01*
G02X150475Y190121I1000J-1249D01*
G03X151121Y189988I369J155D01*
G02X150775Y184389I2879J-2988D01*
G03X150171Y184410I-311J-252D01*
G37*
G36*
G01X239503Y170700D02*
X256497D01*
X260200Y166997D01*
Y147497D01*
X260997Y146700D01*
X281997D01*
X284200Y144497D01*
Y111003D01*
X281497Y108300D01*
X231603D01*
X229200Y110703D01*
Y131397D01*
X234800Y136997D01*
Y165997D01*
X239503Y170700D01*
G37*
G36*
G01X48949Y43019D02*
G02Y54075I0J5528D01*
G01X51705D01*
G02Y43019I0J-5528D01*
G01X48949D01*
G37*
G36*
G01Y24515D02*
G02Y35571I0J5528D01*
G01X51705D01*
G02Y24515I0J-5528D01*
G01X48949D01*
G37*
G36*
G01X119894Y35393D02*
G02X110808I-4543J0D01*
G01Y41298D01*
G02X119894I4543J0D01*
G01Y35393D01*
G37*
G36*
G01X82492D02*
G02X73406I-4544J0D01*
G01Y41298D01*
G02X82492I4544J0D01*
G01Y35393D01*
G37*
G36*
G01X483833Y395907D02*
G03X483567I-133J-149D01*
G02X481265Y398117I-1067J1193D01*
G03X481253Y398384I-154J127D01*
G02X483487Y400675I1147J1116D01*
G03X484007Y400655I272J294D01*
G02X486185Y398324I993J-1255D01*
G03X486174Y398069I148J-134D01*
G02X483833Y395907I-1274J-969D01*
G37*
G36*
G01X424652Y393889D02*
G03Y393611I144J-139D01*
G02X422348I-1152J-1111D01*
G03Y393889I-144J139D01*
G02X424652I1152J1111D01*
G37*
G36*
G01X434559Y389300D02*
G03Y388700I265J-300D01*
G02X432441I-1059J-1200D01*
G03Y389300I-265J300D01*
G02X434559I1059J1200D01*
G37*
G36*
G01X476181Y386821D02*
G03X476202Y386261I295J-270D01*
G02X473919Y386179I-1102J-1161D01*
G03X473898Y386739I-295J270D01*
G02X476181Y386821I1102J1161D01*
G37*
G36*
G01X306830Y379033D02*
G03X306630Y378433I132J-377D01*
G02X304770Y379053I-1330J-890D01*
G03X304970Y379653I-132J377D01*
G02X306830Y379033I1330J890D01*
G37*
G36*
G01X334981Y375163D02*
G03Y374623I295J-270D01*
G02X332619I-1181J-1080D01*
G03Y375163I-295J270D01*
G02X334981I1181J1080D01*
G37*
G36*
G01X433559Y374800D02*
G03Y374200I265J-300D01*
G02X431441I-1059J-1200D01*
G03Y374800I-265J300D01*
G02X433559I1059J1200D01*
G37*
G36*
G01X218389Y273349D02*
G03X218111I-139J-144D01*
G02X215849Y275611I-1111J1151D01*
G03Y275889I-144J139D01*
G02X218111Y278152I1151J1111D01*
G03X218389I139J144D01*
G02X220652Y275889I1111J-1151D01*
G03Y275611I144J-139D01*
G02X218389Y273349I-1152J-1111D01*
G37*
G36*
G01X219900Y264162D02*
G02Y261838I1100J-1162D01*
G02Y264162I-1100J1162D01*
G37*
G36*
G01X324241Y388337D02*
G02X322759Y388549I-941J-1294D01*
G03X322859Y389249I-135J376D01*
G02X324341Y389037I941J1294D01*
G03X324241Y388337I135J-376D01*
G37*
G36*
G01X403384Y386768D02*
G02X401282Y388057I-1584J-225D01*
G03X401416Y388274I-65J189D01*
G02X402900Y390097I1584J226D01*
G03X403200Y390730I-25J399D01*
G02X404600Y390066I1300J933D01*
G03X404300Y389433I25J-399D01*
G02X403518Y386986I-1300J-933D01*
G03X403384Y386768I65J-189D01*
G37*
G36*
G01X198841Y289549D02*
G02X197359Y289337I-541J-1506D01*
G03X197259Y290037I-235J323D01*
G02X198741Y290249I541J1506D01*
G03X198841Y289549I235J-323D01*
G37*
G36*
G01X231943Y340223D02*
G03Y339663I286J-280D01*
G02X229657I-1143J-1120D01*
G03Y340223I-286J280D01*
G02X231943I1143J1120D01*
G37*
G36*
G01X444593Y117633D02*
G03Y117367I149J-133D01*
G02X442207I-1193J-1067D01*
G03Y117633I-149J133D01*
G02X444593I1193J1067D01*
G37*
G36*
G01X300389Y351168D02*
G02Y352718I-1400J775D01*
G03X301089I350J194D01*
G02Y351168I1400J-775D01*
G03X300389I-350J-194D01*
G37*
G36*
G01X284349Y274944D02*
G02X282851Y276142I-1549J-401D01*
G03X283251Y276642I13J400D01*
G02X284749Y275444I1549J401D01*
G03X284349Y274944I-13J-400D01*
G37*
G36*
G01X277858Y273243D02*
G02X275741Y273243I-1058J-1200D01*
G03Y273843I-265J300D01*
G02X276025Y276443I1058J1200D01*
G03X276025Y277143I-194J350D01*
G02X277575Y277143I775J1400D01*
G03X277575Y276443I194J-350D01*
G02X277858Y273843I-775J-1400D01*
G03Y273243I265J-300D01*
G37*
G36*
G01X258215Y224073D02*
G02X256385I-915J-1313D01*
G03Y224730I-229J328D01*
G02X256525Y227443I915J1313D01*
G03Y228143I-194J350D01*
G02X258075I775J1400D01*
G03Y227443I194J-350D01*
G02X258700Y226818I-775J-1400D01*
G03X259400I350J194D01*
G02Y225268I1400J-775D01*
G03X258700I-350J-194D01*
G02X258215Y224730I-1400J775D01*
G03Y224073I229J-328D01*
G37*
G36*
G01X149830Y379389D02*
G02X148615Y378200I171J-1389D01*
G03X148170Y378654I-396J57D01*
G02X149385Y379843I-171J1389D01*
G03X149830Y379389I396J-57D01*
G37*
G36*
G01X376169Y45442D02*
G03X375533I-318J-242D01*
G02X369142Y47598I-2832J2156D01*
G01Y51142D01*
G02X375533Y53298I3559J0D01*
G03X376169I318J242D01*
G02X382560Y51142I2832J-2156D01*
G01Y47598D01*
G02X376169Y45442I-3559J0D01*
G37*
G36*
G01X409331Y31062D02*
G02X402213I-3559J0D01*
G01Y34606D01*
G02X409331I3559J0D01*
G01Y31062D01*
G37*
G36*
G01X406182Y47598D02*
G02X399064I-3559J0D01*
G01Y51142D01*
G02X406182I3559J0D01*
G01Y47598D01*
G37*
G36*
G01X527594Y109790D02*
G02X525187I-1204J-3558D01*
G03Y110548I-128J379D01*
G02Y117664I1204J3558D01*
G03Y118422I-128J379D01*
G02X527594I1204J3558D01*
G03Y117664I128J-379D01*
G02Y110548I-1204J-3558D01*
G03Y109790I128J-379D01*
G37*
G36*
G01X485392Y156950D02*
G02X487808I1207J1050D01*
G02X485392I-1208J-1050D01*
G37*
G36*
G01X407889Y276348D02*
G03X407611I-139J-144D01*
G02X405348Y278611I-1111J1151D01*
G03Y278889I-144J139D01*
G02X407611Y281152I1152J1111D01*
G03X407889I139J144D01*
G02X410152Y278889I1111J-1151D01*
G03Y278611I144J-139D01*
G02X407889Y276348I-1152J-1111D01*
G37*
G36*
G01X408389Y315349D02*
G03X408111I-139J-144D01*
G02X405848Y317611I-1111J1151D01*
G03Y317889I-144J139D01*
G02Y320111I1152J1111D01*
G03Y320389I-144J139D01*
G02X408151I1152J1111D01*
G03Y320111I144J-139D01*
G02X408529Y318529I-1152J-1111D01*
G03X409029Y318029I382J-118D01*
G02X408389Y315349I471J-1529D01*
G37*
G36*
G01X447029Y337471D02*
G03X446529Y336971I-118J-382D01*
G02X443471I-1529J-471D01*
G03X442971Y337471I-382J118D01*
G02X443611Y340152I-471J1529D01*
G03X443889I139J144D01*
G02X446111I1111J-1151D01*
G03X446389I139J144D01*
G02X447029Y337471I1111J-1151D01*
G37*
G36*
G01X493568Y313409D02*
G03X492932I-318J-242D01*
G02Y315591I-1432J1091D01*
G03X493568I318J242D01*
G02Y313409I1432J-1091D01*
G37*
G36*
G01X461750Y286204D02*
G02X459250I-1250J1295D01*
G02X456704Y288750I-1250J1295D01*
G02X459781Y289735I1295J1250D01*
G03X460235Y289281I396J-59D01*
G02X461750Y288796I265J-1781D01*
G02Y286204I1250J-1295D01*
G37*
G36*
G01X473097Y276331D02*
G02X472795Y274250I-1597J-831D01*
G02X470204I-1295J-1250D01*
G02X470722Y277123I1295J1250D01*
G03X470903Y277669I-173J361D01*
G02X471204Y279750I1597J831D01*
G02X473796I1296J1250D01*
G02X473278Y276877I-1295J-1250D01*
G03X473097Y276331I173J-361D01*
G37*
G54D56*
X94182Y378433D03*
X114182D03*
Y398433D03*
X94182D03*
G54D55*
X104182Y388433D03*
G54D59*
X508807Y196019D03*
Y181019D03*
Y271019D03*
Y286019D03*
Y301019D03*
Y316019D03*
G54D44*
X456438Y8705D03*
X422422D03*
G54D46*
X297407Y39528D03*
G54D47*
X16202Y155534D03*
X20202D03*
X57800Y156543D03*
X53800D03*
X145000Y221232D03*
X122000Y271500D03*
X71800Y257543D03*
X84300Y272543D03*
X37300Y271543D03*
X97300Y334700D03*
X71100Y297100D03*
X64013Y236043D03*
Y240838D03*
X16406Y168043D03*
X20406D03*
X58101Y227198D03*
X54101D03*
X58097Y214988D03*
X54097D03*
X16302Y217351D03*
X20302D03*
X155000Y224000D03*
X161000D03*
X84600Y300500D03*
X88000Y297000D03*
X91843Y299500D03*
X84300Y260043D03*
X83300Y295043D03*
X127800Y303043D03*
X81300Y268543D03*
X35755Y334500D03*
X65676Y285043D03*
X91044Y334543D03*
X94300Y291346D03*
X68997Y334543D03*
X103300D03*
X92600Y275311D03*
X45204Y334000D03*
X62355Y334543D03*
X26135Y314408D03*
X53475Y295043D03*
X57800D03*
X169616Y225616D03*
X81300Y275043D03*
Y253543D03*
Y264543D03*
X80438Y291267D03*
X128300Y309043D03*
X68300Y300043D03*
X71068Y284775D03*
X19300Y278042D03*
X23300D03*
X20306Y229561D03*
X16306D03*
X64195Y180148D03*
X70800Y244787D03*
X79031Y242543D03*
X84031D03*
X14800Y298248D03*
Y303043D03*
Y240838D03*
Y236043D03*
X47262D03*
Y240838D03*
X125000Y296500D03*
X20178Y314408D03*
X19300Y298043D03*
X23300D03*
X39800D03*
X145000Y311232D03*
X177300Y231643D03*
X161800Y230043D03*
X161500Y320000D03*
X177111Y322354D03*
X161900Y275300D03*
X177300Y277543D03*
X145500Y265732D03*
X177800Y308700D03*
X75800Y158543D03*
X79655Y191043D03*
X82700Y175400D03*
X79800Y182043D03*
X75800Y179543D03*
Y172543D03*
X93800Y178043D03*
X89200Y179643D03*
X75300Y190043D03*
X75800Y165543D03*
Y194043D03*
Y201543D03*
Y209043D03*
X77800Y185043D03*
X280300Y171143D03*
X277300Y181543D03*
X267800Y189043D03*
X272300Y168543D03*
X276300D03*
X227300Y194543D03*
X229300Y199543D03*
X224800D03*
X267800Y181543D03*
X289900Y118442D03*
X218000Y111000D03*
X206500Y151543D03*
X207000Y147543D03*
X289800D03*
Y151543D03*
X161900Y185700D03*
X144500Y177732D03*
X29426Y61169D03*
X112300Y104543D03*
X116300D03*
X105300Y75543D03*
X109800D03*
Y71543D03*
Y67543D03*
X22800Y103543D03*
Y74043D03*
X75300Y99354D03*
Y95543D03*
X29300Y90669D03*
X191300Y379543D03*
X189800Y298543D03*
X193300Y291543D03*
X230800Y358043D03*
X238800Y349043D03*
X230800Y354043D03*
X224300Y346043D03*
Y350043D03*
X218500Y258000D03*
X241300Y370543D03*
X202200Y370000D03*
X295000Y395000D03*
X221500Y391386D03*
X254700Y368800D03*
X295900Y376700D03*
X331800Y387043D03*
X344800Y394443D03*
X314300Y388043D03*
X416500Y377000D03*
X334600Y393143D03*
X342800Y390443D03*
X212800Y357543D03*
X217800Y359043D03*
X224110Y360179D03*
X235151Y394043D03*
X207300Y359043D03*
X202200Y357543D03*
X268742Y378543D03*
X262400Y368743D03*
X248742Y360179D03*
X478781Y358043D03*
X198300Y323043D03*
Y319043D03*
Y329043D03*
Y333043D03*
Y284043D03*
Y279043D03*
Y275043D03*
X195000Y269500D03*
X203800Y283543D03*
X205800Y289043D03*
X204300Y300043D03*
X206800Y258548D03*
X219100Y337543D03*
X206800Y254611D03*
X216500Y340343D03*
X197800Y245043D03*
X221500Y396500D03*
X201137Y392443D03*
X220800Y301856D03*
X384564Y387543D03*
X344300Y372543D03*
X394300Y364043D03*
X353068Y376543D03*
X364879Y387464D03*
X372800Y393043D03*
X360942Y377543D03*
X374800Y389043D03*
X382910Y370154D03*
X300800Y378043D03*
X357005Y377543D03*
X488781Y358043D03*
X269800Y301043D03*
X290300Y297543D03*
X277300Y298043D03*
X234800Y338543D03*
X295800Y297543D03*
X292800Y294543D03*
X322276Y333543D03*
X266800Y304543D03*
X289000Y290000D03*
X284300Y269543D03*
X293300Y287543D03*
X276800Y283043D03*
X283550Y285293D03*
X314400Y335543D03*
X252400Y222343D03*
X235100Y294843D03*
X232300Y289043D03*
X388700Y171343D03*
X399100Y165300D03*
X422500Y174311D03*
X233075Y302518D03*
X226900Y301443D03*
X39800Y348543D03*
X44800D03*
X73300D03*
X68300D03*
X424800Y124043D03*
X433151Y117531D03*
X491189Y178500D03*
Y154211D03*
X498303Y69000D03*
X466000Y65000D03*
X467500Y55000D03*
X483303Y69000D03*
X465421Y72822D03*
Y84822D03*
X479500Y84500D03*
X449800Y74354D03*
X427675Y44461D03*
X396300Y139543D03*
X384951Y152194D03*
X372951D03*
X378951D03*
G54D61*
X490000Y287000D03*
X490926Y293926D03*
X487000Y313000D03*
X497500Y295000D03*
G54D57*
X121300Y358543D03*
G54D49*
X117251Y324476D03*
G54D48*
X16729Y204952D03*
Y173456D03*
X18825Y324476D03*
G54D60*
X485039Y50000D03*
G54D52*
X223690Y76794D03*
X233690D03*
X243690D03*
X253690D03*
X263690D03*
X142576Y76929D03*
X152576D03*
X162576D03*
X172576D03*
X182576D03*
G54D54*
X253781Y381369D03*
X483781D03*
G54D51*
X203300Y157000D03*
X288200Y156800D03*
X284300Y156900D03*
X272300D03*
X199300Y168500D03*
X207300D03*
X203300D03*
X203500Y90000D03*
X211500D03*
X282500D03*
X207300Y157000D03*
X191300Y156700D03*
X198000Y379500D03*
X194800Y378000D03*
X371000Y355000D03*
X414500Y370500D03*
X412800Y366043D03*
X445500Y142500D03*
X303600Y231300D03*
X420000Y164500D03*
X246500Y264000D03*
X338000Y224500D03*
X332900Y266300D03*
X346500Y217500D03*
X341879Y216122D03*
X301550Y238050D03*
X312000Y210500D03*
X244000Y266000D03*
X175547Y378796D03*
X136861Y405000D03*
X163736Y378543D03*
X146861Y405500D03*
X166861Y404500D03*
X176861D03*
X156700Y360543D03*
X146700D03*
X159300Y354543D03*
X166700Y360443D03*
X393000Y84000D03*
X486500Y30300D03*
X505000Y118700D03*
X397500Y271500D03*
X476500Y30300D03*
X467500Y60500D03*
X478000Y118790D03*
X475000Y130000D03*
G54D58*
X387662Y37165D03*
G54D53*
X96650Y45433D03*
G54D45*
Y9016D03*
X221900Y381368D03*
X141900D03*
G54D50*
X134500Y276000D03*
X78000Y112000D03*
X193800Y251043D03*
X501300Y369543D03*
X527800Y61543D03*
Y81543D03*
Y51543D03*
X480000Y260000D03*
X490000D03*
%LPD*%
G75*
G36*
G01X156200Y110000D02*
X154600Y111600D01*
Y136100D01*
X157000Y138500D01*
Y146251D01*
G03Y148749I-1000J1249D01*
G01Y168200D01*
X157600Y168800D01*
X182600D01*
X183000Y168400D01*
Y147000D01*
X185500Y144500D01*
X203000D01*
X204500Y143000D01*
Y112000D01*
X202500Y110000D01*
X156200D01*
G37*
G36*
G01X236000Y163502D02*
G02X236420Y163902I400J0D01*
G03X237658Y166605I80J1598D01*
G02X237664Y167164I289J276D01*
G01X239984Y169484D01*
G03X240044Y169500I-386J1559D01*
G01X256000D01*
X259000Y166500D01*
Y147000D01*
X260500Y145500D01*
X281500D01*
X283000Y144000D01*
Y111500D01*
X281000Y109500D01*
X232100D01*
X230400Y111200D01*
Y130900D01*
X236000Y136500D01*
Y163502D01*
G37*
%LPC*%
G75*
G36*
G01X165300Y153941D02*
G03X164700I-300J-265D01*
G02Y156059I-1200J1059D01*
G03X165300I300J265D01*
G02X167700I1200J-1059D01*
G03X168300I300J265D01*
G02Y153941I1200J-1059D01*
G03X167700I-300J-265D01*
G02X165300I-1200J1059D01*
G37*
G36*
G01X163667Y121407D02*
G02X161046Y122980I-1067J1193D01*
G03X160586Y123468I-389J95D01*
G02X161854Y124663I-286J1575D01*
G03X162314Y124174I389J-95D01*
G02X163667Y123793I286J-1575D01*
G03X163933I133J149D01*
G02Y121407I1067J-1193D01*
G03X163667I-133J-149D01*
G37*
G36*
G01X246389Y153348D02*
G03X246111I-139J-144D01*
G02Y155652I-1111J1151D01*
G03X246389I139J144D01*
G02X247901Y156049I1111J-1152D01*
G03X248401Y156449I100J387D01*
G02X251249Y155500I1599J51D01*
G02X248889Y153348I-1249J-1000D01*
G03X248611I-139J-144D01*
G02X246389I-1111J1151D01*
G37*
G36*
G01X246192Y114525D02*
G03Y114275I156J-125D01*
G02X244008I-1092J-875D01*
G03Y114525I-156J125D01*
G02X246192I1092J875D01*
G37*
G36*
G01X235605Y118812D02*
G02X233799Y118160I-468J-1530D01*
G03X233582Y118763I-334J220D01*
G02X235387Y119414I468J1530D01*
G03X235605Y118812I334J-220D01*
G37*
G54D47*
X163800Y143204D03*
X172800Y148543D03*
X195000Y120500D03*
X172800Y122000D03*
X189000Y119500D03*
X180500Y120000D03*
X191043Y141480D03*
Y135480D03*
X179043Y141480D03*
Y135480D03*
Y129480D03*
X191043D03*
X185043Y141480D03*
Y129480D03*
Y135480D03*
X170000Y117500D03*
X166000Y135500D03*
X159353Y165543D03*
X200800Y114543D03*
X276600Y121400D03*
X245300Y121543D03*
X254200Y148043D03*
X249800Y144535D03*
X272043Y141480D03*
Y135480D03*
X260043Y141480D03*
Y135480D03*
Y129480D03*
X272043D03*
X266043Y141480D03*
Y129480D03*
Y135480D03*
X241658Y135401D03*
X238300Y146043D03*
G54D51*
X254500Y123000D03*
X261712Y120487D03*
X269586Y120414D03*
X240500Y166000D03*
%LPD*%
G75*
G54D10*
X-17474Y-412454D03*
Y399257D03*
X558474Y-412454D03*
Y350257D03*
G54D11*
X-984Y-387345D03*
Y-383408D03*
Y-379471D03*
Y-375534D03*
Y-371597D03*
Y-367660D03*
Y-227345D03*
Y-223408D03*
Y-219471D03*
Y-215534D03*
Y-211597D03*
Y-207660D03*
Y45963D03*
Y49900D03*
Y53837D03*
Y57774D03*
Y61711D03*
Y65648D03*
Y155648D03*
Y151711D03*
Y147774D03*
Y143837D03*
Y139900D03*
Y135963D03*
Y-57660D03*
Y-61597D03*
Y-65534D03*
Y-69471D03*
Y-73408D03*
Y-77345D03*
Y367537D03*
Y363600D03*
Y359663D03*
Y355726D03*
Y351789D03*
Y347852D03*
X426044Y21303D03*
X452816D03*
X541480Y-147659D03*
Y-151596D03*
Y-155533D03*
Y-159470D03*
Y-163407D03*
Y-167344D03*
Y-359549D03*
Y-363486D03*
Y-367423D03*
Y-371360D03*
Y-375297D03*
Y-379234D03*
Y-77344D03*
Y-73407D03*
Y-69470D03*
Y-65533D03*
Y-61596D03*
Y-57659D03*
Y65648D03*
Y61711D03*
Y57774D03*
Y53837D03*
Y49900D03*
Y45963D03*
Y195963D03*
Y199900D03*
Y203837D03*
Y207774D03*
Y211711D03*
Y215648D03*
Y355963D03*
Y359900D03*
Y363837D03*
Y367774D03*
Y371711D03*
Y375648D03*
G54D20*
X96650Y45433D03*
G54D21*
Y9016D03*
X78000Y112000D03*
X141900Y381368D03*
X154000Y276000D03*
Y231500D03*
Y321500D03*
Y187000D03*
X134500Y276000D03*
X193800Y251043D03*
X121300Y358543D03*
X197000Y181000D03*
X472500Y12500D03*
X482500D03*
X337053Y50196D03*
X327210D03*
X319336D03*
X309493D03*
X337053Y60512D03*
X327210D03*
X319336D03*
X309493D03*
X459500Y129000D03*
X406800Y81600D03*
X221900Y381368D03*
X480000Y260000D03*
X527800Y51543D03*
Y81543D03*
Y71543D03*
Y61543D03*
X492500Y12500D03*
X501300Y369543D03*
X490000Y260000D03*
G54D30*
X369552Y32834D03*
X405772D03*
X372701Y49370D03*
X379001D03*
X369552Y15118D03*
X402229D03*
X373095Y23385D03*
X402623Y49370D03*
G54D12*
X19416Y133924D03*
X116660D03*
G54D40*
X508807Y181019D03*
Y196019D03*
Y211019D03*
Y226019D03*
Y241019D03*
Y256019D03*
Y271019D03*
Y286019D03*
Y301019D03*
Y316019D03*
G54D13*
X21320Y21377D03*
X23900Y15057D03*
X21300Y8757D03*
X15000Y6157D03*
X8700Y8757D03*
X6100Y15057D03*
X8720Y21337D03*
X15000Y23957D03*
X21320Y404763D03*
X23900Y398443D03*
X21300Y392143D03*
X15000Y389543D03*
X8700Y392143D03*
X6100Y398443D03*
X8720Y404723D03*
X15000Y407343D03*
X531816Y21377D03*
X534396Y15057D03*
X531796Y8757D03*
X525496Y6157D03*
X519196Y8757D03*
X516596Y15057D03*
X519216Y21337D03*
X525496Y23957D03*
X531816Y404763D03*
X534396Y398443D03*
X531796Y392143D03*
X525496Y389543D03*
X519196Y392143D03*
X516596Y398443D03*
X519216Y404723D03*
X525496Y407343D03*
G54D31*
X387662Y37165D03*
G54D22*
X115351Y19842D03*
X77949D03*
X115351Y38346D03*
X77949D03*
G54D41*
G01X250000Y210000D02*
X201500D01*
X191000Y199500D01*
Y178500D01*
X186500Y174000D01*
X172768D01*
X170000Y176768D01*
G01X278000Y217000D02*
Y208843D01*
X290672Y196171D01*
Y179828D01*
X304000Y166500D01*
Y113000D01*
X300000Y109000D01*
X288367D01*
X287206Y110161D01*
G01X456879Y84121D02*
X460000Y87243D01*
Y111500D01*
X469500Y121000D01*
Y143000D01*
X453000Y159500D01*
Y160500D01*
X421500Y192000D01*
X407800D01*
X367500Y232300D01*
Y254000D01*
X364500Y257000D01*
Y268000D01*
X367500Y271000D01*
Y286108D01*
G01X299000Y118500D02*
X297000D01*
X294000Y121500D01*
Y167000D01*
X285500Y175500D01*
X261843D01*
X251300Y186043D01*
G01X449000Y107500D02*
X435202Y93702D01*
X424705D01*
X422703Y95703D01*
Y99697D01*
X416900Y105500D01*
X382000D01*
X373900Y97400D01*
X362357D01*
X354000Y89043D01*
Y86000D01*
X356000Y84000D01*
G01X449000Y107500D02*
X450500D01*
X465500Y122500D01*
Y140172D01*
X447500Y158172D01*
Y159500D01*
X449500Y161500D01*
G01X218500Y121000D02*
X213500Y126000D01*
Y151500D01*
X218100Y156100D01*
Y183900D01*
X202300Y199700D01*
Y203543D01*
G01X298800Y115543D02*
X299043D01*
X301000Y117500D01*
Y119500D01*
X299500Y121000D01*
X297500D01*
X296500Y122000D01*
Y168000D01*
X287000Y177500D01*
X263843D01*
X251300Y190043D01*
G01X331150Y109650D02*
X316000Y124800D01*
Y129387D01*
X316600Y129987D01*
X320300D01*
X320900Y130587D01*
Y131787D01*
X320300Y132387D01*
X316600D01*
X316000Y132987D01*
Y166343D01*
X333300Y183643D01*
Y190043D01*
G01X336300Y192043D02*
Y183543D01*
X319500Y166743D01*
Y164967D01*
X320100Y164367D01*
X321400D01*
X322000Y163767D01*
Y162567D01*
X321400Y161967D01*
X320100D01*
X319500Y161367D01*
Y160167D01*
X320100Y159567D01*
X320900D01*
X321500Y158967D01*
Y157767D01*
X320900Y157167D01*
X320100D01*
X319500Y156567D01*
Y137400D01*
X323150Y133750D01*
Y120050D01*
X331200Y112000D01*
G01X327000Y107900D02*
X310000Y124900D01*
Y168000D01*
X327043Y185043D01*
X331300D01*
G01X218300Y115543D02*
X221000Y118243D01*
Y121500D01*
X215500Y127000D01*
Y149500D01*
X220000Y154000D01*
Y184500D01*
X204500Y200000D01*
Y206043D01*
G01X331100Y114700D02*
X325500Y120300D01*
Y137045D01*
X324900Y137645D01*
X322500D01*
X321900Y138245D01*
Y139445D01*
X322500Y140045D01*
X324900D01*
X325500Y140645D01*
Y141845D01*
X324900Y142445D01*
X322500D01*
X321900Y143045D01*
Y144245D01*
X322500Y144845D01*
X324900D01*
X325500Y145445D01*
Y146917D01*
X324900Y147517D01*
X322100D01*
X321500Y148117D01*
Y149317D01*
X322100Y149917D01*
X324900D01*
X325500Y150517D01*
Y151717D01*
X324900Y152317D01*
X322100D01*
X321500Y152917D01*
Y154117D01*
X322100Y154717D01*
X324900D01*
X325500Y155317D01*
Y169243D01*
X337800Y181543D01*
G01X356000Y88043D02*
X363957Y96000D01*
X374500D01*
X382500Y104000D01*
X415500D01*
X420500Y99000D01*
Y95500D01*
X424000Y92000D01*
X438000D01*
X451000Y105000D01*
G01X449500Y158500D02*
X450000D01*
X467500Y141000D01*
Y121500D01*
X451000Y105000D01*
G01X328800Y182543D02*
X313000Y166743D01*
Y125000D01*
X328800Y109200D01*
Y107000D01*
X327000Y105200D01*
G01X386500Y296500D02*
X380500D01*
X378000Y299000D01*
X352000D01*
G01X362500Y250674D02*
X340100Y273074D01*
Y331400D01*
X331500Y340000D01*
Y342900D01*
X327200Y347200D01*
X321789D01*
X312989Y356000D01*
G01X333989Y344043D02*
X342900Y335132D01*
Y274100D01*
X365000Y252000D01*
Y235526D01*
X364400Y234926D01*
G01X399100Y193300D02*
X395200D01*
X377457Y211043D01*
X351100D01*
G01X401500Y191000D02*
X394000D01*
X377057Y207943D01*
X351200D01*
G01X352000Y301856D02*
X379145D01*
X382500Y298500D01*
G01X364604Y317604D02*
X367896D01*
X384500Y301000D01*
G01X295489Y355043D02*
X310257D01*
X325300Y340000D01*
X328500D01*
X337000Y331500D01*
Y270111D01*
X352500Y254611D01*
G01X10000Y-11754D02*
X530496D01*
G02X540496Y-21754I0J-10000D01*
G01Y-415140D01*
G02X530496Y-425140I-10000J0D01*
G01X10000D01*
G02X0Y-415140I0J10000D01*
G01Y-21754D01*
G02X10000Y-11754I10000J0D01*
G01X-19685Y413443D02*
X-7874D01*
Y-425140D01*
X-19685D01*
G02X-27559Y-417266I0J7874D01*
G01Y405569D01*
G02X-19685Y413443I7874J0D01*
G01X0Y-361754D02*
G02X-3937Y-365691I-3937J0D01*
G02X-7874Y-361754I0J3937D01*
G01X0Y-393250D02*
G03X-3937Y-389313I-3937J0D01*
G03X-7874Y-393250I0J-3937D01*
G01X0Y-201754D02*
G02X-3937Y-205691I-3937J0D01*
G02X-7874Y-201754I0J3937D01*
G01X0Y-233250D02*
G03X-3937Y-229313I-3937J0D01*
G03X-7874Y-233250I0J-3937D01*
G01X10000Y413443D02*
X530496D01*
G02X540496Y403443I0J-10000D01*
G01Y10057D01*
G02X530496Y57I-10000J0D01*
G01X10000D01*
G02X0Y10057I0J10000D01*
G01Y403443D01*
G02X10000Y413443I10000J0D01*
G01X0Y71554D02*
G02X-3937Y67617I-3937J0D01*
G02X-7874Y71554I0J3937D01*
G01X0Y40057D02*
G03X-3937Y43994I-3937J0D01*
G03X-7874Y40057I0J-3937D01*
G01X0Y130057D02*
G03X-3937Y133994I-3937J0D01*
G03X-7874Y130057I0J-3937D01*
G01X0Y161554D02*
G02X-3937Y157617I-3937J0D01*
G02X-7874Y161554I0J3937D01*
G01X0Y-83250D02*
G03X-3937Y-79313I-3937J0D01*
G03X-7874Y-83250I0J-3937D01*
G01X0Y-51754D02*
G02X-3937Y-55691I-3937J0D01*
G02X-7874Y-51754I0J3937D01*
G01X0Y341946D02*
G03X-3937Y345883I-3937J0D01*
G03X-7874Y341946I0J-3937D01*
G01X0Y373443D02*
G02X-3937Y369506I-3937J0D01*
G02X-7874Y373443I0J3937D01*
G01X560181Y413443D02*
X548370D01*
Y-425140D01*
X560181D01*
G03X568055Y-417266I0J7874D01*
G01Y405569D01*
G03X560181Y413443I-7874J0D01*
G01X540496Y-173250D02*
G02X544433Y-169313I3937J0D01*
G02X548370Y-173250I0J-3937D01*
G01X540496Y-141754D02*
G03X544433Y-145691I3937J0D01*
G03X548370Y-141754I0J3937D01*
G01X540496Y-385140D02*
G02X544433Y-381203I3937J0D01*
G02X548370Y-385140I0J-3937D01*
G01X540496Y-353643D02*
G03X544433Y-357580I3937J0D01*
G03X548370Y-353643I0J3937D01*
G01X540496Y-51754D02*
G03X544433Y-55691I3937J0D01*
G03X548370Y-51754I0J3937D01*
G01X540496Y-83250D02*
G02X544433Y-79313I3937J0D01*
G02X548370Y-83250I0J-3937D01*
G01X540496Y40057D02*
G02X544433Y43994I3937J0D01*
G02X548370Y40057I0J-3937D01*
G01X540496Y71554D02*
G03X544433Y67617I3937J0D01*
G03X548370Y71554I0J3937D01*
G01X540496Y221554D02*
G03X544433Y217617I3937J0D01*
G03X548370Y221554I0J3937D01*
G01X540496Y190057D02*
G02X544433Y193994I3937J0D01*
G02X548370Y190057I0J-3937D01*
G01X540496Y381554D02*
G03X544433Y377617I3937J0D01*
G03X548370Y381554I0J3937D01*
G01X540496Y350057D02*
G02X544433Y353994I3937J0D01*
G02X548370Y350057I0J-3937D01*
G54D23*
G01X121300Y353992D02*
Y358543D01*
G01D02*
Y363094D01*
G01X116749Y358543D02*
X121300D01*
G01D02*
X125851D01*
G01X94182Y392504D02*
Y398433D01*
G01D02*
Y404362D01*
G01X88252Y398433D02*
X94182D01*
G01D02*
X100111D01*
G01X114182Y392504D02*
Y398433D01*
G01D02*
Y404362D01*
G01X108253Y398433D02*
X114182D01*
G01D02*
X120111D01*
G01X114182Y372504D02*
Y378433D01*
G01D02*
Y384362D01*
G01X108253Y378433D02*
X114182D01*
G01D02*
X120111D01*
G01X94182Y372504D02*
Y378433D01*
G01D02*
Y384362D01*
G01X88252Y378433D02*
X94182D01*
G01D02*
X100111D01*
G01X349139Y55468D02*
Y61968D01*
G01X297407Y55468D02*
Y61968D01*
G01D02*
Y68467D01*
G01X290908Y61968D02*
X297407D01*
G01D02*
X303906D01*
G01X349139Y33028D02*
Y39528D01*
G01D02*
Y46027D01*
G01X342640Y39528D02*
X349139D01*
G01X297407Y33028D02*
Y39528D01*
G01D02*
Y46027D01*
G01X290908Y39528D02*
X297407D01*
G01D02*
X303906D01*
G01X456438Y21497D02*
Y26618D01*
G01D02*
Y31740D01*
G01Y26618D02*
X459591D01*
G01X422422Y21497D02*
Y26618D01*
G01D02*
Y31740D01*
G01X419269Y26618D02*
X422422D01*
G01D02*
X425575D01*
G01X456438Y8705D02*
Y14417D01*
G01X453088Y8705D02*
X456438D01*
G01D02*
X459788D01*
G01X422422D02*
Y14417D01*
G01X419072Y8705D02*
X422422D01*
G01D02*
X425772D01*
G01X267500Y150743D02*
X274200D01*
X278000Y154543D01*
G01X355000Y81000D02*
X351800Y84200D01*
Y91100D01*
X360600Y99900D01*
X368700D01*
X376600Y107800D01*
X409057D01*
X410300Y109043D01*
G01X419000Y70500D02*
X421000Y72500D01*
X436000D01*
X444322Y80822D01*
X456700D01*
G01X491500Y326378D02*
Y330732D01*
G01D02*
Y335086D01*
G01Y330732D02*
X495854D01*
X93300Y3543D03*
X97800D03*
X102800D03*
X107800D03*
X88800D03*
X197300D03*
Y8543D03*
X192800D03*
X187800D03*
X182800D03*
X178300D03*
X192800Y3543D03*
X187800D03*
X182800D03*
X178300D03*
X172300Y8543D03*
X167300D03*
X162300D03*
X157800D03*
X172300Y3543D03*
X167300D03*
X162300D03*
X157800D03*
X153300Y8543D03*
X148300D03*
X143300D03*
X138800D03*
X153300Y3543D03*
X148300D03*
X143300D03*
X138800D03*
X119800Y8543D03*
X124300D03*
X129300D03*
X134300D03*
X119800Y3543D03*
X124300D03*
X129300D03*
X134300D03*
X62300D03*
X66800D03*
X71800D03*
X76800D03*
X23800D03*
X28300D03*
X33300D03*
X38300D03*
X43300D03*
X47800D03*
X52800D03*
X57800D03*
X3800Y164043D03*
Y157543D03*
Y152543D03*
Y147543D03*
Y142543D03*
Y136543D03*
Y131543D03*
Y126543D03*
Y121543D03*
X4300Y115543D03*
Y110543D03*
Y105543D03*
Y100543D03*
Y95043D03*
Y90043D03*
Y85043D03*
Y80043D03*
Y75543D03*
Y70543D03*
Y65543D03*
Y60543D03*
X4800Y48043D03*
Y44043D03*
X5209Y35543D03*
Y39543D03*
X33300Y19543D03*
X5300Y54043D03*
Y51043D03*
X29300Y90669D03*
X37300Y55543D03*
Y52543D03*
X34300Y55543D03*
X31300D03*
X28300D03*
X25300D03*
X34300Y52543D03*
X31300D03*
X28300D03*
X25300D03*
X63400Y129843D03*
Y132843D03*
Y135843D03*
X60400Y129843D03*
Y132843D03*
Y135843D03*
X63400Y138843D03*
X60400D03*
X66300Y26043D03*
X62800D03*
X66300Y30543D03*
X62800D03*
X66300Y35543D03*
X62800D03*
X66300Y40043D03*
X62800D03*
X75300Y95543D03*
Y99354D03*
X163800Y143204D03*
X151800Y118043D03*
X172800Y148543D03*
X195000Y120500D03*
X172800Y122000D03*
X162600Y122600D03*
X189000Y119500D03*
X180500Y120000D03*
X165000Y122600D03*
X196800Y103543D03*
X22800Y74043D03*
Y103543D03*
X86000Y158543D03*
X154500Y138500D03*
X166500Y155000D03*
X193300Y105543D03*
X75300Y83732D03*
Y87543D03*
X163500Y155000D03*
X169500D03*
X191043Y141480D03*
Y135480D03*
X179043Y141480D03*
Y135480D03*
Y129480D03*
X191043D03*
X185043Y141480D03*
Y129480D03*
Y135480D03*
X166308Y92500D03*
X170000Y117500D03*
X52300Y95043D03*
X56800Y110543D03*
X52300D03*
Y100543D03*
Y106043D03*
X56800D03*
Y100543D03*
X52300Y90543D03*
X150100Y121543D03*
X140500Y126345D03*
X148500Y139499D03*
X166000Y135500D03*
X160300Y125043D03*
X156000Y147500D03*
X16202Y155534D03*
X20202D03*
X57800Y156543D03*
X53800D03*
X27300Y106417D03*
X75800Y158543D03*
X22800Y94543D03*
X31800Y42043D03*
X17300Y51043D03*
Y54043D03*
X29300Y43192D03*
X22800Y48043D03*
Y44043D03*
X24391Y39543D03*
Y35543D03*
X22800Y65043D03*
Y69543D03*
Y99043D03*
X27300Y76917D03*
X109800Y67543D03*
Y71543D03*
Y75543D03*
X105300D03*
X116300Y104543D03*
X112300D03*
X108300D03*
X104800D03*
X29426Y61169D03*
X149000Y231000D03*
Y233000D03*
X147000Y235000D03*
X149000D03*
X147000Y231000D03*
Y233000D03*
X155500Y258500D03*
X145000Y221232D03*
X25800Y409800D03*
X21100Y409900D03*
X3800Y289043D03*
Y294043D03*
X3300Y373543D03*
Y368543D03*
Y363543D03*
Y358543D03*
Y336543D03*
Y351543D03*
Y346543D03*
Y341543D03*
X3800Y323543D03*
Y318543D03*
Y313543D03*
Y308543D03*
Y283543D03*
Y278543D03*
Y273543D03*
Y268543D03*
Y261543D03*
Y256543D03*
Y251543D03*
Y246543D03*
Y230543D03*
Y225543D03*
Y221043D03*
Y216043D03*
Y211043D03*
Y206043D03*
Y200043D03*
Y195043D03*
Y190043D03*
Y185043D03*
Y179043D03*
Y174043D03*
Y169043D03*
X47073Y315451D03*
X43335D03*
X122000Y271500D03*
X182500Y179500D03*
X180500D03*
Y181500D03*
Y183500D03*
X182500Y181500D03*
Y183500D03*
Y224732D03*
X180050D03*
X180000Y227000D03*
X182500Y269232D03*
X180050D03*
X184000Y316000D03*
X181500D03*
X184000Y313732D03*
X181550D03*
X180000Y271500D03*
X182500D03*
Y227000D03*
X77800Y287543D03*
X53300Y334543D03*
X71800Y271543D03*
X71800Y268043D03*
X79655Y191043D03*
X71800Y257543D03*
X170000Y176768D03*
X84300Y272543D03*
X82700Y175400D03*
X162800Y167543D03*
X170800D03*
X168300D03*
X165300D03*
X103471Y315129D03*
X149000Y185500D03*
Y187500D03*
Y189500D03*
X147000Y185500D03*
Y187500D03*
Y189500D03*
X144500Y177732D03*
X113500Y278500D03*
X37300Y271543D03*
X72000Y216000D03*
Y213500D03*
X159353Y165543D03*
X79800Y182043D03*
X85000Y217000D03*
X87500D03*
Y219500D03*
X85000D03*
X86000Y209043D03*
X64000Y190000D03*
X86000Y194043D03*
Y179543D03*
Y172543D03*
Y165543D03*
Y201543D03*
X72500Y224000D03*
X75000D03*
X97300Y334700D03*
X71100Y297100D03*
X64013Y236043D03*
Y240838D03*
X119700Y409900D03*
X114600Y409700D03*
X48500D03*
X38500D03*
X33500D03*
X43500D03*
X53200D03*
X78200D03*
X68200D03*
X58200D03*
X63200D03*
X73200D03*
X84600Y409600D03*
X109600D03*
X99600D03*
X89600D03*
X94600D03*
X104600D03*
X123900Y409900D03*
X148900D03*
X138900D03*
X128900D03*
X133900D03*
X143900D03*
X153800Y410000D03*
X178800D03*
X168800D03*
X158800D03*
X163800D03*
X173800D03*
X184300D03*
X189300D03*
X194300D03*
X16406Y168043D03*
X20406D03*
X58101Y227198D03*
X54101D03*
X58097Y214988D03*
X54097D03*
X16302Y217351D03*
X20302D03*
X157500Y181000D03*
X154500D03*
X160500D03*
X155000Y224000D03*
X161000D03*
X169500Y310000D03*
Y313000D03*
Y266500D03*
X158000Y269500D03*
X155000D03*
X161000D03*
X157500Y315000D03*
X155000D03*
X152500D03*
X99100Y352800D03*
X109500Y352500D03*
X104400Y358600D03*
X84600Y300500D03*
X88000Y297000D03*
X106500Y280500D03*
Y295000D03*
Y265500D03*
X96543Y255543D03*
X88300Y303043D03*
X93300Y313543D03*
X91843Y299500D03*
X101800Y267300D03*
X84300Y260043D03*
X133292Y396500D03*
Y391386D03*
X83300Y295043D03*
X127800Y303043D03*
X173578Y401500D03*
X156861Y404500D03*
X191300Y379543D03*
X81300Y268543D03*
X35755Y334500D03*
X169500Y180043D03*
X50300Y315543D03*
X65676Y285043D03*
X160000Y314000D03*
X91044Y334543D03*
X155353Y165543D03*
X94300Y291346D03*
X40107Y315543D03*
X109800Y302543D03*
X68997Y334543D03*
X103300D03*
X151300Y165500D03*
X92600Y275311D03*
X45204Y334000D03*
X62355Y334543D03*
X75800Y179543D03*
X26135Y314408D03*
X60851Y314543D03*
X169300Y358643D03*
X164071Y359043D03*
X133300Y344043D03*
Y340543D03*
Y331043D03*
Y334543D03*
X75800Y172543D03*
X53475Y295043D03*
X57800D03*
X169616Y225616D03*
X133300Y247543D03*
Y251043D03*
Y237543D03*
Y241043D03*
X81300Y275043D03*
X98800Y302543D03*
X81300Y253543D03*
X195000Y269500D03*
X189800Y298543D03*
X189300Y292543D03*
X197800Y291543D03*
X193300D03*
X98300Y314543D03*
X81300Y264543D03*
X79532Y284775D03*
X80438Y291267D03*
X128300Y309043D03*
X68300Y300043D03*
X75125Y314543D03*
X56398Y334543D03*
X49757Y334000D03*
X71068Y284775D03*
X169300Y269543D03*
X93800Y178043D03*
X89200Y179643D03*
X133300Y193043D03*
Y196043D03*
Y203543D03*
Y206543D03*
Y292543D03*
Y296043D03*
Y286043D03*
Y282543D03*
X197800Y245043D03*
Y241043D03*
Y235043D03*
Y232043D03*
Y200043D03*
X187300Y168490D03*
X19300Y278042D03*
X23300D03*
X20306Y229561D03*
X16306D03*
X64195Y180148D03*
X70800Y244787D03*
X79031Y242543D03*
X75300Y190043D03*
X75800Y165543D03*
Y194043D03*
Y201543D03*
Y209043D03*
X77800Y185043D03*
X84031Y242543D03*
X42300Y387043D03*
X70800D03*
X14800Y298248D03*
Y303043D03*
Y240838D03*
Y236043D03*
X47262D03*
Y240838D03*
X94800Y353043D03*
Y356543D03*
Y360043D03*
X113800Y353043D03*
Y356543D03*
Y360043D03*
X116300Y365043D03*
Y368543D03*
Y372043D03*
X94800Y364543D03*
Y368043D03*
Y371543D03*
X100100Y364543D03*
Y368043D03*
Y371543D03*
X110300Y364843D03*
Y368343D03*
Y371843D03*
X108200Y375400D03*
X100100Y375043D03*
X100000Y382000D03*
X108200Y381900D03*
X114300Y390543D03*
Y386043D03*
X93800Y390543D03*
Y386043D03*
X106300Y398543D03*
X101800D03*
X169500Y379000D03*
X181300Y394543D03*
X181000Y391000D03*
X165000Y401500D03*
X113000Y283697D03*
X125000Y296500D03*
X149000Y323000D03*
X147000D03*
X149000Y321000D03*
X147000D03*
X149000Y319000D03*
X147000D03*
X20178Y314408D03*
X39800Y348543D03*
X44800D03*
X73300D03*
X68300D03*
X153300Y343543D03*
Y340043D03*
Y334043D03*
Y330543D03*
X114300Y302543D03*
X19300Y298043D03*
X23300D03*
X39800D03*
X145000Y311232D03*
X177300Y231643D03*
X161800Y230043D03*
X161500Y320000D03*
X177111Y322354D03*
X161900Y185700D03*
X177800Y188543D03*
X161900Y275300D03*
X177300Y277543D03*
X149000Y276000D03*
Y278000D03*
Y274000D03*
X147000D03*
X153300Y285543D03*
X153300Y282043D03*
X147000Y278000D03*
Y276000D03*
X145500Y265732D03*
X179300Y265768D03*
X178000Y203500D03*
X179500Y220803D03*
X180000Y176768D03*
X177800Y308700D03*
X287000Y94500D03*
X326000Y100000D03*
X429800Y87043D03*
X425700Y85843D03*
X287000Y92000D03*
Y97000D03*
X323500Y100000D03*
X321000D03*
X469800Y3543D03*
X474300D03*
X479300D03*
X484300D03*
X465300D03*
X434300Y4043D03*
X438800D03*
X443800D03*
X448800D03*
X429800D03*
X356300D03*
X360800D03*
X365800D03*
X370800D03*
X389800D03*
X384800D03*
X379800D03*
X375300D03*
X408800D03*
X403800D03*
X398800D03*
X394300D03*
X334300D03*
X338800D03*
X343800D03*
X348800D03*
X334300Y9043D03*
X338800D03*
X343800D03*
X348800D03*
X315300Y4043D03*
X319800D03*
X324800D03*
X329800D03*
X315300Y9043D03*
X319800D03*
X324800D03*
X329800D03*
X310800D03*
X305800D03*
X300800D03*
X296300D03*
X310800Y4043D03*
X305800D03*
X300800D03*
X296300D03*
X290300Y3543D03*
Y8543D03*
X275800Y3543D03*
X280300D03*
X285300D03*
X275800Y8543D03*
X280300D03*
X285300D03*
X256800Y3543D03*
X261300D03*
X266300D03*
X271300D03*
X256800Y8543D03*
X261300D03*
X266300D03*
X271300D03*
X252300D03*
X247300D03*
X242300D03*
X237800D03*
X252300Y3543D03*
X247300D03*
X242300D03*
X237800D03*
X216300D03*
X220800D03*
X225800D03*
X230800D03*
X216300Y8543D03*
X220800D03*
X225800D03*
X230800D03*
X201800Y3543D03*
X206800D03*
X211800D03*
X201800Y8543D03*
X206800D03*
X211800D03*
X200800Y114543D03*
X287206Y110161D03*
X444100Y17700D03*
X450000Y33800D03*
X427675Y44461D03*
X449800Y74354D03*
X299000Y118500D03*
X479500Y84500D03*
X216300Y159043D03*
X217800Y145543D03*
X218300Y130811D03*
X300916Y148427D03*
X222300Y150043D03*
X356000Y84000D03*
X225300Y150043D03*
X356000Y75500D03*
X385175Y81985D03*
Y86985D03*
Y91985D03*
X380175D03*
X375175D03*
Y86985D03*
Y81985D03*
X380175D03*
Y86985D03*
X400500Y84500D03*
X386500Y64500D03*
X385672Y74171D03*
X383128Y56000D03*
X367300Y21043D03*
X367700Y63600D03*
X378800Y24543D03*
X391000Y98000D03*
X298800Y127543D03*
Y159043D03*
X214150Y157150D03*
X298666Y138177D03*
X301666Y145177D03*
X218500Y121000D03*
X441486Y34046D03*
X437374Y16711D03*
X298800Y115543D03*
X218416Y126927D03*
X315000Y74000D03*
X316000Y76000D03*
X313500D03*
X442873Y91543D03*
X276600Y121400D03*
X245300Y121543D03*
X289800Y151543D03*
Y147543D03*
X254200Y148043D03*
X249800Y144535D03*
X207000Y147543D03*
X206500Y151543D03*
X200500Y142043D03*
X281000Y142000D03*
X443400Y116300D03*
Y118700D03*
X465421Y84822D03*
X441232Y85207D03*
X436696D03*
X447100Y76743D03*
X465421Y72822D03*
X434400Y75843D03*
X483303Y69000D03*
X467500Y55000D03*
X466000Y65000D03*
X302193Y121000D03*
X222500Y116500D03*
X278000Y154543D03*
X298800Y111543D03*
X280800Y101543D03*
X277800D03*
X199800Y103543D03*
X218000Y111000D03*
X411382Y137543D03*
X395300Y150043D03*
X367068Y160543D03*
X396300Y139543D03*
X385700Y162143D03*
X380250Y162093D03*
X368500Y132000D03*
X409000Y67000D03*
X406500D03*
X361120Y116820D03*
X338800Y160043D03*
Y157043D03*
X454300Y128043D03*
Y132043D03*
X423800Y112543D03*
Y109043D03*
X410300D03*
X420300D03*
X355000Y81000D03*
X324500Y88000D03*
X289500D03*
X292000D03*
X322000D03*
X327000Y81500D03*
X250000Y154500D03*
Y156500D03*
X247500Y154500D03*
X436100Y19300D03*
X442700Y15200D03*
X444000Y35200D03*
X436100Y35300D03*
X332000Y85500D03*
X342500D03*
X410500Y77100D03*
X407700D03*
X468500Y49500D03*
X481768Y58000D03*
X456000Y104500D03*
Y107000D03*
X457500Y118500D03*
X457000Y124000D03*
X467900Y156600D03*
X461600Y154600D03*
X464100Y154500D03*
X466500Y154600D03*
X483000Y155500D03*
Y153000D03*
X378200Y111900D03*
X377500Y105000D03*
X405900Y130000D03*
X352100Y147500D03*
X368000Y135000D03*
X300800Y151543D03*
X410300Y132543D03*
X465421Y76822D03*
X405300Y140707D03*
X424800Y124043D03*
X454300D03*
X433151Y117531D03*
X365500Y158000D03*
X455300Y118543D03*
X424602Y78543D03*
X378951Y140194D03*
X372951D03*
Y146194D03*
X384951Y152194D03*
X372951D03*
X378951D03*
Y146194D03*
X384951Y140194D03*
X441232Y73143D03*
X413860Y80483D03*
X427300Y78243D03*
X429964Y96043D03*
X425464Y97162D03*
X439800Y62043D03*
X443001D03*
X439800Y65043D03*
X443001D03*
Y68043D03*
X439800D03*
X416800Y90856D03*
X465421Y80822D03*
X442873Y106500D03*
X444300Y84043D03*
X349300Y124043D03*
X357800D03*
X355844Y142043D03*
X206300Y108196D03*
X235137Y117282D03*
X245222Y91064D03*
X274300Y104043D03*
X272043Y141480D03*
Y135480D03*
X260043Y141480D03*
Y135480D03*
Y129480D03*
X272043D03*
X266043Y141480D03*
Y129480D03*
Y135480D03*
X212800Y154543D03*
X287206Y106696D03*
X241658Y135401D03*
X221898Y125141D03*
X234050Y120293D03*
X232844Y139043D03*
X288000Y83000D03*
Y80500D03*
X231300Y141543D03*
X238300Y146043D03*
X434675Y44461D03*
X438175D03*
X429800Y18000D03*
X445175Y44461D03*
X452716Y34584D03*
X448000Y19943D03*
X441675Y44461D03*
X424300Y43543D03*
X416500Y99500D03*
X361200Y158500D03*
X352100Y149800D03*
X368000Y112200D03*
X466500Y108790D03*
X456500Y95000D03*
X337500Y85500D03*
X348000D03*
X245000Y154500D03*
X327000Y84000D03*
X438398Y34046D03*
X440462Y16711D03*
X218300Y115543D03*
X298800Y123543D03*
Y131543D03*
Y155543D03*
X218166Y134677D03*
X356000Y88043D03*
X446300Y13500D03*
X433997Y14000D03*
X416300Y68543D03*
X419501D03*
X416300Y65543D03*
X419501D03*
X416300Y62543D03*
X419501D03*
X456700Y80822D03*
X396400Y143500D03*
X397200Y136000D03*
X395200Y135100D03*
X395172Y137171D03*
X363700Y154900D03*
X353200Y158200D03*
Y161200D03*
X207500Y119500D03*
X289900Y118442D03*
X366290Y82335D03*
X447500Y339000D03*
X445000Y336500D03*
Y339000D03*
X442500D03*
X227000Y385000D03*
X229449D03*
X422500Y372000D03*
Y374500D03*
X212000Y373500D03*
X212149Y370000D03*
X246000Y208000D03*
X278000Y217000D03*
X327000Y344000D03*
X269800Y301043D03*
X290300Y297543D03*
X230800Y358043D03*
Y338543D03*
X276800Y272043D03*
X277300Y298043D03*
X234800Y338543D03*
X295800Y297543D03*
X292800Y294543D03*
X298989Y351943D03*
X322276Y333543D03*
X238800Y349043D03*
X306300Y352543D03*
X326213Y337043D03*
X230800Y354043D03*
X284800Y277043D03*
X224300Y346043D03*
X266800Y304543D03*
X289000Y290000D03*
X284300Y269543D03*
X293300Y287543D03*
X276800Y283043D03*
X276800Y275043D03*
X276800Y278543D03*
X283550Y285293D03*
X282800Y274543D03*
X230800Y341343D03*
X224300Y350043D03*
X318742Y407043D03*
X308742Y407843D03*
X333800Y373543D03*
Y376243D03*
X298742Y407043D03*
X288800Y406543D03*
X216800Y195556D03*
X257300Y226043D03*
X251300Y186043D03*
X267800Y181543D03*
X287300Y170543D03*
X218500Y258000D03*
X220800Y199493D03*
X224800Y199543D03*
X232800Y203543D03*
X216800Y191619D03*
X297000Y191443D03*
X229300Y199543D03*
X309489Y351000D03*
X241300Y370543D03*
X219800Y207543D03*
X257300Y229543D03*
X227300Y194543D03*
X276300Y168543D03*
X263300Y185043D03*
X254800Y190043D03*
X272300Y168543D03*
X302489Y351943D03*
X314400Y335543D03*
X364400Y234926D03*
X305300Y185043D03*
X267800Y189043D03*
X257300Y222760D03*
X252400Y222343D03*
X218800Y203430D03*
X250000Y210000D03*
X294716Y181459D03*
X235100Y294843D03*
X298654Y181543D03*
X351100Y211043D03*
X202300Y203543D03*
X257300Y219043D03*
X351200Y207943D03*
X284300Y170543D03*
X277300Y181543D03*
X232300Y289043D03*
X251300Y190043D03*
X236800Y207343D03*
X333300Y190043D03*
X216624Y207367D03*
X336300Y192043D03*
X331300Y185043D03*
X220800Y297918D03*
X260800Y226043D03*
X247000Y167000D03*
X249300Y167043D03*
X252000Y167000D03*
X244500D03*
X475000Y387900D03*
X475100Y385100D03*
X423500Y395000D03*
Y392500D03*
X202200Y370000D03*
X407000Y316500D03*
Y319000D03*
Y321500D03*
X409500Y316500D03*
X406500Y280000D03*
Y277500D03*
X409000D03*
Y280000D03*
X222000Y403500D03*
X219137Y402068D03*
X319989Y355000D03*
X403000Y388500D03*
X401800Y386543D03*
X280300Y171143D03*
X388700Y171343D03*
X399100Y165300D03*
X422500Y174311D03*
X221000Y263000D03*
X218800D03*
X438600Y410200D03*
X443800Y410000D03*
X209300D03*
X199300D03*
X204300D03*
X215900Y409900D03*
X240900D03*
X230900D03*
X220900D03*
X225900D03*
X235900D03*
X246500Y410000D03*
X271500D03*
X261500D03*
X251500D03*
X256500D03*
X266500D03*
X277100Y410100D03*
X302100D03*
X292100D03*
X282100D03*
X287100D03*
X297100D03*
X314700D03*
X339700D03*
X329700D03*
X319700D03*
X324700D03*
X334700D03*
X344900D03*
X369900D03*
X359900D03*
X349900D03*
X354900D03*
X364900D03*
X375800D03*
X400800D03*
X390800D03*
X380800D03*
X385800D03*
X395800D03*
X448900D03*
X473900D03*
X463900D03*
X453900D03*
X458900D03*
X468900D03*
X480000D03*
X484900Y397100D03*
X482500D03*
X482400Y399500D03*
X432500Y373000D03*
X433500Y387500D03*
Y390500D03*
X295000Y395000D03*
X221500Y391386D03*
X363000Y278234D03*
X457800Y185300D03*
X457900Y187800D03*
Y190400D03*
X407000Y273000D03*
X409500D03*
X404500Y291500D03*
Y289000D03*
X407000Y291500D03*
Y289000D03*
X396000Y278000D03*
X393500D03*
X396000Y280500D03*
X393500D03*
X393000Y317500D03*
Y315000D03*
X395500D03*
Y317500D03*
X444500Y328000D03*
X442500D03*
X451500Y327500D03*
Y330000D03*
X254700Y368800D03*
X295900Y376700D03*
X378800Y407043D03*
X404500Y391663D03*
X331800Y387043D03*
X344800Y394443D03*
X314300Y388043D03*
X416500Y377000D03*
X330800Y355043D03*
X334600Y393143D03*
X342800Y390443D03*
X315900Y404243D03*
X328742D03*
X212800Y357543D03*
X217800Y359043D03*
X238800Y403543D03*
X224110Y360179D03*
X235151Y394043D03*
X207300Y359043D03*
X202200Y357543D03*
X268742Y378543D03*
X262400Y368743D03*
X306300Y380543D03*
X382200Y171343D03*
X291800Y165775D03*
X362537Y179808D03*
X310465Y171043D03*
X364800Y327543D03*
X304300Y350043D03*
X322300Y337043D03*
X248742Y360179D03*
X305100Y345043D03*
X318300Y342043D03*
X478781Y358043D03*
X432500Y376000D03*
X413698Y398500D03*
X428742Y401500D03*
X268300Y168490D03*
X198300Y323043D03*
Y319043D03*
Y329043D03*
Y333043D03*
Y288043D03*
Y284043D03*
Y279043D03*
Y275043D03*
X203800Y283543D03*
X205800Y289043D03*
X204300Y300043D03*
X229300Y279043D03*
X226300D03*
X229300Y283043D03*
Y289043D03*
X226800D03*
X226300Y283043D03*
X206800Y258548D03*
X230200Y172143D03*
X276800Y171543D03*
X219100Y337543D03*
X216800Y215241D03*
X239598Y171043D03*
X232500Y166000D03*
X206800Y254611D03*
X216500Y340343D03*
X284250Y187693D03*
X285250Y182793D03*
X222000Y180543D03*
X335500Y223000D03*
X341000Y222500D03*
X213300Y170543D03*
X332000Y322000D03*
X329000Y325000D03*
X207300Y225043D03*
X255100Y220943D03*
X430500Y235275D03*
X221500Y396500D03*
X201137Y392443D03*
X458000Y193000D03*
X304000Y398982D03*
X366800Y223115D03*
X236500Y165500D03*
X219500Y277000D03*
X217000D03*
Y274500D03*
X219500D03*
X204500Y206043D03*
X309800Y181043D03*
X233075Y302518D03*
X298900Y187043D03*
X337800Y181543D03*
X220800Y301856D03*
X263220Y181543D03*
X229300Y203543D03*
X226900Y301443D03*
X224300Y298043D03*
X328800Y182543D03*
X243000Y206000D03*
X462700Y311800D03*
X465500Y311900D03*
X468100D03*
X470400D03*
X458200Y219500D03*
Y212000D03*
Y214500D03*
Y217000D03*
X473000Y314500D03*
Y317000D03*
Y319500D03*
X460500Y287500D03*
X458000Y290000D03*
X463000Y287500D03*
X458000D03*
X471500Y273000D03*
X472500Y278500D03*
Y281000D03*
X471500Y275500D03*
X461000Y247900D03*
X458800Y245400D03*
Y240400D03*
Y247900D03*
Y242900D03*
X454100Y240400D03*
X456400D03*
X458000Y319000D03*
X460500Y316500D03*
Y319000D03*
X472000Y253000D03*
X455900Y283000D03*
X452800Y280700D03*
X449800D03*
X455800D03*
X323800Y390543D03*
X323300Y387043D03*
X384564Y387543D03*
X368742Y407043D03*
X399300D03*
X358742D03*
X338742D03*
X448742D03*
X383300D03*
X344300Y372543D03*
X394300Y364043D03*
X348742Y407043D03*
X305300Y377543D03*
X353068Y376543D03*
X364879Y387464D03*
X372800Y393043D03*
X360942Y377543D03*
X393800Y407043D03*
X388800D03*
X438742D03*
X374800Y389043D03*
X382910Y370154D03*
X300800Y378043D03*
X458742Y407043D03*
X357005Y377543D03*
X468742Y407043D03*
X495300Y3543D03*
X499800D03*
X504800D03*
X509800D03*
X490800D03*
X486600Y155900D03*
Y158000D03*
X498303Y69000D03*
X536900Y140900D03*
Y150900D03*
Y160900D03*
Y155900D03*
Y145900D03*
Y105900D03*
Y115900D03*
Y125900D03*
Y135900D03*
Y130900D03*
Y120900D03*
Y110900D03*
Y70900D03*
Y80900D03*
Y90900D03*
Y100900D03*
Y95900D03*
Y85900D03*
Y75900D03*
Y40900D03*
Y50900D03*
Y60900D03*
Y65900D03*
Y55900D03*
Y45900D03*
Y35900D03*
X504076Y93790D03*
Y98790D03*
Y123790D03*
Y108790D03*
X514000Y140877D03*
X519900Y74643D03*
X516568Y58543D03*
Y84811D03*
X514000Y130413D03*
X491189Y154211D03*
X492800Y387600D03*
X492700Y385000D03*
X511200Y359900D03*
Y362500D03*
X508700Y359900D03*
X508800Y362600D03*
X505000Y410100D03*
X495000D03*
X485000D03*
X490000D03*
X500000D03*
X536900Y360900D03*
Y364900D03*
Y210900D03*
Y215900D03*
Y175900D03*
Y185900D03*
Y195900D03*
Y205900D03*
Y200900D03*
Y190900D03*
Y180900D03*
Y170900D03*
Y165900D03*
X485000Y399400D03*
X488781Y358043D03*
X490000Y287000D03*
X491189Y231500D03*
X490926Y293926D03*
X491189Y178500D03*
X536900Y250900D03*
Y260900D03*
Y265900D03*
Y280900D03*
Y320900D03*
Y330900D03*
Y315900D03*
Y240900D03*
Y235900D03*
Y325900D03*
Y310900D03*
Y305900D03*
Y300900D03*
Y295900D03*
Y290900D03*
Y285900D03*
Y275900D03*
Y270900D03*
Y255900D03*
Y245900D03*
Y230900D03*
Y225900D03*
X487000Y313000D03*
X495000Y314500D03*
X491500D03*
X497500Y295000D03*
X536900Y340900D03*
Y345900D03*
Y335900D03*
Y350900D03*
X496000Y326000D03*
Y323500D03*
X493500D03*
Y326000D03*
X518900Y410100D03*
X512700Y410200D03*
X537200Y391300D03*
Y386800D03*
X537100Y383200D03*
X527800Y377300D03*
X524200D03*
X521300Y377200D03*
X519000D03*
G54D14*
X15000Y15057D03*
Y398443D03*
X525496Y15057D03*
Y398443D03*
G54D32*
X422422Y8705D03*
X456438D03*
G54D42*
G01X47073Y315451D02*
X45849Y314228D01*
Y312251D01*
X47989Y310111D01*
X98189D01*
X110500Y297800D01*
Y221324D01*
X119034Y212790D01*
X176790D01*
X182500Y218500D01*
X252300D01*
X255000Y215800D01*
X263400D01*
X268200Y220600D01*
X285400D01*
X309000Y197000D01*
X336700D01*
X343600Y190100D01*
Y173600D01*
X335100Y165100D01*
Y126100D01*
X339310Y121890D01*
X343716D01*
X344256Y122430D01*
Y123060D01*
X344796Y123600D01*
X345876D01*
X346416Y123060D01*
Y122430D01*
X346956Y121890D01*
X352426D01*
X352966Y122430D01*
Y123060D01*
X353506Y123600D01*
X354586D01*
X355126Y123060D01*
Y122430D01*
X355666Y121890D01*
X364466D01*
X365410Y122834D01*
Y123499D01*
X364756Y124153D01*
G01X43335Y315451D02*
X44559Y314228D01*
Y311717D01*
X47454Y308821D01*
X97654D01*
X109210Y297266D01*
Y220790D01*
X118500Y211500D01*
X177324D01*
X183034Y217210D01*
X251766D01*
X254466Y214510D01*
X263934D01*
X268734Y219310D01*
X284866D01*
X308466Y195710D01*
X336166D01*
X342310Y189566D01*
Y174134D01*
X333810Y165634D01*
Y125566D01*
X338776Y120600D01*
X365000D01*
X366700Y122300D01*
Y123499D01*
X367354Y124153D01*
G01X381556Y128451D02*
X382210Y127797D01*
Y125534D01*
X371710Y115034D01*
Y112634D01*
X364566Y105490D01*
X346118D01*
X344632Y104004D01*
Y101864D01*
X343978Y101210D01*
G01X346576D02*
X345922Y101864D01*
Y103470D01*
X346652Y104200D01*
X365100D01*
X373000Y112100D01*
Y114500D01*
X383500Y125000D01*
Y127797D01*
X384154Y128451D01*
G01X336067Y101210D02*
X335413Y101864D01*
Y103025D01*
X335953Y103565D01*
X336960D01*
X337500Y104105D01*
Y105185D01*
X336960Y105725D01*
X335953D01*
X335413Y106265D01*
Y108113D01*
X338200Y110900D01*
X339868D01*
X340408Y110360D01*
Y109940D01*
X340948Y109400D01*
X342028D01*
X342568Y109940D01*
Y110360D01*
X343108Y110900D01*
X344188D01*
X344728Y110360D01*
Y109940D01*
X345268Y109400D01*
X346348D01*
X346888Y109940D01*
Y110360D01*
X347428Y110900D01*
X362024D01*
X378800Y127676D01*
Y132076D01*
X379534Y132810D01*
X386571D01*
X387111Y132270D01*
Y131640D01*
X387651Y131100D01*
X388731D01*
X389271Y131640D01*
Y132270D01*
X389811Y132810D01*
X391166D01*
X393810Y130166D01*
Y126030D01*
X393270Y125490D01*
X389870D01*
X389330Y126030D01*
Y126658D01*
X389984Y127312D01*
G01X333469Y101210D02*
X334123Y101864D01*
Y108647D01*
X337666Y112190D01*
X361490D01*
X377510Y128210D01*
Y132610D01*
X379000Y134100D01*
X391700D01*
X395100Y130700D01*
Y125496D01*
X393804Y124200D01*
X389335D01*
X388040Y125496D01*
Y126658D01*
X387386Y127312D01*
G01X401548Y146584D02*
X400894Y145930D01*
X399596D01*
X399000Y146526D01*
Y154290D01*
X384000Y169290D01*
X360466D01*
X359210Y168034D01*
Y166307D01*
X358556Y165653D01*
G01X437374Y16711D02*
X438273Y17610D01*
Y20402D01*
X432700Y25976D01*
Y36400D01*
X434800Y38500D01*
X439291D01*
X440587Y37204D01*
Y34944D01*
X441486Y34046D01*
G01X440462Y16711D02*
X439563Y17610D01*
Y20937D01*
X433990Y26510D01*
Y35866D01*
X435334Y37210D01*
X438757D01*
X439297Y36670D01*
Y34944D01*
X438398Y34046D01*
G01X401548Y143986D02*
X400894Y144640D01*
X399061D01*
X397710Y145991D01*
Y153756D01*
X383466Y168000D01*
X371990D01*
X371450Y167460D01*
Y166882D01*
X370910Y166342D01*
X369830D01*
X369290Y166882D01*
Y167460D01*
X368750Y168000D01*
X361000D01*
X360500Y167500D01*
Y166307D01*
X361154Y165653D01*
G54D33*
X422422Y26618D03*
X456438D03*
G54D24*
X191300Y156700D03*
X156800Y117100D03*
Y115200D03*
X186500Y151000D03*
X184500D03*
X149000Y97000D03*
Y105448D03*
X180000Y97000D03*
Y105448D03*
X134500Y99500D03*
X175547Y378796D03*
X182500Y378500D03*
X136861Y405000D03*
X150000Y378000D03*
X148000Y380043D03*
X163736Y378543D03*
X146861Y405500D03*
X166861Y404500D03*
X185500Y378543D03*
X176861Y404500D03*
X186861D03*
X196861D03*
X194000Y168500D03*
X173600Y347736D03*
X156700Y360543D03*
X194800Y378000D03*
X191300Y168500D03*
X146700Y360543D03*
X158100Y259700D03*
X159300Y354543D03*
X166700Y360443D03*
X364756Y124153D03*
X367354D03*
X472500Y128000D03*
X475000Y130000D03*
X445500Y142500D03*
X381556Y128451D03*
X343978Y101210D03*
X384154Y128451D03*
X346576Y101210D03*
X336067D03*
X389984Y127312D03*
X333469Y101210D03*
X387386Y127312D03*
X456879Y84121D03*
X478000Y118790D03*
X449000Y107500D03*
X449500Y161500D03*
X377300Y17900D03*
X412050Y26000D03*
Y54450D03*
X406200Y60300D03*
X395700D03*
X397000Y83000D03*
X400300Y55543D03*
X379000Y62000D03*
X393000Y84000D03*
X401548Y146584D03*
X385548Y98548D03*
X345949Y160711D03*
X331150Y109650D03*
X467500Y60500D03*
X449000Y110500D03*
X331200Y112000D03*
X327000Y107900D03*
X254500Y123000D03*
X245100Y113400D03*
Y115400D03*
X261712Y120487D03*
X269586Y120414D03*
X272300Y156900D03*
X284300D03*
X288200Y156800D03*
X282500Y90000D03*
X211500D03*
X207300Y157000D03*
X203500Y90000D03*
X234700Y112100D03*
X234800Y114300D03*
X265500Y150500D03*
X380500Y130843D03*
X381159Y98500D03*
X267500Y150743D03*
X476500Y30300D03*
X381000Y75000D03*
X396000Y76700D03*
X395800Y74600D03*
X331000Y101500D03*
X338500D03*
X375700Y128800D03*
X369600Y129500D03*
X425700Y103400D03*
Y106100D03*
X340600Y163200D03*
X347400Y163100D03*
X404300Y143900D03*
Y146600D03*
X362400Y124100D03*
X369800D03*
X230500Y97000D03*
Y105448D03*
X261000D03*
X396000Y114500D03*
X383000Y102000D03*
X384500Y123700D03*
X380000Y126500D03*
X386436Y129500D03*
X392000Y128500D03*
X396400Y121000D03*
X342000Y100000D03*
X348500D03*
X472500Y30100D03*
X363800Y140275D03*
X482500Y30100D03*
X261000Y97000D03*
X216000Y99000D03*
X203500Y99500D03*
X276500Y96732D03*
X342161Y160711D03*
X401548Y143986D03*
X331100Y114700D03*
X451000Y105000D03*
X449500Y158500D03*
X327000Y105200D03*
X374576Y130743D03*
X428240Y103469D03*
X371516Y130743D03*
X428240Y106067D03*
X203300Y157000D03*
X378500Y74000D03*
X293200Y220700D03*
X303600Y231300D03*
X334000Y341000D03*
X420000Y164500D03*
X246500Y264000D03*
X323489Y355000D03*
X367500Y286108D03*
X203300Y168500D03*
X207300D03*
X386500Y296500D03*
X352000Y299000D03*
X312989Y356000D03*
X362500Y250674D03*
X333989Y344043D03*
X358556Y165653D03*
X338000Y224500D03*
X399100Y193300D03*
X332900Y266300D03*
X198000Y379500D03*
X401500Y191000D03*
X346500Y217500D03*
X341879Y216122D03*
X301550Y238050D03*
X312000Y210500D03*
X382500Y298500D03*
X352000Y301856D03*
X199300Y168500D03*
X397500Y271500D03*
X240500Y166000D03*
X330422Y171421D03*
X343272Y170071D03*
X356300Y165200D03*
X363400Y165400D03*
X206000Y187682D03*
X207000Y179500D03*
X199500Y170743D03*
X241500Y220343D03*
Y225000D03*
X240200Y199143D03*
X239000Y202843D03*
X251500Y199143D03*
Y202843D03*
X273500Y199143D03*
X274000Y202843D03*
X318443Y199143D03*
X294500D03*
Y202843D03*
X315343D03*
X324900Y205600D03*
X322001Y209501D03*
X469900Y200800D03*
X409000Y243000D03*
X397500Y258000D03*
X409000Y248000D03*
X371000Y355000D03*
X357400Y172043D03*
X361154Y165653D03*
X384500Y301000D03*
X364604Y317604D03*
X352500Y254611D03*
X295489Y355043D03*
X204271Y404514D03*
X244000Y266000D03*
X414500Y370500D03*
X412800Y366043D03*
X505000Y118700D03*
X486500Y30300D03*
X485500Y198532D03*
G54D15*
X187576Y41929D03*
X142576D03*
X268690Y41794D03*
X223690D03*
G54D43*
G01X180000Y176768D02*
X184000D01*
X185500Y178268D01*
Y196000D01*
X178000Y203500D01*
G54D25*
X104182Y388433D03*
G54D34*
X423721Y24649D03*
X455139D03*
G54D16*
X134466Y53937D03*
X195686D03*
X215580Y53802D03*
X276800D03*
G54D17*
X140174Y22638D03*
X150174Y28622D03*
X179978Y22638D03*
X189978Y28622D03*
X187576Y66929D03*
X177576D03*
X167576D03*
X157576D03*
X147576D03*
X182576Y76929D03*
X172576D03*
X162576D03*
X152576D03*
X142576D03*
X221288Y22503D03*
X231288Y28487D03*
X261092Y22503D03*
X271092Y28487D03*
X268690Y66794D03*
X258690D03*
X248690D03*
X238690D03*
X228690D03*
X263690Y76794D03*
X253690D03*
X243690D03*
X233690D03*
X223690D03*
G54D26*
X94182Y378433D03*
X114182D03*
Y398433D03*
X94182D03*
G54D35*
X297407Y39528D03*
X349139D03*
X297407Y61968D03*
X349139D03*
G54D36*
X461500Y330732D03*
X471500D03*
X481500D03*
X491500D03*
G54D27*
X16729Y204952D03*
Y173456D03*
X18825Y324476D03*
G54D18*
X50327Y48547D03*
Y30043D03*
Y11539D03*
G54D37*
X253781Y381369D03*
X483781D03*
G54D28*
X117251Y324476D03*
G54D19*
X96650Y21811D03*
G54D38*
X489961Y50000D03*
G54D29*
X485039D03*
G54D39*
X526391Y114106D03*
Y121980D03*
Y129854D03*
Y106232D03*
M02*
