G04 ================== begin FILE IDENTIFICATION RECORD ==================*
G04 Layout Name:  MYB-YF13X-V10-230424.brd*
G04 Film Name:    L4_VCC*
G04 File Format:  Gerber RS274X*
G04 File Origin:  Cadence Allegro 16.6-2015-S108*
G04 Origin Date:  Mon Apr 24 16:41:07 2023*
G04 *
G04 Layer:  VIA CLASS/L4_VCC*
G04 Layer:  PIN/L4_VCC*
G04 Layer:  ETCH/L4_VCC*
G04 Layer:  BOARD GEOMETRY/OUTLINE*
G04 *
G04 Offset:    (0.000 0.000)*
G04 Mirror:    No*
G04 Mode:      Positive*
G04 Rotation:  0*
G04 FullContactRelief:  No*
G04 UndefLineWidth:     6.000*
G04 ================== end FILE IDENTIFICATION RECORD ====================*
%FSLAX25Y25*MOIN*%
%IR0*IPPOS*OFA0.00000B0.00000*MIA0B0*SFA1.00000B1.00000*%
%ADD12C,.236*%
%ADD10C,.11811*%
%ADD16C,.102362*%
%ADD18O,.11811X.090551*%
%ADD32O,.062992X.110236*%
%ADD15C,.127953*%
%ADD35C,.125984*%
%ADD14C,.137795*%
%ADD22O,.070866X.129921*%
%ADD19O,.15748X.062992*%
%ADD23C,.02*%
%ADD39C,.05512*%
%ADD28C,.061024*%
%ADD29C,.037402*%
%ADD31C,.043307*%
%ADD34O,.05906X.03543*%
%ADD26C,.090551*%
%ADD38O,.033465X.037402*%
%ADD13C,.033465*%
%ADD27C,.03937*%
%ADD24C,.01598*%
%ADD36C,.059055*%
%ADD40C,.086614*%
%ADD30O,.051181X.086614*%
%ADD20C,.07874*%
%ADD17C,.070866*%
%ADD21C,.062992*%
%ADD11C,.019685*%
%ADD25C,.082677*%
%ADD37C,.066929*%
%ADD33O,.059055X.098425*%
%ADD41C,.006*%
%ADD60C,.110642*%
%ADD45C,.256004*%
%ADD52C,.110556*%
%ADD51C,.112682*%
%ADD56C,.106618*%
%ADD42O,.062996X.11024*%
%ADD44C,.125988*%
%ADD49C,.032004*%
%ADD59C,.036004*%
%ADD54C,.077004*%
%ADD53C,.05535*%
%ADD57C,.07906*%
%ADD46C,.09087*%
%ADD55C,.086934*%
%ADD50C,.027984*%
%ADD58C,.059288*%
%ADD47C,.098744*%
%ADD43C,.078972*%
%ADD48C,.082996*%
G75*
%LPD*%
G75*
G36*
G01X10000Y2057D02*
G02X2000Y10057I0J8000D01*
G01Y403443D01*
G02X10000Y411443I8000J0D01*
G01X25900D01*
X29300Y408043D01*
Y392043D01*
X5800Y368543D01*
Y342398D01*
X5036D01*
Y329387D01*
X5800D01*
Y125043D01*
X7800Y123043D01*
Y58043D01*
X10171Y55671D01*
Y49329D01*
X12000Y47500D01*
Y33500D01*
X13957Y31543D01*
X22800D01*
X28300Y26043D01*
X34300D01*
X40300Y20043D01*
X68300D01*
X68629Y20371D01*
X72906D01*
Y16889D01*
G03X82992I5044J0D01*
G01Y20500D01*
X87464D01*
G03X87742Y19782I4461J1311D01*
G03X87778Y19708I4184J2029D01*
G01X87800Y19665D01*
Y19543D01*
X87960Y19383D01*
X87972Y19364D01*
G03X89479Y17857I3954J2447D01*
G01X89498Y17844D01*
X90800Y16543D01*
X103457D01*
X108000Y12000D01*
X114111D01*
X114135Y11994D01*
G03X116567I1216J4895D01*
G01X116591Y12000D01*
X121500D01*
X124000Y14500D01*
Y47343D01*
X124079Y47421D01*
Y53822D01*
X129379Y59121D01*
X137000D01*
X139561Y56561D01*
Y51304D01*
X133629Y45371D01*
Y18914D01*
X137500Y15043D01*
X194000D01*
X198500Y19543D01*
Y43800D01*
X191800Y50500D01*
Y55543D01*
X195379Y59121D01*
X219500D01*
Y59000D01*
X221500Y57000D01*
Y52000D01*
X210000Y40500D01*
Y20000D01*
X218957Y11043D01*
X273043D01*
X280171Y18171D01*
Y42957D01*
X272129Y51000D01*
Y56000D01*
X285672Y69543D01*
X297500D01*
X298106Y68937D01*
G02X297798Y68255I-283J-283D01*
G03X303694Y62359I-391J-6287D01*
G02X304376Y62667I399J25D01*
G01X304800Y62243D01*
Y44543D01*
X306800Y42543D01*
X337800D01*
X342257Y47000D01*
X342500D01*
X343000Y47500D01*
Y58511D01*
G02X343743Y58718I400J0D01*
G03X353804Y57734I5396J3250D01*
G02X354500Y57465I296J-269D01*
G01Y44800D01*
X354700Y44600D01*
Y43799D01*
G02X353992Y43544I-400J0D01*
G03Y35511I-4853J-4017D01*
G02X354700Y35256I308J-255D01*
G01Y33898D01*
G02X354800Y33633I-300J-265D01*
G01Y17043D01*
X363300Y8543D01*
X408843D01*
X417200Y16900D01*
Y33000D01*
X419743Y35543D01*
X423800D01*
X426800Y32543D01*
Y30804D01*
G02X426051Y30610I-400J0D01*
G03X425900Y30859I-3628J-2023D01*
G01Y23089D01*
X425735Y23060D01*
G03X425636Y23039I311J-1756D01*
G02X425172Y23574I-91J389D01*
G03X425375Y24650I-2750J1075D01*
G01Y28587D01*
G03X419469I-2953J0D01*
G01Y24650D01*
G03X423711Y21993I2953J0D01*
G02X424281Y21573I175J-360D01*
G03X425733Y19547I1763J-269D01*
G01X425930Y19512D01*
X425800Y18775D01*
Y15043D01*
X428300Y12543D01*
Y9543D01*
X429300Y8543D01*
X447300D01*
X451800Y13043D01*
Y19209D01*
G02X452313Y19592I400J0D01*
G03X452877Y19521I503J1711D01*
G03X454434Y20553I-61J1782D01*
G03X454579Y21573I-1618J750D01*
G02X455149Y21993I395J60D01*
G03X459391Y24650I1289J2657D01*
G01Y28587D01*
G03X456029Y31511I-2953J0D01*
G02X455690Y32190I-55J396D01*
G01X456000Y32500D01*
X459103D01*
G02X459283Y32543I180J-357D01*
G01X461800D01*
X464800Y29543D01*
Y7543D01*
X465800Y6543D01*
X499400D01*
X513100Y20243D01*
Y26543D01*
X517700Y31143D01*
X538496D01*
Y10057D01*
G02X530496Y2057I-8000J0D01*
G01X10000D01*
G37*
G36*
G01X510096Y27787D02*
Y21487D01*
X498156Y9547D01*
X496209D01*
G02X495932Y10168I55J396D01*
G03X489068I-3432J2332D01*
G02X488791Y9547I-331J-225D01*
G01X486209D01*
G02X485932Y10168I55J396D01*
G03X479068I-3432J2332D01*
G02X478791Y9547I-331J-225D01*
G01X476209D01*
G02X475932Y10168I55J396D01*
G03X469068I-3432J2332D01*
G02X468791Y9547I-331J-225D01*
G01X467804D01*
Y30787D01*
X463044Y35547D01*
X459283D01*
G03X458744Y35504I-1J-3404D01*
G01X454756D01*
X454624Y35372D01*
G02X454049Y35470I-242J319D01*
G03X451316Y35358I-1333J-885D01*
G02X450773Y35201I-350J194D01*
G03X451400Y33026I-772J-1401D01*
G02X451944Y33183I350J-194D01*
G03X452023Y33142I772J1402D01*
G01X452053Y33127D01*
X452219Y32962D01*
X451300Y32043D01*
Y26557D01*
G03X451264Y22792I2658J-1908D01*
G01X451300Y22740D01*
Y22492D01*
G03X449482Y21258I900J-3283D01*
G02X448961Y21223I-281J284D01*
G03X448320Y18375I-961J-1280D01*
G02X448796Y18038I80J-392D01*
G01Y14287D01*
X448408Y13899D01*
G02X447794Y14075I-241J319D01*
G03X445295Y12254I-1493J-575D01*
G02X445099Y11547I-251J-311D01*
G01X431304D01*
Y13787D01*
X428804Y16287D01*
Y16587D01*
X429047D01*
X429089Y16566D01*
G03X429400Y19549I711J1434D01*
G02X428900Y19937I-100J387D01*
G01Y20567D01*
X428904Y20568D01*
Y28498D01*
G03X429804Y30804I-2504J2306D01*
G01Y33787D01*
X428800Y34791D01*
Y34900D01*
X425200Y38500D01*
X425091D01*
X425044Y38547D01*
X418499D01*
X418452Y38500D01*
X415000D01*
Y60828D01*
X410828Y65000D01*
X397128D01*
X396900Y65228D01*
Y71500D01*
X400728D01*
X402300Y73072D01*
Y76372D01*
X403000Y77072D01*
Y78576D01*
G02X403699Y78842I400J0D01*
G03X405957Y77537I3101J2758D01*
G01X406116Y77341D01*
X406114Y77314D01*
G03X408820Y75957I1586J-214D01*
G02X409380I280J-286D01*
G03X410580Y78698I1120J1143D01*
G02X410266Y79318I20J400D01*
G03X408488Y85391I-3466J2282D01*
G02X408368Y86039I163J365D01*
G01X410000Y87672D01*
Y101328D01*
X407828Y103500D01*
X392672D01*
X390172Y101000D01*
X384696D01*
G02X384319Y101534I0J400D01*
G03X382857Y100608I-1319J466D01*
G02X383099Y99927I-41J-398D01*
G01X382500Y99328D01*
Y95000D01*
X372000D01*
Y85500D01*
X367172D01*
X365172Y83500D01*
X361172D01*
X359500Y81828D01*
Y78828D01*
X359172Y78500D01*
X355172D01*
X353500Y76828D01*
Y71000D01*
X344757D01*
X340000Y66243D01*
Y64282D01*
G02X339376Y63950I-400J0D01*
G03Y57073I-2323J-3439D01*
G02X339996Y56796I224J-331D01*
G01Y53911D01*
G02X339376Y53634I-396J55D01*
G03X336622Y46068I-2323J-3439D01*
G01X336692Y46061D01*
X336881Y45872D01*
X336556Y45547D01*
X308044D01*
X307804Y45787D01*
Y46149D01*
G02X308000Y46310I196J-39D01*
G01X308069Y46298D01*
G03X308314Y54174I1424J3898D01*
G02X307804Y54503I-114J383D01*
G01Y56204D01*
G02X308314Y56533I396J-55D01*
G03X307401Y64096I1179J3979D01*
G01X307271Y64020D01*
X306500Y64791D01*
G03X306384Y64901I-2407J-2407D01*
G01X300341Y70945D01*
G03X300230Y71061I-2517J-2291D01*
G01X298744Y72547D01*
X284427D01*
X273880Y62000D01*
X270956D01*
G02X270772Y62756I0J400D01*
G03X266608I-2082J4038D01*
G02X266424Y62000I-183J-356D01*
G01X260955D01*
G02X260772Y62756I0J400D01*
G03X256608I-2082J4038D01*
G02X256424Y62000I-183J-356D01*
G01X250955D01*
G02X250772Y62756I0J400D01*
G03X246608I-2082J4038D01*
G02X246424Y62000I-183J-356D01*
G01X240955D01*
G02X240772Y62756I0J400D01*
G03X236608I-2082J4038D01*
G02X236424Y62000I-183J-356D01*
G01X230956D01*
G02X230772Y62756I0J400D01*
G03X226608I-2082J4038D01*
G02X226424Y62000I-183J-356D01*
G01X222504D01*
Y62125D01*
X194134D01*
X194009Y62000D01*
X189558D01*
G02X189397Y62766I0J400D01*
G03X185754I-1822J4162D01*
G02X185594Y62000I-160J-366D01*
G01X179558D01*
G02X179397Y62766I0J400D01*
G03X175754I-1822J4162D01*
G02X175594Y62000I-160J-366D01*
G01X169558D01*
G02X169397Y62766I0J400D01*
G03X165754I-1822J4162D01*
G02X165594Y62000I-160J-366D01*
G01X159558D01*
G02X159397Y62766I0J400D01*
G03X155754I-1822J4162D01*
G02X155594Y62000I-160J-366D01*
G01X149558D01*
G02X149397Y62766I0J400D01*
G03X145754I-1822J4162D01*
G02X145594Y62000I-160J-366D01*
G01X138370D01*
X138244Y62125D01*
X128134D01*
X121075Y55066D01*
Y48667D01*
X120996Y48588D01*
Y15744D01*
X120256Y15004D01*
X120010D01*
G02X119684Y15521I55J396D01*
G03X119894Y16889I-4333J1368D01*
G01Y22794D01*
G03X110808I-4543J0D01*
G01Y16889D01*
G03X111018Y15521I4544J0D01*
G02X110692Y15004I-381J-120D01*
G01X109244D01*
X104794Y19454D01*
X104878Y19586D01*
G03X101374Y25960I-3503J2224D01*
G01X91926D01*
G03X88137Y23504I0J-4150D01*
G01X82440D01*
X82409Y23662D01*
G03X73489I-4460J-868D01*
G01X73458Y23500D01*
X71757D01*
X71632Y23375D01*
X67385D01*
X67056Y23047D01*
X44953D01*
X34000Y34000D01*
X26032D01*
G02X25704Y34629I0J400D01*
G03X22864Y35063I-1313J914D01*
G02X22537Y34547I-382J-120D01*
G01X19453D01*
X15500Y38500D01*
Y49614D01*
G02X16180Y49900I400J0D01*
G03X18359Y52243I1120J1143D01*
G02Y52843I265J300D01*
G03X16180Y55186I-1059J1200D01*
G02X15500Y55471I-280J286D01*
G01Y59500D01*
X12000Y63000D01*
Y122743D01*
G02X12613Y123082I400J0D01*
G03Y144766I6803J10842D01*
G02X12000Y145105I-213J339D01*
G01Y367500D01*
X35000Y390500D01*
Y405800D01*
X135107D01*
G02X135497Y405311I0J-400D01*
G03X138225I1364J-311D01*
G02X138615Y405800I390J89D01*
G01X145065D01*
G02X145464Y405422I0J-400D01*
G03X148258I1397J78D01*
G02X148657Y405800I399J-22D01*
G01X155075D01*
G02X155432Y405220I0J-400D01*
G03X158290I1429J-720D01*
G02X158647Y405800I357J180D01*
G01X165303D01*
G02X165649Y405200I0J-400D01*
G03X168073I1212J-700D01*
G02X168419Y405800I346J200D01*
G01X175303D01*
G02X175649Y405200I0J-400D01*
G03X178073I1212J-700D01*
G02X178419Y405800I346J200D01*
G01X185303D01*
G02X185649Y405200I0J-400D01*
G03X188073I1212J-700D01*
G02X188419Y405800I346J200D01*
G01X195303D01*
G02X195649Y405200I0J-400D01*
G03X198073I1212J-700D01*
G02X198419Y405800I346J200D01*
G01X202705D01*
G02X203053Y405203I0J-400D01*
G03X205488I1218J-689D01*
G02X205837Y405800I348J197D01*
G01X287383D01*
G03X290217I1417J743D01*
G01X297734D01*
G03X299750I1008J1243D01*
G01X314268D01*
G02X314595Y405169I0J-400D01*
G03X317205I1305J-926D01*
G02X317532Y405800I326J231D01*
G01X317732D01*
X317785Y405760D01*
G03X319750Y405800I957J1283D01*
G01X327110D01*
G02X327436Y405169I0J-400D01*
G03X330047I1305J-926D01*
G02X330373Y405800I326J231D01*
G01X337734D01*
G03X339750I1008J1243D01*
G01X347734D01*
G03X349750I1008J1243D01*
G01X357734D01*
G03X359750I1008J1243D01*
G01X367734D01*
G03X369750I1008J1243D01*
G01X377792D01*
G03X379808I1008J1243D01*
G01X382292D01*
G03X384308I1008J1243D01*
G01X387792D01*
G03X389808I1008J1243D01*
G01X392792D01*
G03X394808I1008J1243D01*
G01X398292D01*
G03X400308I1008J1243D01*
G01X437734D01*
G03X439750I1008J1243D01*
G01X447734D01*
G03X449750I1008J1243D01*
G01X457734D01*
G03X459750I1008J1243D01*
G01X467734D01*
G03X469750I1008J1243D01*
G01X506900D01*
Y373000D01*
X513200Y366700D01*
X532800D01*
Y357100D01*
X532853Y357047D01*
X532751Y356800D01*
X495200D01*
Y392697D01*
X492397Y395500D01*
X486500D01*
G02X486180Y396140I0J400D01*
G03X486174Y398069I-1280J960D01*
G01X486133Y398190D01*
X486185Y398324D01*
G03X484007Y400655I-1185J1076D01*
G02X483487Y400675I-248J314D01*
G03X481253Y398384I-1087J-1175D01*
G01X481310Y398244D01*
X481265Y398117D01*
G03X481220Y396140I1235J-1017D01*
G02X480900Y395500I-320J-240D01*
G01X479803D01*
X477000Y392697D01*
Y378897D01*
X449003Y350900D01*
X423703D01*
X412100Y339297D01*
Y164103D01*
X446300Y129903D01*
Y114397D01*
X443703Y111800D01*
X430103D01*
X425801Y107498D01*
X425716Y107499D01*
G03X424301Y106084I-16J-1399D01*
G01X424302Y105999D01*
X423400Y105097D01*
Y84703D01*
X425203Y82900D01*
X430397D01*
X435297Y87800D01*
X526997D01*
X531300Y92103D01*
Y108397D01*
X528997Y110700D01*
X528509D01*
Y111002D01*
X528592Y111062D01*
G03X527594Y117664I-2201J3044D01*
G02Y118422I128J379D01*
G03Y125538I-1204J3558D01*
G02Y126296I128J379D01*
G03X525187I-1204J3558D01*
G02Y125538I-128J-379D01*
G03Y118422I1204J-3558D01*
G02Y117664I-128J-379D01*
G03X523796Y111390I1204J-3558D01*
G02X523520Y110700I-276J-289D01*
G01X519997D01*
X519200Y111497D01*
Y145297D01*
X514897Y149600D01*
X482197D01*
X453000Y178797D01*
Y205500D01*
X494000D01*
X506900Y218400D01*
X531000D01*
Y134000D01*
X534500Y130500D01*
Y36000D01*
X532647Y34147D01*
X516456D01*
X510096Y27787D01*
G37*
G36*
G01X526500Y89000D02*
X434800D01*
X429900Y84100D01*
X425700D01*
X424600Y85200D01*
Y95216D01*
G02X425093Y95605I400J0D01*
G03Y98718I371J1557D01*
G02X424600Y99107I-93J389D01*
G01Y101743D01*
G02X425156Y102111I400J0D01*
G03X426714Y102436I544J1289D01*
G02X427279Y102451I290J-276D01*
G03X429640Y103467I962J1018D01*
G01Y106067D01*
G03X428383Y107460I-1400J0D01*
G02X428141Y108141I41J398D01*
G01X430600Y110600D01*
X444200D01*
X447500Y113900D01*
Y130400D01*
X413300Y164600D01*
Y338800D01*
X424200Y349700D01*
X449500D01*
X478200Y378400D01*
Y392200D01*
X480300Y394300D01*
X491900D01*
X494000Y392200D01*
Y357100D01*
X490900Y354000D01*
X480500D01*
X475400Y348900D01*
Y333646D01*
G02X474693Y333390I-400J0D01*
G03Y328074I-3193J-2658D01*
G02X475400Y327818I307J-256D01*
G01Y326600D01*
X473900Y325100D01*
X437800D01*
Y240500D01*
X442300Y236000D01*
X449200D01*
X451800Y233400D01*
Y178300D01*
X481700Y148400D01*
X514400D01*
X518000Y144800D01*
Y111000D01*
X519500Y109500D01*
X523110D01*
G02X523411Y108837I0J-400D01*
G03X529396Y103658I2979J-2605D01*
G02X530100Y103397I304J-260D01*
G01Y92600D01*
X526500Y89000D01*
G37*
G36*
G01X373042Y17590D02*
G02X373400Y18067I392J79D01*
G03X376654Y21613I-305J3546D01*
G01Y25157D01*
G03X373009Y28715I-3559J0D01*
G02X372651Y29312I-10J400D01*
G03X373111Y31062I-3099J1751D01*
G01Y34606D01*
G03X365993I-3559J0D01*
G01Y31062D01*
G03X369638Y27504I3559J0D01*
G02X369996Y26908I10J-400D01*
G03X369536Y25157I3099J-1751D01*
G01Y21613D01*
G03X369605Y20913I3559J0D01*
G02X369247Y20436I-392J-79D01*
G03X365993Y16890I305J-3546D01*
G01Y13346D01*
G03X366224Y12085I3559J0D01*
G02X365850Y11543I-374J-142D01*
G01X364543D01*
X358000Y18086D01*
Y65000D01*
X357500Y65500D01*
Y66743D01*
X355500Y68743D01*
Y76000D01*
X356000Y76500D01*
X360000D01*
X361500Y78000D01*
Y81000D01*
X362000Y81500D01*
X364924D01*
G03X367728Y83037I1365J835D01*
G01X367665Y83165D01*
X368000Y83500D01*
X373500D01*
X374000Y84000D01*
Y93000D01*
X384500D01*
Y96870D01*
G02X385044Y97243I400J0D01*
G03X386947Y98588I504J1305D01*
G02X387347Y99000I400J11D01*
G01X391000D01*
X393500Y101500D01*
X407000D01*
X408000Y100500D01*
Y88500D01*
X407000Y87500D01*
X403500D01*
X401000Y85000D01*
Y77900D01*
X400300Y77200D01*
Y73900D01*
X399900Y73500D01*
X397457D01*
G02X397089Y74056I0J400D01*
G03X396934Y75419I-1289J544D01*
G02X396960Y75682I162J117D01*
G03X394866Y75881I-960J1018D01*
G02X394840Y75618I-162J-117D01*
G03X394994Y73456I960J-1018D01*
G02X395046Y72846I-230J-327D01*
G01X394900Y72700D01*
Y64400D01*
X396300Y63000D01*
X410000D01*
X413000Y60000D01*
Y21000D01*
X403543Y11543D01*
X373254D01*
G02X372880Y12085I0J400D01*
G03X373111Y13346I-3328J1261D01*
G01Y16890D01*
G03X373042Y17590I-3559J0D01*
G37*
G36*
G01X458100Y208600D02*
X454900Y211800D01*
Y234500D01*
X450400Y239000D01*
X443600D01*
X440800Y241800D01*
Y319700D01*
X442100Y321000D01*
X456490D01*
G02X456764Y320309I0J-400D01*
G03X458265Y317219I1236J-1309D01*
G02X458719Y316765I59J-396D01*
G03X461796Y317750I1781J-265D01*
G03X461736Y320309I-1295J1250D01*
G02X462010Y321000I275J291D01*
G01X476500D01*
X478500Y323000D01*
Y326993D01*
G02X479128Y327322I400J0D01*
G03Y334143I2372J3411D01*
G02X478500Y334471I-228J328D01*
G01Y347300D01*
X482100Y350900D01*
X503000D01*
X506100Y354000D01*
X538496D01*
Y221400D01*
X512686D01*
G02X512415Y222095I0J400D01*
G03X505452Y221876I-3608J3925D01*
G02X505483Y221283I-252J-311D01*
G01X492800Y208600D01*
X458100D01*
G37*
G36*
G01X537000Y370600D02*
X515300D01*
X513700Y372200D01*
Y381300D01*
X510000Y385000D01*
Y411443D01*
X530496D01*
G02X538496Y403443I0J-8000D01*
G01Y372096D01*
X537000Y370600D01*
G37*
%LPC*%
G75*
G36*
G01X48949Y5511D02*
G02Y17567I0J6028D01*
G01X51705D01*
G02Y5511I0J-6028D01*
G01X48949D01*
G37*
G36*
G01X73406Y35393D02*
Y41298D01*
G02X82492I4544J0D01*
G01Y35393D01*
G02X73406I-4544J0D01*
G37*
G36*
G01X110808D02*
Y41298D01*
G02X119894I4543J0D01*
G01Y35393D01*
G02X110808I-4543J0D01*
G37*
G36*
G01X48949Y35571D02*
X51705D01*
G02Y24515I0J-5528D01*
G01X48949D01*
G02Y35571I0J5528D01*
G37*
G36*
G01Y54075D02*
X51705D01*
G02Y43019I0J-5528D01*
G01X48949D01*
G02Y54075I0J5528D01*
G37*
G36*
G01X434559Y389300D02*
G03Y388700I265J-300D01*
G02X432441I-1059J-1200D01*
G03Y389300I-265J300D01*
G02X434559I1059J1200D01*
G37*
G36*
G01X228360Y383827D02*
G03X228088I-136J-147D01*
G02Y386173I-1088J1173D01*
G03X228360I136J147D01*
G02Y383827I1088J-1173D01*
G37*
G36*
G01X306830Y379033D02*
G03X306630Y378433I132J-377D01*
G02X304770Y379053I-1330J-890D01*
G03X304970Y379653I-132J377D01*
G02X306830Y379033I1330J890D01*
G37*
G36*
G01X334981Y375163D02*
G03Y374623I295J-270D01*
G02X332619I-1181J-1080D01*
G03Y375163I-295J270D01*
G02X334981I1181J1080D01*
G37*
G36*
G01X433559Y374800D02*
G03Y374200I265J-300D01*
G02X431441I-1059J-1200D01*
G03Y374800I-265J300D01*
G02X433559I1059J1200D01*
G37*
G36*
G01X423652Y373389D02*
G03Y373111I144J-139D01*
G02X421348I-1152J-1111D01*
G03Y373389I-144J139D01*
G02X423652I1152J1111D01*
G37*
G36*
G01X510089Y358748D02*
G03X509811I-139J-144D01*
G02X507561Y361024I-1111J1152D01*
G03X507581Y361564I-285J281D01*
G02X509916Y363746I1219J1036D01*
G03X510183Y363735I139J143D01*
G02X512416Y361460I1017J-1235D01*
G03Y360940I304J-260D01*
G02X510089Y358748I-1216J-1040D01*
G37*
G36*
G01X231943Y340223D02*
G03Y339663I286J-280D01*
G02X229657I-1143J-1120D01*
G03Y340223I-286J280D01*
G02X231943I1143J1120D01*
G37*
G36*
G01X150475Y318379D02*
G02X148000Y317751I-1475J621D01*
G02X145751Y320000I-1000J1249D01*
G02Y322000I1249J1000D01*
G02X148000Y324249I1249J1000D01*
G02X150171Y324090I1000J-1249D01*
G03X150775Y324111I293J273D01*
G02X151121Y318511I3225J-2611D01*
G03X150475Y318379I-277J-288D01*
G37*
G36*
G01X394389Y313848D02*
G03X394111I-139J-144D01*
G02X391848Y316111I-1111J1151D01*
G03Y316389I-144J139D01*
G02X394111Y318652I1152J1111D01*
G03X394389I139J144D01*
G02X396652Y316389I1111J-1151D01*
G03Y316111I144J-139D01*
G02X394389Y313848I-1151J-1111D01*
G37*
G36*
G01X156389D02*
G03X156111I-139J-144D01*
G02X153889I-1111J1151D01*
G03X153611I-139J-144D01*
G02Y316152I-1111J1151D01*
G03X153889I139J144D01*
G02X156111I1111J-1152D01*
G03X156389I139J144D01*
G02X158940Y315699I1111J-1152D01*
G03X159440Y315499I360J175D01*
G02X158560Y313301I560J-1499D01*
G03X158060Y313501I-360J-175D01*
G02X156389Y313848I-560J1499D01*
G37*
G36*
G01X182611Y317152D02*
G03X182889I139J144D01*
G02X185129Y314866I1111J-1152D01*
G02X182911Y312559I-1129J-1134D01*
G03X182639I-136J-147D01*
G02X180396Y314841I-1089J1173D01*
G02X182611Y317152I1103J1159D01*
G37*
G36*
G01X170559Y311800D02*
G03Y311200I265J-300D01*
G02X168441I-1059J-1200D01*
G03Y311800I-265J300D01*
G02X170559I1059J1200D01*
G37*
G36*
G01X228189Y287891D02*
G03X227911I-139J-144D01*
G02Y290194I-1111J1151D01*
G03X228189I139J144D01*
G02X230500Y290102I1111J-1152D01*
G03X231100I300J265D01*
G02Y287984I1200J-1059D01*
G03X230500I-300J-265D01*
G02X228189Y287891I-1200J1059D01*
G37*
G36*
G01X405889Y287849D02*
G03X405611I-139J-144D01*
G02X403349Y290111I-1111J1151D01*
G03Y290389I-144J139D01*
G02X405611Y292652I1151J1111D01*
G03X405889I139J144D01*
G02X408151Y290389I1111J-1151D01*
G03Y290111I144J-139D01*
G02X405889Y287849I-1151J-1111D01*
G37*
G36*
G01X228100Y281984D02*
G03X227500I-300J-265D01*
G02Y284102I-1200J1059D01*
G03X228100I300J265D01*
G02Y281984I1200J-1059D01*
G37*
G36*
G01Y277984D02*
G03X227500I-300J-265D01*
G02Y280102I-1200J1059D01*
G03X228100I300J265D01*
G02Y277984I1200J-1059D01*
G37*
G36*
G01X394889Y276848D02*
G03X394611I-139J-144D01*
G02X392349Y279111I-1111J1152D01*
G03Y279389I-144J139D01*
G02X394611Y281652I1151J1111D01*
G03X394889I139J144D01*
G02X397152Y279389I1111J-1151D01*
G03Y279111I144J-139D01*
G02X394889Y276848I-1152J-1111D01*
G37*
G36*
G01X218389Y273349D02*
G03X218111I-139J-144D01*
G02X215849Y275611I-1111J1151D01*
G03Y275889I-144J139D01*
G02X218111Y278152I1151J1111D01*
G03X218389I139J144D01*
G02X220652Y275889I1111J-1151D01*
G03Y275611I144J-139D01*
G02X218389Y273349I-1152J-1111D01*
G37*
G36*
G01X408389Y271848D02*
G03X408111I-139J-144D01*
G02Y274152I-1111J1151D01*
G03X408389I139J144D01*
G02Y271848I1111J-1152D01*
G37*
G36*
G01X156800Y268441D02*
G03X156200I-300J-265D01*
G02Y270559I-1200J1059D01*
G03X156800I300J265D01*
G02X159200I1200J-1059D01*
G03X159800I300J265D01*
G02Y268441I1200J-1059D01*
G03X159200I-300J-265D01*
G02X156800I-1200J1059D01*
G37*
G36*
G01X170414Y268394D02*
G03X170454Y267785I278J-287D01*
G02X168386Y267649I-954J-1285D01*
G03X168346Y268258I-278J287D01*
G02X170414Y268394I954J1285D01*
G37*
G36*
G01X219900Y264162D02*
G02Y261838I1100J-1162D01*
G02Y264162I-1100J1162D01*
G37*
G36*
G01X157589Y258397D02*
G03X157054Y258120I-146J-372D01*
G02X156219Y259929I-1554J380D01*
G03X156777Y260156I180J357D01*
G02X157589Y258397I1323J-456D01*
G37*
G36*
G01X198859Y233843D02*
G03Y233243I265J-300D01*
G02X196741I-1059J-1200D01*
G03Y233843I-265J300D01*
G02X198859I1059J1200D01*
G37*
G36*
G01X149821Y229627D02*
G02X148000Y229751I-821J1373D01*
G02X145751Y232000I-1000J1249D01*
G02Y234000I1249J1000D01*
G02X148000Y236249I1249J1000D01*
G02X150599Y234936I1000J-1249D01*
G03X151262Y234619I400J-16D01*
G02X150376Y229478I2738J-3119D01*
G03X149821Y229627I-349J-195D01*
G37*
G36*
G01X181111Y228151D02*
G03X181389I139J144D01*
G02X183629Y225866I1111J-1152D01*
G02X181411Y223559I-1129J-1134D01*
G03X181139I-136J-147D01*
G02X178896Y225841I-1089J1173D01*
G02X181111Y228151I1103J1159D01*
G37*
G36*
G01X73611Y225152D02*
G03X73889I139J144D01*
G02Y222848I1111J-1151D01*
G03X73611I-139J-144D01*
G02Y225152I-1111J1152D01*
G37*
G36*
G01X337602Y223159D02*
G03X337090Y222820I-114J-383D01*
G02X336090Y224488I-1590J180D01*
G03X336629Y224780I147J372D01*
G02X337602Y223159I1371J-279D01*
G37*
G36*
G01X86111Y220652D02*
G03X86389I139J144D01*
G02X88652Y218389I1111J-1152D01*
G03Y218111I144J-139D01*
G02X86389Y215849I-1152J-1111D01*
G03X86111I-139J-144D01*
G02X83848Y218111I-1111J1151D01*
G03Y218389I-144J139D01*
G02X86111Y220652I1151J1111D01*
G37*
G36*
G01X352150Y209836D02*
G03X352170Y209216I262J-302D01*
G02X350150Y209150I-970J-1273D01*
G03X350130Y209770I-262J302D01*
G02X352150Y209836I970J1273D01*
G37*
G36*
G01X218583Y206504D02*
G03X217948Y206468I-304J-260D01*
G02X217841Y208407I-1324J899D01*
G03X218476Y208442I304J260D01*
G02X218583Y206504I1324J-899D01*
G37*
G36*
G01X134359Y205343D02*
G03Y204743I265J-300D01*
G02X132241I-1059J-1200D01*
G03Y205343I-265J300D01*
G02X134359I1059J1200D01*
G37*
G36*
G01Y194843D02*
G03Y194243I265J-300D01*
G02X132241I-1059J-1200D01*
G03Y194843I-265J300D01*
G02X134359I1059J1200D01*
G37*
G36*
G01X459005Y186643D02*
G03X458994Y186365I138J-145D01*
G02X456695Y186457I-1194J-1065D01*
G03X456706Y186735I-138J145D01*
G02X456684Y188840I1194J1065D01*
G03Y189360I-304J260D01*
G02X456725Y191487I1216J1040D01*
G03X456745Y192007I-294J272D01*
G02X459175Y191913I1255J993D01*
G03X459155Y191393I294J-272D01*
G02X459116Y189360I-1255J-993D01*
G03Y188840I304J-260D01*
G02X459005Y186643I-1216J-1040D01*
G37*
G36*
G01X156300Y179941D02*
G03X155700I-300J-265D01*
G02Y182059I-1200J1059D01*
G03X156300I300J265D01*
G02X158700I1200J-1059D01*
G03X159300I300J265D01*
G02Y179941I1200J-1059D01*
G03X158700I-300J-265D01*
G02X156300I-1200J1059D01*
G37*
G36*
G01X179251Y182500D02*
G02X181500Y184749I1249J1000D01*
G02X183749Y182500I1000J-1249D01*
G02Y180500I-1249J-1000D01*
G02X181500Y178251I-1249J-1000D01*
G02X181279Y178102I-1000J1249D01*
G03X181224Y177799I97J-175D01*
G02X179067Y178068I-1224J-1031D01*
G03X179167Y178614I-233J325D01*
G02X179251Y180500I1333J886D01*
G02Y182500I1249J1000D01*
G37*
G36*
G01X286100Y169484D02*
G03X285500I-300J-265D01*
G02Y171602I-1200J1059D01*
G03X286100I300J265D01*
G02Y169484I1200J-1059D01*
G37*
G36*
G01X192950Y167575D02*
G03X192350I-300J-264D01*
G02Y169425I-1050J925D01*
G03X192950I300J264D01*
G02Y167575I1050J-925D01*
G37*
G36*
G01X277625Y170172D02*
G03X277525Y169572I206J-343D01*
G02X275475Y169914I-1225J-1029D01*
G03X275575Y170514I-206J343D01*
G02X277625Y170172I1225J1029D01*
G37*
G36*
G01X164189Y166391D02*
G03X163911I-139J-144D01*
G02Y168694I-1111J1151D01*
G03X164189I139J144D01*
G02X166500Y168602I1111J-1152D01*
G03X167100I300J265D01*
G02X169411Y168694I1200J-1059D01*
G03X169689I139J144D01*
G02Y166391I1111J-1151D01*
G03X169411I-139J-144D01*
G02X167100Y166484I-1111J1152D01*
G03X166500I-300J-265D01*
G02X164189Y166391I-1200J1059D01*
G37*
G36*
G01X245889Y165848D02*
G03X245611I-139J-144D01*
G02Y168152I-1111J1151D01*
G03X245889I139J144D01*
G02X247999Y168250I1111J-1152D01*
G03X248255Y168255I125J156D01*
G02X250399Y168206I1045J-1212D01*
G03X250939Y168198I275J291D01*
G02X250901Y165837I1061J-1198D01*
G03X250361Y165845I-275J-291D01*
G02X248301Y165793I-1061J1198D01*
G03X248045Y165788I-125J-156D01*
G02X245889Y165848I-1045J1212D01*
G37*
G36*
G01X361156Y164253D02*
X358556D01*
G02X357890Y164422I0J1400D01*
G03X357389Y164321I-190J-352D01*
G02X356965Y166431I-1089J879D01*
G03X357466Y166532I190J352D01*
G02X358556Y167053I1090J-879D01*
G01X361156D01*
G02X362248Y166527I-2J-1400D01*
G03X362529Y166495I156J125D01*
G02X362307Y164526I871J-1095D01*
G03X362026Y164558I-156J-125D01*
G02X361156Y164253I-872J1095D01*
G37*
G36*
G01X354259Y160000D02*
G03Y159400I265J-300D01*
G02X352141I-1059J-1200D01*
G03Y160000I-265J300D01*
G02X354259I1059J1200D01*
G37*
G36*
G01X165300Y153941D02*
G03X164700I-300J-265D01*
G02Y156059I-1200J1059D01*
G03X165300I300J265D01*
G02X167700I1200J-1059D01*
G03X168300I300J265D01*
G02Y153941I1200J-1059D01*
G03X167700I-300J-265D01*
G02X165300I-1200J1059D01*
G37*
G36*
G01X214575Y155607D02*
G03X214305Y155086I106J-386D01*
G02X212375Y156086I-1505J-543D01*
G03X212645Y156607I-106J386D01*
G02X214272Y158746I1505J543D01*
G03X214702Y159124I30J399D01*
G02X216178Y157447I1598J-81D01*
G03X215748Y157069I-30J-399D01*
G02X214575Y155607I-1598J81D01*
G37*
G36*
G01X246389Y153348D02*
G03X246111I-139J-144D01*
G02Y155652I-1111J1151D01*
G03X246389I139J144D01*
G02X247901Y156049I1111J-1152D01*
G03X248401Y156449I100J387D01*
G02X251249Y155500I1599J51D01*
G02X248889Y153348I-1249J-1000D01*
G03X248611I-139J-144D01*
G02X246389I-1111J1151D01*
G37*
G36*
G01X484152Y154389D02*
G03Y154111I144J-139D01*
G02X481848I-1152J-1111D01*
G03Y154389I-144J139D01*
G02X484152I1152J1111D01*
G37*
G36*
G01X224100Y148984D02*
G03X223500I-300J-265D01*
G02Y151102I-1200J1059D01*
G03X224100I300J265D01*
G02Y148984I1200J-1059D01*
G37*
G36*
G01X353331Y148778D02*
G03Y148522I154J-128D01*
G02X350869I-1231J-1022D01*
G03Y148778I-154J128D01*
G02X353331I1231J1022D01*
G37*
G36*
G01X232842Y141113D02*
G03X233150Y140614I385J-107D01*
G02X231302Y139472I-306J-1571D01*
G03X230993Y139972I-385J107D01*
G02X232842Y141113I306J1571D01*
G37*
G36*
G01X396906Y137573D02*
G02X396678Y134487I294J-1573D01*
G02X393966Y136119I-1478J613D01*
G02X396681Y137703I1205J1052D01*
G03X396906Y137573I189J66D01*
G37*
G36*
G01X62200Y128784D02*
G03X61600I-300J-265D01*
G02X59341Y131043I-1200J1059D01*
G03Y131643I-265J300D01*
G02Y134043I1059J1200D01*
G03Y134643I-265J300D01*
G02Y137043I1059J1200D01*
G03Y137643I-265J300D01*
G02X61600Y139902I1059J1200D01*
G03X62200I300J265D01*
G02X64459Y137643I1200J-1059D01*
G03Y137043I265J-300D01*
G02Y134643I-1059J-1200D01*
G03Y134043I265J-300D01*
G02Y131643I-1059J-1200D01*
G03Y131043I265J-300D01*
G02X62200Y128784I-1059J-1200D01*
G37*
G36*
G01X373902Y129143D02*
X371552D01*
G02X371166Y129190I0J1600D01*
G03X370928Y129059I-48J-194D01*
G02X369763Y130890I-1328J441D01*
G03X369982Y131050I23J199D01*
G02X371553Y132343I1571J-307D01*
G01X374553D01*
G02X376121Y130328I23J-1600D01*
G03X376238Y130092I193J-52D01*
G02X374302Y128755I-537J-1292D01*
G03X373902Y129143I-400J-13D01*
G37*
G36*
G01X381394Y126618D02*
G02X379816Y127887I-1394J-118D01*
G03X380162Y128321I-53J397D01*
G02X381556Y129852I1394J131D01*
G01X384156D01*
G02X384623Y129771I-2J-1400D01*
G03X385130Y130004I134J377D01*
G02X387802Y129198I1305J-504D01*
G03X388192Y128712I391J-86D01*
G01X389986D01*
G02X390228Y128691I-2J-1400D01*
G03X390677Y128955I70J394D01*
G02X391756Y127122I1323J-455D01*
G03X391308Y126858I-70J-394D01*
G02X389986Y125912I-1325J454D01*
G01X387386D01*
G02X386054Y127746I0J1400D01*
G03X385843Y128232I-380J124D01*
G02X385800Y128253I594J1267D01*
G03X385515Y128122I-91J-178D01*
G02X384156Y127051I-1361J329D01*
G01X381793D01*
G03X381394Y126618I0J-400D01*
G37*
G36*
G01X363863Y123075D02*
G03X363339Y123063I-255J-308D01*
G02X363292Y125178I-939J1037D01*
G03X363815Y125190I255J308D01*
G02X364756Y125553I941J-1037D01*
G01X367356D01*
G02X368328Y125159I-2J-1400D01*
G03X368872Y125147I278J287D01*
G02X368827Y123094I928J-1047D01*
G03X368284Y123106I-278J-288D01*
G02X367356Y122753I-929J1047D01*
G01X364756D01*
G02X363863Y123075I0J1400D01*
G37*
G36*
G01X299992Y117245D02*
G03X299952Y116653I248J-314D01*
G02X297808Y116798I-1152J-1110D01*
G03X297848Y117390I-248J314D01*
G02X299992Y117245I1152J1110D01*
G37*
G36*
G01X155773Y116150D02*
G02X157827I1027J950D01*
G02X155773I-1027J-950D01*
G37*
G36*
G01X246192Y114525D02*
G03Y114275I156J-125D01*
G02X244008I-1092J-875D01*
G03Y114525I-156J125D01*
G02X246192I1092J875D01*
G37*
G36*
G01X332240Y111064D02*
G03X332229Y110541I297J-268D01*
G02X330110Y110586I-1079J-891D01*
G03X330121Y111109I-297J268D01*
G02X330238Y113016I1079J891D01*
G03X330215Y113616I-275J290D01*
G02X332062Y113684I885J1084D01*
G03X332085Y113084I275J-290D01*
G02X332240Y111064I-885J-1084D01*
G37*
G36*
G01X327925Y106850D02*
G03Y106250I264J-300D01*
G02X326075I-925J-1050D01*
G03Y106850I-264J300D01*
G02X327925I925J1050D01*
G37*
G36*
G01X333467Y102610D02*
X336067D01*
G02X336892Y102341I0J-1400D01*
G03X337433Y102405I236J323D01*
G02X337676Y100369I1067J-905D01*
G03X337135Y100305I-236J-323D01*
G02X336067Y99810I-1068J905D01*
G01X333467D01*
G02X332390Y100317I2J1400D01*
G03X331841Y100382I-308J-255D01*
G02X332078Y102392I-841J1118D01*
G03X332626Y102328I308J255D01*
G02X333467Y102610I843J-1118D01*
G37*
G36*
G01X343767Y99826D02*
G03X343327Y99557I-60J-395D01*
G02X342210Y101383I-1327J443D01*
G03X342650Y101652I60J395D01*
G02X343976Y102610I1328J-443D01*
G01X346576D01*
G02X347943Y101514I0J-1400D01*
G03X348183Y101363I195J43D01*
G02X347134Y99695I317J-1363D01*
G03X346894Y99846I-195J-44D01*
G02X346576Y99810I-318J1364D01*
G01X343976D01*
G02X343767Y99826I2J1400D01*
G37*
G36*
G01X322389Y98848D02*
G03X322111I-139J-144D01*
G02Y101152I-1111J1151D01*
G03X322389I139J144D01*
G02X324611I1111J-1151D01*
G03X324889I139J144D01*
G02Y98848I1111J-1151D01*
G03X324611I-139J-144D01*
G02X322389I-1111J1151D01*
G37*
G36*
G01X288152Y93389D02*
G03Y93111I144J-139D01*
G02X285849I-1151J-1111D01*
G03Y93389I-144J139D01*
G02Y95611I1151J1111D01*
G03Y95889I-144J139D01*
G02X288152I1151J1111D01*
G03Y95611I144J-139D01*
G02Y93389I-1151J-1111D01*
G37*
G36*
G01X323389Y86848D02*
G03X323111I-139J-144D01*
G02Y89152I-1111J1151D01*
G03X323389I139J144D01*
G02Y86848I1111J-1152D01*
G37*
G36*
G01X290889D02*
G03X290611I-139J-144D01*
G02Y89152I-1111J1151D01*
G03X290889I139J144D01*
G02Y86848I1111J-1152D01*
G37*
G36*
G01X328152Y82889D02*
G03Y82611I144J-139D01*
G02X325849I-1151J-1111D01*
G03Y82889I-144J139D01*
G02X328152I1151J1111D01*
G37*
G36*
G01X356530Y82490D02*
G03X356330Y81890I132J-377D01*
G02X354470Y82510I-1330J-890D01*
G03X354670Y83110I-132J377D01*
G02X356530Y82490I1330J890D01*
G37*
G36*
G01X289152Y81889D02*
G03Y81611I144J-139D01*
G02X286848I-1152J-1111D01*
G03Y81889I-144J139D01*
G02X289152I1151J1111D01*
G37*
G36*
G01X425811Y79591D02*
G03X426351Y79531I302J262D01*
G02X426091Y77195I949J-1288D01*
G03X425551Y77255I-302J-262D01*
G02X425811Y79591I-949J1288D01*
G37*
G36*
G01X313412Y74198D02*
G03X313245Y74420I-198J25D01*
G02X314611Y77152I255J1580D01*
G03X314889I139J144D01*
G02X316524Y74488I1111J-1152D01*
G02X313412Y74198I-1524J-488D01*
G37*
G36*
G01X323619Y58432D02*
G03X322927I-346J-201D01*
G02Y62592I-3591J2080D01*
G03X323619I346J201D01*
G02Y58432I3591J-2080D01*
G37*
G36*
G01X27100Y51484D02*
G03X26500I-300J-265D01*
G02X24241Y53743I-1200J1059D01*
G03Y54343I-265J300D01*
G02X26500Y56602I1059J1200D01*
G03X27100I300J265D01*
G02X29500I1200J-1059D01*
G03X30100I300J265D01*
G02X32500I1200J-1059D01*
G03X33100I300J265D01*
G02X35500I1200J-1059D01*
G03X36100I300J265D01*
G02X38359Y54343I1200J-1059D01*
G03Y53743I265J-300D01*
G02X36100Y51484I-1059J-1200D01*
G03X35500I-300J-265D01*
G02X33100I-1200J1059D01*
G03X32500I-300J-265D01*
G02X30100I-1200J1059D01*
G03X29500I-300J-265D01*
G02X27100I-1200J1059D01*
G37*
G36*
G01X492634Y49803D02*
G02X487861Y48148I-2673J0D01*
G03X487240Y48157I-314J-248D01*
G02Y51843I-2201J1843D01*
G03X487861Y51852I307J257D01*
G02X492634Y50197I2100J-1655D01*
G01Y49803D01*
G37*
G36*
G01X323619Y48116D02*
G03X322927I-346J-201D01*
G02Y52276I-3591J2080D01*
G03X323619I346J201D01*
G02Y48116I3591J-2080D01*
G37*
G36*
G01X30785Y43788D02*
G03X31285Y43558I371J149D01*
G02X30315Y41447I515J-1515D01*
G03X29815Y41677I-371J-149D01*
G02X30785Y43788I-515J1515D01*
G37*
G36*
G01X438058Y35609D02*
G02X438430Y35646I339J-1564D01*
G02X438463Y35646I31J-1600D01*
G01X441463D01*
G02X442009Y35558I23J-1600D01*
G03X442512Y35789I131J378D01*
G02X443477Y33688I1488J-589D01*
G03X442974Y33457I-131J-378D01*
G02X441463Y32446I-1488J589D01*
G01Y32445D01*
X438463D01*
G02X438430Y32446I-1J1600D01*
G02X436899Y33485I-32J1600D01*
G03X436439Y33736I-375J-140D01*
G02X437599Y35860I-339J1564D01*
G03X438058Y35609I375J140D01*
G37*
G36*
G01X438012Y18311D02*
X440439D01*
G02X442018Y17085I23J-1600D01*
G03X442465Y16783I389J94D01*
G02X442477Y16785I244J-1582D01*
G03X442632Y17062I-28J198D01*
G02X444514Y16154I1468J638D01*
G03X444234Y15654I104J-386D01*
G02X441144Y14826I-1534J-454D01*
G03X440697Y15128I-389J-94D01*
G02X440439Y15111I-234J1583D01*
G01X437439Y15111D01*
G02X437407Y15111I-1J1600D01*
G02X435870Y17257I-32J1600D01*
G03X435615Y17775I-376J137D01*
G02X437629Y18829I485J1525D01*
G03X438012Y18311I382J-118D01*
G37*
G36*
G01X181851Y392355D02*
G02X180389Y392479I-851J-1355D01*
G03X180449Y393188I-153J370D01*
G02X181911Y393064I851J1355D01*
G03X181851Y392355I153J-370D01*
G37*
G36*
G01X324241Y388337D02*
G02X322759Y388549I-941J-1294D01*
G03X322859Y389249I-135J376D01*
G02X324341Y389037I941J1294D01*
G03X324241Y388337I135J-376D01*
G37*
G36*
G01X183678Y377744D02*
G02X183656Y379289I-1178J756D01*
G03X184322Y379299I330J226D01*
G02X184344Y377754I1178J-756D01*
G03X183678Y377744I-330J-226D01*
G37*
G36*
G01X149830Y379389D02*
G02X148615Y378200I171J-1389D01*
G03X148170Y378654I-396J57D01*
G02X149385Y379843I-171J1389D01*
G03X149830Y379389I396J-57D01*
G37*
G36*
G01X212861Y371433D02*
G02X211317Y371367I-712J-1433D01*
G03X211288Y372067I-208J342D01*
G02X212832Y372133I712J1433D01*
G03X212861Y371433I208J-342D01*
G37*
G36*
G01X117075Y366443D02*
G02X115525I-775J-1400D01*
G03Y367143I-194J350D01*
G02Y369943I775J1400D01*
G03Y370643I-194J350D01*
G02X114744Y372415I775J1400D01*
G03X114343Y372908I-389J93D01*
G02X110184Y374615I-161J5525D01*
G03X109556Y374551I-289J-276D01*
G02X108316Y376996I-1356J849D01*
G03X108739Y377465I29J399D01*
G02X108829Y379814I5442J968D01*
G03X108393Y380312I-387J100D01*
G02X109674Y382522I-193J1588D01*
G03X110322Y382391I369J155D01*
G02X117353Y373906I3859J-3958D01*
G03X117326Y373271I229J-328D01*
G02X117075Y370643I-1026J-1228D01*
G03Y369943I194J-350D01*
G02Y367143I-775J-1400D01*
G03Y366443I194J-350D01*
G37*
G36*
G01X111075Y366243D02*
G02X109525I-775J-1400D01*
G03Y366943I-194J350D01*
G02Y369743I775J1400D01*
G03Y370443I-194J350D01*
G02X111075I775J1400D01*
G03Y369743I194J-350D01*
G02Y366943I-775J-1400D01*
G03Y366243I194J-350D01*
G37*
G36*
G01X95575Y365943D02*
G02X94025I-775J-1400D01*
G03Y366643I-194J350D01*
G02Y369443I775J1400D01*
G03Y370143I-194J350D01*
G02X93444Y372392I775J1400D01*
G03X93177Y372997I-339J212D01*
G02X97904Y382519I1004J5436D01*
G03X98539Y382652I269J296D01*
G02X99918Y380402I1461J-652D01*
G03X99512Y379897I-20J-399D01*
G02X99554Y377131I-5331J-1464D01*
G03X99974Y376638I389J-94D01*
G02X100875Y373643I126J-1595D01*
G03Y372943I194J-350D01*
G02Y370143I-775J-1400D01*
G03Y369443I194J-350D01*
G02Y366643I-775J-1400D01*
G03Y365943I194J-350D01*
G02X99325I-775J-1400D01*
G03Y366643I-194J350D01*
G02Y369443I775J1400D01*
G03Y370143I-194J350D01*
G02Y372943I775J1400D01*
G03Y373643I-194J350D01*
G02X98660Y374345I775J1400D01*
G03X98022Y374458I-360J-175D01*
G02X96138Y373263I-3841J3975D01*
G03X95984Y372620I142J-374D01*
G02X95575Y370143I-1184J-1077D01*
G03Y369443I194J-350D01*
G02Y366643I-775J-1400D01*
G03Y365943I194J-350D01*
G37*
G36*
G01X168659Y360109D02*
G02X167702Y358727I641J-1466D01*
G03X167169Y359124I-399J21D01*
G02X166196Y359138I-469J1318D01*
G03X165655Y358820I-144J-373D01*
G02X164771Y360482I-1585J223D01*
G03X165336Y360753I175J360D01*
G02X168099Y360468I1364J-310D01*
G03X168659Y360109I400J7D01*
G37*
G36*
G01X114575Y354443D02*
G02X113025I-775J-1400D01*
G03Y355143I-194J350D01*
G02Y357943I775J1400D01*
G03Y358643I-194J350D01*
G02X114575I775J1400D01*
G03Y357943I194J-350D01*
G02Y355143I-775J-1400D01*
G03Y354443I194J-350D01*
G37*
G36*
G01X95575D02*
G02X94025I-775J-1400D01*
G03Y355143I-194J350D01*
G02Y357943I775J1400D01*
G03Y358643I-194J350D01*
G02X95575I775J1400D01*
G03Y357943I194J-350D01*
G02Y355143I-775J-1400D01*
G03Y354443I194J-350D01*
G37*
G36*
G01X305849Y350444D02*
G02X302702Y349970I-1549J-401D01*
G03X302339Y350350I-400J-18D01*
G02X301089Y351168I150J1593D01*
G03X300389I-350J-194D01*
G02Y352718I-1400J775D01*
G03X301089I350J194D01*
G02X304088Y352016I1400J-775D01*
G03X304450Y351636I400J18D01*
G02X304617Y351611I-150J-1593D01*
G03X304840Y351889I40J196D01*
G02X307899Y352595I1461J654D01*
G03X308537Y352286I400J13D01*
G02X307890Y350948I952J-1286D01*
G03X307252Y351257I-400J-13D01*
G02X306249Y350944I-952J1286D01*
G03X305849Y350444I-13J-400D01*
G37*
G36*
G01X334743Y342186D02*
G02X333249Y342180I-743J-1186D01*
G03X333246Y342857I-215J337D01*
G02X334740Y342862I743J1186D01*
G03X334743Y342186I215J-337D01*
G37*
G36*
G01X134075Y341943D02*
G02X132525I-775J-1400D01*
G03Y342643I-194J350D01*
G02X134075I775J1400D01*
G03Y341943I194J-350D01*
G37*
G36*
G01X154074Y341443D02*
G02X152525I-775J-1400D01*
G03Y342143I-194J350D01*
G02X154074I775J1400D01*
G03Y341443I194J-350D01*
G37*
G36*
G01X51282Y333515D02*
G02X51066Y334919I-1525J485D01*
G03X51775Y335028I327J230D01*
G02X54539Y335555I1525J-485D01*
G03X55159I310J253D01*
G02Y333531I1239J-1012D01*
G03X54539I-310J-253D01*
G02X51990Y333624I-1239J1012D01*
G03X51282Y333515I-327J-230D01*
G37*
G36*
G01X323060Y334938D02*
G02X321510Y334948I-785J-1395D01*
G03X321515Y335648I-191J351D01*
G02X323065Y335638I785J1395D01*
G03X323060Y334938I191J-351D01*
G37*
G36*
G01X134075Y332443D02*
G02X132525I-775J-1400D01*
G03Y333143I-194J350D01*
G02X134075I775J1400D01*
G03Y332443I194J-350D01*
G37*
G36*
G01X154074Y331943D02*
G02X152525I-775J-1400D01*
G03Y332643I-194J350D01*
G02X154074I775J1400D01*
G03Y331943I194J-350D01*
G37*
G36*
G01X47085Y313851D02*
X43285D01*
G02X41986Y314517I0J1600D01*
G03X41350Y314535I-325J-234D01*
G02X41406Y316477I-1243J1008D01*
G03X42042Y316459I325J234D01*
G02X43285Y317052I1243J-1008D01*
G01X47061D01*
G02X48337Y316432I12J-1600D01*
G03X48982Y316451I316J245D01*
G02X49036Y314562I1318J-908D01*
G03X48390Y314544I-316J-245D01*
G02X47085Y313851I-1318J908D01*
G37*
G36*
G01X352851Y300110D02*
G02X351149I-851J-1110D01*
G03Y300745I-243J317D01*
G02X352851I851J1110D01*
G03Y300110I243J-317D01*
G37*
G36*
G01X222228Y297195D02*
G02X222173Y298741I-1427J723D01*
G03X222872Y298766I343J206D01*
G02X222927Y297220I1427J-723D01*
G03X222228Y297195I-343J-206D01*
G37*
G36*
G01X134075Y293943D02*
G02X132525I-775J-1400D01*
G03Y294643I-194J350D01*
G02X134075I775J1400D01*
G03Y293943I194J-350D01*
G37*
G36*
G01X198841Y289549D02*
G02X197359Y289337I-541J-1506D01*
G03X197259Y290037I-235J323D01*
G02X198741Y290249I541J1506D01*
G03X198841Y289549I235J-323D01*
G37*
G36*
G01X79623Y286373D02*
G02X78056Y285392I-91J-1598D01*
G03X77709Y285945I-369J154D01*
G02X79277Y286926I91J1598D01*
G03X79623Y286373I369J-154D01*
G37*
G36*
G01X134075Y283943D02*
G02X132525I-775J-1400D01*
G03Y284643I-194J350D01*
G02X134075I775J1400D01*
G03Y283943I194J-350D01*
G37*
G36*
G01X284349Y274944D02*
G02X282851Y276142I-1549J-401D01*
G03X283251Y276642I13J400D01*
G02X284749Y275444I1549J401D01*
G03X284349Y274944I-13J-400D01*
G37*
G36*
G01X154535Y280115D02*
G02X150963Y273172I-535J-4115D01*
G03X150336Y273120I-293J-273D01*
G02X148000Y272751I-1336J880D01*
G02X145751Y275000I-1000J1249D01*
G02Y277000I1249J1000D01*
G02X148000Y279249I1249J1000D01*
G02X150336Y278880I1000J-1249D01*
G03X150963Y278828I334J220D01*
G02X152538Y279884I3037J-2828D01*
G03X152577Y280615I-141J374D01*
G02X152525Y283443I722J1428D01*
G03X152525Y284143I-194J350D01*
G02X154075Y284143I775J1400D01*
G03X154075Y283443I194J-350D01*
G02X154329Y280818I-775J-1400D01*
G03X154535Y280115I257J-306D01*
G37*
G36*
G01X277858Y273243D02*
G02X275741Y273243I-1058J-1200D01*
G03Y273843I-265J300D01*
G02X276025Y276443I1058J1200D01*
G03X276025Y277143I-194J350D01*
G02X277575Y277143I775J1400D01*
G03X277575Y276443I194J-350D01*
G02X277858Y273843I-775J-1400D01*
G03Y273243I265J-300D01*
G37*
G36*
G01X72575Y269443D02*
G02X71025Y269443I-775J-1400D01*
G03Y270143I-194J350D01*
G02X72575Y270143I775J1400D01*
G03Y269443I194J-350D01*
G37*
G36*
G01X180325Y266997D02*
G02X178875Y267311I-1025J-1229D01*
G03X179025Y268003I-106J386D01*
G02X178896Y270341I1025J1229D01*
G02X181111Y272652I1103J1159D01*
G03X181389I139J144D01*
G02X183629Y270366I1111J-1152D01*
G02X181411Y268059I-1129J-1134D01*
G03X181139I-136J-147D01*
G02X180475Y267689I-1089J1173D01*
G03X180325Y266997I106J-386D01*
G37*
G36*
G01X134075Y248943D02*
G02X132525I-775J-1400D01*
G03Y249643I-194J350D01*
G02X134075I775J1400D01*
G03Y248943I194J-350D01*
G37*
G36*
G01Y238943D02*
G02X132525I-775J-1400D01*
G03Y239643I-194J350D01*
G02X134075I775J1400D01*
G03Y238943I194J-350D01*
G37*
G36*
G01X256939Y220602D02*
G02X255701Y218971I361J-1559D01*
G03X255262Y219351I-400J-18D01*
G02X253542Y220580I-161J1592D01*
G03X253002Y220860I-390J-91D01*
G02X253959Y222706I-602J1483D01*
G03X254498Y222426I390J91D01*
G02X255266Y222534I602J-1483D01*
G03X255706Y222898I41J398D01*
G02X256385Y224073I1594J-138D01*
G03Y224730I-229J328D01*
G02X256525Y227443I915J1313D01*
G03Y228143I-194J350D01*
G02X258075I775J1400D01*
G03Y227443I194J-350D01*
G02X258700Y226818I-775J-1400D01*
G03X259400I350J194D01*
G02Y225268I1400J-775D01*
G03X258700I-350J-194D01*
G02X258215Y224730I-1400J775D01*
G03Y224073I229J-328D01*
G02X256944Y221200I-915J-1313D01*
G03X256699Y220998I-45J-195D01*
G02X256695Y220813I-1599J-56D01*
G03X256939Y220602I199J-16D01*
G37*
G36*
G01X230700Y202768D02*
G02Y204318I-1400J775D01*
G03X231400I350J194D01*
G02Y202768I1400J-775D01*
G03X230700I-350J-194D01*
G37*
G36*
G01X203846Y203957D02*
G02X202514Y205129I-1546J-414D01*
G03X202954Y205629I54J396D01*
G02X204286Y204457I1546J414D01*
G03X203846Y203957I-54J-396D01*
G37*
G36*
G01X252700Y189268D02*
G02Y190818I-1400J775D01*
G03X253400I350J194D01*
G02Y189268I1400J-775D01*
G03X252700I-350J-194D01*
G37*
G36*
G01X330329Y183014D02*
G02X329271Y184072I-1529J-471D01*
G03X329771Y184572I118J382D01*
G02X330829Y183514I1529J471D01*
G03X330329Y183014I-118J-382D01*
G37*
G36*
G01X264026Y182925D02*
G02X262478Y182961I-806J-1382D01*
G03X262494Y183660I-186J354D01*
G02X264042Y183625I806J1382D01*
G03X264026Y182925I186J-354D01*
G37*
G36*
G01X87310Y178624D02*
G02X87250Y180542I-1310J919D01*
G03X87890Y180562I312J250D01*
G02X87950Y178644I1310J-919D01*
G03X87310Y178624I-312J-250D01*
G37*
G36*
G01X170687Y178213D02*
G02X168913Y177943I-687J-1445D01*
G03X168813Y178598I-272J294D01*
G02X170587Y178868I687J1445D01*
G03X170687Y178213I272J-294D01*
G37*
G36*
G01X345961Y159111D02*
X342161D01*
G02X340978Y159634I0J1600D01*
G03X340305Y159500I-296J-269D01*
G02X339859Y158843I-1505J543D01*
G03Y158243I265J-300D01*
G02X337741I-1059J-1200D01*
G03Y158843I-265J300D01*
G02X339984Y161120I1059J1200D01*
G03X340656Y161253I296J269D01*
G02X340667Y161284I1506J-542D01*
G03X340362Y161821I-373J143D01*
G02X341861Y162594I238J1379D01*
G03X342055Y162307I180J-87D01*
G02X342161Y162311I107J-1597D01*
G01X345643D01*
G03X346034Y162798I0J400D01*
G02X347744Y161744I1366J302D01*
G03X347464Y161227I98J-388D01*
G02X345961Y159111I-1515J-516D01*
G37*
G36*
G01X299575Y156943D02*
G02X298025I-775J-1400D01*
G03Y157643I-194J350D01*
G02X299575I775J1400D01*
G03Y156943I194J-350D01*
G37*
G36*
G01X365034Y155783D02*
G02X363806Y156497I-1334J-883D01*
G03X364166Y157117I26J399D01*
G02X365394Y156403I1334J883D01*
G03X365034Y155783I-26J-399D01*
G37*
G36*
G01X302227Y146675D02*
G02X300505Y146278I-561J-1499D01*
G03X300355Y146928I-290J275D01*
G02X299868Y149636I561J1499D01*
G03X299845Y150259I-262J302D01*
G02X301848Y150334I955J1284D01*
G03X301871Y149710I262J-302D01*
G02X302077Y147325I-955J-1284D01*
G03X302227Y146675I290J-275D01*
G37*
G36*
G01X405559Y142286D02*
G02X404187Y141857I-259J-1579D01*
G03X403996Y142534I-278J287D01*
G02X403202Y143032I304J1366D01*
G03X402590Y143051I-314J-248D01*
G02X400148Y143986I-1043J935D01*
G01Y146586D01*
G02X402614Y147492I1400J-2D01*
G03X403225Y147496I304J259D01*
G02X405225Y145550I1075J-896D01*
G03Y144950I264J-300D01*
G02X405329Y142952I-925J-1050D01*
G03X405559Y142286I294J-271D01*
G37*
G36*
G01X163667Y121407D02*
G02X161046Y122980I-1067J1193D01*
G03X160586Y123468I-389J95D01*
G02X161854Y124663I-286J1575D01*
G03X162314Y124174I389J-95D01*
G02X163667Y123793I286J-1575D01*
G03X163933I133J149D01*
G02Y121407I1067J-1193D01*
G03X163667I-133J-149D01*
G37*
G36*
G01X235757Y113016D02*
G02X233730Y113109I-1057J-916D01*
G03X233743Y113384I-139J144D01*
G02X234022Y115463I1057J916D01*
G03X234066Y116092I-223J332D01*
G02X233799Y118160I1070J1190D01*
G03X233582Y118763I-334J220D01*
G02X235387Y119414I468J1530D01*
G03X235605Y118812I334J-220D01*
G02X235915Y115884I-468J-1530D01*
G03X235818Y115260I194J-350D01*
G02X235770Y113291I-1018J-960D01*
G03X235757Y113016I139J-144D01*
G37*
G36*
G01X421700Y108268D02*
G02Y109818I-1400J775D01*
G03X422400I350J194D01*
G02X423025Y110443I1400J-775D01*
G03Y111143I-194J350D01*
G02X424575I775J1400D01*
G03Y110443I194J-350D01*
G02X422400Y108268I-775J-1400D01*
G03X421700I-350J-194D01*
G37*
G36*
G01X288006Y108082D02*
G02X286406I-800J-1386D01*
G03Y108775I-200J346D01*
G02X288006I800J1386D01*
G03Y108082I200J-346D01*
G37*
G36*
G01X106200Y103768D02*
G02Y105318I-1400J775D01*
G03X106900I350J194D01*
G02Y103768I1400J-775D01*
G03X106200I-350J-194D01*
G37*
G36*
G01X457524Y82193D02*
G02X456029Y82274I-824J-1372D01*
G03X456088Y82967I-168J363D01*
G02X457540Y82889I791J1154D01*
G03X457524Y82193I189J-352D01*
G37*
G36*
G01X417581Y61583D02*
G02X415241Y63743I-1281J960D01*
G03Y64343I-265J300D01*
G02Y66743I1059J1200D01*
G03Y67343I-265J300D01*
G02X417581Y69502I1059J1200D01*
G03X418221I320J240D01*
G02X420560Y67343I1281J-960D01*
G03Y66743I265J-300D01*
G02Y64343I-1059J-1200D01*
G03Y63743I265J-300D01*
G02X418221Y61583I-1059J-1200D01*
G03X417581I-320J-240D01*
G37*
G36*
G01X441081Y61083D02*
G02X438741Y63243I-1281J960D01*
G03Y63843I-265J300D01*
G02Y66243I1059J1200D01*
G03Y66843I-265J300D01*
G02X441081Y69002I1059J1200D01*
G03X441721I320J240D01*
G02X444060Y66843I1281J-960D01*
G03Y66243I265J-300D01*
G02Y63843I-1059J-1200D01*
G03Y63243I265J-300D01*
G02X441721Y61083I-1059J-1200D01*
G03X441081I-320J-240D01*
G37*
G36*
G01X436075Y43686D02*
G02Y45236I-1400J775D01*
G03X436775I350J194D01*
G02X439575I1400J-775D01*
G03X440275I350J194D01*
G02X443075I1400J-775D01*
G03X443775I350J194D01*
G02Y43686I1400J-775D01*
G03X443075I-350J-194D01*
G02X440275I-1400J775D01*
G03X439575I-350J-194D01*
G02X436775I-1400J775D01*
G03X436075I-350J-194D01*
G37*
G36*
G01X425854Y43161D02*
G02X425446Y44660I-1554J382D01*
G03X426121Y44843I287J279D01*
G02X426529Y43344I1554J-382D01*
G03X425854Y43161I-287J-279D01*
G37*
G36*
G01X64200Y39268D02*
G02Y40818I-1400J775D01*
G03X64900I350J194D01*
G02Y39268I1400J-775D01*
G03X64200I-350J-194D01*
G37*
G36*
G01Y34768D02*
G02Y36318I-1400J775D01*
G03X64900I350J194D01*
G02Y34768I1400J-775D01*
G03X64200I-350J-194D01*
G37*
G36*
G01Y29768D02*
G02Y31318I-1400J775D01*
G03X64900I350J194D01*
G02Y29768I1400J-775D01*
G03X64200I-350J-194D01*
G37*
G36*
G01Y25268D02*
G02Y26818I-1400J775D01*
G03X64900I350J194D01*
G02Y25268I1400J-775D01*
G03X64200I-350J-194D01*
G37*
G36*
G01X449773Y108666D02*
G02X448227I-773J-1167D01*
G03Y109334I-221J334D01*
G02X449773I773J1166D01*
G03Y108666I221J-334D01*
G37*
G36*
G01X458552Y124388D02*
G02X455901Y122837I-1552J-388D01*
G03X455361Y122845I-275J-291D01*
G02X455399Y125206I-1061J1198D01*
G03X455939Y125198I275J291D01*
G02X456379Y125475I1061J-1198D01*
G03X456511Y126121I-155J369D01*
G02X455992Y126784I2989J2879D01*
G03X455383Y126865I-338J-214D01*
G02X454892Y129530I-1083J1178D01*
G03X455432Y129822I148J372D01*
G02X455501Y130110I4068J-821D01*
G03X454953Y130582I-385J107D01*
G02X455894Y132190I-653J1461D01*
G03X456574Y131942I398J37D01*
G02X458990Y124882I2926J-2942D01*
G03X458552Y124388I-49J-397D01*
G37*
G36*
G01X450273Y159666D02*
G02X448727I-773J-1167D01*
G03Y160334I-221J334D01*
G02X450273I773J1166D01*
G03Y159666I221J-334D01*
G37*
G36*
G01X457152Y105889D02*
G03Y105611I144J-139D01*
G02X454848I-1152J-1111D01*
G03Y105889I-144J139D01*
G02X457152I1152J1111D01*
G37*
G36*
G01X456377Y117360D02*
G02X456423Y119683I-1077J1183D01*
G02X456377Y117360I1077J-1183D01*
G37*
G36*
G01X465483Y153365D02*
G03X465216Y153354I-127J-154D01*
G02X462943Y153395I-1116J1147D01*
G03X462665Y153406I-145J-138D01*
G02X462757Y155705I-1065J1194D01*
G03X463035Y155694I145J138D01*
G02X465117Y155735I1065J-1194D01*
G03X465384Y155746I127J154D01*
G02X466159Y156163I1116J-1146D01*
G03X466314Y156386I-43J195D01*
G02X468241Y155037I1586J214D01*
G03X468086Y154814I43J-195D01*
G02X465483Y153365I-1586J-214D01*
G37*
G36*
G01X452652Y328889D02*
G03Y328611I144J-139D01*
G02X450348I-1152J-1111D01*
G03Y328889I-144J139D01*
G02X452652I1152J1111D01*
G37*
G36*
G01X443500Y329249D02*
G02Y326751I1000J-1249D01*
G02Y329249I-1000J1249D01*
G37*
G36*
G01X376169Y45442D02*
G03X375533I-318J-242D01*
G02X369142Y47598I-2832J2156D01*
G01Y51142D01*
G02X375533Y53298I3559J0D01*
G03X376169I318J242D01*
G02X382560Y51142I2832J-2156D01*
G01Y47598D01*
G02X376169Y45442I-3559J0D01*
G37*
G36*
G01X380373Y73749D02*
G03X379817Y73527I-179J-358D01*
G02X379127Y75251I-1317J473D01*
G03X379683Y75473I179J358D01*
G02X380373Y73749I1317J-473D01*
G37*
G36*
G01X409331Y31062D02*
G02X402213I-3559J0D01*
G01Y34606D01*
G02X409331I3559J0D01*
G01Y31062D01*
G37*
G36*
G01X406182Y47598D02*
G02X399064I-3559J0D01*
G01Y51142D01*
G02X406182I3559J0D01*
G01Y47598D01*
G37*
G36*
G01X497296Y324750D02*
G02X494750Y322204I-1295J-1250D01*
G02X492204Y324750I-1250J1295D01*
G02X491727Y326313I1295J1250D01*
G03X491349Y326782I-394J70D01*
G02X494438Y328088I151J3950D01*
G03X494511Y327490I297J-268D01*
G02X494750Y327296I-1011J-1490D01*
G02X497296Y324750I1250J-1295D01*
G37*
G36*
G01X451573Y279383D02*
G03X451027I-273J-293D01*
G02Y282017I-1227J1317D01*
G03X451573I273J293D01*
G02X453553Y282335I1227J-1317D01*
G03X454117Y282753I167J363D01*
G02X457233Y281790I1783J247D01*
G02X454573Y279383I-1433J-1090D01*
G03X454027I-273J-293D01*
G02X451573I-1227J1317D01*
G37*
G36*
G01X473097Y276331D02*
G02X472795Y274250I-1597J-831D01*
G02X470204I-1295J-1250D01*
G02X470722Y277123I1295J1250D01*
G03X470903Y277669I-173J361D01*
G02X471204Y279750I1597J831D01*
G02X473796I1296J1250D01*
G02X473278Y276877I-1295J-1250D01*
G03X473097Y276331I173J-361D01*
G37*
G36*
G01X457600Y239058D02*
G02X455250Y239015I-1200J1342D01*
G02Y241785I-1150J1385D01*
G02X456582Y242191I1150J-1385D01*
G03X457018Y242645I40J398D01*
G02X457504Y244150I1782J255D01*
G02Y246650I1295J1250D01*
G02X459900Y249325I1295J1250D01*
G02X460983Y246100I1100J-1425D01*
G03X460583Y245645I-4J-400D01*
G02X460096Y244150I-1783J-245D01*
G02Y241650I-1295J-1250D01*
G02X457600Y239058I-1295J-1250D01*
G37*
G54D60*
X508807Y256019D03*
Y316019D03*
G54D45*
X116660Y133924D03*
G54D52*
X114182Y398433D03*
X94182D03*
G54D51*
X104182Y388433D03*
G54D56*
X508807Y181019D03*
Y196019D03*
Y211019D03*
Y241019D03*
Y271019D03*
Y286019D03*
Y301019D03*
G54D42*
X456438Y8705D03*
X422422D03*
G54D44*
X297407Y39528D03*
G54D49*
X29300Y90669D03*
X75300Y95543D03*
Y99354D03*
X163800Y143204D03*
X151800Y118043D03*
X172800Y148543D03*
X195000Y120500D03*
X172800Y122000D03*
X189000Y119500D03*
X180500Y120000D03*
X86000Y158543D03*
X154500Y138500D03*
X193300Y105543D03*
X75300Y83732D03*
Y87543D03*
X191043Y141480D03*
Y135480D03*
X179043Y141480D03*
Y135480D03*
Y129480D03*
X191043D03*
X185043Y141480D03*
Y129480D03*
Y135480D03*
X166308Y92500D03*
X170000Y117500D03*
X52300Y95043D03*
X56800Y110543D03*
X52300D03*
Y100543D03*
Y106043D03*
X56800D03*
Y100543D03*
X52300Y90543D03*
X150100Y121543D03*
X140500Y126345D03*
X148500Y139499D03*
X166000Y135500D03*
X156000Y147500D03*
X16202Y155534D03*
X20202D03*
X57800Y156543D03*
X53800D03*
X27300Y106417D03*
X75800Y158543D03*
X22800Y94543D03*
X22800Y48043D03*
Y44043D03*
X24391Y39543D03*
X22800Y65043D03*
Y69543D03*
Y99043D03*
X27300Y76917D03*
X109800Y67543D03*
Y71543D03*
Y75543D03*
X105300D03*
X116300Y104543D03*
X112300D03*
X29426Y61169D03*
X145000Y221232D03*
X122000Y271500D03*
X79655Y191043D03*
X71800Y257543D03*
X84300Y272543D03*
X82700Y175400D03*
X103471Y315129D03*
X79800Y182043D03*
X86000Y209043D03*
X64000Y190000D03*
X86000Y194043D03*
Y172543D03*
Y165543D03*
Y201543D03*
X97300Y334700D03*
X71100Y297100D03*
X64013Y236043D03*
Y240838D03*
X16406Y168043D03*
X20406D03*
X58101Y227198D03*
X54101D03*
X58097Y214988D03*
X54097D03*
X16302Y217351D03*
X20302D03*
X155000Y224000D03*
X161000D03*
X99100Y352800D03*
X109500Y352500D03*
X104400Y358600D03*
X84600Y300500D03*
X88000Y297000D03*
X106500Y280500D03*
Y295000D03*
Y265500D03*
X96543Y255543D03*
X88300Y303043D03*
X93300Y313543D03*
X91843Y299500D03*
X101800Y267300D03*
X84300Y260043D03*
X133292Y396500D03*
Y391386D03*
X83300Y295043D03*
X127800Y303043D03*
X173578Y401500D03*
X191300Y379543D03*
X81300Y268543D03*
X35755Y334500D03*
X65676Y285043D03*
X91044Y334543D03*
X155353Y165543D03*
X94300Y291346D03*
X109800Y302543D03*
X68997Y334543D03*
X103300D03*
X151300Y165500D03*
X92600Y275311D03*
X45204Y334000D03*
X62355Y334543D03*
X75800Y179543D03*
X26135Y314408D03*
X60851Y314543D03*
X75800Y172543D03*
X53475Y295043D03*
X57800D03*
X169616Y225616D03*
X81300Y275043D03*
X98800Y302543D03*
X81300Y253543D03*
X195000Y269500D03*
X189800Y298543D03*
X189300Y292543D03*
X193300Y291543D03*
X98300Y314543D03*
X81300Y264543D03*
X80438Y291267D03*
X128300Y309043D03*
X68300Y300043D03*
X75125Y314543D03*
X71068Y284775D03*
X93800Y178043D03*
X187300Y168490D03*
X19300Y278042D03*
X23300D03*
X20306Y229561D03*
X16306D03*
X64195Y180148D03*
X70800Y244787D03*
X79031Y242543D03*
X75300Y190043D03*
X75800Y165543D03*
Y194043D03*
Y201543D03*
Y209043D03*
X77800Y185043D03*
X84031Y242543D03*
X42300Y387043D03*
X70800D03*
X14800Y298248D03*
Y303043D03*
Y240838D03*
Y236043D03*
X47262D03*
Y240838D03*
X114300Y390543D03*
Y386043D03*
X93800Y390543D03*
Y386043D03*
X106300Y398543D03*
X101800D03*
X169500Y379000D03*
X165000Y401500D03*
X113000Y283697D03*
X125000Y296500D03*
X20178Y314408D03*
X39800Y348543D03*
X44800D03*
X73300D03*
X68300D03*
X114300Y302543D03*
X19300Y298043D03*
X23300D03*
X39800D03*
X145000Y311232D03*
X177300Y231643D03*
X161800Y230043D03*
X161500Y320000D03*
X177111Y322354D03*
X161900Y185700D03*
X177800Y188543D03*
X161900Y275300D03*
X177300Y277543D03*
X145500Y265732D03*
X178000Y203500D03*
X179500Y220803D03*
X177800Y308700D03*
X200800Y114543D03*
X449800Y74354D03*
X479500Y84500D03*
X217800Y145543D03*
X218300Y130811D03*
X298800Y127543D03*
X298666Y138177D03*
X218500Y121000D03*
X218416Y126927D03*
X276600Y121400D03*
X245300Y121543D03*
X289800Y151543D03*
Y147543D03*
X254200Y148043D03*
X249800Y144535D03*
X207000Y147543D03*
X206500Y151543D03*
X200500Y142043D03*
X281000Y142000D03*
X410300Y109043D03*
X332000Y85500D03*
X342500D03*
X468500Y49500D03*
X481768Y58000D03*
X378200Y111900D03*
X377500Y105000D03*
X405900Y130000D03*
X368000Y135000D03*
X410300Y132543D03*
X465421Y76822D03*
X424800Y124043D03*
X433151Y117531D03*
X378951Y140194D03*
X372951D03*
Y146194D03*
X384951Y152194D03*
X372951D03*
X378951D03*
Y146194D03*
X384951Y140194D03*
X441232Y73143D03*
X413860Y80483D03*
X416800Y90856D03*
X465421Y80822D03*
X444300Y84043D03*
X349300Y124043D03*
X357800D03*
X355844Y142043D03*
X206300Y108196D03*
X245222Y91064D03*
X274300Y104043D03*
X272043Y141480D03*
Y135480D03*
X260043Y141480D03*
Y135480D03*
Y129480D03*
X272043D03*
X266043Y141480D03*
Y129480D03*
Y135480D03*
X241658Y135401D03*
X221898Y125141D03*
X238300Y146043D03*
X416500Y99500D03*
X361200Y158500D03*
X368000Y112200D03*
X337500Y85500D03*
X348000D03*
X218300Y115543D03*
X298800Y123543D03*
Y131543D03*
X218166Y134677D03*
X356000Y88043D03*
X433997Y14000D03*
X396400Y143500D03*
X207500Y119500D03*
X289900Y118442D03*
X246000Y208000D03*
X278000Y217000D03*
X327000Y344000D03*
X269800Y301043D03*
X290300Y297543D03*
X230800Y358043D03*
X277300Y298043D03*
X234800Y338543D03*
X295800Y297543D03*
X292800Y294543D03*
X238800Y349043D03*
X326213Y337043D03*
X230800Y354043D03*
X224300Y346043D03*
X266800Y304543D03*
X289000Y290000D03*
X284300Y269543D03*
X293300Y287543D03*
X276800Y283043D03*
X283550Y285293D03*
X224300Y350043D03*
X216800Y195556D03*
X251300Y186043D03*
X267800Y181543D03*
X218500Y258000D03*
X220800Y199493D03*
X224800Y199543D03*
X216800Y191619D03*
X297000Y191443D03*
X229300Y199543D03*
X241300Y370543D03*
X227300Y194543D03*
X272300Y168543D03*
X314400Y335543D03*
X364400Y234926D03*
X305300Y185043D03*
X267800Y189043D03*
X218800Y203430D03*
X250000Y210000D03*
X294716Y181459D03*
X235100Y294843D03*
X298654Y181543D03*
X277300D03*
X236800Y207343D03*
X333300Y190043D03*
X336300Y192043D03*
X295000Y395000D03*
X221500Y391386D03*
X363000Y278234D03*
X254700Y368800D03*
X295900Y376700D03*
X404500Y391663D03*
X331800Y387043D03*
X344800Y394443D03*
X314300Y388043D03*
X416500Y377000D03*
X330800Y355043D03*
X334600Y393143D03*
X342800Y390443D03*
X212800Y357543D03*
X217800Y359043D03*
X238800Y403543D03*
X224110Y360179D03*
X235151Y394043D03*
X207300Y359043D03*
X202200Y357543D03*
X268742Y378543D03*
X262400Y368743D03*
X382200Y171343D03*
X291800Y165775D03*
X362537Y179808D03*
X310465Y171043D03*
X364800Y327543D03*
X248742Y360179D03*
X305100Y345043D03*
X318300Y342043D03*
X413698Y398500D03*
X428742Y401500D03*
X268300Y168490D03*
X198300Y323043D03*
Y319043D03*
Y329043D03*
Y333043D03*
Y284043D03*
Y279043D03*
Y275043D03*
X203800Y283543D03*
X205800Y289043D03*
X204300Y300043D03*
X206800Y258548D03*
X230200Y172143D03*
X219100Y337543D03*
X216800Y215241D03*
X239598Y171043D03*
X232500Y166000D03*
X206800Y254611D03*
X216500Y340343D03*
X284250Y187693D03*
X285250Y182793D03*
X222000Y180543D03*
X341000Y222500D03*
X213300Y170543D03*
X332000Y322000D03*
X329000Y325000D03*
X207300Y225043D03*
X197800Y245043D03*
Y241043D03*
Y200043D03*
X221500Y396500D03*
X201137Y392443D03*
X304000Y398982D03*
X366800Y223115D03*
X236500Y165500D03*
X309800Y181043D03*
X233075Y302518D03*
X298900Y187043D03*
X337800Y181543D03*
X220800Y301856D03*
X226900Y301443D03*
X243000Y206000D03*
X384564Y387543D03*
X344300Y372543D03*
X394300Y364043D03*
X353068Y376543D03*
X364879Y387464D03*
X372800Y393043D03*
X360942Y377543D03*
X374800Y389043D03*
X382910Y370154D03*
X300800Y378043D03*
X357005Y377543D03*
X519900Y74643D03*
X516568Y58543D03*
Y84811D03*
X491189Y154211D03*
Y178500D03*
X488781Y358043D03*
X514000Y130413D03*
Y140877D03*
X504076Y108790D03*
Y123790D03*
Y98790D03*
Y93790D03*
X478781Y358043D03*
X422500Y174311D03*
X456500Y95000D03*
X466500Y108790D03*
X442873Y106500D03*
X429964Y96043D03*
X442873Y91543D03*
X430500Y235275D03*
G54D59*
X472000Y253000D03*
X490000Y287000D03*
X491189Y231500D03*
X490926Y293926D03*
G54D54*
X117251Y324476D03*
G54D53*
X16729Y204952D03*
Y173456D03*
X18825Y324476D03*
G54D57*
X461500Y330732D03*
G54D46*
X182576Y76929D03*
X172576D03*
X162576D03*
X152576D03*
X142576D03*
X263690Y76794D03*
X253690D03*
X243690D03*
X233690D03*
X223690D03*
G54D55*
X253781Y381369D03*
X483781D03*
G54D50*
X191300Y156700D03*
X149000Y97000D03*
Y105448D03*
X180000Y97000D03*
Y105448D03*
X134500Y99500D03*
X175547Y378796D03*
X163736Y378543D03*
X173600Y347736D03*
X156700Y360543D03*
X194800Y378000D03*
X146700Y360543D03*
X159300Y354543D03*
X467500Y60500D03*
X254500Y123000D03*
X261712Y120487D03*
X269586Y120414D03*
X272300Y156900D03*
X284300D03*
X288200Y156800D03*
X282500Y90000D03*
X211500D03*
X207300Y157000D03*
X203500Y90000D03*
X476500Y30300D03*
X230500Y97000D03*
Y105448D03*
X261000D03*
X396000Y114500D03*
X384500Y123700D03*
X396400Y121000D03*
X472500Y30100D03*
X363800Y140275D03*
X482500Y30100D03*
X261000Y97000D03*
X216000Y99000D03*
X203500Y99500D03*
X276500Y96732D03*
X203300Y157000D03*
X293200Y220700D03*
X303600Y231300D03*
X246500Y264000D03*
X323489Y355000D03*
X367500Y286108D03*
X203300Y168500D03*
X207300D03*
X386500Y296500D03*
X312989Y356000D03*
X362500Y250674D03*
X399100Y193300D03*
X332900Y266300D03*
X198000Y379500D03*
X401500Y191000D03*
X346500Y217500D03*
X341879Y216122D03*
X301550Y238050D03*
X312000Y210500D03*
X382500Y298500D03*
X330422Y171421D03*
X343272Y170071D03*
X206000Y187682D03*
X207000Y179500D03*
X199500Y170743D03*
X241500Y220343D03*
Y225000D03*
X240200Y199143D03*
X239000Y202843D03*
X251500Y199143D03*
Y202843D03*
X273500Y199143D03*
X274000Y202843D03*
X318443Y199143D03*
X294500D03*
Y202843D03*
X315343D03*
X324900Y205600D03*
X322001Y209501D03*
X469900Y200800D03*
X409000Y243000D03*
X397500Y258000D03*
X409000Y248000D03*
X371000Y355000D03*
X357400Y172043D03*
X384500Y301000D03*
X364604Y317604D03*
X352500Y254611D03*
X295489Y355043D03*
X244000Y266000D03*
X414500Y370500D03*
X412800Y366043D03*
X486500Y30300D03*
X485500Y198532D03*
X505000Y118700D03*
X420000Y164500D03*
X451000Y105000D03*
X478000Y118790D03*
X445500Y142500D03*
X475000Y130000D03*
X472500Y128000D03*
X393000Y84000D03*
G54D58*
X387662Y37165D03*
G54D47*
X96650Y45433D03*
G54D43*
Y9016D03*
X141900Y381368D03*
X221900D03*
G54D48*
X78000Y112000D03*
X134500Y276000D03*
X193800Y251043D03*
X121300Y358543D03*
X197000Y181000D03*
X527800Y81543D03*
Y71543D03*
Y61543D03*
X501300Y369543D03*
X480000Y260000D03*
X490000D03*
%LPD*%
G75*
G54D10*
X-17474Y-412454D03*
Y399257D03*
X558474Y-412454D03*
Y350257D03*
G54D11*
X-984Y-387345D03*
Y-383408D03*
Y-379471D03*
Y-375534D03*
Y-371597D03*
Y-367660D03*
Y-227345D03*
Y-223408D03*
Y-219471D03*
Y-215534D03*
Y-211597D03*
Y-207660D03*
Y45963D03*
Y49900D03*
Y53837D03*
Y57774D03*
Y61711D03*
Y65648D03*
Y155648D03*
Y151711D03*
Y147774D03*
Y143837D03*
Y139900D03*
Y135963D03*
Y-57660D03*
Y-61597D03*
Y-65534D03*
Y-69471D03*
Y-73408D03*
Y-77345D03*
Y367537D03*
Y363600D03*
Y359663D03*
Y355726D03*
Y351789D03*
Y347852D03*
X426044Y21303D03*
X452816D03*
X541480Y-147659D03*
Y-151596D03*
Y-155533D03*
Y-159470D03*
Y-163407D03*
Y-167344D03*
Y-359549D03*
Y-363486D03*
Y-367423D03*
Y-371360D03*
Y-375297D03*
Y-379234D03*
Y-77344D03*
Y-73407D03*
Y-69470D03*
Y-65533D03*
Y-61596D03*
Y-57659D03*
Y65648D03*
Y61711D03*
Y57774D03*
Y53837D03*
Y49900D03*
Y45963D03*
Y195963D03*
Y199900D03*
Y203837D03*
Y207774D03*
Y211711D03*
Y215648D03*
Y355963D03*
Y359900D03*
Y363837D03*
Y367774D03*
Y371711D03*
Y375648D03*
G54D20*
X96650Y45433D03*
G54D21*
Y9016D03*
X78000Y112000D03*
X141900Y381368D03*
X154000Y276000D03*
Y231500D03*
Y321500D03*
Y187000D03*
X134500Y276000D03*
X193800Y251043D03*
X121300Y358543D03*
X197000Y181000D03*
X472500Y12500D03*
X482500D03*
X337053Y50196D03*
X327210D03*
X319336D03*
X309493D03*
X337053Y60512D03*
X327210D03*
X319336D03*
X309493D03*
X459500Y129000D03*
X406800Y81600D03*
X221900Y381368D03*
X480000Y260000D03*
X527800Y51543D03*
Y81543D03*
Y71543D03*
Y61543D03*
X492500Y12500D03*
X501300Y369543D03*
X490000Y260000D03*
G54D30*
X369552Y32834D03*
X405772D03*
X372701Y49370D03*
X379001D03*
X369552Y15118D03*
X402229D03*
X373095Y23385D03*
X402623Y49370D03*
G54D12*
X19416Y133924D03*
X116660D03*
G54D40*
X508807Y181019D03*
Y196019D03*
Y211019D03*
Y226019D03*
Y241019D03*
Y256019D03*
Y271019D03*
Y286019D03*
Y301019D03*
Y316019D03*
G54D13*
X21320Y21377D03*
X23900Y15057D03*
X21300Y8757D03*
X15000Y6157D03*
X8700Y8757D03*
X6100Y15057D03*
X8720Y21337D03*
X15000Y23957D03*
X21320Y404763D03*
X23900Y398443D03*
X21300Y392143D03*
X15000Y389543D03*
X8700Y392143D03*
X6100Y398443D03*
X8720Y404723D03*
X15000Y407343D03*
X531816Y21377D03*
X534396Y15057D03*
X531796Y8757D03*
X525496Y6157D03*
X519196Y8757D03*
X516596Y15057D03*
X519216Y21337D03*
X525496Y23957D03*
X531816Y404763D03*
X534396Y398443D03*
X531796Y392143D03*
X525496Y389543D03*
X519196Y392143D03*
X516596Y398443D03*
X519216Y404723D03*
X525496Y407343D03*
G54D31*
X387662Y37165D03*
G54D22*
X115351Y19842D03*
X77949D03*
X115351Y38346D03*
X77949D03*
G54D41*
G01X10000Y-11754D02*
X530496D01*
G02X540496Y-21754I0J-10000D01*
G01Y-415140D01*
G02X530496Y-425140I-10000J0D01*
G01X10000D01*
G02X0Y-415140I0J10000D01*
G01Y-21754D01*
G02X10000Y-11754I10000J0D01*
G01X-19685Y413443D02*
X-7874D01*
Y-425140D01*
X-19685D01*
G02X-27559Y-417266I0J7874D01*
G01Y405569D01*
G02X-19685Y413443I7874J0D01*
G01X0Y-361754D02*
G02X-3937Y-365691I-3937J0D01*
G02X-7874Y-361754I0J3937D01*
G01X0Y-393250D02*
G03X-3937Y-389313I-3937J0D01*
G03X-7874Y-393250I0J-3937D01*
G01X0Y-201754D02*
G02X-3937Y-205691I-3937J0D01*
G02X-7874Y-201754I0J3937D01*
G01X0Y-233250D02*
G03X-3937Y-229313I-3937J0D01*
G03X-7874Y-233250I0J-3937D01*
G01X10000Y413443D02*
X530496D01*
G02X540496Y403443I0J-10000D01*
G01Y10057D01*
G02X530496Y57I-10000J0D01*
G01X10000D01*
G02X0Y10057I0J10000D01*
G01Y403443D01*
G02X10000Y413443I10000J0D01*
G01X0Y71554D02*
G02X-3937Y67617I-3937J0D01*
G02X-7874Y71554I0J3937D01*
G01X0Y40057D02*
G03X-3937Y43994I-3937J0D01*
G03X-7874Y40057I0J-3937D01*
G01X0Y130057D02*
G03X-3937Y133994I-3937J0D01*
G03X-7874Y130057I0J-3937D01*
G01X0Y161554D02*
G02X-3937Y157617I-3937J0D01*
G02X-7874Y161554I0J3937D01*
G01X0Y-83250D02*
G03X-3937Y-79313I-3937J0D01*
G03X-7874Y-83250I0J-3937D01*
G01X0Y-51754D02*
G02X-3937Y-55691I-3937J0D01*
G02X-7874Y-51754I0J3937D01*
G01X0Y341946D02*
G03X-3937Y345883I-3937J0D01*
G03X-7874Y341946I0J-3937D01*
G01X0Y373443D02*
G02X-3937Y369506I-3937J0D01*
G02X-7874Y373443I0J3937D01*
G01X560181Y413443D02*
X548370D01*
Y-425140D01*
X560181D01*
G03X568055Y-417266I0J7874D01*
G01Y405569D01*
G03X560181Y413443I-7874J0D01*
G01X540496Y-173250D02*
G02X544433Y-169313I3937J0D01*
G02X548370Y-173250I0J-3937D01*
G01X540496Y-141754D02*
G03X544433Y-145691I3937J0D01*
G03X548370Y-141754I0J3937D01*
G01X540496Y-385140D02*
G02X544433Y-381203I3937J0D01*
G02X548370Y-385140I0J-3937D01*
G01X540496Y-353643D02*
G03X544433Y-357580I3937J0D01*
G03X548370Y-353643I0J3937D01*
G01X540496Y-51754D02*
G03X544433Y-55691I3937J0D01*
G03X548370Y-51754I0J3937D01*
G01X540496Y-83250D02*
G02X544433Y-79313I3937J0D01*
G02X548370Y-83250I0J-3937D01*
G01X540496Y40057D02*
G02X544433Y43994I3937J0D01*
G02X548370Y40057I0J-3937D01*
G01X540496Y71554D02*
G03X544433Y67617I3937J0D01*
G03X548370Y71554I0J3937D01*
G01X540496Y221554D02*
G03X544433Y217617I3937J0D01*
G03X548370Y221554I0J3937D01*
G01X540496Y190057D02*
G02X544433Y193994I3937J0D01*
G02X548370Y190057I0J-3937D01*
G01X540496Y381554D02*
G03X544433Y377617I3937J0D01*
G03X548370Y381554I0J3937D01*
G01X540496Y350057D02*
G02X544433Y353994I3937J0D01*
G02X548370Y350057I0J-3937D01*
G54D23*
G01X349139Y55468D02*
Y61968D01*
G01X297407Y55468D02*
Y61968D01*
G01D02*
Y68467D01*
G01X290908Y61968D02*
X297407D01*
G01D02*
X303906D01*
G01X349139Y33028D02*
Y39528D01*
G01D02*
Y46027D01*
G01X342640Y39528D02*
X349139D01*
G01X297407Y33028D02*
Y39528D01*
G01D02*
Y46027D01*
G01X290908Y39528D02*
X297407D01*
G01D02*
X303906D01*
G01X456438Y21497D02*
Y26618D01*
G01D02*
Y31740D01*
G01Y26618D02*
X459591D01*
G01X422422Y21497D02*
Y26618D01*
G01D02*
Y31740D01*
G01X419269Y26618D02*
X422422D01*
G01D02*
X425575D01*
G01X456438Y8705D02*
Y14417D01*
G01X453088Y8705D02*
X456438D01*
G01D02*
X459788D01*
G01X422422D02*
Y14417D01*
G01X419072Y8705D02*
X422422D01*
G01D02*
X425772D01*
G01X471500Y326378D02*
Y330732D01*
G01D02*
Y335086D01*
G01X467146Y330732D02*
X471500D01*
G01X481500Y326378D02*
Y330732D01*
G01D02*
Y335086D01*
G01Y330732D02*
X485854D01*
G01X526391Y102074D02*
Y106232D01*
G01X522233D02*
X526391D01*
G01X508807Y310287D02*
Y316019D01*
G01D02*
Y321751D01*
G01X503075Y316019D02*
X508807D01*
G01D02*
X514539D01*
G01X508807Y250287D02*
Y256019D01*
G01D02*
Y261751D01*
G01X503075Y256019D02*
X508807D01*
G01D02*
X514539D01*
X93300Y3543D03*
X97800D03*
X102800D03*
X107800D03*
X88800D03*
X197300D03*
Y8543D03*
X192800D03*
X187800D03*
X182800D03*
X178300D03*
X192800Y3543D03*
X187800D03*
X182800D03*
X178300D03*
X172300Y8543D03*
X167300D03*
X162300D03*
X157800D03*
X172300Y3543D03*
X167300D03*
X162300D03*
X157800D03*
X153300Y8543D03*
X148300D03*
X143300D03*
X138800D03*
X153300Y3543D03*
X148300D03*
X143300D03*
X138800D03*
X119800Y8543D03*
X124300D03*
X129300D03*
X134300D03*
X119800Y3543D03*
X124300D03*
X129300D03*
X134300D03*
X62300D03*
X66800D03*
X71800D03*
X76800D03*
X23800D03*
X28300D03*
X33300D03*
X38300D03*
X43300D03*
X47800D03*
X52800D03*
X57800D03*
X3800Y164043D03*
Y157543D03*
Y152543D03*
Y147543D03*
Y142543D03*
Y136543D03*
Y131543D03*
Y126543D03*
Y121543D03*
X4300Y115543D03*
Y110543D03*
Y105543D03*
Y100543D03*
Y95043D03*
Y90043D03*
Y85043D03*
Y80043D03*
Y75543D03*
Y70543D03*
Y65543D03*
Y60543D03*
X4800Y48043D03*
Y44043D03*
X5209Y35543D03*
Y39543D03*
X33300Y19543D03*
X5300Y54043D03*
Y51043D03*
X29300Y90669D03*
X37300Y55543D03*
Y52543D03*
X34300Y55543D03*
X31300D03*
X28300D03*
X25300D03*
X34300Y52543D03*
X31300D03*
X28300D03*
X25300D03*
X63400Y129843D03*
Y132843D03*
Y135843D03*
X60400Y129843D03*
Y132843D03*
Y135843D03*
X63400Y138843D03*
X60400D03*
X66300Y26043D03*
X62800D03*
X66300Y30543D03*
X62800D03*
X66300Y35543D03*
X62800D03*
X66300Y40043D03*
X62800D03*
X75300Y95543D03*
Y99354D03*
X163800Y143204D03*
X151800Y118043D03*
X172800Y148543D03*
X195000Y120500D03*
X172800Y122000D03*
X162600Y122600D03*
X189000Y119500D03*
X180500Y120000D03*
X165000Y122600D03*
X196800Y103543D03*
X22800Y74043D03*
Y103543D03*
X86000Y158543D03*
X154500Y138500D03*
X166500Y155000D03*
X193300Y105543D03*
X75300Y83732D03*
Y87543D03*
X163500Y155000D03*
X169500D03*
X191043Y141480D03*
Y135480D03*
X179043Y141480D03*
Y135480D03*
Y129480D03*
X191043D03*
X185043Y141480D03*
Y129480D03*
Y135480D03*
X166308Y92500D03*
X170000Y117500D03*
X52300Y95043D03*
X56800Y110543D03*
X52300D03*
Y100543D03*
Y106043D03*
X56800D03*
Y100543D03*
X52300Y90543D03*
X150100Y121543D03*
X140500Y126345D03*
X148500Y139499D03*
X166000Y135500D03*
X160300Y125043D03*
X156000Y147500D03*
X16202Y155534D03*
X20202D03*
X57800Y156543D03*
X53800D03*
X27300Y106417D03*
X75800Y158543D03*
X22800Y94543D03*
X31800Y42043D03*
X17300Y51043D03*
Y54043D03*
X29300Y43192D03*
X22800Y48043D03*
Y44043D03*
X24391Y39543D03*
Y35543D03*
X22800Y65043D03*
Y69543D03*
Y99043D03*
X27300Y76917D03*
X109800Y67543D03*
Y71543D03*
Y75543D03*
X105300D03*
X116300Y104543D03*
X112300D03*
X108300D03*
X104800D03*
X29426Y61169D03*
X149000Y231000D03*
Y233000D03*
X147000Y235000D03*
X149000D03*
X147000Y231000D03*
Y233000D03*
X155500Y258500D03*
X145000Y221232D03*
X25800Y409800D03*
X21100Y409900D03*
X3800Y289043D03*
Y294043D03*
X3300Y373543D03*
Y368543D03*
Y363543D03*
Y358543D03*
Y336543D03*
Y351543D03*
Y346543D03*
Y341543D03*
X3800Y323543D03*
Y318543D03*
Y313543D03*
Y308543D03*
Y283543D03*
Y278543D03*
Y273543D03*
Y268543D03*
Y261543D03*
Y256543D03*
Y251543D03*
Y246543D03*
Y230543D03*
Y225543D03*
Y221043D03*
Y216043D03*
Y211043D03*
Y206043D03*
Y200043D03*
Y195043D03*
Y190043D03*
Y185043D03*
Y179043D03*
Y174043D03*
Y169043D03*
X47073Y315451D03*
X43335D03*
X122000Y271500D03*
X182500Y179500D03*
X180500D03*
Y181500D03*
Y183500D03*
X182500Y181500D03*
Y183500D03*
Y224732D03*
X180050D03*
X180000Y227000D03*
X182500Y269232D03*
X180050D03*
X184000Y316000D03*
X181500D03*
X184000Y313732D03*
X181550D03*
X180000Y271500D03*
X182500D03*
Y227000D03*
X77800Y287543D03*
X53300Y334543D03*
X71800Y271543D03*
X71800Y268043D03*
X79655Y191043D03*
X71800Y257543D03*
X170000Y176768D03*
X84300Y272543D03*
X82700Y175400D03*
X162800Y167543D03*
X170800D03*
X168300D03*
X165300D03*
X103471Y315129D03*
X149000Y185500D03*
Y187500D03*
Y189500D03*
X147000Y185500D03*
Y187500D03*
Y189500D03*
X144500Y177732D03*
X113500Y278500D03*
X37300Y271543D03*
X72000Y216000D03*
Y213500D03*
X159353Y165543D03*
X79800Y182043D03*
X85000Y217000D03*
X87500D03*
Y219500D03*
X85000D03*
X86000Y209043D03*
X64000Y190000D03*
X86000Y194043D03*
Y179543D03*
Y172543D03*
Y165543D03*
Y201543D03*
X72500Y224000D03*
X75000D03*
X97300Y334700D03*
X71100Y297100D03*
X64013Y236043D03*
Y240838D03*
X119700Y409900D03*
X114600Y409700D03*
X48500D03*
X38500D03*
X33500D03*
X43500D03*
X53200D03*
X78200D03*
X68200D03*
X58200D03*
X63200D03*
X73200D03*
X84600Y409600D03*
X109600D03*
X99600D03*
X89600D03*
X94600D03*
X104600D03*
X123900Y409900D03*
X148900D03*
X138900D03*
X128900D03*
X133900D03*
X143900D03*
X153800Y410000D03*
X178800D03*
X168800D03*
X158800D03*
X163800D03*
X173800D03*
X184300D03*
X189300D03*
X194300D03*
X16406Y168043D03*
X20406D03*
X58101Y227198D03*
X54101D03*
X58097Y214988D03*
X54097D03*
X16302Y217351D03*
X20302D03*
X157500Y181000D03*
X154500D03*
X160500D03*
X155000Y224000D03*
X161000D03*
X169500Y310000D03*
Y313000D03*
Y266500D03*
X158000Y269500D03*
X155000D03*
X161000D03*
X157500Y315000D03*
X155000D03*
X152500D03*
X99100Y352800D03*
X109500Y352500D03*
X104400Y358600D03*
X84600Y300500D03*
X88000Y297000D03*
X106500Y280500D03*
Y295000D03*
Y265500D03*
X96543Y255543D03*
X88300Y303043D03*
X93300Y313543D03*
X91843Y299500D03*
X101800Y267300D03*
X84300Y260043D03*
X133292Y396500D03*
Y391386D03*
X83300Y295043D03*
X127800Y303043D03*
X173578Y401500D03*
X156861Y404500D03*
X191300Y379543D03*
X81300Y268543D03*
X35755Y334500D03*
X169500Y180043D03*
X50300Y315543D03*
X65676Y285043D03*
X160000Y314000D03*
X91044Y334543D03*
X155353Y165543D03*
X94300Y291346D03*
X40107Y315543D03*
X109800Y302543D03*
X68997Y334543D03*
X103300D03*
X151300Y165500D03*
X92600Y275311D03*
X45204Y334000D03*
X62355Y334543D03*
X75800Y179543D03*
X26135Y314408D03*
X60851Y314543D03*
X169300Y358643D03*
X164071Y359043D03*
X133300Y344043D03*
Y340543D03*
Y331043D03*
Y334543D03*
X75800Y172543D03*
X53475Y295043D03*
X57800D03*
X169616Y225616D03*
X133300Y247543D03*
Y251043D03*
Y237543D03*
Y241043D03*
X81300Y275043D03*
X98800Y302543D03*
X81300Y253543D03*
X195000Y269500D03*
X189800Y298543D03*
X189300Y292543D03*
X197800Y291543D03*
X193300D03*
X98300Y314543D03*
X81300Y264543D03*
X79532Y284775D03*
X80438Y291267D03*
X128300Y309043D03*
X68300Y300043D03*
X75125Y314543D03*
X56398Y334543D03*
X49757Y334000D03*
X71068Y284775D03*
X169300Y269543D03*
X93800Y178043D03*
X89200Y179643D03*
X133300Y193043D03*
Y196043D03*
Y203543D03*
Y206543D03*
Y292543D03*
Y296043D03*
Y286043D03*
Y282543D03*
X197800Y245043D03*
Y241043D03*
Y235043D03*
Y232043D03*
Y200043D03*
X187300Y168490D03*
X19300Y278042D03*
X23300D03*
X20306Y229561D03*
X16306D03*
X64195Y180148D03*
X70800Y244787D03*
X79031Y242543D03*
X75300Y190043D03*
X75800Y165543D03*
Y194043D03*
Y201543D03*
Y209043D03*
X77800Y185043D03*
X84031Y242543D03*
X42300Y387043D03*
X70800D03*
X14800Y298248D03*
Y303043D03*
Y240838D03*
Y236043D03*
X47262D03*
Y240838D03*
X94800Y353043D03*
Y356543D03*
Y360043D03*
X113800Y353043D03*
Y356543D03*
Y360043D03*
X116300Y365043D03*
Y368543D03*
Y372043D03*
X94800Y364543D03*
Y368043D03*
Y371543D03*
X100100Y364543D03*
Y368043D03*
Y371543D03*
X110300Y364843D03*
Y368343D03*
Y371843D03*
X108200Y375400D03*
X100100Y375043D03*
X100000Y382000D03*
X108200Y381900D03*
X114300Y390543D03*
Y386043D03*
X93800Y390543D03*
Y386043D03*
X106300Y398543D03*
X101800D03*
X169500Y379000D03*
X181300Y394543D03*
X181000Y391000D03*
X165000Y401500D03*
X113000Y283697D03*
X125000Y296500D03*
X149000Y323000D03*
X147000D03*
X149000Y321000D03*
X147000D03*
X149000Y319000D03*
X147000D03*
X20178Y314408D03*
X39800Y348543D03*
X44800D03*
X73300D03*
X68300D03*
X153300Y343543D03*
Y340043D03*
Y334043D03*
Y330543D03*
X114300Y302543D03*
X19300Y298043D03*
X23300D03*
X39800D03*
X145000Y311232D03*
X177300Y231643D03*
X161800Y230043D03*
X161500Y320000D03*
X177111Y322354D03*
X161900Y185700D03*
X177800Y188543D03*
X161900Y275300D03*
X177300Y277543D03*
X149000Y276000D03*
Y278000D03*
Y274000D03*
X147000D03*
X153300Y285543D03*
X153300Y282043D03*
X147000Y278000D03*
Y276000D03*
X145500Y265732D03*
X179300Y265768D03*
X178000Y203500D03*
X179500Y220803D03*
X180000Y176768D03*
X177800Y308700D03*
X287000Y94500D03*
X326000Y100000D03*
X429800Y87043D03*
X425700Y85843D03*
X287000Y92000D03*
Y97000D03*
X323500Y100000D03*
X321000D03*
X469800Y3543D03*
X474300D03*
X479300D03*
X484300D03*
X465300D03*
X434300Y4043D03*
X438800D03*
X443800D03*
X448800D03*
X429800D03*
X356300D03*
X360800D03*
X365800D03*
X370800D03*
X389800D03*
X384800D03*
X379800D03*
X375300D03*
X408800D03*
X403800D03*
X398800D03*
X394300D03*
X334300D03*
X338800D03*
X343800D03*
X348800D03*
X334300Y9043D03*
X338800D03*
X343800D03*
X348800D03*
X315300Y4043D03*
X319800D03*
X324800D03*
X329800D03*
X315300Y9043D03*
X319800D03*
X324800D03*
X329800D03*
X310800D03*
X305800D03*
X300800D03*
X296300D03*
X310800Y4043D03*
X305800D03*
X300800D03*
X296300D03*
X290300Y3543D03*
Y8543D03*
X275800Y3543D03*
X280300D03*
X285300D03*
X275800Y8543D03*
X280300D03*
X285300D03*
X256800Y3543D03*
X261300D03*
X266300D03*
X271300D03*
X256800Y8543D03*
X261300D03*
X266300D03*
X271300D03*
X252300D03*
X247300D03*
X242300D03*
X237800D03*
X252300Y3543D03*
X247300D03*
X242300D03*
X237800D03*
X216300D03*
X220800D03*
X225800D03*
X230800D03*
X216300Y8543D03*
X220800D03*
X225800D03*
X230800D03*
X201800Y3543D03*
X206800D03*
X211800D03*
X201800Y8543D03*
X206800D03*
X211800D03*
X200800Y114543D03*
X287206Y110161D03*
X444100Y17700D03*
X450000Y33800D03*
X427675Y44461D03*
X449800Y74354D03*
X299000Y118500D03*
X479500Y84500D03*
X216300Y159043D03*
X217800Y145543D03*
X218300Y130811D03*
X300916Y148427D03*
X222300Y150043D03*
X356000Y84000D03*
X225300Y150043D03*
X356000Y75500D03*
X385175Y81985D03*
Y86985D03*
Y91985D03*
X380175D03*
X375175D03*
Y86985D03*
Y81985D03*
X380175D03*
Y86985D03*
X400500Y84500D03*
X386500Y64500D03*
X385672Y74171D03*
X383128Y56000D03*
X367300Y21043D03*
X367700Y63600D03*
X378800Y24543D03*
X391000Y98000D03*
X298800Y127543D03*
Y159043D03*
X214150Y157150D03*
X298666Y138177D03*
X301666Y145177D03*
X218500Y121000D03*
X441486Y34046D03*
X437374Y16711D03*
X298800Y115543D03*
X218416Y126927D03*
X315000Y74000D03*
X316000Y76000D03*
X313500D03*
X442873Y91543D03*
X276600Y121400D03*
X245300Y121543D03*
X289800Y151543D03*
Y147543D03*
X254200Y148043D03*
X249800Y144535D03*
X207000Y147543D03*
X206500Y151543D03*
X200500Y142043D03*
X281000Y142000D03*
X443400Y116300D03*
Y118700D03*
X465421Y84822D03*
X441232Y85207D03*
X436696D03*
X447100Y76743D03*
X465421Y72822D03*
X434400Y75843D03*
X483303Y69000D03*
X467500Y55000D03*
X466000Y65000D03*
X302193Y121000D03*
X222500Y116500D03*
X278000Y154543D03*
X298800Y111543D03*
X280800Y101543D03*
X277800D03*
X199800Y103543D03*
X218000Y111000D03*
X411382Y137543D03*
X395300Y150043D03*
X367068Y160543D03*
X396300Y139543D03*
X385700Y162143D03*
X380250Y162093D03*
X368500Y132000D03*
X409000Y67000D03*
X406500D03*
X361120Y116820D03*
X338800Y160043D03*
Y157043D03*
X454300Y128043D03*
Y132043D03*
X423800Y112543D03*
Y109043D03*
X410300D03*
X420300D03*
X355000Y81000D03*
X324500Y88000D03*
X289500D03*
X292000D03*
X322000D03*
X327000Y81500D03*
X250000Y154500D03*
Y156500D03*
X247500Y154500D03*
X436100Y19300D03*
X442700Y15200D03*
X444000Y35200D03*
X436100Y35300D03*
X332000Y85500D03*
X342500D03*
X410500Y77100D03*
X407700D03*
X468500Y49500D03*
X481768Y58000D03*
X456000Y104500D03*
Y107000D03*
X457500Y118500D03*
X457000Y124000D03*
X467900Y156600D03*
X461600Y154600D03*
X464100Y154500D03*
X466500Y154600D03*
X483000Y155500D03*
Y153000D03*
X378200Y111900D03*
X377500Y105000D03*
X405900Y130000D03*
X352100Y147500D03*
X368000Y135000D03*
X300800Y151543D03*
X410300Y132543D03*
X465421Y76822D03*
X405300Y140707D03*
X424800Y124043D03*
X454300D03*
X433151Y117531D03*
X365500Y158000D03*
X455300Y118543D03*
X424602Y78543D03*
X378951Y140194D03*
X372951D03*
Y146194D03*
X384951Y152194D03*
X372951D03*
X378951D03*
Y146194D03*
X384951Y140194D03*
X441232Y73143D03*
X413860Y80483D03*
X427300Y78243D03*
X429964Y96043D03*
X425464Y97162D03*
X439800Y62043D03*
X443001D03*
X439800Y65043D03*
X443001D03*
Y68043D03*
X439800D03*
X416800Y90856D03*
X465421Y80822D03*
X442873Y106500D03*
X444300Y84043D03*
X349300Y124043D03*
X357800D03*
X355844Y142043D03*
X206300Y108196D03*
X235137Y117282D03*
X245222Y91064D03*
X274300Y104043D03*
X272043Y141480D03*
Y135480D03*
X260043Y141480D03*
Y135480D03*
Y129480D03*
X272043D03*
X266043Y141480D03*
Y129480D03*
Y135480D03*
X212800Y154543D03*
X287206Y106696D03*
X241658Y135401D03*
X221898Y125141D03*
X234050Y120293D03*
X232844Y139043D03*
X288000Y83000D03*
Y80500D03*
X231300Y141543D03*
X238300Y146043D03*
X434675Y44461D03*
X438175D03*
X429800Y18000D03*
X445175Y44461D03*
X452716Y34584D03*
X448000Y19943D03*
X441675Y44461D03*
X424300Y43543D03*
X416500Y99500D03*
X361200Y158500D03*
X352100Y149800D03*
X368000Y112200D03*
X466500Y108790D03*
X456500Y95000D03*
X337500Y85500D03*
X348000D03*
X245000Y154500D03*
X327000Y84000D03*
X438398Y34046D03*
X440462Y16711D03*
X218300Y115543D03*
X298800Y123543D03*
Y131543D03*
Y155543D03*
X218166Y134677D03*
X356000Y88043D03*
X446300Y13500D03*
X433997Y14000D03*
X416300Y68543D03*
X419501D03*
X416300Y65543D03*
X419501D03*
X416300Y62543D03*
X419501D03*
X456700Y80822D03*
X396400Y143500D03*
X397200Y136000D03*
X395200Y135100D03*
X395172Y137171D03*
X363700Y154900D03*
X353200Y158200D03*
Y161200D03*
X207500Y119500D03*
X289900Y118442D03*
X366290Y82335D03*
X447500Y339000D03*
X445000Y336500D03*
Y339000D03*
X442500D03*
X227000Y385000D03*
X229449D03*
X422500Y372000D03*
Y374500D03*
X212000Y373500D03*
X212149Y370000D03*
X246000Y208000D03*
X278000Y217000D03*
X327000Y344000D03*
X269800Y301043D03*
X290300Y297543D03*
X230800Y358043D03*
Y338543D03*
X276800Y272043D03*
X277300Y298043D03*
X234800Y338543D03*
X295800Y297543D03*
X292800Y294543D03*
X298989Y351943D03*
X322276Y333543D03*
X238800Y349043D03*
X306300Y352543D03*
X326213Y337043D03*
X230800Y354043D03*
X284800Y277043D03*
X224300Y346043D03*
X266800Y304543D03*
X289000Y290000D03*
X284300Y269543D03*
X293300Y287543D03*
X276800Y283043D03*
X276800Y275043D03*
X276800Y278543D03*
X283550Y285293D03*
X282800Y274543D03*
X230800Y341343D03*
X224300Y350043D03*
X318742Y407043D03*
X308742Y407843D03*
X333800Y373543D03*
Y376243D03*
X298742Y407043D03*
X288800Y406543D03*
X216800Y195556D03*
X257300Y226043D03*
X251300Y186043D03*
X267800Y181543D03*
X287300Y170543D03*
X218500Y258000D03*
X220800Y199493D03*
X224800Y199543D03*
X232800Y203543D03*
X216800Y191619D03*
X297000Y191443D03*
X229300Y199543D03*
X309489Y351000D03*
X241300Y370543D03*
X219800Y207543D03*
X257300Y229543D03*
X227300Y194543D03*
X276300Y168543D03*
X263300Y185043D03*
X254800Y190043D03*
X272300Y168543D03*
X302489Y351943D03*
X314400Y335543D03*
X364400Y234926D03*
X305300Y185043D03*
X267800Y189043D03*
X257300Y222760D03*
X252400Y222343D03*
X218800Y203430D03*
X250000Y210000D03*
X294716Y181459D03*
X235100Y294843D03*
X298654Y181543D03*
X351100Y211043D03*
X202300Y203543D03*
X257300Y219043D03*
X351200Y207943D03*
X284300Y170543D03*
X277300Y181543D03*
X232300Y289043D03*
X251300Y190043D03*
X236800Y207343D03*
X333300Y190043D03*
X216624Y207367D03*
X336300Y192043D03*
X331300Y185043D03*
X220800Y297918D03*
X260800Y226043D03*
X247000Y167000D03*
X249300Y167043D03*
X252000Y167000D03*
X244500D03*
X475000Y387900D03*
X475100Y385100D03*
X423500Y395000D03*
Y392500D03*
X202200Y370000D03*
X407000Y316500D03*
Y319000D03*
Y321500D03*
X409500Y316500D03*
X406500Y280000D03*
Y277500D03*
X409000D03*
Y280000D03*
X222000Y403500D03*
X219137Y402068D03*
X319989Y355000D03*
X403000Y388500D03*
X401800Y386543D03*
X280300Y171143D03*
X388700Y171343D03*
X399100Y165300D03*
X422500Y174311D03*
X221000Y263000D03*
X218800D03*
X438600Y410200D03*
X443800Y410000D03*
X209300D03*
X199300D03*
X204300D03*
X215900Y409900D03*
X240900D03*
X230900D03*
X220900D03*
X225900D03*
X235900D03*
X246500Y410000D03*
X271500D03*
X261500D03*
X251500D03*
X256500D03*
X266500D03*
X277100Y410100D03*
X302100D03*
X292100D03*
X282100D03*
X287100D03*
X297100D03*
X314700D03*
X339700D03*
X329700D03*
X319700D03*
X324700D03*
X334700D03*
X344900D03*
X369900D03*
X359900D03*
X349900D03*
X354900D03*
X364900D03*
X375800D03*
X400800D03*
X390800D03*
X380800D03*
X385800D03*
X395800D03*
X448900D03*
X473900D03*
X463900D03*
X453900D03*
X458900D03*
X468900D03*
X480000D03*
X484900Y397100D03*
X482500D03*
X482400Y399500D03*
X432500Y373000D03*
X433500Y387500D03*
Y390500D03*
X295000Y395000D03*
X221500Y391386D03*
X363000Y278234D03*
X457800Y185300D03*
X457900Y187800D03*
Y190400D03*
X407000Y273000D03*
X409500D03*
X404500Y291500D03*
Y289000D03*
X407000Y291500D03*
Y289000D03*
X396000Y278000D03*
X393500D03*
X396000Y280500D03*
X393500D03*
X393000Y317500D03*
Y315000D03*
X395500D03*
Y317500D03*
X444500Y328000D03*
X442500D03*
X451500Y327500D03*
Y330000D03*
X254700Y368800D03*
X295900Y376700D03*
X378800Y407043D03*
X404500Y391663D03*
X331800Y387043D03*
X344800Y394443D03*
X314300Y388043D03*
X416500Y377000D03*
X330800Y355043D03*
X334600Y393143D03*
X342800Y390443D03*
X315900Y404243D03*
X328742D03*
X212800Y357543D03*
X217800Y359043D03*
X238800Y403543D03*
X224110Y360179D03*
X235151Y394043D03*
X207300Y359043D03*
X202200Y357543D03*
X268742Y378543D03*
X262400Y368743D03*
X306300Y380543D03*
X382200Y171343D03*
X291800Y165775D03*
X362537Y179808D03*
X310465Y171043D03*
X364800Y327543D03*
X304300Y350043D03*
X322300Y337043D03*
X248742Y360179D03*
X305100Y345043D03*
X318300Y342043D03*
X478781Y358043D03*
X432500Y376000D03*
X413698Y398500D03*
X428742Y401500D03*
X268300Y168490D03*
X198300Y323043D03*
Y319043D03*
Y329043D03*
Y333043D03*
Y288043D03*
Y284043D03*
Y279043D03*
Y275043D03*
X203800Y283543D03*
X205800Y289043D03*
X204300Y300043D03*
X229300Y279043D03*
X226300D03*
X229300Y283043D03*
Y289043D03*
X226800D03*
X226300Y283043D03*
X206800Y258548D03*
X230200Y172143D03*
X276800Y171543D03*
X219100Y337543D03*
X216800Y215241D03*
X239598Y171043D03*
X232500Y166000D03*
X206800Y254611D03*
X216500Y340343D03*
X284250Y187693D03*
X285250Y182793D03*
X222000Y180543D03*
X335500Y223000D03*
X341000Y222500D03*
X213300Y170543D03*
X332000Y322000D03*
X329000Y325000D03*
X207300Y225043D03*
X255100Y220943D03*
X430500Y235275D03*
X221500Y396500D03*
X201137Y392443D03*
X458000Y193000D03*
X304000Y398982D03*
X366800Y223115D03*
X236500Y165500D03*
X219500Y277000D03*
X217000D03*
Y274500D03*
X219500D03*
X204500Y206043D03*
X309800Y181043D03*
X233075Y302518D03*
X298900Y187043D03*
X337800Y181543D03*
X220800Y301856D03*
X263220Y181543D03*
X229300Y203543D03*
X226900Y301443D03*
X224300Y298043D03*
X328800Y182543D03*
X243000Y206000D03*
X462700Y311800D03*
X465500Y311900D03*
X468100D03*
X470400D03*
X458200Y219500D03*
Y212000D03*
Y214500D03*
Y217000D03*
X473000Y314500D03*
Y317000D03*
Y319500D03*
X460500Y287500D03*
X458000Y290000D03*
X463000Y287500D03*
X458000D03*
X471500Y273000D03*
X472500Y278500D03*
Y281000D03*
X471500Y275500D03*
X461000Y247900D03*
X458800Y245400D03*
Y240400D03*
Y247900D03*
Y242900D03*
X454100Y240400D03*
X456400D03*
X458000Y319000D03*
X460500Y316500D03*
Y319000D03*
X472000Y253000D03*
X455900Y283000D03*
X452800Y280700D03*
X449800D03*
X455800D03*
X323800Y390543D03*
X323300Y387043D03*
X384564Y387543D03*
X368742Y407043D03*
X399300D03*
X358742D03*
X338742D03*
X448742D03*
X383300D03*
X344300Y372543D03*
X394300Y364043D03*
X348742Y407043D03*
X305300Y377543D03*
X353068Y376543D03*
X364879Y387464D03*
X372800Y393043D03*
X360942Y377543D03*
X393800Y407043D03*
X388800D03*
X438742D03*
X374800Y389043D03*
X382910Y370154D03*
X300800Y378043D03*
X458742Y407043D03*
X357005Y377543D03*
X468742Y407043D03*
X495300Y3543D03*
X499800D03*
X504800D03*
X509800D03*
X490800D03*
X486600Y155900D03*
Y158000D03*
X498303Y69000D03*
X536900Y140900D03*
Y150900D03*
Y160900D03*
Y155900D03*
Y145900D03*
Y105900D03*
Y115900D03*
Y125900D03*
Y135900D03*
Y130900D03*
Y120900D03*
Y110900D03*
Y70900D03*
Y80900D03*
Y90900D03*
Y100900D03*
Y95900D03*
Y85900D03*
Y75900D03*
Y40900D03*
Y50900D03*
Y60900D03*
Y65900D03*
Y55900D03*
Y45900D03*
Y35900D03*
X504076Y93790D03*
Y98790D03*
Y123790D03*
Y108790D03*
X514000Y140877D03*
X519900Y74643D03*
X516568Y58543D03*
Y84811D03*
X514000Y130413D03*
X491189Y154211D03*
X492800Y387600D03*
X492700Y385000D03*
X511200Y359900D03*
Y362500D03*
X508700Y359900D03*
X508800Y362600D03*
X505000Y410100D03*
X495000D03*
X485000D03*
X490000D03*
X500000D03*
X536900Y360900D03*
Y364900D03*
Y210900D03*
Y215900D03*
Y175900D03*
Y185900D03*
Y195900D03*
Y205900D03*
Y200900D03*
Y190900D03*
Y180900D03*
Y170900D03*
Y165900D03*
X485000Y399400D03*
X488781Y358043D03*
X490000Y287000D03*
X491189Y231500D03*
X490926Y293926D03*
X491189Y178500D03*
X536900Y250900D03*
Y260900D03*
Y265900D03*
Y280900D03*
Y320900D03*
Y330900D03*
Y315900D03*
Y240900D03*
Y235900D03*
Y325900D03*
Y310900D03*
Y305900D03*
Y300900D03*
Y295900D03*
Y290900D03*
Y285900D03*
Y275900D03*
Y270900D03*
Y255900D03*
Y245900D03*
Y230900D03*
Y225900D03*
X487000Y313000D03*
X495000Y314500D03*
X491500D03*
X497500Y295000D03*
X536900Y340900D03*
Y345900D03*
Y335900D03*
Y350900D03*
X496000Y326000D03*
Y323500D03*
X493500D03*
Y326000D03*
X518900Y410100D03*
X512700Y410200D03*
X537200Y391300D03*
Y386800D03*
X537100Y383200D03*
X527800Y377300D03*
X524200D03*
X521300Y377200D03*
X519000D03*
G54D14*
X15000Y15057D03*
Y398443D03*
X525496Y15057D03*
Y398443D03*
G54D32*
X422422Y8705D03*
X456438D03*
G54D33*
X422422Y26618D03*
X456438D03*
G54D24*
X191300Y156700D03*
X156800Y117100D03*
Y115200D03*
X186500Y151000D03*
X184500D03*
X149000Y97000D03*
Y105448D03*
X180000Y97000D03*
Y105448D03*
X134500Y99500D03*
X175547Y378796D03*
X182500Y378500D03*
X136861Y405000D03*
X150000Y378000D03*
X148000Y380043D03*
X163736Y378543D03*
X146861Y405500D03*
X166861Y404500D03*
X185500Y378543D03*
X176861Y404500D03*
X186861D03*
X196861D03*
X194000Y168500D03*
X173600Y347736D03*
X156700Y360543D03*
X194800Y378000D03*
X191300Y168500D03*
X146700Y360543D03*
X158100Y259700D03*
X159300Y354543D03*
X166700Y360443D03*
X364756Y124153D03*
X367354D03*
X472500Y128000D03*
X475000Y130000D03*
X445500Y142500D03*
X381556Y128451D03*
X343978Y101210D03*
X384154Y128451D03*
X346576Y101210D03*
X336067D03*
X389984Y127312D03*
X333469Y101210D03*
X387386Y127312D03*
X456879Y84121D03*
X478000Y118790D03*
X449000Y107500D03*
X449500Y161500D03*
X377300Y17900D03*
X412050Y26000D03*
Y54450D03*
X406200Y60300D03*
X395700D03*
X397000Y83000D03*
X400300Y55543D03*
X379000Y62000D03*
X393000Y84000D03*
X401548Y146584D03*
X385548Y98548D03*
X345949Y160711D03*
X331150Y109650D03*
X467500Y60500D03*
X449000Y110500D03*
X331200Y112000D03*
X327000Y107900D03*
X254500Y123000D03*
X245100Y113400D03*
Y115400D03*
X261712Y120487D03*
X269586Y120414D03*
X272300Y156900D03*
X284300D03*
X288200Y156800D03*
X282500Y90000D03*
X211500D03*
X207300Y157000D03*
X203500Y90000D03*
X234700Y112100D03*
X234800Y114300D03*
X265500Y150500D03*
X380500Y130843D03*
X381159Y98500D03*
X267500Y150743D03*
X476500Y30300D03*
X381000Y75000D03*
X396000Y76700D03*
X395800Y74600D03*
X331000Y101500D03*
X338500D03*
X375700Y128800D03*
X369600Y129500D03*
X425700Y103400D03*
Y106100D03*
X340600Y163200D03*
X347400Y163100D03*
X404300Y143900D03*
Y146600D03*
X362400Y124100D03*
X369800D03*
X230500Y97000D03*
Y105448D03*
X261000D03*
X396000Y114500D03*
X383000Y102000D03*
X384500Y123700D03*
X380000Y126500D03*
X386436Y129500D03*
X392000Y128500D03*
X396400Y121000D03*
X342000Y100000D03*
X348500D03*
X472500Y30100D03*
X363800Y140275D03*
X482500Y30100D03*
X261000Y97000D03*
X216000Y99000D03*
X203500Y99500D03*
X276500Y96732D03*
X342161Y160711D03*
X401548Y143986D03*
X331100Y114700D03*
X451000Y105000D03*
X449500Y158500D03*
X327000Y105200D03*
X374576Y130743D03*
X428240Y103469D03*
X371516Y130743D03*
X428240Y106067D03*
X203300Y157000D03*
X378500Y74000D03*
X293200Y220700D03*
X303600Y231300D03*
X334000Y341000D03*
X420000Y164500D03*
X246500Y264000D03*
X323489Y355000D03*
X367500Y286108D03*
X203300Y168500D03*
X207300D03*
X386500Y296500D03*
X352000Y299000D03*
X312989Y356000D03*
X362500Y250674D03*
X333989Y344043D03*
X358556Y165653D03*
X338000Y224500D03*
X399100Y193300D03*
X332900Y266300D03*
X198000Y379500D03*
X401500Y191000D03*
X346500Y217500D03*
X341879Y216122D03*
X301550Y238050D03*
X312000Y210500D03*
X382500Y298500D03*
X352000Y301856D03*
X199300Y168500D03*
X397500Y271500D03*
X240500Y166000D03*
X330422Y171421D03*
X343272Y170071D03*
X356300Y165200D03*
X363400Y165400D03*
X206000Y187682D03*
X207000Y179500D03*
X199500Y170743D03*
X241500Y220343D03*
Y225000D03*
X240200Y199143D03*
X239000Y202843D03*
X251500Y199143D03*
Y202843D03*
X273500Y199143D03*
X274000Y202843D03*
X318443Y199143D03*
X294500D03*
Y202843D03*
X315343D03*
X324900Y205600D03*
X322001Y209501D03*
X469900Y200800D03*
X409000Y243000D03*
X397500Y258000D03*
X409000Y248000D03*
X371000Y355000D03*
X357400Y172043D03*
X361154Y165653D03*
X384500Y301000D03*
X364604Y317604D03*
X352500Y254611D03*
X295489Y355043D03*
X204271Y404514D03*
X244000Y266000D03*
X414500Y370500D03*
X412800Y366043D03*
X505000Y118700D03*
X486500Y30300D03*
X485500Y198532D03*
G54D15*
X187576Y41929D03*
X142576D03*
X268690Y41794D03*
X223690D03*
G54D25*
X104182Y388433D03*
G54D34*
X423721Y24649D03*
X455139D03*
G54D16*
X134466Y53937D03*
X195686D03*
X215580Y53802D03*
X276800D03*
G54D17*
X140174Y22638D03*
X150174Y28622D03*
X179978Y22638D03*
X189978Y28622D03*
X187576Y66929D03*
X177576D03*
X167576D03*
X157576D03*
X147576D03*
X182576Y76929D03*
X172576D03*
X162576D03*
X152576D03*
X142576D03*
X221288Y22503D03*
X231288Y28487D03*
X261092Y22503D03*
X271092Y28487D03*
X268690Y66794D03*
X258690D03*
X248690D03*
X238690D03*
X228690D03*
X263690Y76794D03*
X253690D03*
X243690D03*
X233690D03*
X223690D03*
G54D26*
X94182Y378433D03*
X114182D03*
Y398433D03*
X94182D03*
G54D35*
X297407Y39528D03*
X349139D03*
X297407Y61968D03*
X349139D03*
G54D36*
X461500Y330732D03*
X471500D03*
X481500D03*
X491500D03*
G54D27*
X16729Y204952D03*
Y173456D03*
X18825Y324476D03*
G54D18*
X50327Y48547D03*
Y30043D03*
Y11539D03*
G54D37*
X253781Y381369D03*
X483781D03*
G54D28*
X117251Y324476D03*
G54D19*
X96650Y21811D03*
G54D38*
X489961Y50000D03*
G54D29*
X485039D03*
G54D39*
X526391Y114106D03*
Y121980D03*
Y129854D03*
Y106232D03*
M02*
