G04 ================== begin FILE IDENTIFICATION RECORD ==================*
G04 Layout Name:  MYB-YF13X-V10-230424.brd*
G04 Film Name:    SOLDBOT*
G04 File Format:  Gerber RS274X*
G04 File Origin:  Cadence Allegro 16.6-2015-S108*
G04 Origin Date:  Mon Apr 24 16:41:06 2023*
G04 *
G04 Layer:  VIA CLASS/SOLDERMASK_BOTTOM*
G04 Layer:  PIN/SOLDERMASK_BOTTOM*
G04 Layer:  PACKAGE GEOMETRY/SOLDERMASK_BOTTOM*
G04 Layer:  BOARD GEOMETRY/OUTLINE*
G04 Layer:  BOARD GEOMETRY/SOLDERMASK_BOTTOM*
G04 *
G04 Offset:    (0.000 0.000)*
G04 Mirror:    No*
G04 Mode:      Positive*
G04 Rotation:  0*
G04 FullContactRelief:  No*
G04 UndefLineWidth:     6.000*
G04 ================== end FILE IDENTIFICATION RECORD ====================*
%FSLAX25Y25*MOIN*%
%IR0*IPPOS*OFA0.00000B0.00000*MIA0B0*SFA1.00000B1.00000*%
%ADD22O,.062992X.066929*%
%ADD44R,.094488X.062992*%
%ADD13C,.24*%
%ADD10C,.12211*%
%ADD21C,.141732*%
%ADD51O,.070866X.11811*%
%ADD54C,.129921*%
%ADD52O,.062992X.102362*%
%ADD25C,.106299*%
%ADD24C,.127953*%
%AMMACRO18*
4,1,44,.008268,.01378,
-.008268,.01378,
-.008882,.013728,
-.009478,.013569,
-.010037,.01331,
-.010542,.012958,
-.010979,.012523,
-.011334,.012019,
-.011595,.011461,
-.011756,.010866,
-.011811,.010252,
-.011811,.010236,
-.011811,-.010236,
-.011759,-.01085,
-.011601,-.011446,
-.011342,-.012005,
-.010989,-.012511,
-.010555,-.012947,
-.010051,-.013302,
-.009493,-.013564,
-.008898,-.013725,
-.008284,-.01378,
-.008268,-.01378,
.008268,-.01378,
.008882,-.013728,
.009478,-.013569,
.010037,-.01331,
.010542,-.012958,
.010979,-.012523,
.011334,-.012019,
.011595,-.011461,
.011756,-.010866,
.011811,-.010252,
.011811,-.010236,
.011811,.010236,
.011759,.01085,
.011601,.011446,
.011342,.012005,
.010989,.012511,
.010555,.012947,
.010051,.013302,
.009493,.013564,
.008898,.013725,
.008284,.01378,
.008268,.01378,
0.0*
%
%ADD18MACRO18*%
%AMMACRO15*
4,1,44,-.01378,.008268,
-.01378,-.008268,
-.013728,-.008882,
-.013569,-.009478,
-.01331,-.010037,
-.012958,-.010542,
-.012523,-.010979,
-.012019,-.011334,
-.011461,-.011595,
-.010866,-.011756,
-.010252,-.011811,
-.010236,-.011811,
.010236,-.011811,
.01085,-.011759,
.011446,-.011601,
.012005,-.011342,
.012511,-.010989,
.012947,-.010555,
.013302,-.010051,
.013564,-.009493,
.013725,-.008898,
.01378,-.008284,
.01378,-.008268,
.01378,.008268,
.013728,.008882,
.013569,.009478,
.01331,.010037,
.012958,.010542,
.012523,.010979,
.012019,.011334,
.011461,.011595,
.010866,.011756,
.010252,.011811,
.010236,.011811,
-.010236,.011811,
-.01085,.011759,
-.011446,.011601,
-.012005,.011342,
-.012511,.010989,
-.012947,.010555,
-.013302,.010051,
-.013564,.009493,
-.013725,.008898,
-.01378,.008284,
-.01378,.008268,
0.0*
%
%ADD15MACRO15*%
%ADD29O,.122047X.094488*%
%ADD27O,.090551X.133858*%
%ADD57R,.090551X.106299*%
%ADD34O,.074803X.133858*%
%ADD45R,.074803X.106299*%
%ADD31O,.161417X.066929*%
%ADD11C,.08*%
%ADD42C,.061024*%
%ADD50C,.043307*%
%ADD20C,.035433*%
%ADD62C,.090551*%
%ADD59C,.05906*%
%ADD58O,.037402X.041339*%
%ADD40C,.03937*%
%ADD37O,.074803X.043307*%
%ADD26C,.074803*%
%ADD19O,.043307X.074803*%
%ADD49O,.055118X.090551*%
%ADD38C,.086614*%
%ADD61R,.090551X.090551*%
%ADD60R,.05906X.05906*%
%ADD47R,.041339X.041339*%
%ADD30O,.070866X.043307*%
%AMMACRO16*
4,1,44,.01378,-.008268,
.01378,.008268,
.013728,.008882,
.013569,.009478,
.01331,.010037,
.012958,.010542,
.012523,.010979,
.012019,.011334,
.011461,.011595,
.010866,.011756,
.010252,.011811,
.010236,.011811,
-.010236,.011811,
-.01085,.011759,
-.011446,.011601,
-.012005,.011342,
-.012511,.010989,
-.012947,.010555,
-.013302,.010051,
-.013564,.009493,
-.013725,.008898,
-.01378,.008284,
-.01378,.008268,
-.01378,-.008268,
-.013728,-.008882,
-.013569,-.009478,
-.01331,-.010037,
-.012958,-.010542,
-.012523,-.010979,
-.012019,-.011334,
-.011461,-.011595,
-.010866,-.011756,
-.010252,-.011811,
-.010236,-.011811,
.010236,-.011811,
.01085,-.011759,
.011446,-.011601,
.012005,-.011342,
.012511,-.010989,
.012947,-.010555,
.013302,-.010051,
.013564,-.009493,
.013725,-.008898,
.01378,-.008284,
.01378,-.008268,
0.0*
%
%ADD16MACRO16*%
%ADD36O,.031496X.03937*%
%ADD33C,.062992*%
%AMMACRO14*
4,1,44,-.008268,-.01378,
.008268,-.01378,
.008882,-.013728,
.009478,-.013569,
.010037,-.01331,
.010542,-.012958,
.010979,-.012523,
.011334,-.012019,
.011595,-.011461,
.011756,-.010866,
.011811,-.010252,
.011811,-.010236,
.011811,.010236,
.011759,.01085,
.011601,.011446,
.011342,.012005,
.010989,.012511,
.010555,.012947,
.010051,.013302,
.009493,.013564,
.008898,.013725,
.008284,.01378,
.008268,.01378,
-.008268,.01378,
-.008882,.013728,
-.009478,.013569,
-.010037,.01331,
-.010542,.012958,
-.010979,.012523,
-.011334,.012019,
-.011595,.011461,
-.011756,.010866,
-.011811,.010252,
-.011811,.010236,
-.011811,-.010236,
-.011759,-.01085,
-.011601,-.011446,
-.011342,-.012005,
-.010989,-.012511,
-.010555,-.012947,
-.010051,-.013302,
-.009493,-.013564,
-.008898,-.013725,
-.008284,-.01378,
-.008268,-.01378,
0.0*
%
%ADD14MACRO14*%
%ADD43O,.062992X.035433*%
%ADD41O,.074803X.031496*%
%ADD17O,.03937X.031496*%
%ADD12C,.019685*%
%ADD46O,.015748X.074803*%
%ADD32C,.082677*%
%ADD53O,.06299X.03937*%
%ADD48C,.066929*%
%ADD28O,.090551X.062992*%
%ADD39C,.094488*%
%ADD23O,.062992X.074803*%
%ADD55O,.068898X.043307*%
%ADD35R,.066929X.066929*%
%ADD56O,.015748X.066929*%
%ADD63C,.006*%
G75*
%LPD*%
G75*
G36*
G01X26413Y15057D02*
G03I-11413J0D01*
G37*
G36*
G01Y398443D02*
G03I-11413J0D01*
G37*
G36*
G01X536909Y15057D02*
G03I-11413J0D01*
G37*
G36*
G01Y398443D02*
G03I-11413J0D01*
G37*
G54D10*
X-17474Y-412454D03*
Y399257D03*
X558474Y-412454D03*
Y350257D03*
G54D20*
X21320Y21377D03*
X23900Y15057D03*
X21300Y8757D03*
X15000Y6157D03*
X8700Y8757D03*
X6100Y15057D03*
X8720Y21337D03*
X15000Y23957D03*
X21320Y404763D03*
X23900Y398443D03*
X21300Y392143D03*
X15000Y389543D03*
X8700Y392143D03*
X6100Y398443D03*
X8720Y404723D03*
X15000Y407343D03*
X531816Y21377D03*
X534396Y15057D03*
X531796Y8757D03*
X525496Y6157D03*
X519196Y8757D03*
X516596Y15057D03*
X519216Y21337D03*
X525496Y23957D03*
X531816Y404763D03*
X534396Y398443D03*
X531796Y392143D03*
X525496Y389543D03*
X519196Y392143D03*
X516596Y398443D03*
X519216Y404723D03*
X525496Y407343D03*
G54D11*
X-11274Y-385100D03*
X51500Y389000D03*
X-11274Y371300D03*
X551674Y-381200D03*
X527500Y37800D03*
X511800Y372300D03*
X551874Y325200D03*
G54D12*
X-984Y-387345D03*
Y-383408D03*
Y-379471D03*
Y-375534D03*
Y-371597D03*
Y-367660D03*
Y-227345D03*
Y-223408D03*
Y-219471D03*
Y-215534D03*
Y-211597D03*
Y-207660D03*
Y45963D03*
Y49900D03*
Y53837D03*
Y57774D03*
Y61711D03*
Y65648D03*
Y155648D03*
Y151711D03*
Y147774D03*
Y143837D03*
Y139900D03*
Y135963D03*
Y-57660D03*
Y-61597D03*
Y-65534D03*
Y-69471D03*
Y-73408D03*
Y-77345D03*
Y367537D03*
Y363600D03*
Y359663D03*
Y355726D03*
Y351789D03*
Y347852D03*
X426044Y21303D03*
X452816D03*
X541480Y-147659D03*
Y-151596D03*
Y-155533D03*
Y-159470D03*
Y-163407D03*
Y-167344D03*
Y-359549D03*
Y-363486D03*
Y-367423D03*
Y-371360D03*
Y-375297D03*
Y-379234D03*
Y-77344D03*
Y-73407D03*
Y-69470D03*
Y-65533D03*
Y-61596D03*
Y-57659D03*
Y65648D03*
Y61711D03*
Y57774D03*
Y53837D03*
Y49900D03*
Y45963D03*
Y195963D03*
Y199900D03*
Y203837D03*
Y207774D03*
Y211711D03*
Y215648D03*
Y355963D03*
Y359900D03*
Y363837D03*
Y367774D03*
Y371711D03*
Y375648D03*
G54D30*
X119800Y72043D03*
Y61043D03*
G54D21*
X15000Y15057D03*
Y398443D03*
X525496Y15057D03*
Y398443D03*
G54D40*
X16729Y204952D03*
Y173456D03*
X18825Y324476D03*
G54D31*
X96650Y21811D03*
G54D13*
X19416Y133924D03*
X116660D03*
G54D22*
X55902Y161448D03*
X56099Y221093D03*
G54D23*
X18304Y162038D03*
Y223456D03*
G54D32*
X96650Y45433D03*
G54D41*
X58068Y201802D03*
Y197471D03*
Y193141D03*
Y188810D03*
Y184479D03*
Y180148D03*
Y175818D03*
Y171487D03*
Y167156D03*
G54D14*
X26068Y99043D03*
X29532D03*
X26068Y69543D03*
X29532D03*
X79655Y158543D03*
X83119D03*
X69155D03*
X72619D03*
X26068Y94543D03*
X29532D03*
X109568Y308043D03*
X113032D03*
X69155Y175043D03*
X72619D03*
X79655Y165543D03*
X83119D03*
X74799Y261043D03*
X78263D03*
X79655Y209043D03*
X83119D03*
X79655Y194043D03*
X83119D03*
X79655Y201543D03*
X83119D03*
X79655Y179543D03*
X83119D03*
X79655Y172543D03*
X83119D03*
X69155Y209043D03*
X72619D03*
X69155Y201543D03*
X72619D03*
X69155Y194043D03*
X72619D03*
X69155Y179543D03*
X72619D03*
X69155Y170543D03*
X72619D03*
X69155Y165543D03*
X72619D03*
X387068Y151043D03*
X390532D03*
X470268Y119000D03*
X473732D03*
X292668Y119543D03*
X296132D03*
X211568D03*
X215032D03*
X208568Y289043D03*
X212032D03*
X496311Y118700D03*
X499775D03*
G54D50*
X387662Y37165D03*
G54D33*
X96650Y9016D03*
X141900Y381368D03*
X221900D03*
X461500Y330732D03*
X471500D03*
X481500D03*
X491500D03*
G54D60*
X526391Y106232D03*
G54D42*
X117251Y324476D03*
G54D15*
X187300Y162311D03*
X196500Y144732D03*
Y141268D03*
X180000Y126232D03*
Y122768D03*
X185500Y126232D03*
Y122768D03*
X187300Y165775D03*
X191700Y366575D03*
Y363111D03*
X171700Y366575D03*
Y363111D03*
X151700Y366675D03*
Y363211D03*
X186700Y366575D03*
Y363111D03*
X181700Y366575D03*
Y363111D03*
X176700Y366575D03*
Y363111D03*
X166700Y366575D03*
Y363111D03*
X161700Y366675D03*
Y363211D03*
X156700Y366675D03*
Y363211D03*
X146700Y366675D03*
Y363211D03*
X141700Y366675D03*
Y363211D03*
X172500Y269232D03*
Y265768D03*
X171500Y223732D03*
Y220268D03*
X172500Y314732D03*
Y311268D03*
X166000Y269232D03*
Y265768D03*
X154500Y177732D03*
Y174268D03*
X155500Y265732D03*
Y262268D03*
X173000Y180232D03*
Y176768D03*
X166000Y180232D03*
Y176768D03*
X75031Y248775D03*
Y245311D03*
X268300Y162311D03*
X262000Y126732D03*
Y123268D03*
X269000Y126732D03*
Y123268D03*
X277500Y145132D03*
Y141668D03*
X389500Y88232D03*
Y84768D03*
X288300Y162311D03*
X207300D03*
X203300D03*
X284300D03*
X268300Y165775D03*
X204300Y306275D03*
Y302811D03*
X424989Y362075D03*
Y358611D03*
X421489Y362075D03*
Y358611D03*
X417989Y362075D03*
Y358611D03*
X414489Y362075D03*
Y358611D03*
X410989Y362075D03*
Y358611D03*
X407489Y362075D03*
Y358611D03*
X403989Y362075D03*
Y358611D03*
X400489Y362075D03*
Y358611D03*
X389989Y362075D03*
Y358611D03*
X386489Y362075D03*
Y358611D03*
X382989Y362075D03*
Y358611D03*
X379489Y362075D03*
Y358611D03*
X330489Y362075D03*
Y358611D03*
X323489Y362075D03*
Y358611D03*
X316489Y362075D03*
Y358611D03*
X312989Y362075D03*
Y358611D03*
X295489Y362075D03*
Y358611D03*
X319989Y362075D03*
Y358611D03*
X288300Y165775D03*
X207300D03*
X375989Y362075D03*
Y358611D03*
X372489Y362075D03*
Y358611D03*
X365489Y362075D03*
Y358611D03*
X368989Y362075D03*
Y358611D03*
X361989Y362075D03*
Y358611D03*
X354989Y362075D03*
Y358611D03*
X351489Y362075D03*
Y358611D03*
X347989Y362075D03*
Y358611D03*
X358489Y362075D03*
Y358611D03*
X344489Y362075D03*
Y358611D03*
X340989Y362075D03*
Y358611D03*
X337489Y362075D03*
Y358611D03*
X309489Y362075D03*
Y358611D03*
X298989Y362075D03*
Y358611D03*
X302489Y362075D03*
Y358611D03*
X305989Y362075D03*
Y358611D03*
X333989Y362075D03*
Y358611D03*
X326989Y362075D03*
Y358611D03*
X203300Y165775D03*
X284300D03*
G54D24*
X187576Y41929D03*
X142576D03*
X268690Y41794D03*
X223690D03*
G54D51*
X422422Y8705D03*
X456438D03*
G54D43*
X65271Y274787D03*
Y269787D03*
Y264787D03*
Y259787D03*
Y254787D03*
Y249787D03*
Y244787D03*
G54D16*
X182000Y144211D03*
Y147675D03*
X191300Y162311D03*
X79031Y245311D03*
Y248775D03*
X84031Y245311D03*
Y248775D03*
X162500Y262268D03*
Y265732D03*
X161500Y174268D03*
Y177732D03*
X191300Y165775D03*
X176000Y311268D03*
Y314732D03*
Y265768D03*
Y269232D03*
X175000Y220268D03*
Y223732D03*
X176500Y176768D03*
Y180232D03*
X158000Y174268D03*
Y177732D03*
X159000Y262268D03*
Y265732D03*
X371300Y153811D03*
Y157275D03*
X385000Y155268D03*
Y158732D03*
X203324Y108197D03*
Y111661D03*
X264000Y144268D03*
Y147732D03*
X283824Y106697D03*
Y110161D03*
X371000Y80768D03*
Y84232D03*
X383500Y66268D03*
Y69732D03*
X272300Y162311D03*
X217800Y363111D03*
Y366575D03*
X207300Y363111D03*
Y366575D03*
X272300Y165775D03*
G54D61*
X508807Y181019D03*
G54D34*
X115351Y19842D03*
X77949D03*
X115351Y38346D03*
X77949D03*
G54D25*
X134466Y53937D03*
X195686D03*
X215580Y53802D03*
X276800D03*
G54D52*
X422422Y26618D03*
X456438D03*
G54D35*
X78000Y112000D03*
X154000Y276000D03*
Y231500D03*
Y321500D03*
Y187000D03*
X134500Y276000D03*
X193800Y251043D03*
X121300Y358543D03*
X197000Y181000D03*
X472500Y12500D03*
X459500Y129000D03*
X406800Y81600D03*
X480000Y260000D03*
X527800Y51543D03*
X501300Y369543D03*
G54D53*
X423721Y24649D03*
X455139D03*
G54D17*
X187824Y142078D03*
Y147780D03*
X173000Y133351D03*
Y127649D03*
X196500Y132351D03*
Y126649D03*
X166500Y224851D03*
Y219149D03*
X379000Y65149D03*
Y70851D03*
X268824Y142078D03*
Y147780D03*
X253500Y132651D03*
Y126949D03*
X277900Y132551D03*
Y126849D03*
X373500Y65149D03*
Y70851D03*
X478600Y397951D03*
Y392249D03*
X202200Y361392D03*
Y367094D03*
X212800Y361492D03*
Y367194D03*
X488800Y397951D03*
Y392249D03*
G54D26*
X140174Y22638D03*
X150174Y28622D03*
X179978Y22638D03*
X189978Y28622D03*
X187576Y66929D03*
X177576D03*
X167576D03*
X157576D03*
X147576D03*
X182576Y76929D03*
X172576D03*
X162576D03*
X152576D03*
X142576D03*
X221288Y22503D03*
X231288Y28487D03*
X261092Y22503D03*
X271092Y28487D03*
X268690Y66794D03*
X258690D03*
X248690D03*
X238690D03*
X228690D03*
X263690Y76794D03*
X253690D03*
X243690D03*
X233690D03*
X223690D03*
G54D62*
X508807Y196019D03*
Y211019D03*
Y226019D03*
Y241019D03*
Y256019D03*
Y271019D03*
Y286019D03*
Y301019D03*
Y316019D03*
G54D44*
X6425Y238441D03*
X55637D03*
Y300645D03*
X6425D03*
G54D63*
G01X10000Y-11754D02*
X530496D01*
G02X540496Y-21754I0J-10000D01*
G01Y-415140D01*
G02X530496Y-425140I-10000J0D01*
G01X10000D01*
G02X0Y-415140I0J10000D01*
G01Y-21754D01*
G02X10000Y-11754I10000J0D01*
G01X-19685Y413443D02*
X-7874D01*
Y-425140D01*
X-19685D01*
G02X-27559Y-417266I0J7874D01*
G01Y405569D01*
G02X-19685Y413443I7874J0D01*
G01X0Y-361754D02*
G02X-3937Y-365691I-3937J0D01*
G02X-7874Y-361754I0J3937D01*
G01X0Y-393250D02*
G03X-3937Y-389313I-3937J0D01*
G03X-7874Y-393250I0J-3937D01*
G01X0Y-201754D02*
G02X-3937Y-205691I-3937J0D01*
G02X-7874Y-201754I0J3937D01*
G01X0Y-233250D02*
G03X-3937Y-229313I-3937J0D01*
G03X-7874Y-233250I0J-3937D01*
G01X10000Y413443D02*
X530496D01*
G02X540496Y403443I0J-10000D01*
G01Y10057D01*
G02X530496Y57I-10000J0D01*
G01X10000D01*
G02X0Y10057I0J10000D01*
G01Y403443D01*
G02X10000Y413443I10000J0D01*
G01X0Y71554D02*
G02X-3937Y67617I-3937J0D01*
G02X-7874Y71554I0J3937D01*
G01X0Y40057D02*
G03X-3937Y43994I-3937J0D01*
G03X-7874Y40057I0J-3937D01*
G01X0Y130057D02*
G03X-3937Y133994I-3937J0D01*
G03X-7874Y130057I0J-3937D01*
G01X0Y161554D02*
G02X-3937Y157617I-3937J0D01*
G02X-7874Y161554I0J3937D01*
G01X0Y-83250D02*
G03X-3937Y-79313I-3937J0D01*
G03X-7874Y-83250I0J-3937D01*
G01X0Y-51754D02*
G02X-3937Y-55691I-3937J0D01*
G02X-7874Y-51754I0J3937D01*
G01X0Y341946D02*
G03X-3937Y345883I-3937J0D01*
G03X-7874Y341946I0J-3937D01*
G01X0Y373443D02*
G02X-3937Y369506I-3937J0D01*
G02X-7874Y373443I0J3937D01*
G01X560181Y413443D02*
X548370D01*
Y-425140D01*
X560181D01*
G03X568055Y-417266I0J7874D01*
G01Y405569D01*
G03X560181Y413443I-7874J0D01*
G01X540496Y-173250D02*
G02X544433Y-169313I3937J0D01*
G02X548370Y-173250I0J-3937D01*
G01X540496Y-141754D02*
G03X544433Y-145691I3937J0D01*
G03X548370Y-141754I0J3937D01*
G01X540496Y-385140D02*
G02X544433Y-381203I3937J0D01*
G02X548370Y-385140I0J-3937D01*
G01X540496Y-353643D02*
G03X544433Y-357580I3937J0D01*
G03X548370Y-353643I0J3937D01*
G01X540496Y-51754D02*
G03X544433Y-55691I3937J0D01*
G03X548370Y-51754I0J3937D01*
G01X540496Y-83250D02*
G02X544433Y-79313I3937J0D01*
G02X548370Y-83250I0J-3937D01*
G01X540496Y40057D02*
G02X544433Y43994I3937J0D01*
G02X548370Y40057I0J-3937D01*
G01X540496Y71554D02*
G03X544433Y67617I3937J0D01*
G03X548370Y71554I0J3937D01*
G01X540496Y221554D02*
G03X544433Y217617I3937J0D01*
G03X548370Y221554I0J3937D01*
G01X540496Y190057D02*
G02X544433Y193994I3937J0D01*
G02X548370Y190057I0J-3937D01*
G01X540496Y381554D02*
G03X544433Y377617I3937J0D01*
G03X548370Y381554I0J3937D01*
G01X540496Y350057D02*
G02X544433Y353994I3937J0D01*
G02X548370Y350057I0J-3937D01*
G54D36*
X74738Y185043D03*
X69036D03*
X172851Y230500D03*
X167149D03*
X172851Y319000D03*
X167149D03*
X172851Y184500D03*
X167149D03*
X172851Y274000D03*
X167149D03*
X80851Y215000D03*
X75149D03*
X80851Y220000D03*
X75149D03*
X385449Y141043D03*
X391151D03*
X385449Y146543D03*
X391151D03*
X429851Y379480D03*
X424149D03*
X429851Y388980D03*
X424149D03*
X235151Y389543D03*
X229449D03*
X222651Y289043D03*
X216949D03*
X235151Y403543D03*
X229449D03*
X206949Y283543D03*
X212651D03*
G54D45*
X141295Y393943D03*
X215704D03*
G54D27*
X75111Y65043D03*
X101489D03*
X464811Y164000D03*
X463811Y304000D03*
Y278000D03*
X464811Y242000D03*
Y216000D03*
Y190000D03*
X491189Y164000D03*
X490189Y304000D03*
Y278000D03*
X491189Y242000D03*
Y216000D03*
Y190000D03*
G54D18*
X29532Y103543D03*
X26068D03*
X29532Y74043D03*
X26068D03*
X29532Y65043D03*
X26068D03*
X78263Y271543D03*
X74799D03*
X78263Y253543D03*
X74799D03*
X78263Y264543D03*
X74799D03*
X72619Y190043D03*
X69155D03*
X161732Y219000D03*
X158268D03*
X78263Y275043D03*
X74799D03*
X78263Y268043D03*
X74799D03*
X78263Y257543D03*
X74799D03*
X375532Y135043D03*
X372068D03*
X382532D03*
X379068D03*
X389232Y96000D03*
X385768D03*
X296032Y147543D03*
X292568D03*
X296032Y151543D03*
X292568D03*
X215032Y147543D03*
X211568D03*
X215032Y151543D03*
X211568D03*
X428732Y374480D03*
X425268D03*
X428732Y384480D03*
X425268D03*
X223032Y283543D03*
X219568D03*
G54D54*
X297407Y39528D03*
X349139D03*
X297407Y61968D03*
X349139D03*
G54D55*
X212300Y306161D03*
Y295924D03*
G54D28*
X81489Y85637D03*
Y97449D03*
X105111Y85637D03*
Y97449D03*
G54D46*
X197200Y384806D03*
X195232D03*
X193263D03*
X191295D03*
X189326D03*
X187358D03*
X185389D03*
X183421D03*
X181452D03*
X179484D03*
X177515D03*
X175547D03*
X173578D03*
X171610D03*
X169641D03*
X167673D03*
X165704D03*
X163736D03*
X161767D03*
X159799D03*
X157830D03*
X155862D03*
X153893D03*
X151925D03*
X149956D03*
X207043D03*
X205074D03*
X203106D03*
X201137D03*
X199169D03*
G54D19*
X128009Y85543D03*
X116591D03*
X128009Y97543D03*
X116591D03*
G54D37*
X195300Y295834D03*
Y307252D03*
X184300Y295834D03*
Y307252D03*
G54D56*
X406218Y382132D03*
X404249D03*
X402280D03*
X400312D03*
X398343D03*
X396375D03*
X394406D03*
X392438D03*
X390469D03*
X388501D03*
X386532D03*
X384564D03*
X382595D03*
X380627D03*
X378658D03*
X376690D03*
X374721D03*
X372753D03*
X370784D03*
X368816D03*
X366847D03*
X364879D03*
X362910D03*
X360942D03*
X358973D03*
X357005D03*
X355036D03*
X353068D03*
X351099D03*
X349131D03*
X347162D03*
X345194D03*
X343225D03*
X341257D03*
X339288D03*
X337320D03*
X335351D03*
X333383D03*
X331414D03*
X329446D03*
X327477D03*
X325509D03*
X323540D03*
X321572D03*
X319603D03*
X317635D03*
X315666D03*
X313698D03*
X311729D03*
X309761D03*
G54D47*
X485039Y50000D03*
G54D38*
X104182Y388433D03*
G54D29*
X50327Y48547D03*
Y30043D03*
Y11539D03*
G54D39*
X94182Y378433D03*
X114182D03*
Y398433D03*
X94182D03*
G54D48*
X482500Y12500D03*
X337053Y50196D03*
X327210D03*
X319336D03*
X309493D03*
X337053Y60512D03*
X327210D03*
X319336D03*
X309493D03*
X253781Y381369D03*
X483781D03*
X527800Y81543D03*
Y71543D03*
Y61543D03*
X492500Y12500D03*
X490000Y260000D03*
G54D57*
X302280Y391663D03*
X413698D03*
G54D49*
X369552Y32834D03*
X405772D03*
X372701Y49370D03*
X379001D03*
X369552Y15118D03*
X402229D03*
X373095Y23385D03*
X402623Y49370D03*
G54D58*
X489961Y50000D03*
G54D59*
X526391Y114106D03*
Y121980D03*
Y129854D03*
M02*
