G04 ================== begin FILE IDENTIFICATION RECORD ==================*
G04 Layout Name:  MYB-YF13X-V10-230424.brd*
G04 Film Name:    SOLDTOP*
G04 File Format:  Gerber RS274X*
G04 File Origin:  Cadence Allegro 16.6-2015-S108*
G04 Origin Date:  Mon Apr 24 16:41:06 2023*
G04 *
G04 Layer:  BOARD GEOMETRY/SOLDERMASK_TOP*
G04 Layer:  VIA CLASS/SOLDERMASK_TOP*
G04 Layer:  PIN/SOLDERMASK_TOP*
G04 Layer:  PACKAGE GEOMETRY/SOLDERMASK_TOP*
G04 Layer:  BOARD GEOMETRY/OUTLINE*
G04 *
G04 Offset:    (0.000 0.000)*
G04 Mirror:    No*
G04 Mode:      Positive*
G04 Rotation:  0*
G04 FullContactRelief:  No*
G04 UndefLineWidth:     6.000*
G04 ================== end FILE IDENTIFICATION RECORD ====================*
%FSLAX25Y25*MOIN*%
%IR0*IPPOS*OFA0.00000B0.00000*MIA0B0*SFA1.00000B1.00000*%
%ADD85O,.082677X.094488*%
%ADD17C,.24*%
%ADD10C,.12211*%
%ADD16O,.122047X.051181*%
%ADD28C,.141732*%
%ADD56O,.043307X.141732*%
%ADD75O,.070866X.11811*%
%ADD79C,.129921*%
%ADD36O,.129921X.043307*%
%ADD76O,.062992X.102362*%
%ADD54O,.043307X.129921*%
%AMMACRO24*
4,1,44,-.008268,.01378,
.008268,.01378,
.008882,.013728,
.009478,.013569,
.010037,.01331,
.010542,.012958,
.010979,.012523,
.011334,.012019,
.011595,.011461,
.011756,.010866,
.011811,.010252,
.011811,.010236,
.011811,-.010236,
.011759,-.01085,
.011601,-.011446,
.011342,-.012005,
.010989,-.012511,
.010555,-.012947,
.010051,-.013302,
.009493,-.013564,
.008898,-.013725,
.008284,-.01378,
.008268,-.01378,
-.008268,-.01378,
-.008882,-.013728,
-.009478,-.013569,
-.010037,-.01331,
-.010542,-.012958,
-.010979,-.012523,
-.011334,-.012019,
-.011595,-.011461,
-.011756,-.010866,
-.011811,-.010252,
-.011811,-.010236,
-.011811,.010236,
-.011759,.01085,
-.011601,.011446,
-.011342,.012005,
-.010989,.012511,
-.010555,.012947,
-.010051,.013302,
-.009493,.013564,
-.008898,.013725,
-.008284,.01378,
-.008268,.01378,
0.0*
%
%ADD24MACRO24*%
%AMMACRO18*
4,1,44,-.01378,-.008268,
-.01378,.008268,
-.013728,.008882,
-.013569,.009478,
-.01331,.010037,
-.012958,.010542,
-.012523,.010979,
-.012019,.011334,
-.011461,.011595,
-.010866,.011756,
-.010252,.011811,
-.010236,.011811,
.010236,.011811,
.01085,.011759,
.011446,.011601,
.012005,.011342,
.012511,.010989,
.012947,.010555,
.013302,.010051,
.013564,.009493,
.013725,.008898,
.01378,.008284,
.01378,.008268,
.01378,-.008268,
.013728,-.008882,
.013569,-.009478,
.01331,-.010037,
.012958,-.010542,
.012523,-.010979,
.012019,-.011334,
.011461,-.011595,
.010866,-.011756,
.010252,-.011811,
.010236,-.011811,
-.010236,-.011811,
-.01085,-.011759,
-.011446,-.011601,
-.012005,-.011342,
-.012511,-.010989,
-.012947,-.010555,
-.013302,-.010051,
-.013564,-.009493,
-.013725,-.008898,
-.01378,-.008284,
-.01378,-.008268,
0.0*
%
%ADD18MACRO18*%
%ADD32C,.106299*%
%ADD31C,.127953*%
%ADD29O,.108268X.03937*%
%ADD53O,.106299X.074803*%
%ADD34O,.122047X.094488*%
%ADD40O,.074803X.133858*%
%ADD72R,.125984X.125984*%
%ADD51R,.094488X.122047*%
%ADD37O,.161417X.066929*%
%AMMACRO23*
4,1,44,-.01366,-.008464,
-.013897,.00807,
-.013853,.008685,
-.013704,.009283,
-.013452,.009845,
-.013107,.010356,
-.012679,.010799,
-.01218,.01116,
-.011626,.01143,
-.011033,.011599,
-.01042,.011663,
-.010404,.011663,
.010066,.011956,
.010681,.011913,
.011279,.011763,
.011841,.011512,
.012352,.011167,
.012795,.010739,
.013157,.01024,
.013427,.009686,
.013596,.009093,
.01366,.008481,
.01366,.008464,
.013897,-.00807,
.013853,-.008685,
.013704,-.009283,
.013452,-.009845,
.013107,-.010356,
.012679,-.010799,
.01218,-.01116,
.011626,-.01143,
.011033,-.011599,
.01042,-.011663,
.010404,-.011663,
-.010066,-.011956,
-.010681,-.011913,
-.011279,-.011763,
-.011841,-.011512,
-.012352,-.011167,
-.012795,-.010739,
-.013157,-.01024,
-.013427,-.009686,
-.013596,-.009093,
-.01366,-.008481,
-.01366,-.008464,
0.0*
%
%ADD23MACRO23*%
%AMMACRO14*
21,1,.023622,.011811,0.0,0.0,179.861*
1,1,.011811,-.011811,.000029*
1,1,.011811,.011811,-.000029*%
%ADD14MACRO14*%
%AMMACRO15*
4,1,5,-.086614,-.07365,
-.086614,.086614,
.086614,.086614,
.086614,-.086614,
-.07365,-.086614,
-.086614,-.07365,
0.0*
%
%ADD15MACRO15*%
%AMMACRO59*
4,1,5,-.07365,.086614,
.086614,.086614,
.086614,-.086614,
-.086614,-.086614,
-.086614,.07365,
-.07365,.086614,
0.0*
%
%ADD59MACRO59*%
%ADD11C,.08*%
%ADD62O,.021654X.011811*%
%ADD50C,.061024*%
%ADD13O,.011811X.035433*%
%ADD57O,.035433X.011811*%
%ADD67O,.051181X.023622*%
%ADD93O,.035433X.023622*%
%ADD78O,.01378X.05315*%
%ADD69C,.043307*%
%ADD64O,.023622X.035433*%
%ADD84R,.01772X.069*%
%ADD27C,.035433*%
%ADD88O,.090551X.023622*%
%ADD63C,.01378*%
%ADD55O,.051181X.041339*%
%ADD98C,.090551*%
%ADD94C,.05906*%
%ADD92O,.037402X.041339*%
%ADD83O,.041339X.051181*%
%ADD74O,.01378X.043307*%
%ADD43O,.043307X.090551*%
%ADD35O,.043307X.055118*%
%ADD81O,.055118X.043307*%
%ADD73O,.035433X.055118*%
%ADD61O,.011811X.029528*%
%ADD52O,.055118X.035433*%
%ADD48C,.03937*%
%ADD42O,.074803X.043307*%
%ADD33C,.074803*%
%ADD25O,.043307X.074803*%
%ADD68O,.055118X.090551*%
%ADD70O,.01378X.031496*%
%ADD45C,.086614*%
%ADD71O,.031496X.01378*%
%AMMACRO19*
4,1,44,.01378,.008268,
.01378,-.008268,
.013728,-.008882,
.013569,-.009478,
.01331,-.010037,
.012958,-.010542,
.012523,-.010979,
.012019,-.011334,
.011461,-.011595,
.010866,-.011756,
.010252,-.011811,
.010236,-.011811,
-.010236,-.011811,
-.01085,-.011759,
-.011446,-.011601,
-.012005,-.011342,
-.012511,-.010989,
-.012947,-.010555,
-.013302,-.010051,
-.013564,-.009493,
-.013725,-.008898,
-.01378,-.008284,
-.01378,-.008268,
-.01378,.008268,
-.013728,.008882,
-.013569,.009478,
-.01331,.010037,
-.012958,.010542,
-.012523,.010979,
-.012019,.011334,
-.011461,.011595,
-.010866,.011756,
-.010252,.011811,
-.010236,.011811,
.010236,.011811,
.01085,.011759,
.011446,.011601,
.012005,.011342,
.012511,.010989,
.012947,.010555,
.013302,.010051,
.013564,.009493,
.013725,.008898,
.01378,.008284,
.01378,.008268,
0.0*
%
%ADD19MACRO19*%
%ADD97R,.090551X.090551*%
%ADD95R,.05906X.05906*%
%ADD60R,.041339X.041339*%
%ADD44O,.031496X.047244*%
%AMMACRO20*
4,1,44,.008268,-.01378,
-.008268,-.01378,
-.008882,-.013728,
-.009478,-.013569,
-.010037,-.01331,
-.010542,-.012958,
-.010979,-.012523,
-.011334,-.012019,
-.011595,-.011461,
-.011756,-.010866,
-.011811,-.010252,
-.011811,-.010236,
-.011811,.010236,
-.011759,.01085,
-.011601,.011446,
-.011342,.012005,
-.010989,.012511,
-.010555,.012947,
-.010051,.013302,
-.009493,.013564,
-.008898,.013725,
-.008284,.01378,
-.008268,.01378,
.008268,.01378,
.008882,.013728,
.009478,.013569,
.010037,.01331,
.010542,.012958,
.010979,.012523,
.011334,.012019,
.011595,.011461,
.011756,.010866,
.011811,.010252,
.011811,.010236,
.011811,-.010236,
.011759,-.01085,
.011601,-.011446,
.011342,-.012005,
.010989,-.012511,
.010555,-.012947,
.010051,-.013302,
.009493,-.013564,
.008898,-.013725,
.008284,-.01378,
.008268,-.01378,
0.0*
%
%ADD20MACRO20*%
%ADD80O,.043307X.070866*%
%ADD39C,.062992*%
%ADD21O,.031496X.03937*%
%ADD89O,.098425X.035433*%
%ADD49O,.023622X.082677*%
%ADD22O,.03937X.031496*%
%ADD12C,.019685*%
%ADD66O,.027559X.035433*%
%ADD38C,.082677*%
%ADD91O,.047244X.07874*%
%ADD90O,.062992X.041339*%
%ADD77O,.06299X.03937*%
%ADD65C,.066929*%
%ADD30O,.019685X.055118*%
%ADD82O,.074803X.027559*%
%ADD47O,.055118X.019685*%
%ADD46C,.094488*%
%AMMACRO58*
21,1,.023622,.011811,0.0,0.0,89.861*
1,1,.011811,.000029,.011811*
1,1,.011811,-.000029,-.011811*%
%ADD58MACRO58*%
%ADD96O,.068898X.043307*%
%ADD41R,.066929X.066929*%
%ADD87O,.027559X.059059*%
%ADD86O,.059059X.027559*%
%ADD26O,.043307X.068898*%
%ADD99C,.006*%
G75*
%LPD*%
G75*
G36*
G01X26413Y15057D02*
G03I-11413J0D01*
G37*
G36*
G01Y398443D02*
G03I-11413J0D01*
G37*
G36*
G01X375260Y326573D02*
X376950Y340393D01*
X376970Y340533D01*
X380201Y340633D01*
X380210D01*
G03X381360Y335723I10800J-60D01*
G03X383500Y333743I3206J1319D01*
G03X386000Y335073I276J2495D01*
G03X387560Y340633I-8665J5430D01*
G01X391300D01*
X392550Y326423D01*
X388700Y326403D01*
X388290Y332403D01*
G02X386190Y330583I-6656J5558D01*
G01X385560Y330233D01*
G02X382270Y330243I-1631J4486D01*
G02X379610Y332293I2887J6496D01*
G01X379060Y326433D01*
X375190D01*
X375210Y326633D01*
X375260Y326573D01*
G37*
G36*
G01X392470Y336843D02*
X392490Y340613D01*
G02X398060Y338943I439J-8659D01*
G02X400560Y336293I-4971J-7194D01*
G02X404820Y339943I9422J-6686D01*
G02X408620Y340713I4167J-10804D01*
G01X408650Y336803D01*
Y336683D01*
X407780D01*
G03X404800Y335533I918J-6815D01*
G03X402960Y333613I3220J-4927D01*
G03X402430Y332013I4898J-2510D01*
G01X402420Y326373D01*
X398680D01*
X398670Y331783D01*
G03X397810Y334293I-5016J-316D01*
G03X395830Y335843I-4457J-3653D01*
G03X393370Y336683I-4479J-9094D01*
G01X392470D01*
Y336843D01*
G37*
G36*
G01X410410Y326363D02*
X414060Y326373D01*
X414070Y334773D01*
G03X412230Y335803I-1692J-864D01*
G03X410380Y334813I-119J-2001D01*
G01X410410Y326403D01*
Y326363D01*
G37*
G36*
G01X416130Y340363D02*
Y340873D01*
X425810D01*
G02X429790Y339513I-78J-6733D01*
G02X430920Y337363I-2762J-2824D01*
G02X430870Y335593I-6532J-701D01*
G02X429890Y333573I-4670J1018D01*
G02X428360Y332603I-3518J3858D01*
G02X430050Y331373I-735J-2786D01*
G02X430820Y329293I-4018J-2670D01*
G01X431240Y326363D01*
X427080Y326373D01*
X426710Y328493D01*
G03X426330Y330163I-8473J-1050D01*
G03X424550Y331563I-2279J-1066D01*
G03X423590Y331723I-1673J-7080D01*
G01X419860D01*
X419840Y326323D01*
X416120Y326313D01*
X416090Y335083D01*
X416130Y340363D01*
G37*
G36*
G01X414809Y338803D02*
G03I-2579J0D01*
G37*
G36*
G01X536909Y15057D02*
G03I-11413J0D01*
G37*
G36*
G01Y398443D02*
G03I-11413J0D01*
G37*
%LPC*%
G75*
G36*
G01X425370Y334673D02*
X419870Y334663D01*
X419860Y337953D01*
X425420Y337963D01*
G02X426730Y337163I48J-1393D01*
G02X426850Y336053I-1449J-718D01*
G02X426600Y335293I-2258J322D01*
G02X425370Y334673I-1209J868D01*
G37*
%LPD*%
G75*
G54D10*
X-17474Y-412454D03*
Y399257D03*
X558474Y-412454D03*
Y350257D03*
G54D20*
X166308Y94929D03*
X162844D03*
X166308Y99929D03*
X162844D03*
X160764Y139204D03*
X157300D03*
X168532Y131936D03*
X165068D03*
X190232Y314500D03*
X186768D03*
X74532Y291543D03*
X71068D03*
X122232Y278500D03*
X118768D03*
X122232Y296500D03*
X118768D03*
X122232Y275000D03*
X118768D03*
X107646Y370043D03*
X104182D03*
X431232Y71500D03*
X427768D03*
X319232Y88000D03*
X315768D03*
X245222Y94929D03*
X241758D03*
X245222Y99929D03*
X241758D03*
X462896Y80822D03*
X459432D03*
X402732Y137000D03*
X399268D03*
X359132Y161600D03*
X355668D03*
X359132Y158100D03*
X355668D03*
X462732Y96500D03*
X459268D03*
X363232Y98500D03*
X359768D03*
X363232Y102000D03*
X359768D03*
X363232Y88000D03*
X359768D03*
X363232Y84500D03*
X359768D03*
X379232Y102000D03*
X375768D03*
X363232Y95000D03*
X359768D03*
X363232Y91500D03*
X359768D03*
X398032Y87043D03*
X394568D03*
X418032Y137543D03*
X414568D03*
X241764Y117343D03*
X238300D03*
X451032Y124043D03*
X447568D03*
X241764Y139204D03*
X238300D03*
X462896Y76822D03*
X459432D03*
X444696Y88109D03*
X441232D03*
X462896Y72822D03*
X459432D03*
X249532Y131936D03*
X246068D03*
X402532Y140707D03*
X399068D03*
X402732Y159000D03*
X399268D03*
X370532Y163043D03*
X367068D03*
X468732Y274000D03*
X465268D03*
X468232Y315000D03*
X464768D03*
X403232Y299500D03*
X399768D03*
X403232Y309500D03*
X399768D03*
X403732Y271500D03*
X400268D03*
X468732Y267500D03*
X465268D03*
X403732Y263000D03*
X400268D03*
X403732Y253000D03*
X400268D03*
X403732Y268000D03*
X400268D03*
X520032Y77543D03*
X516568D03*
X520032Y65543D03*
X516568D03*
X520032Y61543D03*
X516568D03*
X520032Y81543D03*
X516568D03*
G54D11*
X-11274Y-385100D03*
X20600Y371900D03*
X-11274Y371300D03*
X551674Y-381200D03*
X527900Y37700D03*
X503000Y386100D03*
X551874Y325200D03*
G54D30*
X145260Y91776D03*
Y101224D03*
X149000Y91776D03*
Y101224D03*
X152740Y91776D03*
Y101224D03*
X176260Y91776D03*
Y101224D03*
X180000Y91776D03*
Y101224D03*
X183740Y91776D03*
Y101224D03*
X257260Y91776D03*
Y101224D03*
X261000Y91776D03*
Y101224D03*
X264740Y91776D03*
Y101224D03*
X226760Y91776D03*
Y101224D03*
X230500Y91776D03*
Y101224D03*
X234240Y91776D03*
Y101224D03*
G54D12*
X-984Y-387345D03*
Y-383408D03*
Y-379471D03*
Y-375534D03*
Y-371597D03*
Y-367660D03*
Y-227345D03*
Y-223408D03*
Y-219471D03*
Y-215534D03*
Y-211597D03*
Y-207660D03*
Y45963D03*
Y49900D03*
Y53837D03*
Y57774D03*
Y61711D03*
Y65648D03*
Y155648D03*
Y151711D03*
Y147774D03*
Y143837D03*
Y139900D03*
Y135963D03*
Y-57660D03*
Y-61597D03*
Y-65534D03*
Y-69471D03*
Y-73408D03*
Y-77345D03*
Y367537D03*
Y363600D03*
Y359663D03*
Y355726D03*
Y351789D03*
Y347852D03*
X426044Y21303D03*
X452816D03*
X541480Y-147659D03*
Y-151596D03*
Y-155533D03*
Y-159470D03*
Y-163407D03*
Y-167344D03*
Y-359549D03*
Y-363486D03*
Y-367423D03*
Y-371360D03*
Y-375297D03*
Y-379234D03*
Y-77344D03*
Y-73407D03*
Y-69470D03*
Y-65533D03*
Y-61596D03*
Y-57659D03*
Y65648D03*
Y61711D03*
Y57774D03*
Y53837D03*
Y49900D03*
Y45963D03*
Y195963D03*
Y199900D03*
Y203837D03*
Y207774D03*
Y211711D03*
Y215648D03*
Y355963D03*
Y359900D03*
Y363837D03*
Y367774D03*
Y371711D03*
Y375648D03*
G54D21*
X60449Y100543D03*
X66151D03*
X8449Y52543D03*
X14151D03*
X60449Y106043D03*
X66151D03*
X191351Y225500D03*
X185649D03*
X191351Y181000D03*
X185649D03*
X191351Y270000D03*
X185649D03*
X400151Y99543D03*
X394449D03*
X427449Y114043D03*
X433151D03*
X452151Y118543D03*
X446449D03*
X458192Y102200D03*
X463894D03*
X413449Y132543D03*
X419151D03*
X403851Y132900D03*
X398149D03*
X403851Y127900D03*
X398149D03*
X354649Y145500D03*
X360351D03*
X412151Y99500D03*
X406449D03*
X481149Y65000D03*
X354941Y154000D03*
X360059D03*
X237441Y113400D03*
X242559D03*
X358441Y80500D03*
X363559D03*
X399149Y282500D03*
X404851D03*
X469851Y278500D03*
X464149D03*
X398649Y319500D03*
X404351D03*
X469494Y319318D03*
X463792D03*
X469851Y258000D03*
X464149D03*
X482851Y250000D03*
X477149D03*
X469851Y263000D03*
X464149D03*
X486851Y65000D03*
X493351Y302500D03*
X487649D03*
X493351Y297000D03*
X487649D03*
X493351Y308000D03*
X487649D03*
X493351Y291500D03*
X487649D03*
G54D22*
X33300Y24192D03*
Y29894D03*
X164000Y158149D03*
Y163851D03*
X26300Y43192D03*
Y48894D03*
X198300Y106984D03*
Y112102D03*
X159800Y115641D03*
Y120759D03*
X404000Y75351D03*
Y69649D03*
X375254Y71894D03*
Y66192D03*
X383128D03*
Y71894D03*
X245000Y158149D03*
Y163851D03*
X420492Y90856D03*
Y85154D03*
X425464Y94460D03*
Y88758D03*
X372500Y113649D03*
Y119351D03*
X279300Y104984D03*
Y110102D03*
X364000Y113941D03*
Y119059D03*
X398500Y70241D03*
Y75359D03*
X448000Y329649D03*
Y335351D03*
X487000Y316149D03*
Y321851D03*
G54D13*
X175988Y147684D03*
X193311D03*
X191736D03*
X190161D03*
X188586D03*
X187011D03*
X185437D03*
X183862D03*
X182287D03*
X180712D03*
X179137D03*
X177563D03*
X193311Y124062D03*
X191736D03*
X190161D03*
X188586D03*
X187011D03*
X185437D03*
X183862D03*
X182287D03*
X180712D03*
X179137D03*
X177563D03*
X175988D03*
X256988Y147684D03*
X274311D03*
X272736D03*
X271161D03*
X269586D03*
X268011D03*
X266437D03*
X264862D03*
X263287D03*
X261712D03*
X260137D03*
X258563D03*
X274311Y124062D03*
X272736D03*
X271161D03*
X269586D03*
X268011D03*
X266437D03*
X264862D03*
X263287D03*
X261712D03*
X260137D03*
X258563D03*
X256988D03*
G54D40*
X115351Y19842D03*
X77949D03*
X115351Y38346D03*
X77949D03*
G54D31*
X187576Y41929D03*
X142576D03*
X268690Y41794D03*
X223690D03*
G54D41*
X78000Y112000D03*
X154000Y276000D03*
Y231500D03*
Y321500D03*
Y187000D03*
X134500Y276000D03*
X193800Y251043D03*
X121300Y358543D03*
X197000Y181000D03*
X472500Y12500D03*
X459500Y129000D03*
X406800Y81600D03*
X480000Y260000D03*
X527800Y51543D03*
X501300Y369543D03*
G54D50*
X117251Y324476D03*
G54D14*
X196460Y144535D03*
Y142960D03*
Y141385D03*
Y139810D03*
Y138235D03*
Y136661D03*
Y135086D03*
Y133511D03*
Y131936D03*
Y130361D03*
Y128787D03*
Y127212D03*
X172838Y144535D03*
Y142960D03*
Y141385D03*
Y139810D03*
Y138235D03*
Y136661D03*
Y135086D03*
Y133511D03*
Y131936D03*
Y130361D03*
Y128787D03*
Y127212D03*
X277460Y144535D03*
Y142960D03*
Y141385D03*
Y139810D03*
Y138235D03*
Y136661D03*
Y135086D03*
Y133511D03*
Y131936D03*
Y130361D03*
Y128787D03*
Y127212D03*
X253838Y144535D03*
Y142960D03*
Y141385D03*
Y139810D03*
Y138235D03*
Y136661D03*
Y135086D03*
Y133511D03*
Y131936D03*
Y130361D03*
Y128787D03*
Y127212D03*
G54D23*
X31825Y45311D03*
X31775Y48775D03*
G54D32*
X134466Y53937D03*
X195686D03*
X215580Y53802D03*
X276800D03*
G54D60*
X485039Y50000D03*
G54D33*
X140174Y22638D03*
X150174Y28622D03*
X179978Y22638D03*
X189978Y28622D03*
X187576Y66929D03*
X177576D03*
X167576D03*
X157576D03*
X147576D03*
X182576Y76929D03*
X172576D03*
X162576D03*
X152576D03*
X142576D03*
X221288Y22503D03*
X231288Y28487D03*
X261092Y22503D03*
X271092Y28487D03*
X268690Y66794D03*
X258690D03*
X248690D03*
X238690D03*
X228690D03*
X263690Y76794D03*
X253690D03*
X243690D03*
X233690D03*
X223690D03*
G54D42*
X21300Y282334D03*
Y293752D03*
X517300Y373109D03*
Y361691D03*
G54D15*
X184649Y135873D03*
X265649D03*
G54D51*
X125912Y335893D03*
X10164D03*
G54D24*
X157300Y143204D03*
X160764D03*
X71068Y287543D03*
X74532D03*
X141268Y326000D03*
X144732D03*
X141268Y322500D03*
X144732D03*
X141268Y231500D03*
X144732D03*
X141268Y235000D03*
X144732D03*
X141268Y186000D03*
X144732D03*
X141268Y189500D03*
X144732D03*
X141268Y274500D03*
X144732D03*
X141268Y278000D03*
X144732D03*
X459268Y106500D03*
X462732D03*
X481768Y60500D03*
X295268Y88000D03*
X298732D03*
X447568Y132043D03*
X451032D03*
X394568Y91043D03*
X398032D03*
X238300Y120843D03*
X241764D03*
X417106Y80483D03*
X420570D03*
X441232Y76609D03*
X444696D03*
X355768Y150000D03*
X359232D03*
X399268Y155500D03*
X402732D03*
X292568Y143543D03*
X296032D03*
X394568Y95043D03*
X398032D03*
X359268Y75500D03*
X362732D03*
X292568Y139543D03*
X296032D03*
X292668Y119543D03*
X296132D03*
X292568Y135543D03*
X296032D03*
X292568Y127543D03*
X296032D03*
X292568Y131543D03*
X296032D03*
X292568Y123543D03*
X296032D03*
X292568Y115543D03*
X296032D03*
X209568Y135543D03*
X213032D03*
X209568Y127543D03*
X213032D03*
X209568Y131543D03*
X213032D03*
X209568Y123543D03*
X213032D03*
X209568Y139543D03*
X213032D03*
X209568Y143543D03*
X213032D03*
X209568Y115543D03*
X213032D03*
X209568Y119543D03*
X213032D03*
X238300Y143204D03*
X241764D03*
X292568Y111543D03*
X296032D03*
X209568D03*
X213032D03*
X447568Y128043D03*
X451032D03*
X292568Y147543D03*
X296032D03*
X292568Y151543D03*
X296032D03*
X209568D03*
X213032D03*
X209568Y147543D03*
X213032D03*
X459768Y65000D03*
X463232D03*
X459768Y55000D03*
X463232D03*
X425862Y75509D03*
X429326D03*
X433232Y88109D03*
X436696D03*
X441232Y80609D03*
X444696D03*
X459268Y93000D03*
X462732D03*
X433068Y80609D03*
X436532D03*
X459434Y88892D03*
X462898D03*
X459432Y84822D03*
X462896D03*
X399268Y162500D03*
X402732D03*
X400268Y278000D03*
X403732D03*
X399768Y315000D03*
X403232D03*
X465268Y253000D03*
X468732D03*
X400268Y258000D03*
X403732D03*
X485232Y60500D03*
G54D70*
X373285Y77831D03*
Y96139D03*
X375254Y77831D03*
Y96139D03*
X377222Y77831D03*
Y96139D03*
X379191Y77831D03*
Y96139D03*
X381159Y77831D03*
Y96139D03*
X383128Y77831D03*
Y96139D03*
X385096Y77831D03*
Y96139D03*
X387065Y77831D03*
Y96139D03*
G54D25*
X57591Y92543D03*
X69009D03*
X9091Y37543D03*
X20509D03*
X137291Y341500D03*
X148709D03*
X137291Y249500D03*
X148709D03*
X194209Y242500D03*
X182791D03*
X137291Y332500D03*
X148709D03*
X194209Y321000D03*
X182791D03*
X194209Y330000D03*
X182791D03*
X137291Y241000D03*
X148709D03*
X194209Y233000D03*
X182791D03*
X137291Y204000D03*
X148709D03*
X194209Y198000D03*
X182791D03*
X194209Y188500D03*
X182791D03*
X137291Y195500D03*
X148709D03*
X194209Y286000D03*
X182791D03*
X194209Y277000D03*
X182791D03*
X137591Y284043D03*
X149009D03*
X137591Y294043D03*
X149009D03*
X435009Y66273D03*
X423591D03*
X323709Y81500D03*
X312291D03*
X291791D03*
X303209D03*
G54D52*
X37300Y293083D03*
Y286003D03*
G54D61*
X450177Y84365D03*
X451751D03*
Y78853D03*
X450177D03*
G54D43*
X109300Y358543D03*
X99064D03*
G54D34*
X50327Y48547D03*
Y30043D03*
Y11539D03*
G54D16*
X178300Y156240D03*
Y165846D03*
X415300Y124346D03*
Y114740D03*
X258830Y155240D03*
Y164846D03*
G54D26*
X8682Y46043D03*
X18919D03*
G54D80*
X291300Y95043D03*
X302300D03*
X323300D03*
X312300D03*
G54D44*
X104182Y363858D03*
Y353228D03*
G54D71*
X371021Y80095D03*
Y82064D03*
Y84032D03*
Y86001D03*
Y87969D03*
Y89938D03*
Y91906D03*
Y93875D03*
X389329Y80095D03*
Y82064D03*
Y84032D03*
Y86001D03*
Y87969D03*
Y89938D03*
Y91906D03*
Y93875D03*
G54D35*
X144960Y126345D03*
Y135401D03*
X152048Y126345D03*
Y135401D03*
X348756Y129015D03*
Y138071D03*
X355844Y129015D03*
Y138071D03*
X225756Y125141D03*
Y134196D03*
X232844Y125141D03*
Y134196D03*
G54D62*
X453917Y83971D03*
Y82396D03*
Y80822D03*
Y79247D03*
X448011Y83971D03*
Y82396D03*
Y80822D03*
Y79247D03*
G54D53*
X165300Y282094D03*
Y300992D03*
Y192594D03*
Y211492D03*
X165800Y327594D03*
Y346492D03*
X165300Y237094D03*
Y255992D03*
G54D17*
X19416Y133924D03*
X116660D03*
G54D90*
X479784Y295269D03*
X465216D03*
X479784Y304731D03*
X465216D03*
G54D45*
X104182Y388433D03*
G54D81*
X392028Y112956D03*
X382972D03*
X392028Y120044D03*
X382972D03*
G54D63*
X429326Y83684D03*
X427751D03*
X426177D03*
X424602D03*
X429326Y82109D03*
X427751D03*
X426177D03*
X424602D03*
Y80534D03*
X426177D03*
X427751D03*
X429326D03*
G54D27*
X21320Y21377D03*
X23900Y15057D03*
X21300Y8757D03*
X15000Y6157D03*
X8700Y8757D03*
X6100Y15057D03*
X8720Y21337D03*
X15000Y23957D03*
X198100Y116843D03*
X165800Y127043D03*
X21320Y404763D03*
X23900Y398443D03*
X21300Y392143D03*
X15000Y389543D03*
X8700Y392143D03*
X6100Y398443D03*
X8720Y404723D03*
X15000Y407343D03*
X132300Y304543D03*
Y311043D03*
X87800Y355043D03*
X131800Y176543D03*
Y184043D03*
Y168543D03*
X191300Y356043D03*
X399000Y152000D03*
X364500Y106000D03*
X354500D03*
X359500D03*
X354000Y96500D03*
Y91500D03*
X279300Y118043D03*
X247800Y127043D03*
X462500Y111000D03*
X313500Y101500D03*
X302500D03*
X531816Y21377D03*
X534396Y15057D03*
X531796Y8757D03*
X525496Y6157D03*
X519196Y8757D03*
X516596Y15057D03*
X519216Y21337D03*
X525496Y23957D03*
X508043Y103700D03*
X531816Y404763D03*
X534396Y398443D03*
X531796Y392143D03*
X525496Y389543D03*
X519196Y392143D03*
X516596Y398443D03*
X519216Y404723D03*
X525496Y407343D03*
G54D72*
X380175Y86985D03*
G54D18*
X157300Y125007D03*
Y128471D03*
X193300Y108311D03*
Y111775D03*
X169000Y159268D03*
Y162732D03*
X163600Y116468D03*
Y119932D03*
X159353Y159311D03*
Y162775D03*
X191300Y159311D03*
Y162775D03*
X195300Y159311D03*
Y162775D03*
X134500Y93768D03*
Y97232D03*
X148000Y217768D03*
Y221232D03*
X65676Y287811D03*
Y291275D03*
X148000Y307768D03*
Y311232D03*
X147500Y174268D03*
Y177732D03*
X148500Y262268D03*
Y265732D03*
X151500Y307768D03*
Y311232D03*
X89300Y275311D03*
Y278775D03*
X151500Y217768D03*
Y221232D03*
X151000Y174268D03*
Y177732D03*
X152000Y262268D03*
Y265732D03*
X361300Y129811D03*
Y133275D03*
X383128Y58811D03*
Y62275D03*
X452175Y37811D03*
Y41275D03*
X427675Y37811D03*
Y41275D03*
X375254Y58811D03*
Y62275D03*
X238300Y125007D03*
Y128471D03*
X249500Y159268D03*
Y162732D03*
X274300Y106670D03*
Y110134D03*
X368000Y114768D03*
Y118232D03*
X240500Y159268D03*
Y162732D03*
X431175Y37811D03*
Y41275D03*
X448675Y37811D03*
Y41275D03*
X283824Y106697D03*
Y110161D03*
X203324Y108197D03*
Y111661D03*
X280300Y159311D03*
Y162775D03*
X199300Y159311D03*
Y162775D03*
X476500Y23725D03*
Y27189D03*
X272300Y159311D03*
Y162775D03*
X276300Y159311D03*
Y162775D03*
X284300Y159311D03*
Y162775D03*
X288300Y159311D03*
Y162775D03*
X203300Y159311D03*
Y162775D03*
X207300Y159311D03*
Y162775D03*
X242300Y128472D03*
Y131936D03*
X377000Y114768D03*
Y118232D03*
X385700Y105368D03*
Y108832D03*
X479900Y150068D03*
Y153532D03*
X476400Y150068D03*
Y153532D03*
X211500Y93268D03*
Y96732D03*
X203500Y93268D03*
Y96732D03*
X283500Y93268D03*
Y96732D03*
X441675Y37811D03*
Y41275D03*
X445175Y37811D03*
Y41275D03*
X434675Y37811D03*
Y41275D03*
X332000Y79268D03*
Y82732D03*
X337500Y79268D03*
Y82732D03*
X342500Y79268D03*
Y82732D03*
X348000Y79268D03*
Y82732D03*
X438175Y37811D03*
Y41275D03*
X482500Y23725D03*
Y27189D03*
X472500Y23725D03*
Y27189D03*
X478900Y195068D03*
Y198532D03*
X482400Y195068D03*
Y198532D03*
X469900Y195068D03*
Y198532D03*
X473400Y195068D03*
Y198532D03*
X443000Y330768D03*
Y334232D03*
X486400Y150068D03*
Y153532D03*
X486500Y23725D03*
Y27189D03*
X511000Y137413D03*
Y140877D03*
X491500Y317268D03*
Y320732D03*
X497500Y298268D03*
Y301732D03*
X496000Y317268D03*
Y320732D03*
G54D54*
X70800Y356413D03*
Y377673D03*
X42300Y356413D03*
Y377673D03*
G54D36*
X74930Y73043D03*
X53670D03*
G54D46*
X94182Y378433D03*
X114182D03*
Y398433D03*
X94182D03*
G54D82*
X472079Y93790D03*
Y98790D03*
Y103790D03*
Y123790D03*
Y118790D03*
Y113790D03*
Y108790D03*
X498497Y93790D03*
Y98790D03*
Y103790D03*
Y108790D03*
Y113790D03*
Y118790D03*
Y123790D03*
G54D91*
X415300Y222448D03*
X425300D03*
X435300D03*
X445300D03*
X415300Y185637D03*
X425300D03*
X435300D03*
X445300D03*
G54D19*
X157300Y135400D03*
Y131936D03*
X151300Y162775D03*
Y159311D03*
X155353Y162775D03*
Y159311D03*
X167100Y119975D03*
Y116511D03*
X187300Y162775D03*
Y159311D03*
X161300Y131936D03*
Y128472D03*
X140000Y97232D03*
Y93768D03*
X155000Y311232D03*
Y307768D03*
X84300Y278775D03*
Y275311D03*
X37300Y278675D03*
Y275211D03*
X155000Y221232D03*
Y217768D03*
X154500Y177732D03*
Y174268D03*
X155500Y265732D03*
Y262268D03*
X361300Y140275D03*
Y136811D03*
X238300Y135400D03*
Y131936D03*
X408500Y74232D03*
Y70768D03*
X429964Y93341D03*
Y89877D03*
X389200Y108832D03*
Y105368D03*
X268300Y162775D03*
Y159311D03*
X232500Y162732D03*
Y159268D03*
X236500Y162732D03*
Y159268D03*
X279500Y96732D03*
Y93268D03*
X216000Y96732D03*
Y93268D03*
X199000Y96732D03*
Y93268D03*
X469400Y153532D03*
Y150068D03*
X472900Y153532D03*
Y150068D03*
X425300Y177775D03*
Y174311D03*
X445300Y177775D03*
Y174311D03*
X435300Y177775D03*
Y174311D03*
X425300Y235275D03*
Y231811D03*
X435300Y235275D03*
Y231811D03*
X445300Y235275D03*
Y231811D03*
X388700Y168575D03*
Y165111D03*
X382200Y168575D03*
Y165111D03*
X511000Y133877D03*
Y130413D03*
G54D73*
X465040Y49500D03*
X457960D03*
G54D55*
X90209Y283740D03*
Y291346D03*
X82784Y287543D03*
X117091Y291303D03*
Y283697D03*
X124516Y287500D03*
X442873Y94806D03*
Y102412D03*
X435448Y98609D03*
G54D64*
X336743Y97150D03*
Y90850D03*
X332793Y97150D03*
Y90850D03*
X347252Y97150D03*
Y90850D03*
X343302Y97150D03*
Y90850D03*
G54D37*
X96650Y21811D03*
G54D28*
X15000Y15057D03*
Y398443D03*
X525496Y15057D03*
Y398443D03*
G54D47*
X174524Y265803D03*
X165076D03*
X174524Y269543D03*
X165076D03*
X174524Y273283D03*
X165076D03*
X174524Y310303D03*
X165076D03*
X174524Y314043D03*
X165076D03*
X174524Y317783D03*
X165076D03*
X175024Y176303D03*
X165576D03*
X175024Y180043D03*
X165576D03*
X175024Y183783D03*
X165576D03*
X175024Y220803D03*
X165576D03*
X175024Y224543D03*
X165576D03*
X175024Y228283D03*
X165576D03*
G54D65*
X482500Y12500D03*
X337053Y50196D03*
X327210D03*
X319336D03*
X309493D03*
X337053Y60512D03*
X327210D03*
X319336D03*
X309493D03*
X253781Y381369D03*
X483781D03*
X527800Y81543D03*
Y71543D03*
Y61543D03*
X492500Y12500D03*
X490000Y260000D03*
G54D38*
X96650Y45433D03*
G54D74*
X449745Y23665D03*
X447776D03*
X445808D03*
X443839D03*
X441871D03*
X439902D03*
X437934D03*
X435965D03*
X433997D03*
X432028D03*
X430060D03*
X428091D03*
G54D83*
X475697Y73091D03*
X483303D03*
X479500Y80516D03*
X490697Y73091D03*
X498303D03*
X494500Y80516D03*
G54D92*
X489961Y50000D03*
G54D29*
X38619Y76917D03*
X15981D03*
X38619Y61169D03*
X15981D03*
X38619Y106417D03*
X15981D03*
X38619Y90669D03*
X15981D03*
G54D56*
X136861Y369360D03*
X146861D03*
X156861D03*
X136861Y393376D03*
X146861D03*
X156861D03*
X166861Y369360D03*
X176861D03*
X186900D03*
X196900D03*
X166861Y393376D03*
X176861D03*
X186861D03*
X196861D03*
X206900Y369360D03*
X216900D03*
X226900D03*
X206861Y393376D03*
X216861D03*
X226861D03*
X248742Y369361D03*
X258742D03*
X268742D03*
X278742D03*
X288742D03*
X248742Y393377D03*
X258742D03*
X268742D03*
X278742D03*
X288742D03*
X298742Y369361D03*
X308742D03*
X318742D03*
X328742D03*
X338742D03*
X348742D03*
X358742D03*
X368742D03*
X378742D03*
X388742D03*
X298742Y393377D03*
X308742D03*
X318742D03*
X328742D03*
X338742D03*
X348742D03*
X358742D03*
X368742D03*
X378742D03*
X388742D03*
X398742Y369361D03*
X408742D03*
X418742D03*
X398742Y393377D03*
X408742D03*
X418742D03*
X428742Y369361D03*
X438742D03*
X448781D03*
X458781D03*
X468781D03*
X478781D03*
X428742Y393377D03*
X438742D03*
X448742D03*
X458742D03*
X468742D03*
X478742D03*
X488781Y369361D03*
X488742Y393377D03*
G54D66*
X464453Y60500D03*
X458547D03*
G54D39*
X96650Y9016D03*
X141900Y381368D03*
X221900D03*
X461500Y330732D03*
X471500D03*
X481500D03*
X491500D03*
G54D48*
X16729Y204952D03*
Y173456D03*
X18825Y324476D03*
G54D84*
X483400Y162875D03*
X480841D03*
X478282D03*
X475723D03*
X473164D03*
X470605D03*
X468046D03*
X465487D03*
X483400Y186103D03*
X480841D03*
X478282D03*
X475723D03*
X473164D03*
X470605D03*
X468046D03*
X465487D03*
G54D93*
X502650Y133670D03*
X496350D03*
X502650Y137620D03*
X496350D03*
G54D57*
X391156Y155279D03*
Y137956D03*
Y139531D03*
Y141106D03*
Y142681D03*
Y144256D03*
Y145830D03*
Y147405D03*
Y148980D03*
Y150555D03*
Y152130D03*
Y153704D03*
X367534Y137956D03*
Y139531D03*
Y141106D03*
Y142681D03*
Y144256D03*
Y145830D03*
Y147405D03*
Y148980D03*
Y150555D03*
Y152130D03*
Y153704D03*
Y155279D03*
G54D75*
X422422Y8705D03*
X456438D03*
G54D58*
X388006Y134807D03*
X386432D03*
X384857D03*
X383282D03*
X381707D03*
X380132D03*
X378557D03*
X376983D03*
X375408D03*
X373833D03*
X372258D03*
X370684D03*
X388006Y158429D03*
X386432D03*
X384857D03*
X383282D03*
X381707D03*
X380132D03*
X378557D03*
X376983D03*
X375408D03*
X373833D03*
X372258D03*
X370684D03*
G54D49*
X114495Y341011D03*
X111345D03*
X108195D03*
X105046D03*
X101896D03*
X98747D03*
X95597D03*
X92447D03*
X76699D03*
X73550D03*
X100321Y307941D03*
X103471D03*
X106621D03*
X109770D03*
X112920D03*
X97172D03*
X94022D03*
X90873D03*
X75125D03*
X71975D03*
X70400Y341011D03*
X67251D03*
X64101D03*
X60951D03*
X57802D03*
X54652D03*
X51503D03*
X48353D03*
X45203D03*
X42054D03*
X38904D03*
X35755D03*
X32605D03*
X29455D03*
X26306D03*
X23156D03*
X68825Y307941D03*
X65676D03*
X62526D03*
X59377D03*
X56227D03*
X53077D03*
X49928D03*
X46778D03*
X43629D03*
X40479D03*
X37329D03*
X34180D03*
X31030D03*
X27881D03*
X24731D03*
X21581D03*
G54D94*
X526391Y114106D03*
Y121980D03*
Y129854D03*
G54D67*
X428985Y127980D03*
Y124043D03*
Y120106D03*
X439615D03*
Y127980D03*
G54D76*
X422422Y26618D03*
X456438D03*
G54D85*
X420839Y54500D03*
X438161D03*
G54D86*
X212039Y321540D03*
X357709Y183745D03*
Y187682D03*
Y191619D03*
Y195556D03*
Y199493D03*
Y203430D03*
Y207367D03*
Y211304D03*
Y215241D03*
Y219178D03*
Y223115D03*
Y227052D03*
Y230989D03*
Y234926D03*
Y238863D03*
Y242800D03*
Y246737D03*
Y250674D03*
Y254611D03*
Y258548D03*
Y262485D03*
Y266422D03*
Y270359D03*
Y274296D03*
Y278234D03*
Y282170D03*
Y286108D03*
Y290045D03*
Y293982D03*
Y297918D03*
Y301856D03*
Y305793D03*
Y309730D03*
Y313666D03*
Y317604D03*
Y321540D03*
X212039Y313666D03*
Y309730D03*
Y305793D03*
Y301856D03*
Y297918D03*
Y293982D03*
Y290045D03*
Y286108D03*
Y282170D03*
Y278234D03*
Y274296D03*
Y270359D03*
Y266422D03*
Y262485D03*
Y258548D03*
Y254611D03*
Y250674D03*
Y246737D03*
Y242800D03*
Y238863D03*
Y234926D03*
Y230989D03*
Y227052D03*
Y223115D03*
Y219178D03*
Y215241D03*
Y211304D03*
Y207367D03*
Y203430D03*
Y199493D03*
Y195556D03*
Y191619D03*
Y187682D03*
Y183745D03*
Y317604D03*
Y325478D03*
X357709D03*
Y179808D03*
X212039D03*
G54D77*
X423721Y24649D03*
X455139D03*
G54D95*
X526391Y106232D03*
G54D68*
X369552Y32834D03*
X405772D03*
X372701Y49370D03*
X379001D03*
X369552Y15118D03*
X402229D03*
X373095Y23385D03*
X402623Y49370D03*
G54D59*
X379345Y146618D03*
G54D87*
X219913Y175871D03*
X349835Y329415D03*
X345898D03*
X341961D03*
X338024D03*
X334087D03*
X330150D03*
X326213D03*
X322276D03*
X318339D03*
X314402D03*
X310465D03*
X306528D03*
X302590D03*
X298654D03*
X294716D03*
X290780D03*
X286842D03*
X282906D03*
X278968D03*
X275032D03*
X271094D03*
X267158D03*
X263220D03*
X259283D03*
X255346D03*
X251409D03*
X247472D03*
X243535D03*
X239598D03*
X235661D03*
X231724D03*
X227787D03*
X223850D03*
X219913D03*
X223850Y175871D03*
X227787D03*
X231724D03*
X235661D03*
X239598D03*
X243535D03*
X247472D03*
X251409D03*
X255346D03*
X259283D03*
X263220D03*
X267158D03*
X271094D03*
X275032D03*
X278968D03*
X282906D03*
X286842D03*
X290780D03*
X294716D03*
X298654D03*
X302590D03*
X306528D03*
X310465D03*
X314402D03*
X318339D03*
X322276D03*
X326213D03*
X330150D03*
X334087D03*
X338024D03*
X341961D03*
X345898D03*
X349835D03*
X215976Y329415D03*
X353772D03*
Y175871D03*
X215976D03*
G54D96*
X526500Y372618D03*
Y362381D03*
G54D69*
X387662Y37165D03*
G54D78*
X429115Y29590D03*
X431084D03*
X433052D03*
X435021D03*
X436989D03*
X438958D03*
X440926D03*
X442895D03*
X444863D03*
X446832D03*
X448800D03*
X450769D03*
G54D97*
X508807Y181019D03*
G54D88*
X452898Y278000D03*
Y273000D03*
Y268000D03*
Y263000D03*
Y258000D03*
Y253000D03*
Y248000D03*
Y243000D03*
X415102D03*
Y248000D03*
Y253000D03*
Y258000D03*
Y263000D03*
Y268000D03*
Y273000D03*
Y278000D03*
G54D79*
X297407Y39528D03*
X349139D03*
X297407Y61968D03*
X349139D03*
G54D89*
X415173Y319500D03*
Y309500D03*
Y299500D03*
Y289500D03*
X451827D03*
Y299500D03*
Y309500D03*
Y319500D03*
G54D98*
X508807Y196019D03*
Y211019D03*
Y226019D03*
Y241019D03*
Y256019D03*
Y271019D03*
Y286019D03*
Y301019D03*
Y316019D03*
G54D99*
G01X10000Y-11754D02*
X530496D01*
G02X540496Y-21754I0J-10000D01*
G01Y-415140D01*
G02X530496Y-425140I-10000J0D01*
G01X10000D01*
G02X0Y-415140I0J10000D01*
G01Y-21754D01*
G02X10000Y-11754I10000J0D01*
G01X-19685Y413443D02*
X-7874D01*
Y-425140D01*
X-19685D01*
G02X-27559Y-417266I0J7874D01*
G01Y405569D01*
G02X-19685Y413443I7874J0D01*
G01X0Y-361754D02*
G02X-3937Y-365691I-3937J0D01*
G02X-7874Y-361754I0J3937D01*
G01X0Y-393250D02*
G03X-3937Y-389313I-3937J0D01*
G03X-7874Y-393250I0J-3937D01*
G01X0Y-201754D02*
G02X-3937Y-205691I-3937J0D01*
G02X-7874Y-201754I0J3937D01*
G01X0Y-233250D02*
G03X-3937Y-229313I-3937J0D01*
G03X-7874Y-233250I0J-3937D01*
G01X10000Y413443D02*
X530496D01*
G02X540496Y403443I0J-10000D01*
G01Y10057D01*
G02X530496Y57I-10000J0D01*
G01X10000D01*
G02X0Y10057I0J10000D01*
G01Y403443D01*
G02X10000Y413443I10000J0D01*
G01X0Y71554D02*
G02X-3937Y67617I-3937J0D01*
G02X-7874Y71554I0J3937D01*
G01X0Y40057D02*
G03X-3937Y43994I-3937J0D01*
G03X-7874Y40057I0J-3937D01*
G01X0Y130057D02*
G03X-3937Y133994I-3937J0D01*
G03X-7874Y130057I0J-3937D01*
G01X0Y161554D02*
G02X-3937Y157617I-3937J0D01*
G02X-7874Y161554I0J3937D01*
G01X0Y-83250D02*
G03X-3937Y-79313I-3937J0D01*
G03X-7874Y-83250I0J-3937D01*
G01X0Y-51754D02*
G02X-3937Y-55691I-3937J0D01*
G02X-7874Y-51754I0J3937D01*
G01X0Y341946D02*
G03X-3937Y345883I-3937J0D01*
G03X-7874Y341946I0J-3937D01*
G01X0Y373443D02*
G02X-3937Y369506I-3937J0D01*
G02X-7874Y373443I0J3937D01*
G01X560181Y413443D02*
X548370D01*
Y-425140D01*
X560181D01*
G03X568055Y-417266I0J7874D01*
G01Y405569D01*
G03X560181Y413443I-7874J0D01*
G01X540496Y-173250D02*
G02X544433Y-169313I3937J0D01*
G02X548370Y-173250I0J-3937D01*
G01X540496Y-141754D02*
G03X544433Y-145691I3937J0D01*
G03X548370Y-141754I0J3937D01*
G01X540496Y-385140D02*
G02X544433Y-381203I3937J0D01*
G02X548370Y-385140I0J-3937D01*
G01X540496Y-353643D02*
G03X544433Y-357580I3937J0D01*
G03X548370Y-353643I0J3937D01*
G01X540496Y-51754D02*
G03X544433Y-55691I3937J0D01*
G03X548370Y-51754I0J3937D01*
G01X540496Y-83250D02*
G02X544433Y-79313I3937J0D01*
G02X548370Y-83250I0J-3937D01*
G01X540496Y40057D02*
G02X544433Y43994I3937J0D01*
G02X548370Y40057I0J-3937D01*
G01X540496Y71554D02*
G03X544433Y67617I3937J0D01*
G03X548370Y71554I0J3937D01*
G01X540496Y221554D02*
G03X544433Y217617I3937J0D01*
G03X548370Y221554I0J3937D01*
G01X540496Y190057D02*
G02X544433Y193994I3937J0D01*
G02X548370Y190057I0J-3937D01*
G01X540496Y381554D02*
G03X544433Y377617I3937J0D01*
G03X548370Y381554I0J3937D01*
G01X540496Y350057D02*
G02X544433Y353994I3937J0D01*
G02X548370Y350057I0J-3937D01*
M02*
