G04 ================== begin FILE IDENTIFICATION RECORD ==================*
G04 Layout Name:  MYB-YF13X-V10-230424.brd*
G04 Film Name:    TOP*
G04 File Format:  Gerber RS274X*
G04 File Origin:  Cadence Allegro 16.6-2015-S108*
G04 Origin Date:  Mon Apr 24 16:41:06 2023*
G04 *
G04 Layer:  BOARD GEOMETRY/OUTLINE*
G04 Layer:  ETCH/TOP*
G04 Layer:  PIN/TOP*
G04 Layer:  VIA CLASS/TOP*
G04 *
G04 Offset:    (0.000 0.000)*
G04 Mirror:    No*
G04 Mode:      Positive*
G04 Rotation:  0*
G04 FullContactRelief:  No*
G04 UndefLineWidth:     6.000*
G04 ================== end FILE IDENTIFICATION RECORD ====================*
%FSLAX25Y25*MOIN*%
%IR0*IPPOS*OFA0.00000B0.00000*MIA0B0*SFA1.00000B1.00000*%
%AMMACRO14*
21,1,.023622,.007874,0.0,0.0,179.861*
1,1,.007874,-.011811,.000029*
1,1,.007874,.011811,-.000029*%
%ADD14MACRO14*%
%ADD17C,.236*%
%ADD10C,.11811*%
%ADD33C,.102362*%
%ADD35O,.11811X.090551*%
%ADD16O,.11811X.047244*%
%ADD54R,.090551X.11811*%
%AMMACRO24*
4,1,44,-.00689,.011811,
.00689,.011811,
.007401,.011768,
.007897,.011637,
.008363,.011421,
.008784,.011128,
.009148,.010766,
.009444,.010347,
.009662,.009882,
.009797,.009387,
.009843,.008876,
.009843,.008858,
.009843,-.008858,
.0098,-.009369,
.009669,-.009865,
.009453,-.010331,
.00916,-.010752,
.008798,-.011116,
.008379,-.011412,
.007914,-.01163,
.007419,-.011765,
.006908,-.011811,
.00689,-.011811,
-.00689,-.011811,
-.007401,-.011768,
-.007897,-.011637,
-.008363,-.011421,
-.008784,-.011128,
-.009148,-.010766,
-.009444,-.010347,
-.009662,-.009882,
-.009797,-.009387,
-.009843,-.008876,
-.009843,-.008858,
-.009843,.008858,
-.0098,.009369,
-.009669,.009865,
-.009453,.010331,
-.00916,.010752,
-.008798,.011116,
-.008379,.011412,
-.007914,.01163,
-.007419,.011765,
-.006908,.011811,
-.00689,.011811,
0.0*
%
%ADD24MACRO24*%
%AMMACRO18*
4,1,44,-.011811,-.00689,
-.011811,.00689,
-.011768,.007401,
-.011637,.007897,
-.011421,.008363,
-.011128,.008784,
-.010766,.009148,
-.010347,.009444,
-.009882,.009662,
-.009387,.009797,
-.008876,.009843,
-.008858,.009843,
.008858,.009843,
.009369,.0098,
.009865,.009669,
.010331,.009453,
.010752,.00916,
.011116,.008798,
.011412,.008379,
.01163,.007914,
.011765,.007419,
.011811,.006908,
.011811,.00689,
.011811,-.00689,
.011768,-.007401,
.011637,-.007897,
.011421,-.008363,
.011128,-.008784,
.010766,-.009148,
.010347,-.009444,
.009882,-.009662,
.009387,-.009797,
.008876,-.009843,
.008858,-.009843,
-.008858,-.009843,
-.009369,-.0098,
-.009865,-.009669,
-.010331,-.009453,
-.010752,-.00916,
-.011116,-.008798,
-.011412,-.008379,
-.01163,-.007914,
-.011765,-.007419,
-.011811,-.006908,
-.011811,-.00689,
0.0*
%
%ADD18MACRO18*%
%ADD74R,.122047X.122047*%
%ADD77O,.062992X.110236*%
%ADD56O,.102362X.070866*%
%ADD32C,.127953*%
%ADD81C,.125984*%
%ADD66C,.009843*%
%AMMACRO23*
4,1,44,-.011711,-.007058,
-.011908,.00672,
-.011873,.007232,
-.011748,.00773,
-.01154,.008199,
-.011253,.008624,
-.010896,.008993,
-.010481,.009295,
-.01002,.00952,
-.009527,.009661,
-.009016,.009715,
-.008998,.009715,
.008716,.009969,
.009228,.009933,
.009726,.009809,
.010195,.0096,
.01062,.009313,
.010989,.008957,
.011291,.008542,
.011516,.00808,
.011657,.007587,
.011711,.007077,
.011711,.007058,
.011908,-.00672,
.011873,-.007232,
.011748,-.00773,
.01154,-.008199,
.011253,-.008624,
.010896,-.008993,
.010481,-.009295,
.01002,-.00952,
.009527,-.009661,
.009016,-.009715,
.008998,-.009715,
-.008716,-.009969,
-.009228,-.009933,
-.009726,-.009809,
-.010195,-.0096,
-.01062,-.009313,
-.010989,-.008957,
-.011291,-.008542,
-.011516,-.00808,
-.011657,-.007587,
-.011711,-.007077,
-.011711,-.007058,
0.0*
%
%ADD23MACRO23*%
%ADD30O,.108268X.03937*%
%ADD80O,.009843X.049213*%
%ADD28C,.137795*%
%ADD37O,.125984X.03937*%
%ADD76O,.009843X.03937*%
%ADD57O,.03937X.125984*%
%ADD41O,.070866X.129921*%
%ADD64O,.007874X.025591*%
%ADD65O,.017717X.007874*%
%ADD38O,.15748X.062992*%
%ADD13O,.007874X.031496*%
%ADD60O,.031496X.007874*%
%ADD59O,.03937X.137795*%
%ADD72O,.009843X.027559*%
%ADD73O,.027559X.009843*%
%ADD86R,.013X.065*%
%ADD43C,.02*%
%ADD11C,.04*%
%AMMACRO61*
21,1,.023622,.007874,0.0,0.0,89.861*
1,1,.007874,.000029,.011811*
1,1,.007874,-.000029,-.011811*%
%ADD61MACRO61*%
%ADD98C,.05512*%
%ADD53C,.061024*%
%ADD58O,.04724X.037402*%
%ADD85O,.037402X.04724*%
%ADD71C,.043307*%
%ADD79O,.05906X.03543*%
%AMMACRO19*
4,1,44,.011811,.00689,
.011811,-.00689,
.011768,-.007401,
.011637,-.007897,
.011421,-.008363,
.011128,-.008784,
.010766,-.009148,
.010347,-.009444,
.009882,-.009662,
.009387,-.009797,
.008876,-.009843,
.008858,-.009843,
-.008858,-.009843,
-.009369,-.0098,
-.009865,-.009669,
-.010331,-.009453,
-.010752,-.00916,
-.011116,-.008798,
-.011412,-.008379,
-.01163,-.007914,
-.011765,-.007419,
-.011811,-.006908,
-.011811,-.00689,
-.011811,.00689,
-.011768,.007401,
-.011637,.007897,
-.011421,.008363,
-.011128,.008784,
-.010766,.009148,
-.010347,.009444,
-.009882,.009662,
-.009387,.009797,
-.008876,.009843,
-.008858,.009843,
.008858,.009843,
.009369,.0098,
.009865,.009669,
.010331,.009453,
.010752,.00916,
.011116,.008798,
.011412,.008379,
.01163,.007914,
.011765,.007419,
.011811,.006908,
.011811,.00689,
0.0*
%
%ADD19MACRO19*%
%ADD99R,.05512X.05512*%
%ADD49C,.090551*%
%AMMACRO20*
4,1,44,.00689,-.011811,
-.00689,-.011811,
-.007401,-.011768,
-.007897,-.011637,
-.008363,-.011421,
-.008784,-.011128,
-.009148,-.010766,
-.009444,-.010347,
-.009662,-.009882,
-.009797,-.009387,
-.009843,-.008876,
-.009843,-.008858,
-.009843,.008858,
-.0098,.009369,
-.009669,.009865,
-.009453,.010331,
-.00916,.010752,
-.008798,.011116,
-.008379,.011412,
-.007914,.01163,
-.007419,.011765,
-.006908,.011811,
-.00689,.011811,
.00689,.011811,
.007401,.011768,
.007897,.011637,
.008363,.011421,
.008784,.011128,
.009148,.010766,
.009444,.010347,
.009662,.009882,
.009797,.009387,
.009843,.008876,
.009843,.008858,
.009843,-.008858,
.0098,-.009369,
.009669,-.009865,
.009453,-.010331,
.00916,-.010752,
.008798,-.011116,
.008379,-.011412,
.007914,-.01163,
.007419,-.011765,
.006908,-.011811,
.00689,-.011811,
0.0*
%
%ADD20MACRO20*%
%ADD96O,.033465X.037402*%
%ADD36O,.03937X.051181*%
%ADD27C,.033465*%
%ADD83O,.051181X.03937*%
%ADD75O,.031496X.051181*%
%ADD68O,.023622X.031496*%
%ADD51C,.03937*%
%ADD94O,.043307X.074803*%
%ADD93O,.059055X.037402*%
%ADD63R,.037402X.037402*%
%ADD55O,.051181X.031496*%
%ADD44C,.01598*%
%ADD29C,.031496*%
%ADD92C,.059055*%
%ADD89O,.023618X.055118*%
%ADD88O,.055118X.023618*%
%ADD31O,.015748X.051181*%
%ADD102C,.086614*%
%ADD84O,.070866X.023622*%
%ADD70O,.051181X.086614*%
%ADD50O,.051181X.015748*%
%ADD39C,.07874*%
%ADD34C,.070866*%
%ADD47O,.027559X.043307*%
%ADD40C,.062992*%
%ADD21O,.027559X.035433*%
%ADD12C,.019685*%
%ADD87O,.07874X.090551*%
%ADD48C,.082677*%
%ADD46O,.03937X.086614*%
%ADD22O,.035433X.027559*%
%ADD100O,.064961X.03937*%
%ADD101R,.086614X.086614*%
%ADD95C,.066929*%
%ADD45O,.070866X.03937*%
%ADD26O,.03937X.064961*%
%ADD25O,.03937X.070866*%
%ADD69O,.047244X.019685*%
%ADD97O,.031496X.019685*%
%ADD78O,.059055X.098425*%
%ADD42R,.062992X.062992*%
%ADD67O,.019685X.031496*%
%AMMACRO15*
4,1,5,-.084646,.084646,
.084646,.084646,
.084646,-.084646,
-.072835,-.084646,
-.084646,-.072835,
-.084646,.084646,
0.0*
%
%ADD15MACRO15*%
%AMMACRO62*
4,1,5,.084646,.084646,
.084646,-.084646,
-.084646,-.084646,
-.084646,.072835,
-.072835,.084646,
.084646,.084646,
0.0*
%
%ADD62MACRO62*%
%ADD90O,.086614X.019685*%
%ADD82O,.03937X.066929*%
%ADD91O,.094488X.031496*%
%ADD52O,.019685X.07874*%
%ADD103C,.0051*%
%ADD104C,.006*%
%ADD105C,.0061*%
%ADD106C,.008*%
%ADD107C,.0075*%
%ADD108C,.01*%
%ADD109C,.012*%
%ADD110C,.015*%
%ADD111C,.08*%
%ADD116C,.11458*%
%ADD121O,.062996X.11024*%
%ADD119C,.125988*%
%ADD118R,.05X.015*%
%ADD112C,.032004*%
%ADD114C,.05535*%
%ADD117R,.08702X.08702*%
%ADD113R,.079004X.064004*%
%ADD115O,.039562X.05531*%
%ADD120C,.078972*%
G75*
%LPD*%
G75*
G36*
G01X46800Y44043D02*
X43800Y47043D01*
X25300D01*
X24400Y47943D01*
X24400Y48027D01*
G03X24311Y48570I-1600J16D01*
G01X24300Y48602D01*
Y56543D01*
X24800Y57043D01*
X55300D01*
X56800Y55543D01*
Y46043D01*
X54800Y44043D01*
X46800D01*
G37*
G36*
G01X69300Y45543D02*
Y25543D01*
X67800Y24043D01*
X41800D01*
X40300Y25543D01*
Y41543D01*
X41300Y42543D01*
X56800D01*
X59300Y45043D01*
Y56543D01*
X67800Y65043D01*
Y87043D01*
X64300Y90543D01*
Y114043D01*
X65800Y115543D01*
X84800D01*
X87300Y113043D01*
Y63543D01*
X69300Y45543D01*
G37*
G36*
G01X183300Y168543D02*
X184300Y167543D01*
Y163700D01*
X183500Y162900D01*
X172300D01*
X171100Y161700D01*
X162900D01*
X161679Y162921D01*
Y167921D01*
X162300Y168543D01*
X183300D01*
G37*
G36*
G01X157800Y117200D02*
X158100Y116900D01*
X161100D01*
X161500Y116500D01*
Y114700D01*
X161100Y114300D01*
X156000D01*
X155700Y114600D01*
Y117800D01*
X156050Y118150D01*
X157550D01*
X157800Y117900D01*
Y117200D01*
G37*
G36*
G01X158300Y119100D02*
X158000Y119400D01*
Y122800D01*
X158700Y123500D01*
X159875D01*
X159900Y123494D01*
G03X160701I401J1549D01*
G01X160725Y123500D01*
X165600D01*
X166100Y123000D01*
Y121900D01*
X164800Y120600D01*
Y119300D01*
X164600Y119100D01*
X158300D01*
G37*
G36*
G01X182800Y159043D02*
X184300Y157543D01*
Y155043D01*
X182800Y153543D01*
Y146543D01*
X181800D01*
Y149743D01*
X181500Y150043D01*
X180900D01*
X177400Y153543D01*
X173800D01*
X172300Y155043D01*
Y157543D01*
X173800Y159043D01*
X182800D01*
G37*
G36*
G01X62000Y115000D02*
Y71243D01*
X59629Y68871D01*
X28871D01*
X27000Y67000D01*
X13000D01*
X11000Y69000D01*
Y81000D01*
X14000Y84000D01*
X45879D01*
X46879Y85000D01*
Y85121D01*
X50800Y89043D01*
Y94500D01*
X46300Y99000D01*
X31000D01*
X28000Y96000D01*
X17500D01*
X11250Y102250D01*
Y126550D01*
X9300Y128500D01*
Y315243D01*
X9500Y315443D01*
Y322500D01*
X16500Y329500D01*
X16600D01*
Y354943D01*
X35800Y374143D01*
Y410943D01*
X36300Y411443D01*
X79800D01*
X80600Y410643D01*
Y372543D01*
X75200Y367143D01*
X39400D01*
X21600Y349343D01*
Y349300D01*
X21300Y349000D01*
Y329800D01*
X21600Y329500D01*
X23500D01*
Y321000D01*
X19500Y317000D01*
X19157D01*
X17200Y315043D01*
Y294443D01*
X17100Y294343D01*
Y287543D01*
X19500Y285143D01*
X26000D01*
X31700Y279443D01*
Y254343D01*
X33521Y252521D01*
X126021D01*
X131500Y258000D01*
Y296500D01*
X133400Y298400D01*
X133456D01*
X136600Y301544D01*
Y308299D01*
X136000Y308899D01*
Y324843D01*
X132300Y328543D01*
Y349543D01*
X132800Y350043D01*
X141300D01*
X141800Y349543D01*
Y328200D01*
X142500Y327500D01*
Y318000D01*
X144000Y316500D01*
X160000D01*
X161500Y315000D01*
X169000D01*
X171000Y313000D01*
Y309500D01*
X173500Y307000D01*
X188500D01*
X189500Y308000D01*
Y333500D01*
X190300Y334300D01*
X198800D01*
X200000Y333100D01*
Y309700D01*
X207100Y302600D01*
Y266100D01*
X207600Y265600D01*
Y253700D01*
X206400Y252500D01*
X201700D01*
X200500Y251300D01*
Y177700D01*
X199800Y177000D01*
X191000D01*
X189500Y178500D01*
Y256500D01*
X187200Y258800D01*
X175900D01*
X173600Y261100D01*
X169100D01*
X168500Y261700D01*
Y267500D01*
X167500Y268500D01*
X143000D01*
X141500Y267000D01*
Y236500D01*
X142500Y235500D01*
Y226250D01*
X143500Y225250D01*
X169500D01*
X170000Y224750D01*
Y223600D01*
X169650Y223250D01*
X142500D01*
X141500Y222250D01*
Y191500D01*
X142000Y191000D01*
Y185000D01*
X145000Y182000D01*
X162000D01*
X163000Y181000D01*
X170500D01*
Y179500D01*
X170000Y179000D01*
X162500D01*
X162000Y179500D01*
X141843D01*
X123843Y197500D01*
X79200D01*
X77700Y196000D01*
Y188743D01*
X80000Y186443D01*
Y184943D01*
X77500Y182443D01*
Y172243D01*
X82000Y167743D01*
Y167643D01*
X113300D01*
X130600Y150343D01*
Y122443D01*
X124400Y116243D01*
X100600D01*
X96700Y120143D01*
X68643D01*
X68500Y120000D01*
X67000D01*
X62000Y115000D01*
G37*
G36*
G01X162500Y160000D02*
X170000D01*
X171000Y159000D01*
Y154500D01*
X170500Y154000D01*
X163000D01*
X162000Y155000D01*
Y159500D01*
X162500Y160000D01*
G37*
G36*
G01X97300Y105543D02*
X99300Y107543D01*
X117800D01*
X119300Y106043D01*
Y64043D01*
X117800Y62543D01*
X99300D01*
X97300Y64543D01*
Y105543D01*
G37*
G36*
G01X144500Y227000D02*
X143921Y227579D01*
Y238921D01*
X143800Y239043D01*
Y255043D01*
X148300Y259543D01*
X156701D01*
X156736Y259388D01*
G03X159464I1364J312D01*
G01X159500Y259543D01*
X170300D01*
X171300Y258543D01*
Y252043D01*
X169300Y250043D01*
X161800D01*
X157300Y245543D01*
Y227000D01*
X144500D01*
G37*
G36*
G01X172500Y313000D02*
X172200Y313300D01*
Y313497D01*
X172000Y313697D01*
Y314500D01*
X172500Y315000D01*
X176500D01*
X180500Y319000D01*
Y333000D01*
X181500Y334000D01*
X186500D01*
X187500Y333000D01*
Y313500D01*
X187000Y313000D01*
X172500D01*
G37*
G36*
G01X180961Y220139D02*
X181005Y220258D01*
G03X178955Y222307I-1505J545D01*
G01X178836Y222264D01*
X177600Y223500D01*
X173000D01*
X172500Y224000D01*
Y225000D01*
X173000Y225500D01*
X177000D01*
X181000Y229500D01*
Y246600D01*
X181500Y247100D01*
X187400D01*
X188000Y246500D01*
Y179500D01*
X187500Y179000D01*
X172500D01*
X172000Y179500D01*
Y180500D01*
X172500Y181000D01*
X177000D01*
X181000Y185000D01*
Y220100D01*
X180961Y220139D01*
G37*
G36*
G01X147800Y215043D02*
X168800D01*
X171550Y212293D01*
Y204793D01*
X169800Y203043D01*
X162800D01*
X157300Y197543D01*
Y183500D01*
X145500D01*
X143921Y185079D01*
Y194921D01*
X143800Y195043D01*
Y211043D01*
X147800Y215043D01*
G37*
G36*
G01X96300Y348543D02*
X93800Y351043D01*
Y359543D01*
X82300Y371043D01*
Y411443D01*
X127300D01*
Y352543D01*
X123300Y348543D01*
X96300D01*
G37*
G36*
G01X144500Y318000D02*
X143800Y318700D01*
Y348043D01*
X146800Y351043D01*
X169800D01*
X171050Y349793D01*
Y341793D01*
X169300Y340043D01*
X162800D01*
X157300Y334543D01*
Y318300D01*
X157000Y318000D01*
X144500D01*
G37*
G36*
G01X74800Y362543D02*
Y348543D01*
X72800Y346543D01*
X43300D01*
X42800Y346043D01*
Y337543D01*
X42300Y337043D01*
X38300D01*
X37800Y337543D01*
Y363043D01*
X38300Y363543D01*
X73800D01*
X74800Y362543D01*
G37*
G36*
G01X159300Y240043D02*
X159800Y240543D01*
X174800D01*
X177800Y237543D01*
Y229543D01*
X175800Y227543D01*
X171800D01*
X170800Y228543D01*
Y232543D01*
X170300Y233043D01*
X160300D01*
X159300Y234043D01*
Y240043D01*
G37*
G36*
G01X160300Y325043D02*
Y329543D01*
X162300Y331543D01*
X174300D01*
X178300Y327543D01*
Y319043D01*
X176300Y317043D01*
X172300D01*
X171800Y317543D01*
Y323043D01*
X171300Y323543D01*
X161800D01*
X160300Y325043D01*
G37*
G36*
G01X159300Y195543D02*
X159800Y196043D01*
X174300D01*
X178800Y191543D01*
Y185043D01*
X176800Y183043D01*
X172800D01*
X172300Y183543D01*
Y187543D01*
X170800Y189043D01*
X159800D01*
X159300Y189543D01*
Y195543D01*
G37*
G36*
G01X319500Y93500D02*
Y100000D01*
X320500Y101000D01*
X326500D01*
X327000Y100500D01*
Y93000D01*
X326000Y92000D01*
X321000D01*
X319500Y93500D01*
G37*
G36*
G01X428300Y82507D02*
X428289Y82475D01*
G03X428244Y81910I1038J-366D01*
G01X428263Y81806D01*
X428100Y81643D01*
X427400D01*
X427300Y81743D01*
Y82643D01*
X426800Y83143D01*
X426549D01*
X426530Y83143D01*
X426501Y83152D01*
G03X426055Y83194I-324J-1043D01*
G01X425959Y83184D01*
X425700Y83443D01*
Y84443D01*
X423300Y86843D01*
Y89543D01*
X424000Y90243D01*
X428000D01*
X429000Y91243D01*
X430800D01*
X431300Y90743D01*
Y86099D01*
X430844Y85643D01*
X429000D01*
X428300Y84943D01*
Y84082D01*
X428289Y84050D01*
G03Y83318I1038J-366D01*
G01X428300Y83286D01*
Y82507D01*
G37*
G36*
G01X293000Y92500D02*
X291500Y91000D01*
X286500D01*
X286000Y91500D01*
Y97500D01*
X287000Y98500D01*
X292000D01*
X293000Y97500D01*
Y92500D01*
G37*
G36*
G01X308000Y57500D02*
X307800Y57700D01*
Y63486D01*
X306500Y64786D01*
Y65500D01*
X298000Y74000D01*
Y103500D01*
X298500Y104000D01*
X305000D01*
X305500Y103500D01*
Y77500D01*
X313000Y70000D01*
Y59000D01*
X311500Y57500D01*
X308000D01*
G37*
G36*
G01X313500Y73000D02*
X310000Y76500D01*
Y103500D01*
X310500Y104000D01*
X316000D01*
X316500Y103500D01*
Y79500D01*
X318500Y77500D01*
Y73500D01*
X318000Y73000D01*
X313500D01*
G37*
G36*
G01X437600Y128543D02*
X438100Y129043D01*
X443100D01*
X446100Y132043D01*
Y133043D01*
X446600Y133543D01*
X448100D01*
X448600Y133043D01*
Y123043D01*
X448100Y122543D01*
X446600D01*
X442600Y126543D01*
X438100D01*
X437600Y127043D01*
Y128543D01*
G37*
G36*
G01X422800Y125543D02*
Y123043D01*
X423800Y122043D01*
X431300D01*
X431800Y121543D01*
Y118543D01*
X431300Y118043D01*
X422800D01*
X419800Y121043D01*
X410800D01*
X408800Y123043D01*
Y125543D01*
X410300Y127043D01*
X421300D01*
X422800Y125543D01*
G37*
G36*
G01X241400Y115300D02*
X243200D01*
X244000Y116100D01*
X245500D01*
X246000Y115600D01*
Y112400D01*
X245100Y111500D01*
X241700D01*
X241100Y112100D01*
Y115000D01*
X241400Y115300D01*
G37*
G36*
G01X243543Y168543D02*
X263957D01*
X265000Y167500D01*
Y162000D01*
X264500Y161500D01*
X244000D01*
X243000Y162500D01*
Y168000D01*
X243543Y168543D01*
G37*
G36*
G01X233800Y114600D02*
X234300Y115100D01*
X237900D01*
X238400Y114600D01*
Y111700D01*
X237900Y111200D01*
X234200D01*
X233800Y111600D01*
Y114600D01*
G37*
G36*
G01X397000Y67000D02*
Y71500D01*
X397500Y72000D01*
X409500D01*
X410000Y71500D01*
Y66500D01*
X409500Y66000D01*
X398000D01*
X397000Y67000D01*
G37*
G36*
G01X482900Y166300D02*
X485000D01*
X485600Y165700D01*
Y160600D01*
X488200Y158000D01*
Y153200D01*
X487600Y152600D01*
X485500D01*
X485200Y152900D01*
Y157000D01*
X482700Y159500D01*
Y166100D01*
X482900Y166300D01*
G37*
G36*
G01X437300Y121000D02*
X437400Y121100D01*
X447300D01*
X448200Y120200D01*
Y116400D01*
X447100Y115300D01*
X442200D01*
X441400Y116100D01*
Y117400D01*
X440700Y118100D01*
X438100D01*
X437300Y118900D01*
Y121000D01*
G37*
G36*
G01X394800Y76600D02*
X395800Y77600D01*
X399300D01*
X400100Y76800D01*
Y74500D01*
X399200Y73600D01*
X395300D01*
X394800Y74100D01*
Y76600D01*
G37*
G36*
G01X429300Y115543D02*
Y109043D01*
X427532Y107275D01*
X427512Y107263D01*
G03X427265Y107071I729J-1196D01*
G02X426700Y107079I-279J287D01*
G03X424306Y105978I-1000J-979D01*
G02X423908Y105543I-398J-35D01*
G01X410457D01*
X409200Y106800D01*
Y116343D01*
X409900Y117043D01*
X420300D01*
X421300Y116043D01*
X428800D01*
X429300Y115543D01*
G37*
G36*
G01X450100Y132543D02*
X450600Y133043D01*
X454957D01*
X455000Y133000D01*
Y127543D01*
X454500Y127043D01*
X450600D01*
X450100Y127543D01*
Y132543D01*
G37*
G36*
G01X328500Y79000D02*
X327500Y78000D01*
X322500D01*
X321000Y79500D01*
Y84000D01*
X318500Y86500D01*
Y89500D01*
X319000Y90000D01*
X327000D01*
X328500Y88500D01*
Y79000D01*
G37*
G36*
G01X288000Y89500D02*
X296500D01*
Y86500D01*
X293500Y83500D01*
Y78500D01*
X292500Y77500D01*
X286000D01*
X285500Y78000D01*
Y87000D01*
X288000Y89500D01*
G37*
G36*
G01X403000Y77100D02*
Y84000D01*
X404000Y85000D01*
X410900D01*
X411700Y84200D01*
Y74600D01*
X410600Y73500D01*
X403400D01*
X402300Y74600D01*
Y76400D01*
X403000Y77100D01*
G37*
G36*
G01X444800Y47543D02*
X443800Y46543D01*
X433457D01*
X432500Y47500D01*
Y68500D01*
X430500Y70500D01*
Y72743D01*
X430800Y73043D01*
X443300D01*
X444800Y71543D01*
Y47543D01*
G37*
G36*
G01X428600Y92443D02*
X428200Y92843D01*
X424600D01*
X424000Y93443D01*
Y97843D01*
X424400Y98243D01*
X430600D01*
X431200Y97643D01*
Y92643D01*
X431000Y92443D01*
X428600D01*
G37*
G36*
G01X358400Y162800D02*
X361100D01*
X362300Y161600D01*
Y157400D01*
X361900Y157000D01*
X358300D01*
X358100Y157200D01*
Y162500D01*
X358400Y162800D01*
G37*
G36*
G01X351000Y143800D02*
X350400Y144400D01*
Y150800D01*
X350700Y151100D01*
X356397D01*
X356600Y151100D01*
X356900Y150800D01*
Y145100D01*
X355600Y143800D01*
X351000D01*
G37*
G36*
G01X401600Y141900D02*
X401700Y142000D01*
X405900D01*
X406700Y141200D01*
Y135300D01*
X407700Y134300D01*
X413800D01*
X414400Y133700D01*
Y130100D01*
X413400Y129100D01*
X408200D01*
X405350Y126250D01*
X402050D01*
X401600Y126700D01*
Y141900D01*
G37*
G36*
G01X483100Y148700D02*
X482000Y149800D01*
Y154300D01*
X480200Y156100D01*
Y166100D01*
X480400Y166300D01*
X481400D01*
X481500Y166200D01*
Y159003D01*
X481500Y158800D01*
X484000Y156300D01*
Y152403D01*
X484100Y152303D01*
Y152200D01*
X484900Y151400D01*
X485003D01*
X487900Y151400D01*
X488200Y151100D01*
Y149200D01*
X487700Y148700D01*
X483100D01*
G37*
G36*
G01X450000Y117500D02*
Y125500D01*
X456000D01*
X456500Y126000D01*
Y132500D01*
X457000Y133000D01*
X462500D01*
X463000Y132500D01*
Y122000D01*
X457500Y116500D01*
X451000D01*
X450000Y117500D01*
G37*
G36*
G01X459500Y108000D02*
X460000Y107500D01*
Y101000D01*
X459000Y100000D01*
X455500D01*
X454500Y101000D01*
Y107000D01*
X455500Y108000D01*
X459500D01*
G37*
G36*
G01X244500Y153500D02*
X243000Y155000D01*
Y160000D01*
X243401Y160401D01*
X243503Y160300D01*
X251200D01*
X251500Y160000D01*
Y154000D01*
X251000Y153500D01*
X244500D01*
G37*
G36*
G01X262800Y147543D02*
Y150000D01*
X262400Y150400D01*
X261600D01*
X259500Y152500D01*
X258773D01*
X258630Y152643D01*
X253857D01*
X252800Y153700D01*
Y156543D01*
X253800Y157543D01*
X263800D01*
X264800Y156543D01*
Y153043D01*
X263800Y152043D01*
Y147543D01*
X262800D01*
G37*
G36*
G01X415800Y46543D02*
X415300Y47043D01*
Y75043D01*
X418800Y78543D01*
Y86043D01*
X419300Y86543D01*
X421800D01*
X423600Y84743D01*
X424300D01*
X425000Y84043D01*
Y83043D01*
X425500Y82543D01*
X426300D01*
X426600Y82243D01*
Y81843D01*
X426500Y81743D01*
X423500D01*
X422800Y81043D01*
Y74543D01*
X424300Y73043D01*
X427300D01*
X428300Y72043D01*
Y70000D01*
X426650Y68350D01*
Y47650D01*
X425543Y46543D01*
X415800D01*
G37*
G36*
G01X350900Y162700D02*
X356700D01*
Y153100D01*
X355900Y152300D01*
X350900D01*
X350300Y152900D01*
Y162100D01*
X350900Y162700D01*
G37*
G36*
G01X394200Y126200D02*
X394000Y126400D01*
Y136800D01*
X395200Y138000D01*
X395875D01*
X395900Y137994D01*
G03X396701I401J1549D01*
G01X396725Y138000D01*
X400200D01*
Y126900D01*
X399500Y126200D01*
X394200D01*
G37*
G36*
G01X359150Y155450D02*
X361500D01*
X361800Y155150D01*
Y153500D01*
X364300Y151000D01*
Y144400D01*
X365600Y143100D01*
X368900D01*
X369000Y143000D01*
Y142500D01*
X368700Y142200D01*
X363100D01*
X361600Y143700D01*
X359400D01*
X358300Y144800D01*
Y154600D01*
X359150Y155450D01*
G37*
G36*
G01X441500Y334000D02*
Y340000D01*
X443000Y341500D01*
X472500D01*
X474500Y339500D01*
Y329000D01*
X473500Y328000D01*
X470000D01*
X468500Y329500D01*
Y333500D01*
X465500Y336500D01*
X454500D01*
X451000Y333000D01*
X442500D01*
X441500Y334000D01*
G37*
G36*
G01X226000Y400500D02*
X229500D01*
X230500Y399500D01*
Y384000D01*
X230000Y383500D01*
X226500D01*
X225000Y385000D01*
Y399500D01*
X226000Y400500D01*
G37*
G36*
G01X402500Y314000D02*
X402000Y314500D01*
Y322500D01*
X402500Y323000D01*
X418500D01*
X420000Y321500D01*
Y317000D01*
X419000Y316000D01*
X412000D01*
X410000Y314000D01*
X402500D01*
G37*
G36*
G01X403500Y284000D02*
X409500D01*
X412000Y281500D01*
X418500D01*
X419000Y281000D01*
Y277500D01*
X418000Y276500D01*
X403000D01*
X402500Y277000D01*
Y283000D01*
X403500Y284000D01*
G37*
G36*
G01X214000Y387500D02*
Y404000D01*
X215500Y405500D01*
X223000D01*
X223500Y405000D01*
Y401500D01*
X223000Y401000D01*
X221000D01*
X219500Y399500D01*
Y387500D01*
X218500Y386500D01*
X215000D01*
X214000Y387500D01*
G37*
G36*
G01X474100Y399000D02*
X475200Y400100D01*
X479900D01*
X480800Y399200D01*
Y385600D01*
X479000Y383800D01*
X475000D01*
X474100Y384700D01*
Y399000D01*
G37*
G36*
G01X210000Y265000D02*
X209500Y265500D01*
Y267500D01*
X210000Y268000D01*
X222000D01*
X222500Y267500D01*
Y262500D01*
X222000Y262000D01*
X218500D01*
X215500Y265000D01*
X210000D01*
G37*
G36*
G01X475000Y357700D02*
Y375400D01*
X475900Y376300D01*
X490800D01*
X493700Y373400D01*
X504200D01*
X505100Y372500D01*
Y365400D01*
X504700Y365000D01*
X499100D01*
X490700Y356600D01*
X476100D01*
X475000Y357700D01*
G37*
G36*
G01X441500Y327500D02*
Y331500D01*
X452500D01*
X455000Y334000D01*
X463000D01*
X464500Y332500D01*
Y328500D01*
X462500Y326500D01*
X442500D01*
X441500Y327500D01*
G37*
G36*
G01X391500Y314500D02*
Y321000D01*
X392000Y321500D01*
X400000D01*
X400500Y321000D01*
Y314500D01*
X400000Y314000D01*
X392000D01*
X391500Y314500D01*
G37*
G36*
G01X392500Y276500D02*
X392000Y277000D01*
Y292000D01*
X394000Y294000D01*
X418500D01*
X420000Y292500D01*
Y289000D01*
X418500Y287500D01*
X402500D01*
X401000Y286000D01*
Y279500D01*
X401300Y279200D01*
Y276800D01*
X401000Y276500D01*
X392500D01*
G37*
G36*
G01X418500Y274500D02*
X419500Y273500D01*
Y272000D01*
X418500Y271000D01*
X407000D01*
X406000Y272000D01*
Y274000D01*
X406500Y274500D01*
X418500D01*
G37*
G36*
G01X216500Y278000D02*
X220500D01*
X221000Y277500D01*
Y271000D01*
X219500Y269500D01*
X209500D01*
X209000Y270000D01*
Y275000D01*
X209500Y275500D01*
X215500D01*
X216000Y276000D01*
Y277500D01*
X216500Y278000D01*
G37*
G36*
G01X375260Y326573D02*
X376950Y340393D01*
X376970Y340533D01*
X380201Y340633D01*
X380210D01*
G03X381360Y335723I10800J-60D01*
G03X383500Y333743I3206J1319D01*
G03X386000Y335073I276J2495D01*
G03X387560Y340633I-8665J5430D01*
G01X391300D01*
X392550Y326423D01*
X388700Y326403D01*
X388290Y332403D01*
G02X386190Y330583I-6656J5558D01*
G01X385560Y330233D01*
G02X382270Y330243I-1631J4486D01*
G02X379610Y332293I2887J6496D01*
G01X379060Y326433D01*
X375190D01*
X375210Y326633D01*
X375260Y326573D01*
G37*
G36*
G01X392470Y336843D02*
X392490Y340613D01*
G02X398060Y338943I439J-8659D01*
G02X400560Y336293I-4971J-7194D01*
G02X404820Y339943I9422J-6686D01*
G02X408620Y340713I4167J-10804D01*
G01X408650Y336803D01*
Y336683D01*
X407780D01*
G03X404800Y335533I918J-6815D01*
G03X402960Y333613I3220J-4927D01*
G03X402430Y332013I4898J-2510D01*
G01X402420Y326373D01*
X398680D01*
X398670Y331783D01*
G03X397810Y334293I-5016J-316D01*
G03X395830Y335843I-4457J-3653D01*
G03X393370Y336683I-4479J-9094D01*
G01X392470D01*
Y336843D01*
G37*
G36*
G01X416130Y340363D02*
Y340873D01*
X425810D01*
G02X429790Y339513I-78J-6733D01*
G02X430920Y337363I-2762J-2824D01*
G02X430870Y335593I-6532J-701D01*
G02X429890Y333573I-4670J1018D01*
G02X428360Y332603I-3518J3858D01*
G02X430050Y331373I-735J-2786D01*
G02X430820Y329293I-4018J-2670D01*
G01X431240Y326363D01*
X427080Y326373D01*
X426710Y328493D01*
G03X426330Y330163I-8473J-1050D01*
G03X424550Y331563I-2279J-1066D01*
G03X423590Y331723I-1673J-7080D01*
G01X419860D01*
X419840Y326323D01*
X416120Y326313D01*
X416090Y335083D01*
X416130Y340363D01*
G37*
G36*
G01X410410Y326363D02*
X414060Y326373D01*
X414070Y334773D01*
G03X412230Y335803I-1692J-864D01*
G03X410380Y334813I-119J-2001D01*
G01X410410Y326403D01*
Y326363D01*
G37*
G36*
G01X414809Y338803D02*
G03I-2579J0D01*
G37*
G36*
G01X465956Y269681D02*
X464576D01*
G03X463960Y269524I2J-1295D01*
G01X463915Y269500D01*
X458000D01*
X456500Y271000D01*
X449000D01*
X448500Y271500D01*
Y274000D01*
X449000Y274500D01*
X456500D01*
X459500Y271500D01*
X467000D01*
X467500Y272000D01*
Y281000D01*
X468500Y282000D01*
X472500D01*
X473500Y281000D01*
Y271500D01*
X471500Y269500D01*
X466621D01*
X466576Y269524D01*
G03X465956Y269681I-618J-1138D01*
G37*
G36*
G01X457000Y247000D02*
X448500D01*
Y249000D01*
X463500D01*
X464000Y248500D01*
Y239500D01*
X463500Y239000D01*
X449000D01*
X448500Y239500D01*
Y244000D01*
X457000D01*
Y247000D01*
G37*
G36*
G01X462300Y308800D02*
X461600Y309500D01*
Y312400D01*
X461900Y312700D01*
X465897D01*
X466097Y312900D01*
X466400D01*
X467000Y313500D01*
Y320000D01*
X468000Y321000D01*
X476500D01*
X478500Y323000D01*
Y332500D01*
X479500Y333500D01*
X484000D01*
X485000Y332500D01*
Y327000D01*
X484000Y326000D01*
Y319000D01*
X485000Y318000D01*
X497000D01*
X499000Y320000D01*
X511500D01*
X513500Y318000D01*
Y312500D01*
X512000Y311000D01*
X485100D01*
X482900Y308800D01*
X462300D01*
G37*
G36*
G01X448500Y292000D02*
X464500D01*
X465500Y291000D01*
Y287500D01*
X464000Y286000D01*
X448500D01*
X447000Y287500D01*
Y290500D01*
X448500Y292000D01*
G37*
G36*
G01X449000Y277000D02*
X448500Y277500D01*
Y283000D01*
X449400Y283900D01*
X465300D01*
X466000Y283200D01*
Y273000D01*
X460500D01*
X456500Y277000D01*
X449000D01*
G37*
G36*
G01X447000Y320500D02*
X447500Y321000D01*
X465000D01*
X465700Y320300D01*
Y314200D01*
X465400Y313900D01*
X459100D01*
X456500Y316500D01*
X447500D01*
X447000Y317000D01*
Y320500D01*
G37*
G36*
G01X10000Y2057D02*
G02X2000Y10057I0J8000D01*
G01Y403443D01*
G02X10000Y411443I8000J0D01*
G01X25900D01*
X29300Y408043D01*
Y392043D01*
X5800Y368543D01*
Y342398D01*
X5036D01*
Y329387D01*
X5800D01*
Y125043D01*
X7800Y123043D01*
Y58043D01*
X10171Y55671D01*
Y49329D01*
X12000Y47500D01*
Y33500D01*
X13957Y31543D01*
X22800D01*
X28300Y26043D01*
X34300D01*
X40300Y20043D01*
X68300D01*
X68629Y20371D01*
X72906D01*
Y16889D01*
G03X82992I5044J0D01*
G01Y20500D01*
X87464D01*
G03X87742Y19782I4461J1311D01*
G03X87778Y19708I4184J2029D01*
G01X87800Y19665D01*
Y19543D01*
X87960Y19383D01*
X87972Y19364D01*
G03X89479Y17857I3954J2447D01*
G01X89498Y17844D01*
X90800Y16543D01*
X103457D01*
X108000Y12000D01*
X114111D01*
X114135Y11994D01*
G03X116567I1216J4895D01*
G01X116591Y12000D01*
X121500D01*
X124000Y14500D01*
Y47343D01*
X124079Y47421D01*
Y53822D01*
X129379Y59121D01*
X137000D01*
X139561Y56561D01*
Y51304D01*
X133629Y45371D01*
Y18914D01*
X137500Y15043D01*
X194000D01*
X198500Y19543D01*
Y43800D01*
X191800Y50500D01*
Y55543D01*
X195379Y59121D01*
X219500D01*
Y59000D01*
X221500Y57000D01*
Y52000D01*
X210000Y40500D01*
Y20000D01*
X218957Y11043D01*
X273043D01*
X280171Y18171D01*
Y42957D01*
X272129Y51000D01*
Y56000D01*
X285672Y69543D01*
X297500D01*
X298106Y68937D01*
G02X297798Y68255I-283J-283D01*
G03X303694Y62359I-391J-6287D01*
G02X304376Y62667I399J25D01*
G01X304800Y62243D01*
Y44543D01*
X306800Y42543D01*
X337800D01*
X342257Y47000D01*
X342500D01*
X343000Y47500D01*
Y58512D01*
G02X343743Y58718I400J0D01*
G03X353804Y57734I5396J3250D01*
G02X354500Y57466I296J-269D01*
G01Y44800D01*
X354700Y44600D01*
Y43799D01*
G02X353992Y43544I-400J0D01*
G03Y35511I-4853J-4017D01*
G02X354700Y35256I308J-255D01*
G01Y33898D01*
G02X354800Y33633I-300J-265D01*
G01Y17043D01*
X363300Y8543D01*
X408743D01*
X417200Y17000D01*
Y32943D01*
X419800Y35543D01*
X423800D01*
X426800Y32543D01*
Y30804D01*
G02X426051Y30610I-400J0D01*
G03X425900Y30859I-3628J-2023D01*
G01Y23089D01*
X425735Y23060D01*
G03X425636Y23039I311J-1756D01*
G02X425172Y23574I-91J389D01*
G03X425375Y24650I-2750J1075D01*
G01Y28587D01*
G03X419469I-2953J0D01*
G01Y24650D01*
G03X423711Y21993I2953J0D01*
G02X424281Y21573I175J-360D01*
G03X425733Y19547I1763J-269D01*
G01X425930Y19512D01*
X425800Y18775D01*
Y15043D01*
X428300Y12543D01*
Y9543D01*
X429300Y8543D01*
X447300D01*
X451800Y13043D01*
Y19209D01*
G02X452313Y19592I400J0D01*
G03X452877Y19521I503J1711D01*
G03X454434Y20553I-61J1782D01*
G03X454579Y21573I-1618J750D01*
G02X455149Y21993I395J60D01*
G03X459391Y24650I1289J2657D01*
G01Y28587D01*
G03X456029Y31511I-2953J0D01*
G02X455690Y32190I-55J396D01*
G01X456000Y32500D01*
X459103D01*
G02X459283Y32543I180J-357D01*
G01X461800D01*
X464800Y29543D01*
Y7543D01*
X465800Y6543D01*
X499400D01*
X513100Y20243D01*
Y26543D01*
X517700Y31143D01*
X524760D01*
X524903Y31000D01*
X530897D01*
X531040Y31143D01*
X538496D01*
Y10057D01*
G02X530496Y2057I-8000J0D01*
G01X10000D01*
G37*
G36*
G01X488400Y383500D02*
X486400Y385500D01*
Y396542D01*
X486411Y396574D01*
G03Y397626I-1511J526D01*
G01X486400Y397658D01*
Y398625D01*
G03X486579Y399661I-1400J775D01*
G01X486562Y399762D01*
X487100Y400300D01*
X493400D01*
X493900Y399800D01*
Y384300D01*
X493100Y383500D01*
X488400D01*
G37*
G36*
G01X507600Y366700D02*
X537800D01*
X538300Y366200D01*
Y358200D01*
X537500Y357400D01*
X507100D01*
X506600Y357900D01*
Y365700D01*
X507600Y366700D01*
G37*
G36*
G01X488000Y332000D02*
X489500Y333500D01*
X497500D01*
X499000Y332000D01*
Y321900D01*
X497100Y320000D01*
X486000D01*
X485500Y320500D01*
Y324500D01*
X488000Y327000D01*
Y332000D01*
G37*
G36*
G01X515300Y370600D02*
X513700Y372200D01*
Y381300D01*
X510000Y385000D01*
Y411443D01*
X530496D01*
G02X538496Y403443I0J-8000D01*
G01Y372096D01*
X537000Y370600D01*
X515300D01*
G37*
%LPC*%
G75*
G36*
G01X184500Y302500D02*
X189500Y297500D01*
Y265900D01*
X187300Y263700D01*
X172300D01*
X171000Y265000D01*
Y268000D01*
X170500Y268500D01*
Y270000D01*
X170000Y270500D01*
X162000D01*
X161000Y271500D01*
X143000D01*
X142000Y272500D01*
Y282843D01*
X141500Y283343D01*
Y311500D01*
X144000Y314000D01*
X158000D01*
X159000Y313000D01*
X167000D01*
X168500Y311500D01*
Y308000D01*
X174000Y302500D01*
X184500D01*
G37*
G36*
G01X86111Y220652D02*
G03X86389I139J144D01*
G02X88652Y218389I1111J-1152D01*
G03Y218111I144J-139D01*
G02X86389Y215849I-1152J-1111D01*
G03X86111I-139J-144D01*
G02X83848Y218111I-1111J1151D01*
G03Y218389I-144J139D01*
G02X86111Y220652I1151J1111D01*
G37*
G36*
G01X73152Y214889D02*
G03Y214611I144J-139D01*
G02X70848I-1152J-1111D01*
G03Y214889I-144J139D01*
G02X73152I1151J1111D01*
G37*
G36*
G01X62200Y128784D02*
G03X61600I-300J-265D01*
G02X59341Y131043I-1200J1059D01*
G03Y131643I-265J300D01*
G02Y134043I1059J1200D01*
G03Y134643I-265J300D01*
G02Y137043I1059J1200D01*
G03Y137643I-265J300D01*
G02X61600Y139902I1059J1200D01*
G03X62200I300J265D01*
G02X64459Y137643I1200J-1059D01*
G03Y137043I265J-300D01*
G02Y134643I-1059J-1200D01*
G03Y134043I265J-300D01*
G02Y131643I-1059J-1200D01*
G03Y131043I265J-300D01*
G02X62200Y128784I-1059J-1200D01*
G37*
G36*
G01X101181Y383664D02*
G02X107182I3000J4769D01*
G01Y370084D01*
G02Y370002I-3000J-41D01*
G01Y363858D01*
G02X107059Y363009I-3000J0D01*
G02X101304I-2877J62D01*
G02X101181Y363858I2878J849D01*
G01Y383664D01*
G37*
G36*
G01X425370Y334673D02*
X419870Y334663D01*
X419860Y337953D01*
X425420Y337963D01*
G02X426730Y337163I48J-1393D01*
G02X426850Y336053I-1449J-718D01*
G02X426600Y335293I-2258J322D01*
G02X425370Y334673I-1209J868D01*
G37*
G36*
G01X51705Y5511D02*
X48949D01*
G02Y17567I0J6028D01*
G01X51705D01*
G02Y5511I0J-6028D01*
G37*
G54D116*
X94182Y378433D03*
X114182D03*
Y398433D03*
X94182D03*
G54D121*
X456438Y8705D03*
X422422D03*
G54D119*
X297407Y39528D03*
G54D118*
X212000Y272250D03*
G54D112*
X75300Y83732D03*
Y87543D03*
X22800Y74043D03*
Y103543D03*
X86000Y158543D03*
Y209043D03*
X64000Y190000D03*
X86000Y165543D03*
Y201543D03*
G54D114*
X16729Y204952D03*
Y173456D03*
X18825Y324476D03*
G54D117*
X121300Y358543D03*
G54D113*
X73750Y224000D03*
G54D115*
X104182Y353228D03*
G54D120*
X96650Y9016D03*
%LPD*%
G75*
G36*
G01X172197Y268500D02*
X171700Y268997D01*
Y270200D01*
X172000Y270500D01*
X176500D01*
X180500Y274500D01*
Y288500D01*
X181500Y289500D01*
X186500D01*
X187500Y288500D01*
Y269000D01*
X187000Y268500D01*
X172197D01*
G37*
G36*
G01X76500Y226000D02*
Y222000D01*
X71000D01*
Y226000D01*
X76500D01*
G37*
G36*
G01X159300Y285043D02*
X160300Y286043D01*
X172800D01*
X178300Y280543D01*
Y274043D01*
X176300Y272043D01*
X172300D01*
X171300Y273043D01*
Y277543D01*
X170300Y278543D01*
X160300D01*
X159300Y279543D01*
Y285043D01*
G37*
G36*
G01X170551Y304252D02*
Y295294D01*
X168800Y293543D01*
X160800D01*
X157300Y290043D01*
Y273000D01*
X143921D01*
Y283921D01*
X143800Y284043D01*
Y300043D01*
X149300Y305543D01*
X169260D01*
X170551Y304252D01*
G37*
G54D100*
X526500Y372618D03*
Y362381D03*
G54D110*
G01X5300Y51043D02*
X6949D01*
X8449Y52543D01*
X6949Y54043D01*
X5300D01*
G01X4800Y48043D02*
X6682D01*
X8682Y46043D01*
X6682Y44043D01*
X4800D01*
G01X5209Y35543D02*
X7091D01*
X9091Y37543D01*
X7091Y39543D01*
X5209D01*
G01X198300Y112102D02*
X197973Y111775D01*
X193300D01*
G01Y111775D02*
G01X195000Y120500D02*
X194500Y120000D01*
Y114743D01*
X193300Y113543D01*
Y111775D01*
G01X165000Y122600D02*
X165657D01*
G01D02*
X168800Y125743D01*
Y126643D01*
G01X198300Y106984D02*
X196800Y105484D01*
Y103543D01*
G01X159353Y162775D02*
Y165543D01*
G01X187300Y168490D02*
Y162775D01*
G01X140500Y126345D02*
Y137699D01*
X142300Y139499D01*
X148500D01*
G01X157300Y143204D02*
Y146200D01*
X156000Y147500D01*
G01X157300Y125007D02*
X156764D01*
X153300Y121543D01*
X150100D01*
G01X149000Y101224D02*
Y97000D01*
G01Y101224D02*
Y105448D01*
G01X180000Y101224D02*
Y97000D01*
G01Y101224D02*
Y105448D01*
G01X193300Y108311D02*
Y105543D01*
G01X155353Y162775D02*
Y165543D01*
G01X157300Y125007D02*
G01Y125007D02*
X160264D01*
X160300Y125043D01*
G01X26300Y43192D02*
X29300Y43192D01*
G01X31825Y45311D02*
Y42068D01*
X31800Y42043D01*
G01X17300Y51043D02*
X15651D01*
X14151Y52543D01*
G01X22800Y44043D02*
X20918D01*
X18919Y46043D01*
G01X24391Y35543D02*
X22509D01*
X20509Y37543D01*
G01X14151Y52543D02*
X15651Y54043D01*
X17300D01*
G01X14151Y52543D02*
G01X20509Y37543D02*
X22509Y39543D01*
X24391D01*
G01X20509Y37543D02*
G01X18919Y46043D02*
X20918Y48043D01*
X22800D01*
G01X18919Y46043D02*
G01X152048Y135401D02*
X157300D01*
G01X140500Y126345D02*
X144960D01*
G01X167100Y116511D02*
X169011D01*
X170000Y117500D01*
G01X163600Y116468D02*
X167057D01*
X167100Y116511D01*
G01X150100Y121543D02*
X142800D01*
X140500Y123843D01*
Y126345D01*
G01X157300Y135401D02*
Y135400D01*
G01X166000Y135500D02*
X165901Y135401D01*
X157300D01*
G01X151300Y162775D02*
Y165500D01*
G01X140000Y97232D02*
X134500D01*
G01D02*
Y99500D01*
G01X148500Y139499D02*
X150344D01*
X151844Y137999D01*
Y135605D01*
X152048Y135401D01*
G01X148000Y221232D02*
X145000D01*
G01X151500D02*
X148000D01*
G01X151500Y217768D02*
X148000D01*
G01X155000D02*
X151500D01*
G01X155000D02*
X157768D01*
X160803Y220803D01*
X165576D01*
G01X103471Y307941D02*
Y315129D01*
G01X148000Y307768D02*
X151500D01*
G01D02*
X155000D01*
G01D02*
X157768D01*
X160303Y310303D01*
X165076D01*
G01X147500Y177732D02*
X144500D01*
G01X118768Y278500D02*
X113500D01*
G01X37300Y275211D02*
Y271543D01*
G01X151000Y177732D02*
X147500D01*
G01X98747Y341011D02*
Y336147D01*
X97300Y334700D01*
G01X71068Y291543D02*
Y297068D01*
X71100Y297100D01*
G01X70400Y341011D02*
X70400Y341010D01*
Y335946D01*
X68997Y334543D01*
G01X24731Y307941D02*
Y307940D01*
X24731Y313005D01*
X26135Y314408D01*
G01X45204Y334000D02*
Y341011D01*
X45203D01*
G01X49928Y307941D02*
X49928Y315171D01*
X50300Y315543D01*
G01X65676Y287811D02*
Y285043D01*
G01X92447Y341011D02*
X92448D01*
Y335946D01*
X91044Y334543D01*
G01X90209Y291346D02*
X94300Y291346D01*
G01X40479Y307941D02*
X40479Y315171D01*
X40107Y315543D01*
G01X109770Y307941D02*
X109770Y307940D01*
Y303072D01*
X109800Y303043D01*
Y302543D01*
G01X101896Y341011D02*
X101897D01*
Y335946D01*
X103300Y334543D01*
G01X89300Y275311D02*
X92600Y275311D01*
G01X60951Y341011D02*
Y335947D01*
X62355Y334543D01*
G01X62526Y307941D02*
X62526Y312868D01*
X60851Y314543D01*
G01X71068Y287543D02*
X71068Y284775D01*
G01X57802Y341011D02*
X57802Y335946D01*
X56398Y334543D01*
G01X165076Y269543D02*
X169300D01*
G01X35755Y334500D02*
Y341010D01*
G01X48353Y341011D02*
Y335404D01*
X49757Y334000D01*
G01X166861Y369360D02*
Y376361D01*
X169500Y379000D01*
G01X156861Y393376D02*
Y404500D01*
G01X117091Y283697D02*
X113000D01*
G01X122232Y296500D02*
X125000D01*
G01X165576Y180043D02*
X169500D01*
G01X155000Y311232D02*
Y315000D01*
G01X154500Y177732D02*
Y181000D01*
G01X155000Y221232D02*
Y224000D01*
G01X169616Y225616D02*
X168543Y224543D01*
G01X155500Y265732D02*
Y269000D01*
G01X168543Y224543D02*
X165576D01*
G01X155500Y269000D02*
X155000Y269500D01*
G01X112920Y307941D02*
X112920Y307940D01*
Y303923D01*
X114300Y302543D01*
G01X21581Y307941D02*
X21582D01*
Y313005D01*
X20178Y314408D01*
G01X151500Y311232D02*
X148000D01*
G01D02*
X145000D01*
G01X175024Y228283D02*
X175800D01*
X177300Y229783D01*
Y231643D01*
G01X165576Y228283D02*
X163560D01*
X161800Y230043D01*
G01X165076Y317783D02*
X163717D01*
X161500Y320000D01*
G01X174524Y317783D02*
X175851D01*
X177111Y319043D01*
Y322354D01*
G01X165576Y183783D02*
X163817D01*
X161900Y185700D01*
G01X175024Y183783D02*
X176300D01*
X177800Y185283D01*
Y188543D01*
G01X151000Y174268D02*
X147500D01*
G01X154500D02*
X151000D01*
G01X154500D02*
X156268D01*
X158303Y176303D01*
X165576D01*
G01X165076Y273283D02*
X163917D01*
X161900Y275300D01*
G01X174524Y273283D02*
X175800D01*
X177300Y274783D01*
Y277543D01*
G01X152000Y262268D02*
X148500D01*
G01X155500D02*
X152000D01*
G01X155500D02*
X158268D01*
X161803Y265803D01*
X165076D01*
G01X152000Y265732D02*
X148500D01*
G01D02*
X145500D01*
G01X179300Y265768D02*
X176575D01*
X176540Y265803D01*
X174524D01*
G01X175024Y220803D02*
X179500D01*
G01X175024Y176303D02*
X179535D01*
X180000Y176768D01*
G01X179500Y220803D02*
X179000Y220303D01*
Y204500D01*
X178000Y203500D01*
G01X174524Y310303D02*
X176197D01*
X177800Y308700D01*
G01X449800Y74354D02*
Y77043D01*
G01X359268Y75500D02*
X356000D01*
G01X400151Y99543D02*
X401200Y98494D01*
Y85200D01*
X400500Y84500D01*
G01X406449Y99500D02*
X400194D01*
X400151Y99543D01*
G01X274300Y110134D02*
X279268D01*
X279300Y110102D01*
G01X274300Y110134D02*
Y111300D01*
X275700Y112700D01*
Y120500D01*
X276600Y121400D01*
G01X274300Y110134D02*
G01X241764Y120843D02*
X244600D01*
X245300Y121543D01*
G01X250500Y125243D02*
X246800Y121543D01*
X245300D01*
G01X199300Y168500D02*
Y162775D01*
G01X280300D02*
Y171143D01*
G01X399100Y165300D02*
X401232D01*
X402732Y163800D01*
Y162500D01*
G01X462898Y88892D02*
X462898Y84824D01*
X462896Y84822D01*
G01D02*
X465421D01*
G01X462896D02*
G01X441232Y88109D02*
X441232Y85207D01*
G01X436696Y88109D02*
X436696Y85207D01*
G01X462896Y72822D02*
X465421D01*
G01X436532Y80609D02*
G01X436532D02*
Y77975D01*
X434400Y75843D01*
G01X441232Y80609D02*
X436532D01*
G01X463232Y55000D02*
X467500D01*
G01X463232Y65000D02*
X466000D01*
G01X296032Y111543D02*
X298800D01*
G01X279300Y104984D02*
G01Y104984D02*
X280800Y103484D01*
Y101543D01*
G01X277800D02*
Y103484D01*
X279300Y104984D01*
G01X198300Y106984D02*
G01X199800Y103543D02*
Y105484D01*
X198300Y106984D01*
G01X414568Y137543D02*
X411382D01*
G01X367068Y163043D02*
X367068Y160543D01*
G01X402732Y159000D02*
Y155500D01*
G01Y162500D02*
Y159000D01*
G01X361120Y116820D02*
X364000Y113941D01*
G01X240500Y162732D02*
Y166000D01*
G01X213032Y111543D02*
X213575Y111000D01*
X218000D01*
G01X451032Y128043D02*
X454300D01*
G01X451032Y132043D02*
X454300D01*
G01X358441Y80500D02*
X355500D01*
X355000Y81000D01*
G01X268300Y168490D02*
Y162775D01*
G01X368000Y112200D02*
X367000Y111200D01*
X361900D01*
X358800Y114300D01*
Y118900D01*
X361800Y121900D01*
X370800D01*
X372600Y123700D01*
X384500D01*
G01X230500Y101224D02*
Y97000D01*
G01Y101224D02*
Y105448D01*
G01X261000Y101224D02*
Y105448D01*
G01X383000Y102000D02*
X390028D01*
X392028Y104000D01*
Y107332D01*
X390528Y108832D01*
X389200D01*
G01X396400Y121000D02*
Y114900D01*
X396000Y114500D01*
G01X349300Y124043D02*
X346457D01*
X344300Y126200D01*
Y140543D01*
X345800Y142043D01*
X355844D01*
G01X332000Y82732D02*
Y85500D01*
G01X342500Y82732D02*
Y85500D01*
G01X368000Y135000D02*
X367500D01*
X362311Y129811D01*
X361300D01*
G01X472500Y27189D02*
Y30100D01*
G01X433151Y117531D02*
Y114043D01*
G01X413449Y132543D02*
X410300D01*
G01X462896Y76822D02*
X465421D01*
G01X402532Y140707D02*
X405300D01*
G01X428985Y124043D02*
X424800D01*
G01X451032D02*
X454300D01*
G01X452151Y118543D02*
X455300D01*
G01X441232Y76609D02*
X441232Y73143D01*
G01X417106Y80483D02*
X413860D01*
G01X425862Y75509D02*
X425862Y76804D01*
X427300Y78243D01*
G01X429964Y93341D02*
Y96043D01*
G01X425464Y94460D02*
Y97162D01*
G01X420492Y90856D02*
X416800Y90856D01*
G01X462896Y80822D02*
X465421D01*
G01X355844Y142043D02*
X359800D01*
X361300Y140543D01*
Y140275D01*
G01X355844Y138071D02*
X355844Y142043D01*
G01X203324Y108197D02*
Y108196D01*
X206300D01*
G01X238300Y117343D02*
G01X274300Y106670D02*
Y104043D01*
G01X283824Y106697D02*
Y106696D01*
X287206D01*
G01X238300Y135400D02*
Y135401D01*
G01D02*
X238042D01*
X234400Y139043D01*
X232844D01*
G01X241658Y135401D02*
X238300D01*
G01Y125007D02*
Y124543D01*
X234050Y120293D01*
G01X238300Y143204D02*
G01X434675Y41275D02*
Y44461D01*
G01X438175Y41275D02*
Y44461D01*
G01X445175Y41275D02*
Y44461D01*
G01X441675Y41275D02*
Y44461D01*
G01X427675Y37811D02*
X426532Y37811D01*
X424300Y40043D01*
Y43543D01*
G01X412151Y99500D02*
X416500D01*
G01X349300Y124043D02*
X349256Y124087D01*
Y129015D01*
X348756D01*
G01X357800Y124043D02*
X349300D01*
G01X361300Y140275D02*
G01X368000Y114768D02*
Y112200D01*
G01Y114768D02*
X371381D01*
X372500Y113649D01*
G01D02*
X374249Y111900D01*
X378200D01*
G01X482500Y27189D02*
Y30100D01*
G01X472079Y108790D02*
X466500D01*
G01X456500Y95000D02*
X458500Y93000D01*
X459268D01*
G01X465040Y49500D02*
X468500D01*
G01X442873Y102412D02*
Y106500D01*
G01X361300Y129811D02*
Y127543D01*
X357800Y124043D01*
G01X337500Y82732D02*
Y85500D01*
G01X348000Y82732D02*
Y85500D01*
G01X377500Y105000D02*
X379239D01*
X380739Y106500D01*
Y109361D01*
X378200Y111900D01*
G01X396400Y121000D02*
X393700Y123700D01*
X384500D01*
G01X392028Y112956D02*
Y112028D01*
X389200Y109200D01*
Y108832D01*
G01X396000Y114500D02*
Y114456D01*
X394500Y112956D01*
X392028D01*
G01X238300Y117343D02*
Y120843D01*
G01Y117343D02*
X235115D01*
Y117282D01*
X235137D01*
G01X261000Y101224D02*
Y97000D01*
G01X452716Y34584D02*
Y35084D01*
X452175Y35625D01*
Y37811D01*
G01X236500Y162732D02*
Y165500D01*
G01X232500Y162732D02*
Y166000D01*
G01X238300Y143204D02*
Y146043D01*
G01X216000Y96732D02*
X211500D01*
G01X216000D02*
Y99000D01*
G01X203500Y96732D02*
X199000D01*
G01X203500D02*
Y99500D01*
G01X283500Y96732D02*
X279500D01*
G01D02*
X276500D01*
G01X459432Y80822D02*
X456700D01*
G01X366290Y82335D02*
X367987Y84032D01*
G01X366290Y82335D02*
X364454Y80500D01*
X363559D01*
G01X400268Y271500D02*
X397500D01*
G01X388700Y168575D02*
Y171343D01*
G01X435300Y174311D02*
X425300D01*
G01X445300D02*
X435300D01*
G01X425300D02*
X422500D01*
G01X425300Y235275D02*
X430500D01*
G01X212039Y179808D02*
X207308D01*
X207000Y179500D01*
G01X212039Y187682D02*
X206000D01*
G01X357709Y278234D02*
X363000D01*
G01X469900Y198532D02*
Y200800D01*
G01X415102Y243000D02*
X409000D01*
G01X378742Y393377D02*
Y406985D01*
X378800Y407043D01*
G01X268742Y369361D02*
Y378543D01*
G01X382200Y168575D02*
Y171343D01*
G01X357709Y179808D02*
X362537D01*
G01X310465Y175871D02*
Y171043D01*
G01X357709Y325478D02*
X362735D01*
X364800Y327543D01*
G01X248742Y369361D02*
Y360179D01*
G01X478781Y369361D02*
Y358043D01*
G01X212039Y258548D02*
X206800D01*
G01X231724Y175871D02*
Y173643D01*
X230224Y172143D01*
X230200D01*
G01X275032Y175871D02*
Y173311D01*
X276800Y171543D01*
G01X219100Y337543D02*
X215976Y334419D01*
Y329415D01*
G01X212039Y215241D02*
X216800D01*
G01X239598Y175871D02*
Y171043D01*
G01X212039Y254611D02*
X206800D01*
G01X216500Y340343D02*
X212039Y335882D01*
Y325478D01*
G01X282906Y175871D02*
Y180448D01*
X285250Y182793D01*
G01X213300Y170543D02*
X215976Y173219D01*
Y175871D01*
G01X207300Y225043D02*
X209228Y223115D01*
X212039D01*
G01X226900Y369360D02*
Y362969D01*
X224110Y360179D01*
G01X400268Y258000D02*
X397500D01*
G01X415102Y248000D02*
X409000D01*
G01X330150Y329415D02*
Y326150D01*
X329000Y325000D01*
G01X328742Y369361D02*
Y357101D01*
X330800Y355043D01*
G01X366800Y223115D02*
X357709D01*
G01X418742Y369361D02*
Y374758D01*
X416500Y377000D01*
G01X239598Y171043D02*
X237056Y168500D01*
X235000D01*
X232500Y166000D01*
G01X357400Y172043D02*
X355772D01*
X353772Y174043D01*
Y175871D01*
G01X343272Y170071D02*
X341961Y171382D01*
Y175871D01*
G01X330150D02*
Y171693D01*
X330422Y171421D01*
G01X482400Y198532D02*
X485500D01*
G01X435300Y235275D02*
X440500Y235275D01*
X445300Y235275D01*
G01X430500D02*
X435300D01*
G01X468732Y253000D02*
X472000D01*
G01X498497Y93790D02*
X504076D01*
G01X498497Y98790D02*
X504076D01*
G01X498497Y123790D02*
X504076D01*
G01X498497Y108790D02*
X504076D01*
G01X511000Y140877D02*
X514000D01*
G01X516568Y61543D02*
X516568Y58543D01*
G01X516568Y81543D02*
X516568Y84811D01*
G01X511000Y130413D02*
X514000D01*
G01X488781Y369361D02*
Y358043D01*
G01X497500Y298268D02*
Y295000D01*
G54D101*
X508807Y181019D03*
G54D111*
G01X349139Y39528D02*
X349139Y61968D01*
G54D102*
X508807Y196019D03*
Y211019D03*
Y226019D03*
Y241019D03*
Y256019D03*
Y271019D03*
Y286019D03*
Y301019D03*
Y316019D03*
G54D103*
G01X145260Y91776D02*
Y86466D01*
X146886Y84840D01*
Y73410D01*
X146376Y72900D01*
X145300D01*
X142576Y75624D01*
Y76929D01*
G01X177563Y124062D02*
X177700Y123925D01*
Y121943D01*
X167647Y111890D01*
X147904D01*
X143500Y107486D01*
Y97500D01*
X145260Y95740D01*
Y91776D01*
G01X179137Y124062D02*
X178990Y123915D01*
Y121409D01*
X168182Y110600D01*
X148439D01*
X144790Y106951D01*
Y104710D01*
X145260Y104240D01*
Y101224D01*
G01D02*
Y97740D01*
X147000Y96000D01*
Y89000D01*
X146550Y88550D01*
Y87000D01*
X148176Y85374D01*
Y67529D01*
X147576Y66929D01*
G01X152576Y76929D02*
Y75524D01*
X155266Y72834D01*
X156334D01*
X156886Y73386D01*
Y82320D01*
X152740Y86466D01*
Y91776D01*
G01D02*
Y95740D01*
X150980Y97500D01*
Y106727D01*
X152343Y108090D01*
X169766D01*
X176676Y115000D01*
X179176D01*
X182429Y118254D01*
Y120670D01*
X182287Y120813D01*
Y124062D01*
G01X152740Y101224D02*
Y104240D01*
X152270Y104710D01*
Y106193D01*
X152877Y106800D01*
X170300D01*
X177210Y113710D01*
X179710D01*
X183719Y117719D01*
Y120670D01*
X183862Y120813D01*
Y124062D01*
G01X152740Y101224D02*
Y97740D01*
X154480Y96000D01*
Y89000D01*
X154030Y88550D01*
Y87000D01*
X158176Y82854D01*
Y67529D01*
X157576Y66929D01*
G01X185437Y124062D02*
X185567Y123932D01*
Y123925D01*
X185577Y123915D01*
Y114401D01*
X182966Y111790D01*
X178966D01*
X174500Y107324D01*
Y97500D01*
X176260Y95740D01*
Y91776D01*
G01D02*
Y87900D01*
X175750Y87390D01*
X167476D01*
X166210Y86124D01*
Y83566D01*
X167566Y82210D01*
X176290D01*
X176886Y81614D01*
Y73586D01*
X176095Y72795D01*
X174905D01*
X172576Y75124D01*
Y76929D01*
G01X176260Y101224D02*
Y97740D01*
X178000Y96000D01*
Y89000D01*
X177550Y88550D01*
Y87366D01*
X176284Y86100D01*
X168010D01*
X167500Y85590D01*
Y84100D01*
X168100Y83500D01*
X176824D01*
X178176Y82149D01*
Y67529D01*
X177576Y66929D01*
G01X187011Y124062D02*
X186867Y123917D01*
Y113867D01*
X183500Y110500D01*
X179500D01*
X175790Y106790D01*
Y104710D01*
X176260Y104240D01*
Y101224D01*
G01X190161Y124062D02*
Y121182D01*
X191074Y120269D01*
Y117418D01*
X191084Y117408D01*
X189210Y115534D01*
Y111034D01*
X186466Y108290D01*
X183746D01*
X181980Y106524D01*
Y97500D01*
X183740Y95740D01*
Y91776D01*
G01D02*
Y87066D01*
X185096Y85710D01*
X190110D01*
X191590Y87190D01*
Y89200D01*
X192100Y89710D01*
X193300D01*
X193810Y89200D01*
Y83234D01*
X192676Y82100D01*
X188200D01*
X186886Y80786D01*
Y73505D01*
X186276Y72895D01*
X185205D01*
X182576Y75524D01*
Y76929D01*
G01X183740Y101224D02*
Y97740D01*
X185480Y96000D01*
Y89000D01*
X185030Y88550D01*
Y87600D01*
X185630Y87000D01*
X189576D01*
X190300Y87724D01*
Y89734D01*
X191566Y91000D01*
X193834D01*
X195100Y89734D01*
Y82700D01*
X193210Y80810D01*
X188734D01*
X188176Y80251D01*
Y67529D01*
X187576Y66929D01*
G01X191736Y124062D02*
Y121446D01*
X192374Y120808D01*
Y116874D01*
X190500Y115000D01*
Y110500D01*
X187000Y107000D01*
X184280D01*
X183270Y105990D01*
Y104710D01*
X183740Y104240D01*
Y101224D01*
G01X257260Y91776D02*
Y88940D01*
X258000Y88200D01*
Y87400D01*
X257490Y86890D01*
X254710D01*
X254200Y87400D01*
Y88734D01*
X252934Y90000D01*
X250266D01*
X249000Y88734D01*
Y83166D01*
X250266Y81900D01*
X257076D01*
X258000Y80976D01*
Y73410D01*
X257490Y72900D01*
X256290D01*
X253690Y75500D01*
Y76794D01*
G01X266437Y124062D02*
Y120813D01*
X266579Y120670D01*
Y115903D01*
X263466Y112790D01*
X261466D01*
X255500Y106824D01*
Y97500D01*
X257260Y95740D01*
Y91776D01*
G01X234240D02*
Y95740D01*
X232480Y97500D01*
Y104454D01*
X234216Y106190D01*
X240834D01*
X242034Y104990D01*
X247566D01*
X259476Y116900D01*
X262329D01*
X263429Y118000D01*
Y120670D01*
X263287Y120813D01*
Y124062D01*
G01X233690Y76794D02*
Y74610D01*
X235300Y73000D01*
X236900D01*
X238000Y74100D01*
Y81676D01*
X234240Y85436D01*
Y91776D01*
G01X264740D02*
Y87166D01*
X266096Y85810D01*
X271234D01*
X272690Y87266D01*
Y89300D01*
X273200Y89810D01*
X275590D01*
X276100Y89300D01*
Y84900D01*
X273890Y82690D01*
X269866D01*
X268000Y80824D01*
Y73700D01*
X267000Y72700D01*
X265900D01*
X263690Y74910D01*
Y76794D01*
G01X271161Y124062D02*
Y120813D01*
X271303Y120670D01*
Y114628D01*
X266466Y109790D01*
X264966D01*
X262980Y107804D01*
Y97500D01*
X264740Y95740D01*
Y91776D01*
G01X257260Y101224D02*
Y97740D01*
X259000Y96000D01*
Y89100D01*
X259290Y88810D01*
Y86866D01*
X258024Y85600D01*
X254176D01*
X252910Y86866D01*
Y88200D01*
X252400Y88710D01*
X250800D01*
X250290Y88200D01*
Y83700D01*
X250800Y83190D01*
X257610D01*
X259290Y81510D01*
Y67394D01*
X258690Y66794D01*
G01X268011Y124062D02*
Y120813D01*
X267869Y120670D01*
Y115369D01*
X264000Y111500D01*
X262000D01*
X256790Y106290D01*
Y104710D01*
X257260Y104240D01*
Y101224D01*
G01X234240D02*
Y104390D01*
X234750Y104900D01*
X240300D01*
X241500Y103700D01*
X248100D01*
X260010Y115610D01*
X262864D01*
X264719Y117466D01*
Y120670D01*
X264862Y120813D01*
Y124062D01*
G01X238690Y66794D02*
X239290Y67394D01*
Y82210D01*
X235530Y85970D01*
Y88550D01*
X235980Y89000D01*
Y96000D01*
X234240Y97740D01*
Y101224D01*
G01X223690Y76794D02*
Y75210D01*
X226200Y72700D01*
X227182D01*
X228000Y73518D01*
Y83676D01*
X226760Y84916D01*
Y91776D01*
G01D02*
Y95740D01*
X225000Y97500D01*
Y108004D01*
X226986Y109990D01*
X246666D01*
X258710Y122034D01*
Y123915D01*
X258563Y124062D01*
G01X264740Y101224D02*
Y97740D01*
X266480Y96000D01*
Y89000D01*
X266030Y88550D01*
Y87700D01*
X266630Y87100D01*
X270700D01*
X271400Y87800D01*
Y89834D01*
X272666Y91100D01*
X276124D01*
X277390Y89834D01*
Y84366D01*
X274424Y81400D01*
X270400D01*
X269290Y80290D01*
Y67394D01*
X268690Y66794D01*
G01X272736Y124062D02*
Y120813D01*
X272593Y120670D01*
Y114093D01*
X267000Y108500D01*
X265500D01*
X264270Y107270D01*
Y104710D01*
X264740Y104240D01*
Y101224D01*
G01X226760D02*
Y104240D01*
X226290Y104710D01*
Y107470D01*
X227520Y108700D01*
X247200D01*
X260000Y121500D01*
Y123925D01*
X260137Y124062D01*
G01X226760Y101224D02*
Y97740D01*
X228500Y96000D01*
Y89000D01*
X228050Y88550D01*
Y85450D01*
X229290Y84210D01*
Y67394D01*
X228690Y66794D01*
G54D10*
X-17474Y-412454D03*
Y399257D03*
X558474Y-412454D03*
Y350257D03*
G54D104*
G01X198100Y116843D02*
X197800Y117143D01*
Y126612D01*
X197200Y127212D01*
X196460D01*
G01X195300Y162775D02*
Y165775D01*
X194000Y167075D01*
Y168500D01*
G01X157300Y139204D02*
X154500Y142004D01*
Y146500D01*
X147000Y154000D01*
Y167000D01*
X149543Y169543D01*
X158800D01*
X161800Y172543D01*
X201043D01*
X204300Y175800D01*
Y181543D01*
X206502Y183745D01*
X212039D01*
G01X191300Y168500D02*
Y162775D01*
G01X168532Y131936D02*
X172838D01*
G01X165800Y127043D02*
X168300Y129543D01*
X169800D01*
X170618Y130361D01*
X172838D01*
G01X157300Y128472D02*
X161300D01*
G01X157300Y128471D02*
Y128472D01*
G01X161300D02*
X164371D01*
X165800Y127043D01*
G01X161300Y128472D02*
G01X152048Y126345D02*
X154175Y128472D01*
X157300D01*
G01X207300Y157000D02*
Y156443D01*
X204250Y153393D01*
X202150D01*
X201271Y152514D01*
X200422D01*
X199771Y153165D01*
X198922D01*
X198074Y152317D01*
Y151468D01*
X198725Y150817D01*
Y149968D01*
X198300Y149543D01*
X193800D01*
X193311Y149054D01*
Y147684D01*
G01X191300Y159311D02*
X187300D01*
G01X191300D02*
Y156700D01*
G01X188586Y147684D02*
X188600Y147698D01*
Y154000D01*
X191300Y156700D01*
G01X155353Y159311D02*
Y156690D01*
X161500Y150543D01*
X176400D01*
X177563Y149380D01*
Y147684D01*
G01X196460Y142960D02*
X198717D01*
X201500Y145743D01*
Y147300D01*
X203000Y148800D01*
X205700D01*
X206957Y147543D01*
X207000D01*
G01X196460Y144535D02*
X197792D01*
X199800Y146543D01*
Y148543D01*
X202800Y151543D01*
X206500D01*
G01X195300Y159311D02*
Y157100D01*
X190161Y151961D01*
Y147684D01*
G01X209568Y139543D02*
X203938D01*
X202630Y138235D01*
X196460D01*
G01X159353Y159311D02*
Y155190D01*
X162500Y152043D01*
X177100D01*
X179137Y150005D01*
Y147684D01*
G01X209568Y135543D02*
X202300D01*
X201182Y136661D01*
X196460D01*
G01X209568Y131543D02*
X203709D01*
X200166Y135086D01*
X196460D01*
G01X209568Y127543D02*
X205300D01*
X199332Y133511D01*
X196460D01*
G01X167100Y119975D02*
X170800Y123675D01*
Y126112D01*
X171900Y127212D01*
X172838D01*
G01X160764Y139204D02*
X165296D01*
X170989Y133511D01*
X172838D01*
G01X209568Y143543D02*
X204800D01*
X201067Y139810D01*
X196460D01*
G01X209568Y123543D02*
X202200D01*
X201600Y124143D01*
Y129243D01*
X198907Y131936D01*
X196460D01*
G01X209568Y115543D02*
X204300D01*
X199000Y120843D01*
Y127109D01*
X199002Y127840D01*
X198056Y128787D01*
X196460D01*
G01X38619Y61169D02*
X29426D01*
G01X15981D02*
X29426D01*
G01X203300Y157000D02*
X201900Y155600D01*
X197357D01*
X191736Y149979D01*
Y147684D01*
G01X207500Y119500D02*
X202343D01*
X200300Y121543D01*
Y128543D01*
X198482Y130361D01*
X196460D01*
G01X144960Y135401D02*
X148818Y131543D01*
X156907D01*
X157300Y131936D01*
G01X165068D02*
X161300D01*
G01X157300Y131936D02*
G01X161300Y131936D02*
G01X157300D02*
X161300D01*
G01X122000Y271500D02*
X119500D01*
X118768Y272232D01*
Y275000D01*
G01X176861Y369360D02*
Y377482D01*
X175547Y378796D01*
G01X182500Y378500D02*
X186900Y374100D01*
Y369360D01*
G01X136861Y393376D02*
Y405000D01*
G01X150000Y378000D02*
X146861Y374861D01*
Y369360D01*
G01X148000Y380043D02*
X143957Y376000D01*
X138500D01*
X136861Y374361D01*
Y369360D01*
G01X156861D02*
Y376861D01*
X158543Y378543D01*
X163736D01*
G01X146861Y393376D02*
Y405500D01*
G01X166861Y393376D02*
Y404500D01*
G01X185500Y378543D02*
X188457D01*
X190500Y376500D01*
X193500D01*
X196900Y373100D01*
Y369360D01*
G01X176861Y393376D02*
Y404500D01*
G01X186861Y393376D02*
Y404500D01*
G01X132300Y304543D02*
X129300D01*
X118550Y315293D01*
X110549D01*
X102800Y323043D01*
X86800D01*
X79800Y316043D01*
Y295043D01*
X82784Y292059D01*
Y287543D01*
G01X68825Y307941D02*
X68826Y307940D01*
Y303017D01*
X74532Y297311D01*
Y291543D01*
G01X77800Y287543D02*
X82784D01*
G01X82784D02*
G01X51503Y341011D02*
X51503Y336340D01*
X53300Y334543D01*
G01X74532Y287543D02*
X77800D01*
G01X74532D02*
G01X74532Y291543D02*
Y287543D01*
G01X74532Y291543D02*
G01X37300Y278675D02*
Y286003D01*
G01X97172Y307941D02*
X97172Y312543D01*
X94172Y315543D01*
X89800D01*
X86300Y312043D01*
Y301543D01*
X90300Y297543D01*
X95957D01*
X100300Y293200D01*
Y268800D01*
X94043Y262543D01*
X73457D01*
X69800Y266200D01*
Y269543D01*
X71800Y271543D01*
G01X312989Y356000D02*
X310989Y358000D01*
X295500D01*
X293143Y355643D01*
X248700D01*
X244300Y360043D01*
Y393700D01*
X230957Y407043D01*
X199404D01*
X196861Y404500D01*
G01D02*
Y393376D01*
G01X37300Y293083D02*
X37329Y293112D01*
Y307941D01*
G01X71800Y268043D02*
X73300Y266543D01*
X92043D01*
X97300Y271800D01*
Y291200D01*
X93957Y294543D01*
X87300D01*
X82800Y299043D01*
Y314043D01*
X88300Y319543D01*
X96300D01*
X100322Y315521D01*
Y307941D01*
X100321D01*
G01X212039Y309730D02*
X207413D01*
X201800Y315343D01*
Y333043D01*
X197800Y337043D01*
X187681D01*
X187081Y337643D01*
Y341443D01*
X186481Y342043D01*
X185281D01*
X184681Y341443D01*
Y337643D01*
X184081Y337043D01*
X173900D01*
X173300Y337643D01*
Y339936D01*
X173900Y340536D01*
X181200D01*
X181800Y341136D01*
Y342336D01*
X181200Y342936D01*
X173900D01*
X173300Y343536D01*
Y344736D01*
X173900Y345336D01*
X181200D01*
X181800Y345936D01*
Y347136D01*
X181200Y347736D01*
X173600D01*
G01X79655Y191043D02*
X124800D01*
X131800Y184043D01*
G01X71800Y257543D02*
X95543D01*
X104000Y266000D01*
Y294500D01*
X97000Y301500D01*
X94843D01*
X94023Y302320D01*
Y307940D01*
X94022Y307941D01*
G01X84300Y275311D02*
Y272543D01*
G01X82700Y175400D02*
X124943D01*
X131800Y168543D01*
G01X212039Y321540D02*
X208400D01*
X207300Y322640D01*
Y336043D01*
X206300Y337043D01*
Y341398D01*
X205700Y341998D01*
X201900D01*
X201300Y342598D01*
Y343798D01*
X201900Y344398D01*
X205700D01*
X206300Y344998D01*
Y346198D01*
X205700Y346798D01*
X201900D01*
X201300Y347398D01*
Y348598D01*
X201900Y349198D01*
X205700D01*
X206300Y349798D01*
Y357043D01*
X203300Y360043D01*
X195400D01*
X194400Y359043D01*
Y352643D01*
X193800Y352043D01*
X191300D01*
X186800Y356543D01*
X160700D01*
X156700Y360543D01*
G01X84300Y278775D02*
X89300Y278775D01*
G01X90209Y283740D02*
X90209Y279684D01*
X89300Y278775D01*
G01Y278775D02*
G01X194800Y378000D02*
X195300Y377500D01*
X203500D01*
X206900Y374100D01*
Y369360D01*
G01X146700Y360543D02*
Y355243D01*
X149500Y352443D01*
X175796D01*
X176396Y351843D01*
Y350143D01*
X176996Y349543D01*
X178196D01*
X178796Y350143D01*
Y351843D01*
X179396Y352443D01*
X184900D01*
X185632Y351710D01*
Y350862D01*
X183481Y348710D01*
Y347862D01*
X184330Y347013D01*
X185178D01*
X187330Y349165D01*
X188178D01*
X189027Y348316D01*
Y347468D01*
X186875Y345316D01*
Y344468D01*
X191800Y339543D01*
X197800D01*
X203800Y333543D01*
Y318043D01*
X208176Y313666D01*
X212039D01*
G01X131800Y176543D02*
X126300Y182043D01*
X79800D01*
G01X212039Y317604D02*
X208239D01*
X205300Y320543D01*
Y335043D01*
X198800Y341543D01*
X192849D01*
X192249Y342143D01*
Y344443D01*
X192849Y345043D01*
X198700D01*
X199300Y345643D01*
Y350543D01*
X199800Y351043D01*
X203800D01*
X204300Y351543D01*
Y354443D01*
X203700Y355043D01*
X200400D01*
X199800Y355643D01*
Y356943D01*
X199200Y357543D01*
X197300D01*
X196800Y357043D01*
Y351043D01*
X195300Y349543D01*
X190800D01*
X185800Y354543D01*
X159300D01*
G01X191300Y356043D02*
X188800Y358543D01*
X174100D01*
X172200Y360443D01*
X166700D01*
G01X122232Y278500D02*
Y275000D01*
G01X124516Y287500D02*
Y280784D01*
X122232Y278500D01*
G01X203324Y111661D02*
Y112019D01*
X200800Y114543D01*
G01D02*
X198500Y116843D01*
X198100D01*
G01X472500Y128000D02*
X503500D01*
X511000Y120500D01*
Y71111D01*
X516568Y65543D01*
G01X357709Y207367D02*
X379633D01*
X420000Y167000D01*
X441000D01*
X445500Y162500D01*
Y142500D01*
G01X475000Y130000D02*
X505500D01*
X513500Y122000D01*
Y80611D01*
X516568Y77543D01*
G01X279300Y118043D02*
Y120543D01*
X278800Y121043D01*
Y126543D01*
X278131Y127212D01*
X277460D01*
G01X283824Y110161D02*
X287206D01*
G01X283824D02*
X279300Y114684D01*
Y118043D01*
G01X453917Y82396D02*
X455154D01*
X456879Y84121D01*
G01D02*
X457579Y84822D01*
X459432D01*
G01X472079Y118790D02*
X478000D01*
G01X462732Y96500D02*
Y93000D01*
G01D02*
X465500D01*
X466290Y93790D01*
X472079D01*
G01X448675Y37811D02*
G01Y37811D02*
X445175D01*
G01X450000Y33800D02*
Y36486D01*
X448675Y37811D01*
G01X441871Y19472D02*
X441871Y23665D01*
G01X436989Y29590D02*
X436989Y29591D01*
Y31611D01*
X433800Y34800D01*
Y36936D01*
X434675Y37811D01*
G01X431175Y37811D02*
X434675Y37811D01*
G01D02*
G01X203300Y168500D02*
Y162775D01*
G01X235661Y175871D02*
Y173904D01*
X227800Y166043D01*
Y154543D01*
X233300Y149043D01*
Y143200D01*
X234957Y141543D01*
X235961D01*
X238300Y139204D01*
G01X299000Y118500D02*
X297175D01*
X296132Y119543D01*
G01X288300Y162775D02*
Y169543D01*
X287300Y170543D01*
G01X213032Y147543D02*
X215243D01*
X216600Y148900D01*
Y158743D01*
X216300Y159043D01*
G01X213032Y143543D02*
X215800D01*
X217800Y145543D01*
G01X213032Y127543D02*
X215032D01*
X218300Y130811D01*
G01X207300Y162775D02*
Y168500D01*
G01X296032Y143543D02*
X300916Y148427D01*
G01X213032Y139543D02*
X215032D01*
X222300Y146811D01*
Y150043D01*
G01X449000Y107500D02*
Y88000D01*
X450177Y86823D01*
Y84365D01*
G01X356000Y84000D02*
X356500Y84500D01*
X359768D01*
G01X213032Y135543D02*
X214343D01*
X225300Y146500D01*
Y150043D01*
G01X276300Y162775D02*
Y168543D01*
G01X272300Y162775D02*
Y168543D01*
G01X371021Y89938D02*
X365170Y89938D01*
X363232Y88000D01*
G01X296032Y127543D02*
X298800D01*
G01X371021Y86001D02*
X364733Y86001D01*
X363232Y84500D01*
G01Y102000D02*
X370500D01*
X375254Y97246D01*
Y96139D01*
G01X296032Y151543D02*
X296032Y156275D01*
X298800Y159043D01*
G01X213032Y151543D02*
X215032Y153543D01*
Y156268D01*
X214150Y157150D01*
G01X296032Y135543D02*
X298666Y138177D01*
G01X277460Y136661D02*
X281682D01*
X282914Y135429D01*
X292454D01*
X292568Y135543D01*
G01X362732Y75500D02*
X369296Y82064D01*
X371021D01*
G01X277460Y135086D02*
X281166D01*
X284709Y131543D01*
X292568D01*
G01X296032Y139543D02*
X301666Y145177D01*
G01X371021Y93875D02*
X364357Y93875D01*
X363232Y95000D01*
G01X292568Y143543D02*
X285800D01*
X282067Y139810D01*
X277460D01*
G01X399100Y193300D02*
Y190800D01*
X420800Y169100D01*
X455000D01*
X457400Y166700D01*
Y153300D01*
X463000Y147700D01*
X472200D01*
X472900Y148400D01*
Y150068D01*
G01X213032Y119543D02*
X214489Y121000D01*
X218500D01*
G01X292568Y123543D02*
X283200D01*
X282600Y124143D01*
Y129243D01*
X279907Y131936D01*
X277460D01*
G01X292568Y127543D02*
X286300D01*
X280332Y133511D01*
X277460D01*
G01Y138235D02*
X283630D01*
X284938Y139543D01*
X292568D01*
G01X401500Y191000D02*
X421600Y170900D01*
X455418D01*
X458968Y167350D01*
Y153949D01*
X462850Y150068D01*
X469400D01*
G01X284300Y162775D02*
Y170543D01*
G01X296032Y115543D02*
X298800D01*
G01X213032Y123543D02*
X215032D01*
X218416Y126927D01*
G01X354500Y106000D02*
Y101500D01*
X357500Y98500D01*
X359768D01*
G01X354500Y106000D02*
X350850Y109650D01*
X331150D01*
G01X464453Y60500D02*
X467500D01*
G01X459434Y88892D02*
X459349D01*
G01D02*
X454428Y83971D01*
X453917D01*
G01X459349Y88892D02*
X453000Y95240D01*
Y106500D01*
X449000Y110500D01*
G01X359768Y102000D02*
X359500Y102268D01*
Y106000D01*
G01D02*
X353500Y112000D01*
X331200D01*
G01X327000Y107900D02*
X348600D01*
X352500Y104000D01*
Y98000D01*
X354000Y96500D01*
G01D02*
X355500Y95000D01*
X359768D01*
G01X363232Y98500D02*
X371500D01*
X373285Y96715D01*
Y96139D01*
G01X249532Y131936D02*
X253838D01*
G01X232844Y125141D02*
X236175Y128472D01*
X238300D01*
G01X247800Y127043D02*
X248300D01*
X251618Y130361D01*
X253838D01*
G01X238300Y128472D02*
X242300D01*
G01X238300Y128471D02*
Y128472D01*
G01X242300D02*
X246371D01*
X247800Y127043D01*
G01X242300Y128472D02*
G01X371021Y91906D02*
X363638D01*
X363232Y91500D01*
G01X272300Y159311D02*
X268300D01*
G01X272300D02*
Y156900D01*
G01X269586Y147684D02*
Y154186D01*
X272300Y156900D01*
G01X276300Y159311D02*
Y157876D01*
X271161Y152737D01*
Y147684D01*
G01X284300Y159311D02*
X280300D01*
G01X284300Y156900D02*
Y159311D01*
G01Y156900D02*
X279943Y152543D01*
X274043D01*
X272736Y151236D01*
Y147684D01*
G01X288200Y156800D02*
X288300Y156900D01*
Y159311D01*
G01X288200Y156800D02*
X281943Y150543D01*
X275300D01*
X274311Y149554D01*
Y147684D01*
G01X292568Y151543D02*
X289800D01*
G01X277460Y144535D02*
X278792D01*
X285800Y151543D01*
X289800D01*
G01X292568Y147543D02*
X289800D01*
G01D02*
X288300Y149043D01*
X285300D01*
X279217Y142960D01*
X277460D01*
G01X258563Y147684D02*
Y149438D01*
X257657Y150343D01*
X242157D01*
X236500Y156000D01*
Y159268D01*
G01X207300Y159311D02*
Y157000D01*
G01X209568Y147543D02*
X207000D01*
G01X206500Y151543D02*
X209568D01*
G01X241764Y139204D02*
X245639D01*
X251332Y133511D01*
X253838D01*
G01X241764Y117343D02*
X245600D01*
X252300Y124043D01*
Y126612D01*
X252900Y127212D01*
X253838D01*
G01X246068Y131936D02*
X242300D01*
G01D02*
X238300D01*
G01X242300Y131936D02*
G01X238300Y131936D02*
X235936D01*
X234000Y130000D01*
X229952D01*
X225756Y134196D01*
G01X472500Y12500D02*
Y23725D01*
G01X476500D02*
X472500D01*
G01X482500D02*
Y12500D01*
G01Y23725D02*
X486500D01*
G01X476500Y27189D02*
Y30300D01*
G01X338800Y160043D02*
X327857D01*
X318339Y169562D01*
Y175871D01*
G01X338800Y157043D02*
X327300D01*
X314402Y169941D01*
Y175871D01*
G01X209568Y115543D02*
Y111543D01*
G01X292568Y115543D02*
X286103D01*
X280100Y121546D01*
Y127743D01*
X279056Y128787D01*
X277460D01*
G01X292568Y111543D02*
X292568Y115543D01*
G01D02*
G01X218300D02*
X213032D01*
G01X296032Y123543D02*
X298800D01*
G01X296032Y131543D02*
X298800D01*
G01X364500Y106000D02*
X371768D01*
X375768Y102000D01*
G01X331100Y114700D02*
X355800D01*
X364500Y106000D01*
G01X260137Y147684D02*
Y149863D01*
X258257Y151743D01*
X243500D01*
X240500Y154743D01*
Y159268D01*
G01X296032Y147543D02*
X298800Y150311D01*
Y155543D01*
G01X213032Y131543D02*
X215032D01*
X218166Y134677D01*
G01X451000Y105000D02*
Y88000D01*
X451751Y87249D01*
Y84365D01*
G01X359768Y88000D02*
X356043D01*
X356000Y88043D01*
G01X327000Y105200D02*
X348300D01*
X350500Y103000D01*
Y95000D01*
X354000Y91500D01*
G01D02*
X359768D01*
G01X459432Y72822D02*
X459432Y76822D01*
G01X453917Y79247D02*
X455196D01*
X457621Y76822D01*
X459432D01*
G01X459432D02*
G01X429326Y75509D02*
X429326Y80534D01*
G01X361300Y133275D02*
G01Y133275D02*
X357032D01*
X355844Y132086D01*
Y129015D01*
G01X367534Y137956D02*
X365981D01*
X361300Y133275D01*
G01Y136811D02*
G01Y136811D02*
X360568D01*
X358300Y134543D01*
X352284D01*
X348756Y138071D01*
G01X367534Y139531D02*
X365531D01*
X362811Y136811D01*
X361300D01*
G01X399068Y140707D02*
X398232Y141543D01*
X395754D01*
X394616Y142681D01*
X391156D01*
G01Y152130D02*
X398870D01*
X399000Y152000D01*
G01X399268Y155500D02*
Y152268D01*
X399000Y152000D01*
G01X391156Y153704D02*
X395204D01*
X396000Y154500D01*
Y157900D01*
X397100Y159000D01*
X399268D01*
G01Y162500D02*
X397000D01*
X394500Y160000D01*
Y155879D01*
X393900Y155279D01*
X391156D01*
G01X370532Y163043D02*
X370684Y162892D01*
Y158429D01*
G01X203300Y159311D02*
Y157000D01*
G01X199300Y159311D02*
X203300D01*
G01X385700Y108832D02*
X387600Y110732D01*
Y115616D01*
X392028Y120044D01*
G01X379191Y96139D02*
X379191Y101959D01*
X379232Y102000D01*
G01X389200Y105368D02*
X385700D01*
G01D02*
X382600D01*
X379232Y102000D01*
G01X209568Y119543D02*
X207543D01*
X207500Y119500D01*
G01X289900Y118442D02*
X285558D01*
X281300Y122700D01*
Y128543D01*
X279482Y130361D01*
X277460D01*
G01X292668Y119543D02*
X291000D01*
X289900Y118442D01*
G01X293200Y220700D02*
X296100D01*
X345759Y270359D01*
X357709D01*
G01X303600Y231300D02*
X346596Y274296D01*
X357709D01*
G01X246000Y208000D02*
X313157D01*
X336147Y230989D01*
X357709D01*
G01Y290045D02*
X364044D01*
X369000Y295000D01*
Y330500D01*
X358500Y341000D01*
X334000D01*
G01X420000Y164500D02*
X419700D01*
X380770Y203430D01*
X357709D01*
G01X278000Y217000D02*
X286400D01*
X351570Y282170D01*
X357709D01*
G01X327000Y344000D02*
X332000Y339000D01*
X358000D01*
X367000Y330000D01*
Y308000D01*
X364793Y305793D01*
X357709D01*
G01X326989Y347643D02*
Y344854D01*
X327000Y344843D01*
Y344000D01*
G01X269800Y301043D02*
X266800D01*
X255346Y312496D01*
Y329415D01*
G01X278968D02*
Y325143D01*
X279568Y324543D01*
X282048D01*
X282648Y323943D01*
Y321143D01*
X283248Y320543D01*
X284448D01*
X285048Y321143D01*
Y323943D01*
X285648Y324543D01*
X286848D01*
X287448Y323943D01*
Y321143D01*
X288048Y320543D01*
X289248D01*
X289848Y321143D01*
Y323943D01*
X290448Y324543D01*
X291648D01*
X292248Y323943D01*
Y321143D01*
X292848Y320543D01*
X294048D01*
X294648Y321143D01*
Y323943D01*
X295248Y324543D01*
X296448D01*
X297048Y323943D01*
Y321143D01*
X297648Y320543D01*
X298848D01*
X299448Y321143D01*
Y323943D01*
X300048Y324543D01*
X301248D01*
X301848Y323943D01*
Y321143D01*
X302448Y320543D01*
X303648D01*
X304248Y321143D01*
Y323943D01*
X304848Y324543D01*
X306048D01*
X306648Y323943D01*
Y321143D01*
X307248Y320543D01*
X308448D01*
X309048Y321143D01*
Y323943D01*
X309648Y324543D01*
X310848D01*
X311448Y323943D01*
Y321143D01*
X312048Y320543D01*
X313248D01*
X313848Y321143D01*
Y323943D01*
X314448Y324543D01*
X315648D01*
X316248Y323943D01*
Y321143D01*
X316848Y320543D01*
X318048D01*
X318648Y321143D01*
Y323943D01*
X319248Y324543D01*
X322700D01*
X324500Y322743D01*
Y303743D01*
X320800Y300043D01*
X292800D01*
X290300Y297543D01*
G01X310465Y329415D02*
Y336036D01*
X305957Y340543D01*
X296800D01*
X285700Y351643D01*
X245200D01*
X238800Y358043D01*
X230800D01*
G01Y338543D02*
X233300Y336043D01*
X278300D01*
X282906Y331437D01*
Y329415D01*
G01X276800Y272043D02*
X269800D01*
X223850Y317993D01*
Y329415D01*
G01X277300Y298043D02*
X263220Y312122D01*
Y329415D01*
G01X234800Y338543D02*
X279800D01*
X286842Y331500D01*
Y329415D01*
G01X357709Y313666D02*
X346666D01*
X344000Y311000D01*
Y283600D01*
X284400Y224000D01*
X271000D01*
X263000Y216000D01*
X250000D01*
X246500Y219500D01*
Y264000D01*
G01X271094Y329415D02*
Y320748D01*
X279300Y312543D01*
X319700D01*
X320300Y311943D01*
Y306543D01*
X319300Y305543D01*
X286300D01*
X284800Y304043D01*
Y296543D01*
X289300Y292043D01*
X298472D01*
X299072Y292643D01*
Y294443D01*
X299672Y295043D01*
X300872D01*
X301472Y294443D01*
Y292643D01*
X302072Y292043D01*
X303272D01*
X303872Y292643D01*
Y294443D01*
X304472Y295043D01*
X305672D01*
X306272Y294443D01*
Y292643D01*
X306872Y292043D01*
X309800D01*
X310800Y293043D01*
Y296967D01*
X310224Y297543D01*
X295800D01*
G01X323489Y355000D02*
X326489Y352000D01*
X335500D01*
X344000Y343500D01*
X359000D01*
X371000Y331500D01*
Y272000D01*
X365422Y266422D01*
X357709D01*
G01X275032Y329415D02*
Y319811D01*
X276300Y318543D01*
X281157D01*
X281757Y317943D01*
Y315643D01*
X282357Y315043D01*
X283557D01*
X284157Y315643D01*
Y317943D01*
X284757Y318543D01*
X285957D01*
X286557Y317943D01*
Y315643D01*
X287157Y315043D01*
X288357D01*
X288957Y315643D01*
Y317943D01*
X289557Y318543D01*
X290757D01*
X291357Y317943D01*
Y315643D01*
X291957Y315043D01*
X293157D01*
X293757Y315643D01*
Y317943D01*
X294357Y318543D01*
X295557D01*
X296157Y317943D01*
Y315643D01*
X296757Y315043D01*
X297957D01*
X298557Y315643D01*
Y317943D01*
X299157Y318543D01*
X300357D01*
X300957Y317943D01*
Y315643D01*
X301557Y315043D01*
X302757D01*
X303357Y315643D01*
Y317943D01*
X303957Y318543D01*
X305157D01*
X305757Y317943D01*
Y315643D01*
X306357Y315043D01*
X307557D01*
X308157Y315643D01*
Y317943D01*
X308757Y318543D01*
X309957D01*
X310557Y317943D01*
Y315643D01*
X311157Y315043D01*
X312357D01*
X312957Y315643D01*
Y317943D01*
X313557Y318543D01*
X314757D01*
X315357Y317943D01*
Y315643D01*
X315957Y315043D01*
X317157D01*
X317757Y315643D01*
Y317943D01*
X318357Y318543D01*
X322200D01*
X322800Y317943D01*
Y305543D01*
X320300Y303043D01*
X288300D01*
X286800Y301543D01*
Y298043D01*
X290300Y294543D01*
X292800D01*
G01X322276Y333543D02*
Y329415D01*
G01X296989Y347643D02*
Y349943D01*
X298989Y351943D01*
G01X238800Y349043D02*
X240100Y347743D01*
X284100D01*
X295800Y336043D01*
X300800D01*
X302590Y334252D01*
Y329415D01*
G01X326213Y337043D02*
Y329415D01*
G01X307800Y347543D02*
X306300Y349043D01*
Y352543D01*
G01X445300Y222448D02*
Y231811D01*
G01Y222448D02*
Y216300D01*
X440000Y211000D01*
X396400D01*
X393800Y213600D01*
X365300D01*
X363004Y211304D01*
X357709D01*
G01X306528Y329415D02*
Y336172D01*
X304657Y338043D01*
X296800D01*
X285200Y349643D01*
X243200D01*
X238800Y354043D01*
X230800D01*
G01X239598Y329415D02*
Y324591D01*
X238998Y323991D01*
X237900D01*
X237300Y323391D01*
Y322191D01*
X237900Y321591D01*
X238998D01*
X239598Y320991D01*
Y315744D01*
X267300Y288043D01*
X277800D01*
X284800Y281043D01*
Y277043D01*
G01X224300Y346043D02*
X226600Y343743D01*
X282100D01*
X294716Y331126D01*
Y329415D01*
G01X266800Y304543D02*
X259283Y312060D01*
Y329415D01*
G01X289000Y290000D02*
X275300Y303700D01*
Y307046D01*
X275900Y307646D01*
X316700D01*
X317300Y308246D01*
Y309446D01*
X316700Y310046D01*
X275900D01*
X275300Y310646D01*
Y312543D01*
X273576Y314267D01*
X272727D01*
X269826Y311366D01*
X268977D01*
X268129Y312214D01*
Y313063D01*
X271030Y315964D01*
Y316813D01*
X270182Y317661D01*
X269333D01*
X266432Y314760D01*
X265583D01*
X264735Y315608D01*
Y316457D01*
X267636Y319358D01*
Y320207D01*
X267158Y320685D01*
Y329415D01*
G01X284300Y269543D02*
X286800Y272043D01*
Y285543D01*
X279800Y292543D01*
X269800D01*
X245800Y316543D01*
Y324543D01*
X247472Y326215D01*
Y329415D01*
G01X435300Y222448D02*
Y231811D01*
G01Y222448D02*
Y215600D01*
X432341Y212641D01*
X397080D01*
X394480Y215241D01*
X357709D01*
G01X293300Y287543D02*
X293800Y287043D01*
X298085D01*
X298685Y287643D01*
Y289443D01*
X299285Y290043D01*
X300485D01*
X301085Y289443D01*
Y287643D01*
X301685Y287043D01*
X303726D01*
X304326Y286443D01*
Y284143D01*
X303726Y283543D01*
X292900D01*
X292300Y282943D01*
Y280643D01*
X292900Y280043D01*
X297200D01*
X297800Y279443D01*
Y277643D01*
X297200Y277043D01*
X289400D01*
X288800Y277643D01*
Y286543D01*
X280800Y294543D01*
X270300D01*
X251409Y313434D01*
Y316056D01*
X250809Y316656D01*
X248400D01*
X247800Y317256D01*
Y318456D01*
X248400Y319056D01*
X250809D01*
X251409Y319656D01*
Y320856D01*
X250809Y321456D01*
X248400D01*
X247800Y322056D01*
Y323256D01*
X248400Y323856D01*
X250809D01*
X251409Y324456D01*
Y329415D01*
G01X219913D02*
Y318930D01*
X268800Y270043D01*
X278300D01*
X279800Y271543D01*
Y280043D01*
X276800Y283043D01*
G01X227787Y329415D02*
Y325268D01*
X227187Y324668D01*
X225900D01*
X225300Y324068D01*
Y322868D01*
X225900Y322268D01*
X227187D01*
X227787Y321668D01*
Y317555D01*
X270300Y275043D01*
X276800D01*
G01X231724Y329415D02*
Y325197D01*
X231124Y324597D01*
X229900D01*
X229300Y323997D01*
Y322797D01*
X229900Y322197D01*
X231124D01*
X231724Y321597D01*
Y317119D01*
X270300Y278543D01*
X276800D01*
G01X243535Y329415D02*
Y325466D01*
X242935Y324866D01*
X241900D01*
X241300Y324266D01*
Y323066D01*
X241900Y322466D01*
X242935D01*
X243535Y321866D01*
Y320666D01*
X242935Y320066D01*
X241900D01*
X241300Y319466D01*
Y318266D01*
X241900Y317666D01*
X242935D01*
X243535Y317066D01*
Y315308D01*
X268550Y290292D01*
X278550D01*
X283550Y285293D01*
G01X425300Y222448D02*
Y231811D01*
G01Y222448D02*
Y217300D01*
X422300Y214300D01*
X398300D01*
X395500Y217100D01*
X365800D01*
X363722Y219178D01*
X357709D01*
G01X235661Y329415D02*
Y324793D01*
X235061Y324193D01*
X233900D01*
X233300Y323593D01*
Y322393D01*
X233900Y321793D01*
X235061D01*
X235661Y321193D01*
Y316682D01*
X266800Y285543D01*
X277300D01*
X282800Y280043D01*
Y274543D01*
G01X230800Y341343D02*
X281000D01*
X290780Y331563D01*
Y329415D01*
G01X357709Y286108D02*
X367500D01*
G01X224300Y350043D02*
X228600Y345743D01*
X283100D01*
X294800Y334043D01*
X297300D01*
X298654Y332689D01*
Y329415D01*
G01X318742Y393377D02*
Y407043D01*
G01X308742Y393377D02*
Y407843D01*
G01X318742Y369361D02*
Y377485D01*
X320357Y379100D01*
X330243D01*
X332000Y377343D01*
Y375343D01*
X333800Y373543D01*
G01X308742Y369361D02*
Y378484D01*
X311357Y381100D01*
X331243D01*
X333800Y378543D01*
Y376243D01*
G01X298742Y393377D02*
Y407043D01*
G01X288742Y393377D02*
Y406485D01*
X288800Y406543D01*
G01X212039Y195556D02*
X216800D01*
G01X341961Y329415D02*
Y323961D01*
X335000Y317000D01*
Y288343D01*
X279400Y232743D01*
X264000D01*
X257300Y226043D01*
G01X247472Y175871D02*
Y182215D01*
X251300Y186043D01*
G01X267800Y181543D02*
Y184543D01*
X265300Y187043D01*
X262300D01*
X259283Y184026D01*
Y175871D01*
G01X212039Y199493D02*
X220800D01*
G01X224800Y199543D02*
Y203370D01*
X224200Y203970D01*
X221900D01*
X221300Y204570D01*
Y205770D01*
X221900Y206370D01*
X224200D01*
X224800Y206970D01*
Y218543D01*
X224165Y219178D01*
X222300D01*
X221800Y218678D01*
Y210543D01*
X221300Y210043D01*
X219800D01*
X219300Y210543D01*
Y218543D01*
X218665Y219178D01*
X212039D01*
G01Y234926D02*
X221916D01*
X234300Y222543D01*
Y221324D01*
X233700Y220724D01*
X232400D01*
X231800Y220124D01*
Y218924D01*
X232400Y218324D01*
X233700D01*
X234300Y217724D01*
Y216524D01*
X233700Y215924D01*
X232400D01*
X231800Y215324D01*
Y214124D01*
X232400Y213524D01*
X233700D01*
X234300Y212924D01*
Y211724D01*
X233700Y211124D01*
X232400D01*
X231800Y210524D01*
Y209324D01*
X232400Y208724D01*
X233700D01*
X234300Y208124D01*
Y205043D01*
X232800Y203543D01*
G01X212039Y191619D02*
X216800D01*
G01X297000Y191443D02*
X290700D01*
X278968Y179711D01*
Y175871D01*
G01X229300Y199543D02*
X232700D01*
X239400Y206243D01*
Y224943D01*
X232686Y231657D01*
Y232506D01*
X234737Y234557D01*
Y235406D01*
X233889Y236254D01*
X233040D01*
X230989Y234203D01*
X230140D01*
X229149Y235194D01*
Y236042D01*
X231051Y237944D01*
Y238792D01*
X230202Y239641D01*
X229354D01*
X227452Y237739D01*
X226604D01*
X225755Y238588D01*
Y239436D01*
X227657Y241338D01*
Y242186D01*
X226808Y243035D01*
X225959D01*
X224058Y241133D01*
X223210D01*
X221543Y242800D01*
X212039D01*
G01X318339Y329415D02*
Y334861D01*
X310657Y342543D01*
X297800D01*
X286700Y353643D01*
X247200D01*
X241300Y359543D01*
Y370543D01*
G01X313300Y347543D02*
X309843Y351000D01*
X309489D01*
G01X352000Y299000D02*
X353082Y297918D01*
X357709D01*
G01X386500Y296500D02*
Y272000D01*
X390500Y268000D01*
X400268D01*
G01X357709Y250674D02*
X362500D01*
G01X219800Y207543D02*
X216039Y211304D01*
X212039D01*
G01X257300Y229543D02*
X263200Y235443D01*
X277900D01*
X333100Y290643D01*
Y318600D01*
X338024Y323524D01*
Y329415D01*
G01X212039Y227052D02*
X216700D01*
X217300Y226452D01*
Y221643D01*
X217900Y221043D01*
X219235D01*
X219835Y221643D01*
Y224443D01*
X220435Y225043D01*
X221635D01*
X222235Y224443D01*
Y221643D01*
X222835Y221043D01*
X225300D01*
X227300Y219043D01*
Y194543D01*
G01X263300Y185043D02*
X265800Y182542D01*
Y180400D01*
X267158Y179043D01*
Y175871D01*
G01X254800Y190043D02*
Y186043D01*
X251409Y182652D01*
Y175871D01*
G01X302300Y347543D02*
Y351754D01*
X302489Y351943D01*
G01X314402Y329415D02*
Y335541D01*
X314400Y335543D01*
G01X357709Y234926D02*
X364400D01*
G01X333800Y347543D02*
Y344232D01*
X333989Y344043D01*
G01X305300Y185043D02*
X294300D01*
X290780Y181522D01*
Y175871D01*
G01X267800Y189043D02*
X261800D01*
X255346Y182589D01*
Y175871D01*
G01X257300Y222760D02*
X261517D01*
X266800Y228043D01*
X282200D01*
X339000Y284843D01*
Y314000D01*
X349835Y324835D01*
Y329415D01*
G01X334087D02*
Y327087D01*
X328800Y321800D01*
Y293643D01*
X275200Y240043D01*
X261300D01*
X252400Y231143D01*
Y222343D01*
G01X212039Y203430D02*
X218800D01*
G01X250000Y210000D02*
X308000D01*
X340800Y242800D01*
X357709D01*
G01X294716Y181459D02*
Y175871D01*
G01X235100Y294843D02*
X234300Y294043D01*
Y287543D01*
X231800Y285043D01*
X224000D01*
X221128Y282170D01*
X212039D01*
G01X298654Y175871D02*
Y181543D01*
G01X338000Y224500D02*
Y221900D01*
X317143Y201043D01*
X239600D01*
X219913Y181356D01*
Y175871D01*
G01X351100Y211043D02*
X343800D01*
X322276Y189518D01*
Y175871D01*
G01X202300Y203543D02*
Y247043D01*
X205932Y250674D01*
X212039D01*
G01X353772Y329415D02*
Y325772D01*
X341500Y313500D01*
Y283843D01*
X283657Y226000D01*
X268257D01*
X261300Y219043D01*
X257300D01*
G01X332900Y266300D02*
X351000Y284400D01*
Y291500D01*
X353482Y293982D01*
X357709D01*
G01X198000Y379500D02*
X212000D01*
X216900Y374600D01*
Y369360D01*
G01X351200Y207943D02*
X343700D01*
X326213Y190456D01*
Y175871D01*
G01X277300Y181543D02*
Y190943D01*
X276700Y191543D01*
X272300D01*
X271094Y190337D01*
Y175871D01*
G01X346500Y217500D02*
X346257D01*
X323900Y195143D01*
X241900D01*
X227787Y181030D01*
Y175871D01*
G01X232300Y289043D02*
X230300Y287043D01*
X221800D01*
X220865Y286108D01*
X212039D01*
G01X243535Y175871D02*
Y182278D01*
X251300Y190043D01*
G01X236800Y207343D02*
Y223043D01*
X220980Y238863D01*
X212039D01*
G01X357709Y195556D02*
X346147D01*
X345547Y194956D01*
Y194400D01*
X344947Y193800D01*
X343747D01*
X343147Y194400D01*
Y194956D01*
X342547Y195556D01*
X339813D01*
X338800Y194543D01*
Y191543D01*
X337300Y190043D01*
X333300D01*
G01X212039Y207367D02*
X216624D01*
G01X341879Y216122D02*
X322900Y197143D01*
X241143D01*
X223850Y179851D01*
Y175871D01*
G01X301550Y238050D02*
X346500Y283000D01*
Y307000D01*
X349230Y309730D01*
X357709D01*
G01Y258548D02*
X365548D01*
X375000Y268000D01*
Y296500D01*
X382500Y304000D01*
X395268D01*
X399768Y299500D01*
G01X312000Y210500D02*
X340363Y238863D01*
X357709D01*
G01Y199493D02*
X348315D01*
X347715Y200093D01*
Y200943D01*
X347115Y201543D01*
X345915D01*
X345315Y200943D01*
Y200093D01*
X344715Y199493D01*
X343515D01*
X342915Y200093D01*
Y200943D01*
X342315Y201543D01*
X341115D01*
X340515Y200943D01*
Y200093D01*
X339915Y199493D01*
X338250D01*
X336300Y197543D01*
Y192043D01*
G01X331300Y185043D02*
X338300D01*
X340939Y187682D01*
X342056D01*
X342656Y188282D01*
Y189443D01*
X343413Y190200D01*
X344299D01*
X345056Y189443D01*
Y188282D01*
X345656Y187682D01*
X357709D01*
G01X212039Y297918D02*
X220800D01*
G01X357709Y301856D02*
X352000D01*
G01X382500Y298500D02*
Y263500D01*
X393000Y253000D01*
X400268D01*
G01X345898Y329415D02*
Y323898D01*
X336900Y314900D01*
Y286443D01*
X280700Y230243D01*
X265000D01*
X260800Y226043D01*
G01X445300Y185637D02*
Y177775D01*
G01X435300D02*
Y185637D01*
G01X425300Y177775D02*
Y185637D01*
G01X204500Y206043D02*
Y244700D01*
X206537Y246737D01*
X212039D01*
G01X309800Y181043D02*
X303800D01*
X302590Y179833D01*
Y175871D01*
G01X233075Y302518D02*
X229800Y305793D01*
X212039D01*
G01X298900Y187043D02*
X292800D01*
X286842Y181085D01*
Y175871D01*
G01X357709Y262485D02*
X365485D01*
X373000Y270000D01*
Y297621D01*
X384879Y309500D01*
X399768D01*
G01X357709Y183745D02*
X346726D01*
X346126Y183145D01*
Y181143D01*
X345526Y180543D01*
X344326D01*
X343726Y181143D01*
Y183145D01*
X343126Y183745D01*
X340002D01*
X337800Y181543D01*
G01X357709Y317604D02*
X364604D01*
G01X384500Y301000D02*
Y269500D01*
X391000Y263000D01*
X400268D01*
G01X212039Y301856D02*
X220800D01*
G01X263220Y175871D02*
Y181543D01*
G01X212039Y230989D02*
X216679D01*
X217279Y231589D01*
Y232943D01*
X217879Y233543D01*
X219079D01*
X219679Y232943D01*
Y231589D01*
X220279Y230989D01*
X222854D01*
X223410Y230433D01*
Y229584D01*
X221758Y227933D01*
Y227084D01*
X222607Y226236D01*
X223456D01*
X225107Y227887D01*
X225956D01*
X226804Y227039D01*
Y226190D01*
X225153Y224539D01*
Y223690D01*
X226001Y222842D01*
X226850D01*
X228501Y224493D01*
X229350D01*
X230800Y223043D01*
Y221543D01*
X229300Y220043D01*
Y203543D01*
G01X357709Y254611D02*
X352500D01*
G01X206861Y393376D02*
Y401924D01*
X204271Y404514D01*
G01X226900Y301443D02*
Y297143D01*
X219802Y290045D01*
X212039D01*
G01X224300Y298043D02*
X220239Y293982D01*
X212039D01*
G01X357709Y191619D02*
X341876D01*
X337800Y187543D01*
X330800D01*
X328800Y185543D01*
Y182543D01*
G01X244000Y266000D02*
Y218000D01*
X250000Y212000D01*
X306500D01*
X341237Y246737D01*
X357709D01*
G01X243000Y206000D02*
X314500D01*
X335552Y227052D01*
X357709D01*
G01X415173Y299500D02*
X403232D01*
G01X415173Y309500D02*
X403232D01*
G01X403732Y253000D02*
X415102D01*
G01Y268000D02*
X403732D01*
G01Y271500D02*
Y268000D01*
G01Y258000D02*
X415102D01*
G01X403732Y263000D02*
Y258000D01*
G01X415102Y263000D02*
X403732D01*
G01X288742Y369361D02*
Y377485D01*
X294800Y383543D01*
X323300D01*
X325300Y385543D01*
Y389043D01*
X323800Y390543D01*
G01X278742Y369361D02*
Y377485D01*
X286400Y385143D01*
X321400D01*
X323300Y387043D01*
G01X448781Y369361D02*
Y378062D01*
X442300Y384543D01*
X387564D01*
X384564Y387543D01*
G01X368742Y393377D02*
Y407043D01*
G01X418742Y393377D02*
Y403601D01*
X415300Y407043D01*
X399300D01*
G01X358742Y393377D02*
Y407043D01*
G01X338742Y393377D02*
Y407043D01*
G01X448742Y393377D02*
Y407043D01*
G01X388742Y393377D02*
Y401601D01*
X383300Y407043D01*
G01X338742Y369361D02*
Y377242D01*
X340043Y378543D01*
X343300D01*
X344300Y377543D01*
Y372543D01*
G01X394300Y364043D02*
Y361700D01*
X396500Y359500D01*
X420500D01*
X425000Y364000D01*
Y377700D01*
X425600Y378300D01*
X437200D01*
X438742Y376758D01*
Y369361D01*
G01X348742Y393377D02*
Y407043D01*
G01X305300Y377543D02*
X302800Y380043D01*
X296500D01*
X293700Y377243D01*
Y361700D01*
X290800Y358800D01*
X261543D01*
X258742Y361601D01*
Y369361D01*
G01X353068Y376543D02*
Y378101D01*
X352169Y379000D01*
X349641D01*
X348742Y378101D01*
Y369361D01*
G01X388742D02*
Y376943D01*
X387642Y378043D01*
X384300D01*
X382300Y380043D01*
X367800D01*
X364879Y382964D01*
Y387464D01*
G01X398742Y369361D02*
Y377043D01*
X395685Y380100D01*
X385243D01*
X383243Y382100D01*
X375300D01*
X372800Y384600D01*
Y393043D01*
G01X378742Y369361D02*
Y376101D01*
X377300Y377543D01*
X360942D01*
G01X414500Y370500D02*
Y378000D01*
X416843Y380343D01*
X439000D01*
X442800Y376543D01*
Y361543D01*
X446800Y357543D01*
X465300D01*
X468781Y361024D01*
Y369361D01*
G01X408742Y393377D02*
Y402943D01*
X407142Y404543D01*
X396300D01*
X393800Y407043D01*
G01X398742Y393377D02*
Y400943D01*
X397642Y402043D01*
X393800D01*
X388800Y407043D01*
G01X438742Y393377D02*
Y407043D01*
G01X408742Y369361D02*
Y378101D01*
X404543Y382300D01*
X386543D01*
X384300Y384543D01*
X376300D01*
X374800Y386043D01*
Y389043D01*
G01X428742Y369361D02*
Y361742D01*
X424500Y357500D01*
X387500D01*
X382910Y362090D01*
Y370154D01*
G01X298742Y369361D02*
Y377443D01*
X299342Y378043D01*
X300800D01*
G01X458742Y393377D02*
Y407043D01*
G01X412800Y366043D02*
Y378800D01*
X416343Y382343D01*
X440500D01*
X444800Y378043D01*
Y363043D01*
X448300Y359543D01*
X456300D01*
X458781Y362024D01*
Y369361D01*
G01X358742D02*
Y375806D01*
X357005Y377543D01*
G01X468742Y393377D02*
Y407043D01*
G01X498497Y118790D02*
X504910D01*
X505000Y118700D01*
G01X520032Y77543D02*
X520032Y81543D01*
G01D02*
G01D02*
X527800D01*
G01X520032Y65543D02*
X520032Y61543D01*
G01D02*
G01D02*
X527800D01*
G01X486500Y27189D02*
Y30300D01*
G01X10000Y-11754D02*
X530496D01*
G02X540496Y-21754I0J-10000D01*
G01Y-415140D01*
G02X530496Y-425140I-10000J0D01*
G01X10000D01*
G02X0Y-415140I0J10000D01*
G01Y-21754D01*
G02X10000Y-11754I10000J0D01*
G01X-19685Y413443D02*
X-7874D01*
Y-425140D01*
X-19685D01*
G02X-27559Y-417266I0J7874D01*
G01Y405569D01*
G02X-19685Y413443I7874J0D01*
G01X0Y-361754D02*
G02X-3937Y-365691I-3937J0D01*
G02X-7874Y-361754I0J3937D01*
G01X0Y-393250D02*
G03X-3937Y-389313I-3937J0D01*
G03X-7874Y-393250I0J-3937D01*
G01X0Y-201754D02*
G02X-3937Y-205691I-3937J0D01*
G02X-7874Y-201754I0J3937D01*
G01X0Y-233250D02*
G03X-3937Y-229313I-3937J0D01*
G03X-7874Y-233250I0J-3937D01*
G01X10000Y413443D02*
X530496D01*
G02X540496Y403443I0J-10000D01*
G01Y10057D01*
G02X530496Y57I-10000J0D01*
G01X10000D01*
G02X0Y10057I0J10000D01*
G01Y403443D01*
G02X10000Y413443I10000J0D01*
G01X0Y71554D02*
G02X-3937Y67617I-3937J0D01*
G02X-7874Y71554I0J3937D01*
G01X0Y40057D02*
G03X-3937Y43994I-3937J0D01*
G03X-7874Y40057I0J-3937D01*
G01X0Y130057D02*
G03X-3937Y133994I-3937J0D01*
G03X-7874Y130057I0J-3937D01*
G01X0Y161554D02*
G02X-3937Y157617I-3937J0D01*
G02X-7874Y161554I0J3937D01*
G01X0Y-83250D02*
G03X-3937Y-79313I-3937J0D01*
G03X-7874Y-83250I0J-3937D01*
G01X0Y-51754D02*
G02X-3937Y-55691I-3937J0D01*
G02X-7874Y-51754I0J3937D01*
G01X0Y341946D02*
G03X-3937Y345883I-3937J0D01*
G03X-7874Y341946I0J-3937D01*
G01X0Y373443D02*
G02X-3937Y369506I-3937J0D01*
G02X-7874Y373443I0J3937D01*
G01X560181Y413443D02*
X548370D01*
Y-425140D01*
X560181D01*
G03X568055Y-417266I0J7874D01*
G01Y405569D01*
G03X560181Y413443I-7874J0D01*
G01X540496Y-173250D02*
G02X544433Y-169313I3937J0D01*
G02X548370Y-173250I0J-3937D01*
G01X540496Y-141754D02*
G03X544433Y-145691I3937J0D01*
G03X548370Y-141754I0J3937D01*
G01X540496Y-385140D02*
G02X544433Y-381203I3937J0D01*
G02X548370Y-385140I0J-3937D01*
G01X540496Y-353643D02*
G03X544433Y-357580I3937J0D01*
G03X548370Y-353643I0J3937D01*
G01X540496Y-51754D02*
G03X544433Y-55691I3937J0D01*
G03X548370Y-51754I0J3937D01*
G01X540496Y-83250D02*
G02X544433Y-79313I3937J0D01*
G02X548370Y-83250I0J-3937D01*
G01X540496Y40057D02*
G02X544433Y43994I3937J0D01*
G02X548370Y40057I0J-3937D01*
G01X540496Y71554D02*
G03X544433Y67617I3937J0D01*
G03X548370Y71554I0J3937D01*
G01X540496Y221554D02*
G03X544433Y217617I3937J0D01*
G03X548370Y221554I0J3937D01*
G01X540496Y190057D02*
G02X544433Y193994I3937J0D01*
G02X548370Y190057I0J-3937D01*
G01X540496Y381554D02*
G03X544433Y377617I3937J0D01*
G03X548370Y381554I0J3937D01*
G01X540496Y350057D02*
G02X544433Y353994I3937J0D01*
G02X548370Y350057I0J-3937D01*
G54D20*
X166308Y94929D03*
X162844D03*
X166308Y99929D03*
X162844D03*
X160764Y139204D03*
X157300D03*
X168532Y131936D03*
X165068D03*
X190232Y314500D03*
X186768D03*
X74532Y291543D03*
X71068D03*
X122232Y278500D03*
X118768D03*
X122232Y296500D03*
X118768D03*
X122232Y275000D03*
X118768D03*
X107646Y370043D03*
X104182D03*
X431232Y71500D03*
X427768D03*
X319232Y88000D03*
X315768D03*
X245222Y94929D03*
X241758D03*
X245222Y99929D03*
X241758D03*
X462896Y80822D03*
X459432D03*
X402732Y137000D03*
X399268D03*
X359132Y161600D03*
X355668D03*
X359132Y158100D03*
X355668D03*
X462732Y96500D03*
X459268D03*
X363232Y98500D03*
X359768D03*
X363232Y102000D03*
X359768D03*
X363232Y88000D03*
X359768D03*
X363232Y84500D03*
X359768D03*
X379232Y102000D03*
X375768D03*
X363232Y95000D03*
X359768D03*
X363232Y91500D03*
X359768D03*
X398032Y87043D03*
X394568D03*
X418032Y137543D03*
X414568D03*
X241764Y117343D03*
X238300D03*
X451032Y124043D03*
X447568D03*
X241764Y139204D03*
X238300D03*
X462896Y76822D03*
X459432D03*
X444696Y88109D03*
X441232D03*
X462896Y72822D03*
X459432D03*
X249532Y131936D03*
X246068D03*
X402532Y140707D03*
X399068D03*
X402732Y159000D03*
X399268D03*
X370532Y163043D03*
X367068D03*
X468732Y274000D03*
X465268D03*
X468232Y315000D03*
X464768D03*
X403232Y299500D03*
X399768D03*
X403232Y309500D03*
X399768D03*
X403732Y271500D03*
X400268D03*
X468732Y267500D03*
X465268D03*
X403732Y263000D03*
X400268D03*
X403732Y253000D03*
X400268D03*
X403732Y268000D03*
X400268D03*
X520032Y77543D03*
X516568D03*
X520032Y65543D03*
X516568D03*
X520032Y61543D03*
X516568D03*
X520032Y81543D03*
X516568D03*
G54D11*
X-11274Y-385100D03*
X20600Y371900D03*
X-11274Y371300D03*
X551674Y-381200D03*
X527900Y37700D03*
X503000Y386100D03*
X551874Y325200D03*
G54D105*
G01X364756Y124153D02*
X365495Y124892D01*
Y125734D01*
X366861Y127100D01*
X376300D01*
X377500Y128300D01*
Y130918D01*
X376983Y131436D01*
Y134807D01*
G01X367354Y124153D02*
X366785Y124722D01*
Y125200D01*
X367395Y125810D01*
X376834D01*
X378790Y127766D01*
Y131453D01*
X378557Y131685D01*
Y134807D01*
G01X381556Y128451D02*
X382210Y129105D01*
Y131529D01*
X381707Y132032D01*
Y134807D01*
G01X343978Y101210D02*
X344632Y100556D01*
Y99632D01*
X343302Y98302D01*
Y97150D01*
G01X384154Y128451D02*
X383500Y129105D01*
Y132064D01*
X383282Y132282D01*
Y134807D01*
G01X346576Y101210D02*
X345922Y100556D01*
Y99578D01*
X347252Y98248D01*
Y97150D01*
G01X336067Y101210D02*
X335413Y100556D01*
Y99578D01*
X336743Y98248D01*
Y97150D01*
G01X389984Y127312D02*
X389330Y127966D01*
Y130995D01*
X387864Y132460D01*
Y133364D01*
X388006Y133506D01*
Y134807D01*
G01X333469Y101210D02*
X334123Y100556D01*
Y99632D01*
X332793Y98302D01*
Y97150D01*
G01X387386Y127312D02*
X388040Y127966D01*
Y130460D01*
X386574Y131926D01*
Y133426D01*
X386432Y133568D01*
Y134807D01*
G01X332793Y90850D02*
Y87948D01*
X334123Y86618D01*
Y85501D01*
X334124Y85500D01*
Y81392D01*
X332000Y79268D01*
G01D02*
X334105Y77163D01*
Y76034D01*
X333361Y75290D01*
X327466D01*
X322628Y70452D01*
Y63804D01*
X319336Y60512D01*
G01X337500Y79268D02*
X335395Y77163D01*
Y75500D01*
X333895Y74000D01*
X328000D01*
X323918Y69918D01*
Y63804D01*
X327210Y60512D01*
G01X337500Y79268D02*
X335500Y81268D01*
Y81287D01*
X335414Y81373D01*
Y85754D01*
X335413Y85755D01*
Y86618D01*
X336743Y87948D01*
Y90850D01*
G01X319336Y50196D02*
X322628Y53488D01*
Y54634D01*
X324135Y56142D01*
X329917D01*
X331486Y57711D01*
Y68811D01*
X333466Y70790D01*
X340466D01*
X344605Y74929D01*
Y77163D01*
X342500Y79268D01*
G01D02*
X344624Y81392D01*
Y87376D01*
X343302Y88698D01*
Y90850D01*
G01X327210Y50196D02*
X323918Y53488D01*
Y54100D01*
X324670Y54852D01*
X330452D01*
X332776Y57176D01*
Y68276D01*
X334000Y69500D01*
X341000D01*
X345895Y74395D01*
Y77163D01*
X348000Y79268D01*
G01X347252Y90850D02*
Y88752D01*
X345914Y87414D01*
Y81373D01*
X346000Y81287D01*
Y81268D01*
X348000Y79268D01*
G01X428240Y103469D02*
X428894Y104123D01*
X435123D01*
X443500Y112500D01*
X457500D01*
X465790Y120790D01*
Y129466D01*
X471324Y135000D01*
X492118D01*
X493448Y133670D01*
X496350D01*
G01X428240Y106067D02*
X428894Y105413D01*
X434588D01*
X442966Y113790D01*
X456966D01*
X464500Y121324D01*
Y130000D01*
X470790Y136290D01*
X492118D01*
X493448Y137620D01*
X496350D01*
G01X358556Y165653D02*
X359210Y166307D01*
Y167466D01*
X357966Y168710D01*
X349125D01*
X347221Y170614D01*
Y172279D01*
X345898Y173603D01*
Y175871D01*
G01X361154Y165653D02*
X360500Y166307D01*
Y168000D01*
X358500Y170000D01*
X349659D01*
X348511Y171148D01*
Y172011D01*
X349835Y173334D01*
Y175871D01*
G01X526391Y114106D02*
X529683Y117398D01*
X531134D01*
X532500Y118764D01*
Y133000D01*
X529210Y136290D01*
X512123D01*
X511000Y137413D01*
G01D02*
X509877Y136290D01*
X506355D01*
X505025Y137620D01*
X502650D01*
G01X511000Y133877D02*
X512123Y135000D01*
X528676D01*
X531210Y132466D01*
Y119298D01*
X530600Y118688D01*
X529683D01*
X526391Y121980D01*
G01X511000Y133877D02*
X509877Y135000D01*
X506355D01*
X505025Y133670D01*
X502650D01*
G54D12*
X-984Y-387345D03*
Y-383408D03*
Y-379471D03*
Y-375534D03*
Y-371597D03*
Y-367660D03*
Y-227345D03*
Y-223408D03*
Y-219471D03*
Y-215534D03*
Y-211597D03*
Y-207660D03*
Y45963D03*
Y49900D03*
Y53837D03*
Y57774D03*
Y61711D03*
Y65648D03*
Y155648D03*
Y151711D03*
Y147774D03*
Y143837D03*
Y139900D03*
Y135963D03*
Y-57660D03*
Y-61597D03*
Y-65534D03*
Y-69471D03*
Y-73408D03*
Y-77345D03*
Y367537D03*
Y363600D03*
Y359663D03*
Y355726D03*
Y351789D03*
Y347852D03*
X426044Y21303D03*
X452816D03*
X541480Y-147659D03*
Y-151596D03*
Y-155533D03*
Y-159470D03*
Y-163407D03*
Y-167344D03*
Y-359549D03*
Y-363486D03*
Y-367423D03*
Y-371360D03*
Y-375297D03*
Y-379234D03*
Y-77344D03*
Y-73407D03*
Y-69470D03*
Y-65533D03*
Y-61596D03*
Y-57659D03*
Y65648D03*
Y61711D03*
Y57774D03*
Y53837D03*
Y49900D03*
Y45963D03*
Y195963D03*
Y199900D03*
Y203837D03*
Y207774D03*
Y211711D03*
Y215648D03*
Y355963D03*
Y359900D03*
Y363837D03*
Y367774D03*
Y371711D03*
Y375648D03*
G54D21*
X60449Y100543D03*
X66151D03*
X8449Y52543D03*
X14151D03*
X60449Y106043D03*
X66151D03*
X191351Y225500D03*
X185649D03*
X191351Y181000D03*
X185649D03*
X191351Y270000D03*
X185649D03*
X400151Y99543D03*
X394449D03*
X427449Y114043D03*
X433151D03*
X452151Y118543D03*
X446449D03*
X458192Y102200D03*
X463894D03*
X413449Y132543D03*
X419151D03*
X403851Y132900D03*
X398149D03*
X403851Y127900D03*
X398149D03*
X354649Y145500D03*
X360351D03*
X412151Y99500D03*
X406449D03*
X481149Y65000D03*
X354941Y154000D03*
X360059D03*
X237441Y113400D03*
X242559D03*
X358441Y80500D03*
X363559D03*
X399149Y282500D03*
X404851D03*
X469851Y278500D03*
X464149D03*
X398649Y319500D03*
X404351D03*
X469494Y319318D03*
X463792D03*
X469851Y258000D03*
X464149D03*
X482851Y250000D03*
X477149D03*
X469851Y263000D03*
X464149D03*
X486851Y65000D03*
X493351Y302500D03*
X487649D03*
X493351Y297000D03*
X487649D03*
X493351Y308000D03*
X487649D03*
X493351Y291500D03*
X487649D03*
G54D30*
X38619Y76917D03*
X15981D03*
X38619Y61169D03*
X15981D03*
X38619Y106417D03*
X15981D03*
X38619Y90669D03*
X15981D03*
G54D106*
G01X196460Y141385D02*
X198300D01*
G01X195000Y120500D02*
Y120843D01*
X193311Y122532D01*
Y124062D01*
G01X172800Y122000D02*
X174757D01*
X175988Y123231D01*
Y124062D01*
G01X180500Y120000D02*
X180712Y120212D01*
Y124062D01*
G01X188586D02*
Y119914D01*
X189000Y119500D01*
G01X170300Y128043D02*
X171044Y128787D01*
X172838D01*
G01X186500Y151000D02*
X187011Y150489D01*
Y147684D01*
G01X184500Y150500D02*
X183862Y149862D01*
Y147684D01*
G01X184500Y150500D02*
Y151000D01*
G01Y150500D02*
X185437Y149563D01*
Y147684D01*
G01X451751Y78853D02*
Y77343D01*
X452912Y76182D01*
G01X449800Y77043D02*
X450177Y77420D01*
Y78853D01*
G01X444696Y88109D02*
G01X444696D02*
Y86646D01*
X447372Y83971D01*
X448011D01*
G01X274311Y124062D02*
Y123690D01*
X274700Y123300D01*
G01X254500Y123000D02*
X256422D01*
X256988Y123566D01*
Y124062D01*
G01X269586Y120414D02*
Y124062D01*
G01X253838Y128787D02*
X252144D01*
X250500Y127143D01*
Y125243D01*
G01X261712Y124062D02*
Y120487D01*
G01X253838Y144535D02*
X249800D01*
G01X281000Y142000D02*
X280385Y141385D01*
X277460D01*
G01X447100Y76743D02*
Y78643D01*
X447704Y79247D01*
X448011D01*
G01X444696Y76609D02*
X447234D01*
X447100Y76743D01*
G01X395300Y150043D02*
X394237Y148980D01*
X391156D01*
G01X396300Y139543D02*
X395270D01*
X393707Y141106D01*
X391156D01*
G01X385700Y162143D02*
X384857Y161300D01*
Y158429D01*
G01X380250Y162093D02*
X381707Y160636D01*
Y158429D01*
G01X380500Y130843D02*
X380132Y131211D01*
Y134807D01*
G01X368500Y132000D02*
X369500Y133000D01*
X369884D01*
X370684Y133800D01*
Y134807D01*
G01X265500Y150500D02*
X264862Y149862D01*
Y147684D01*
G01X266437D02*
Y149563D01*
X265500Y150500D01*
G01X267500Y150743D02*
X268011Y150232D01*
Y147684D01*
G01X367534Y141106D02*
X364631D01*
X363800Y140275D01*
G01X365500Y158000D02*
Y156343D01*
X366564Y155279D01*
X367534D01*
G01Y144256D02*
X371013D01*
X372951Y146194D01*
G01X367534Y148980D02*
X376195D01*
X377770Y147405D01*
G01X391156Y150555D02*
X383282D01*
X378951Y146224D01*
G01X377770Y147405D02*
X378951Y146224D01*
G01X367534Y147405D02*
X377770D01*
G01X367534Y145830D02*
X378557D01*
G01X391156Y137956D02*
X387189D01*
X384951Y140194D01*
G01X384857Y134807D02*
Y140318D01*
X378951Y146224D01*
G01X378557Y145830D02*
X378951Y146224D01*
G01X375408Y134807D02*
Y142681D01*
X378557Y145830D01*
G01X444300Y84043D02*
X444800D01*
X446447Y82396D01*
X448011D01*
G01X363800Y140275D02*
X361300D01*
G01X444696Y80609D02*
X444909Y80822D01*
X448011D01*
G01X453917D02*
X456700D01*
G01X388700Y165111D02*
X388006Y164417D01*
Y158429D01*
G01X396400Y143500D02*
X395645Y144256D01*
X391156D01*
G01X395172Y137171D02*
X392812Y139531D01*
X391156D01*
G01X363700Y154900D02*
Y153500D01*
X365070Y152130D01*
X367534D01*
G01X382200Y165111D02*
X383282Y164029D01*
Y158429D01*
G54D22*
X33300Y24192D03*
Y29894D03*
X164000Y158149D03*
Y163851D03*
X26300Y43192D03*
Y48894D03*
X198300Y106984D03*
Y112102D03*
X159800Y115641D03*
Y120759D03*
X404000Y75351D03*
Y69649D03*
X375254Y71894D03*
Y66192D03*
X383128D03*
Y71894D03*
X245000Y158149D03*
Y163851D03*
X420492Y90856D03*
Y85154D03*
X425464Y94460D03*
Y88758D03*
X372500Y113649D03*
Y119351D03*
X279300Y104984D03*
Y110102D03*
X364000Y113941D03*
Y119059D03*
X398500Y70241D03*
Y75359D03*
X448000Y329649D03*
Y335351D03*
X487000Y316149D03*
Y321851D03*
G54D40*
X96650Y9016D03*
X141900Y381368D03*
X482500Y12500D03*
X337053Y50196D03*
X327210D03*
X319336D03*
X309493D03*
X337053Y60512D03*
X327210D03*
X319336D03*
X309493D03*
X221900Y381368D03*
X527800Y81543D03*
Y71543D03*
Y61543D03*
X492500Y12500D03*
X490000Y260000D03*
G54D31*
X145260Y91776D03*
Y101224D03*
X149000Y91776D03*
Y101224D03*
X152740Y91776D03*
Y101224D03*
X176260Y91776D03*
Y101224D03*
X180000Y91776D03*
Y101224D03*
X183740Y91776D03*
Y101224D03*
X257260Y91776D03*
Y101224D03*
X261000Y91776D03*
Y101224D03*
X264740Y91776D03*
Y101224D03*
X226760Y91776D03*
Y101224D03*
X230500Y91776D03*
Y101224D03*
X234240Y91776D03*
Y101224D03*
G54D13*
X175988Y147684D03*
X193311D03*
X191736D03*
X190161D03*
X188586D03*
X187011D03*
X185437D03*
X183862D03*
X182287D03*
X180712D03*
X179137D03*
X177563D03*
X193311Y124062D03*
X191736D03*
X190161D03*
X188586D03*
X187011D03*
X185437D03*
X183862D03*
X182287D03*
X180712D03*
X179137D03*
X177563D03*
X175988D03*
X256988Y147684D03*
X274311D03*
X272736D03*
X271161D03*
X269586D03*
X268011D03*
X266437D03*
X264862D03*
X263287D03*
X261712D03*
X260137D03*
X258563D03*
X274311Y124062D03*
X272736D03*
X271161D03*
X269586D03*
X268011D03*
X266437D03*
X264862D03*
X263287D03*
X261712D03*
X260137D03*
X258563D03*
X256988D03*
G54D107*
G01X46778Y307941D02*
X46778Y311859D01*
X45989Y312649D01*
Y314368D01*
X47073Y315451D01*
G01X43629Y307941D02*
X43629Y311666D01*
X44489Y312526D01*
Y314297D01*
X43335Y315451D01*
G01X401548Y146584D02*
X400964Y146000D01*
X399000D01*
X397727Y147273D01*
X394957D01*
X394825Y147405D01*
X391156D01*
G01X440926Y29590D02*
X440926Y29591D01*
Y31347D01*
X440717Y31557D01*
Y33277D01*
X441486Y34046D01*
G01X437934Y23665D02*
X437934Y21909D01*
X438143Y21700D01*
Y17480D01*
X437374Y16711D01*
G01X441486Y34046D02*
X440800Y34731D01*
Y36936D01*
X441675Y37811D01*
G01X345949Y160711D02*
X344800Y161860D01*
Y165385D01*
X343142Y167043D01*
X340992D01*
X336830Y171205D01*
Y172573D01*
X338024Y173766D01*
Y175871D01*
G01X438958Y29590D02*
X438958Y29591D01*
Y31111D01*
X439167Y31320D01*
Y33277D01*
X438398Y34046D01*
G01X439902Y23665D02*
X439902Y22145D01*
X439693Y21936D01*
Y17480D01*
X440462Y16711D01*
G01X438398Y34046D02*
X439000Y34648D01*
Y36986D01*
X438175Y37811D01*
G01X342161Y160711D02*
X343250Y161800D01*
Y164743D01*
X342500Y165493D01*
X340350D01*
X335280Y170563D01*
Y172563D01*
X334087Y173756D01*
Y175871D01*
G01X401548Y143986D02*
X400964Y144570D01*
X398408D01*
X397135Y145843D01*
X394837D01*
X394825Y145830D01*
X391156D01*
G01X374576Y130743D02*
X373833Y131485D01*
Y134807D01*
G01X371516Y130743D02*
X372258Y131485D01*
Y134807D01*
G54D50*
X174524Y265803D03*
X165076D03*
X174524Y269543D03*
X165076D03*
X174524Y273283D03*
X165076D03*
X174524Y310303D03*
X165076D03*
X174524Y314043D03*
X165076D03*
X174524Y317783D03*
X165076D03*
X175024Y176303D03*
X165576D03*
X175024Y180043D03*
X165576D03*
X175024Y183783D03*
X165576D03*
X175024Y220803D03*
X165576D03*
X175024Y224543D03*
X165576D03*
X175024Y228283D03*
X165576D03*
G54D41*
X115351Y19842D03*
X77949D03*
X115351Y38346D03*
X77949D03*
G54D23*
X31825Y45311D03*
X31775Y48775D03*
G54D32*
X187576Y41929D03*
X142576D03*
X268690Y41794D03*
X223690D03*
G54D14*
X196460Y144535D03*
Y142960D03*
Y141385D03*
Y139810D03*
Y138235D03*
Y136661D03*
Y135086D03*
Y133511D03*
Y131936D03*
Y130361D03*
Y128787D03*
Y127212D03*
X172838Y144535D03*
Y142960D03*
Y141385D03*
Y139810D03*
Y138235D03*
Y136661D03*
Y135086D03*
Y133511D03*
Y131936D03*
Y130361D03*
Y128787D03*
Y127212D03*
X277460Y144535D03*
Y142960D03*
Y141385D03*
Y139810D03*
Y138235D03*
Y136661D03*
Y135086D03*
Y133511D03*
Y131936D03*
Y130361D03*
Y128787D03*
Y127212D03*
X253838Y144535D03*
Y142960D03*
Y141385D03*
Y139810D03*
Y138235D03*
Y136661D03*
Y135086D03*
Y133511D03*
Y131936D03*
Y130361D03*
Y128787D03*
Y127212D03*
G54D108*
G01X151800Y118043D02*
X138543D01*
X131500Y111000D01*
Y95000D01*
X132732Y93768D01*
X134500D01*
G01X160764Y143204D02*
X163800D01*
G01X172838Y144535D02*
X165131D01*
X163800Y143204D01*
G01X134500Y93768D02*
Y68000D01*
X153500Y49000D01*
Y32000D01*
X150174Y28674D01*
Y28622D01*
G01X189978D02*
X180878D01*
X177000Y32500D01*
Y45500D01*
X203500Y72000D01*
Y90000D01*
G01X151300Y159311D02*
Y156043D01*
X158800Y148543D01*
X172800D01*
G01X175988Y147684D02*
Y147943D01*
X175388Y148543D01*
X172800D01*
G01X168800Y126643D02*
X168900D01*
X170300Y128043D01*
G01X206000Y187682D02*
X202800Y184482D01*
Y176543D01*
X200500Y174243D01*
X161000D01*
X157800Y171043D01*
X148543D01*
X145500Y168000D01*
Y152500D01*
X152500Y145500D01*
Y141500D01*
X154500Y139500D01*
Y138500D01*
G01X199500Y170743D02*
X162000D01*
X159300Y168043D01*
X150543D01*
X148500Y166000D01*
Y155000D01*
X156000Y147500D01*
G01X179978Y22638D02*
X174000Y28615D01*
Y45500D01*
X199000Y70500D01*
Y93268D01*
G01X140174Y22638D02*
X153638D01*
X157500Y26500D01*
Y49500D01*
X137000Y70000D01*
Y91000D01*
X139768Y93768D01*
X140000D01*
G01X117091Y291303D02*
Y294823D01*
X118768Y296500D01*
G01X53077Y307941D02*
X53078D01*
Y315320D01*
X64800Y327043D01*
X104300D01*
X112300Y319043D01*
X124300D01*
X132300Y311043D01*
G01D02*
X135500Y307843D01*
Y302000D01*
X133000Y299500D01*
X120207D01*
X118768Y298061D01*
Y296500D01*
G01X73550Y341011D02*
X73550Y345293D01*
X83300Y355043D01*
X87800D01*
G01X75125Y307941D02*
G01X75125D02*
Y304718D01*
X77800Y302043D01*
Y293905D01*
X80438Y291267D01*
G01X75125Y314543D02*
X85625Y325043D01*
X103300D01*
X111300Y317043D01*
X120300D01*
X128300Y309043D01*
G01X75125Y314543D02*
Y307941D01*
G01X68300Y300043D02*
Y285250D01*
X69007Y284543D01*
X70835D01*
X71068Y284775D01*
G01D02*
X79532D01*
G01X35755Y341010D02*
X35755Y341011D01*
G01X127800Y303043D02*
X117300Y313543D01*
X109800D01*
X101800Y321543D01*
X87800D01*
X81300Y315043D01*
Y297043D01*
X83300Y295043D01*
G01X84300Y260043D02*
X94543D01*
X101800Y267300D01*
G01X88300Y303043D02*
Y311543D01*
X90300Y313543D01*
X93300D01*
G01X91843Y299500D02*
X88300Y303043D01*
G01X91843Y299500D02*
X96500D01*
X101800Y294200D01*
Y267300D01*
G01X96543Y255543D02*
X83300D01*
X81300Y253543D01*
G01X106500Y295000D02*
X98957Y302543D01*
X98800D01*
G01X96543Y255543D02*
X106500Y265500D01*
G01D02*
Y280500D01*
G01D02*
Y295000D01*
G01X88000Y297000D02*
X88957Y296043D01*
X94957D01*
X98800Y292200D01*
Y270300D01*
X93043Y264543D01*
X81300D01*
G01X88000Y297000D02*
X84500Y300500D01*
G01D02*
X84300Y300700D01*
Y313043D01*
X88800Y317543D01*
X95300D01*
X98300Y314543D01*
G01X84600Y300500D02*
X84500D01*
G01X472079Y113790D02*
X465290D01*
X462500Y111000D01*
G01X441871Y23665D02*
Y19472D01*
G01D02*
X443643Y17700D01*
X444100D01*
G01X385096Y77831D02*
X385097D01*
Y76043D01*
G01X377222Y77831D02*
Y79032D01*
X380175Y81985D01*
G01X373285Y77831D02*
Y80095D01*
G01D02*
X380175Y86985D01*
G01X371021Y80095D02*
X373285D01*
G01X393000Y84000D02*
X391064Y82064D01*
X389329D01*
G01X385548Y98548D02*
X385096Y98096D01*
Y96139D01*
G01X458547Y60500D02*
Y63779D01*
X459768Y65000D01*
G01X398032Y95043D02*
Y91043D01*
G01D02*
Y87043D01*
G01X442873Y91543D02*
Y94806D01*
G01X444696Y88109D02*
Y89720D01*
X442873Y91543D01*
G01X375254Y71894D02*
Y77831D01*
G01X418032Y137543D02*
X419151Y136424D01*
Y132543D01*
G01X428985Y127980D02*
X427363D01*
X422800Y132543D01*
X419151D01*
G01X419151D02*
G01X383128Y71894D02*
Y77831D01*
G01X389329Y91906D02*
X393705D01*
X394568Y91043D01*
G01X271092Y28487D02*
X263513D01*
X259000Y33000D01*
Y47000D01*
X282500Y70500D01*
Y90000D01*
G01X254200Y148043D02*
X254837Y148680D01*
X256251D01*
X256988Y147943D01*
Y147684D01*
G01X232500Y159268D02*
Y156500D01*
X240957Y148043D01*
X254200D01*
G01X282500Y90000D02*
Y92268D01*
X283500Y93268D01*
G01X211500D02*
Y90000D01*
G01X241764Y143204D02*
X241765D01*
X243095Y144535D01*
X249800D01*
G01X211500Y90000D02*
Y71464D01*
X237000Y45964D01*
Y34199D01*
X231288Y28487D01*
G01X389329Y93875D02*
X393400D01*
X394568Y95043D01*
G01D02*
Y99424D01*
X394449Y99543D01*
G01X203500Y93268D02*
Y90000D01*
G01X381159Y98500D02*
Y96139D01*
G01X457960Y49500D02*
Y53192D01*
X459768Y55000D01*
G01X381000Y75000D02*
X381160Y75160D01*
Y77831D01*
X381159D01*
G01X231300Y141543D02*
Y148543D01*
X226300Y153543D01*
Y168243D01*
X230200Y172143D01*
G01X232500Y166000D02*
X230300D01*
X229300Y165000D01*
Y155543D01*
X235300Y149543D01*
Y144204D01*
X236300Y143204D01*
X238300D01*
G01X429800Y18000D02*
X428328Y19472D01*
Y22250D01*
X428091Y22487D01*
Y23665D01*
G01X424602Y78543D02*
Y80534D01*
G01X426177D02*
X427751D01*
G01D02*
Y78694D01*
X427300Y78243D01*
G01X428091Y23665D02*
G01X429115Y29590D02*
Y27258D01*
X428091Y26234D01*
Y23665D01*
G01X452716Y34584D02*
Y33416D01*
X450769Y31468D01*
Y29591D01*
X450769Y29590D01*
G01X449745Y23665D02*
Y21688D01*
X448000Y19943D01*
G01X435448Y98609D02*
X433232Y96393D01*
Y88109D01*
G01D02*
Y86474D01*
X430800Y84043D01*
X429685D01*
X429326Y83684D01*
G01X433232Y88109D02*
G01X444863Y29590D02*
X444863Y27106D01*
X443839Y26082D01*
Y23665D01*
G01X435021Y29590D02*
X435021Y27264D01*
X433997Y26240D01*
Y23665D01*
G01D02*
G01D02*
Y14000D01*
G01X443839Y23665D02*
G01X446300Y13500D02*
Y18500D01*
X443839Y20961D01*
Y23665D01*
G01X433068Y80609D02*
X431568Y82109D01*
X429326D01*
G01X279500Y93268D02*
X280379Y92389D01*
Y71379D01*
X256500Y47500D01*
Y27095D01*
X261092Y22503D01*
G01X216000Y93268D02*
Y70500D01*
X239500Y47000D01*
Y28000D01*
X234003Y22503D01*
X221288D01*
G01X473164Y162875D02*
Y153796D01*
X472900Y153532D01*
G01X470605Y162875D02*
Y154737D01*
X469400Y153532D01*
G01X476400D02*
X475723Y154209D01*
Y162875D01*
G01X479900Y153532D02*
Y153800D01*
X478282Y155418D01*
Y162875D01*
G01X479900Y150068D02*
Y147300D01*
X480900Y146300D01*
X489000D01*
X491189Y148489D01*
Y154211D01*
G01Y178500D02*
X493300Y176389D01*
Y146800D01*
X490300Y143800D01*
X479400D01*
X476900Y146300D01*
Y149568D01*
X476400Y150068D01*
G01X378500Y74000D02*
Y75000D01*
X379191Y75691D01*
Y77831D01*
G01X367987Y84032D02*
X371021D01*
G01X255100Y220943D02*
Y219343D01*
X254200Y218443D01*
X250800D01*
X249600Y219643D01*
Y231943D01*
X259400Y241743D01*
X273800D01*
X326800Y294743D01*
Y322800D01*
X329000Y325000D01*
G01X262400Y368743D02*
Y363343D01*
X264973Y360770D01*
X290327D01*
X291900Y362343D01*
Y378043D01*
X295900Y382043D01*
X304800D01*
X306300Y380543D01*
G01X284250Y187693D02*
X290000Y193443D01*
X298800D01*
X299800Y192443D01*
Y190143D01*
X298700Y189043D01*
X291500D01*
X285250Y182793D01*
G01X207000Y179500D02*
X206300Y178800D01*
Y175300D01*
X201743Y170743D01*
X199500D01*
G01X332000Y322000D02*
X330700Y320700D01*
Y292243D01*
X276600Y238143D01*
X262900D01*
X255100Y230343D01*
Y220943D01*
G01X254700Y368800D02*
Y362343D01*
X259900Y357143D01*
X291643D01*
X295500Y361000D01*
Y376300D01*
X295900Y376700D01*
G01X475723Y186103D02*
Y197932D01*
X475123Y198532D01*
X473400D01*
G01X470605Y186103D02*
Y194363D01*
X469900Y195068D01*
G01X473164Y186103D02*
Y194832D01*
X473400Y195068D01*
G01X478282Y186103D02*
Y194450D01*
X478900Y195068D01*
G01Y198532D02*
Y199900D01*
X480500Y201500D01*
X486500D01*
X488000Y200000D01*
Y194900D01*
X483400Y190300D01*
Y186103D01*
G01X480841D02*
Y190941D01*
X482400Y192500D01*
Y195068D01*
G01X465216Y295269D02*
X460985Y299500D01*
X451827D01*
G01X479784Y295269D02*
X483269D01*
X485000Y297000D01*
X487649D01*
G01X479784Y304731D02*
X483269D01*
X485500Y302500D01*
X487649D01*
G01X465216Y304731D02*
X462269D01*
X457500Y309500D01*
X451827D01*
G01X452898Y258000D02*
X464149D01*
G01X465268Y253000D02*
Y256881D01*
X464149Y258000D01*
G01X465268Y267500D02*
Y264119D01*
X464149Y263000D01*
G01X452898D02*
X464149D01*
G01X498497Y103790D02*
X507953D01*
X508043Y103700D01*
G01X487649Y297000D02*
Y291500D01*
G01Y302500D02*
Y308000D01*
G01X493351Y302500D02*
X496732D01*
X497500Y301732D01*
G01X493351Y297000D02*
Y302500D01*
G54D15*
X184649Y135873D03*
X265649D03*
G54D42*
X78000Y112000D03*
X154000Y276000D03*
Y231500D03*
Y321500D03*
Y187000D03*
X134500Y276000D03*
X193800Y251043D03*
X121300Y358543D03*
X197000Y181000D03*
X472500Y12500D03*
X459500Y129000D03*
X406800Y81600D03*
X480000Y260000D03*
X527800Y51543D03*
X501300Y369543D03*
G54D51*
X16729Y204952D03*
Y173456D03*
X18825Y324476D03*
G54D60*
X391156Y155279D03*
Y137956D03*
Y139531D03*
Y141106D03*
Y142681D03*
Y144256D03*
Y145830D03*
Y147405D03*
Y148980D03*
Y150555D03*
Y152130D03*
Y153704D03*
X367534Y137956D03*
Y139531D03*
Y141106D03*
Y142681D03*
Y144256D03*
Y145830D03*
Y147405D03*
Y148980D03*
Y150555D03*
Y152130D03*
Y153704D03*
Y155279D03*
G54D24*
X157300Y143204D03*
X160764D03*
X71068Y287543D03*
X74532D03*
X141268Y326000D03*
X144732D03*
X141268Y322500D03*
X144732D03*
X141268Y231500D03*
X144732D03*
X141268Y235000D03*
X144732D03*
X141268Y186000D03*
X144732D03*
X141268Y189500D03*
X144732D03*
X141268Y274500D03*
X144732D03*
X141268Y278000D03*
X144732D03*
X459268Y106500D03*
X462732D03*
X481768Y60500D03*
X295268Y88000D03*
X298732D03*
X447568Y132043D03*
X451032D03*
X394568Y91043D03*
X398032D03*
X238300Y120843D03*
X241764D03*
X417106Y80483D03*
X420570D03*
X441232Y76609D03*
X444696D03*
X355768Y150000D03*
X359232D03*
X399268Y155500D03*
X402732D03*
X292568Y143543D03*
X296032D03*
X394568Y95043D03*
X398032D03*
X359268Y75500D03*
X362732D03*
X292568Y139543D03*
X296032D03*
X292668Y119543D03*
X296132D03*
X292568Y135543D03*
X296032D03*
X292568Y127543D03*
X296032D03*
X292568Y131543D03*
X296032D03*
X292568Y123543D03*
X296032D03*
X292568Y115543D03*
X296032D03*
X209568Y135543D03*
X213032D03*
X209568Y127543D03*
X213032D03*
X209568Y131543D03*
X213032D03*
X209568Y123543D03*
X213032D03*
X209568Y139543D03*
X213032D03*
X209568Y143543D03*
X213032D03*
X209568Y115543D03*
X213032D03*
X209568Y119543D03*
X213032D03*
X238300Y143204D03*
X241764D03*
X292568Y111543D03*
X296032D03*
X209568D03*
X213032D03*
X447568Y128043D03*
X451032D03*
X292568Y147543D03*
X296032D03*
X292568Y151543D03*
X296032D03*
X209568D03*
X213032D03*
X209568Y147543D03*
X213032D03*
X459768Y65000D03*
X463232D03*
X459768Y55000D03*
X463232D03*
X425862Y75509D03*
X429326D03*
X433232Y88109D03*
X436696D03*
X441232Y80609D03*
X444696D03*
X459268Y93000D03*
X462732D03*
X433068Y80609D03*
X436532D03*
X459434Y88892D03*
X462898D03*
X459432Y84822D03*
X462896D03*
X399268Y162500D03*
X402732D03*
X400268Y278000D03*
X403732D03*
X399768Y315000D03*
X403232D03*
X465268Y253000D03*
X468732D03*
X400268Y258000D03*
X403732D03*
X485232Y60500D03*
G54D33*
X134466Y53937D03*
X195686D03*
X215580Y53802D03*
X276800D03*
G54D109*
G01X-8774Y-390600D02*
X-13774D01*
X-16774Y-387600D01*
Y-382600D01*
X-13774Y-379600D01*
G01D02*
X-8774D01*
G01X198300Y141385D02*
X199842D01*
X200500Y142043D01*
G01X18100Y377400D02*
X23100D01*
X26100Y374400D01*
Y369400D01*
X23100Y366400D01*
X18100D01*
X15100Y369400D01*
Y374400D01*
X18100Y377400D01*
G01X-13774Y376800D02*
X-8774D01*
G01Y365800D02*
X-13774D01*
X-16774Y368800D01*
Y373800D01*
X-13774Y376800D01*
G01X400300Y55543D02*
X404257D01*
X407000Y52800D01*
Y43300D01*
X401100Y37400D01*
Y28700D01*
X390300Y17900D01*
X377300D01*
G01X385097Y76043D02*
Y74746D01*
X385672Y74171D01*
G01X400300Y55543D02*
X393957D01*
X386500Y63000D01*
Y64500D01*
G01X378800Y24543D02*
Y38543D01*
X373800Y43543D01*
X369957D01*
X367300Y46200D01*
Y55043D01*
X371068Y58811D01*
X375254D01*
G01X367700Y63600D02*
X362300Y58200D01*
Y26043D01*
X367300Y21043D01*
G01X375254Y58811D02*
X383128D01*
G01D02*
Y56000D01*
G01X385672Y74171D02*
X386172Y73671D01*
Y64828D01*
X386500Y64500D01*
G01X395700Y60300D02*
X391000Y65000D01*
Y74500D01*
X397000Y80500D01*
Y83000D01*
G01X406200Y60300D02*
X395700D01*
G01X406200D02*
X412050Y54450D01*
G01Y26000D02*
Y54450D01*
G01X402229Y15118D02*
Y16179D01*
X412050Y26000D01*
G01X375254Y62275D02*
X370532D01*
X364800Y56543D01*
Y45200D01*
X369500Y40500D01*
X373343D01*
X376300Y37543D01*
Y28543D01*
X373095Y25338D01*
Y23386D01*
X373095Y23385D01*
G01X375254Y66192D02*
Y62275D01*
G01Y62275D02*
G01X402623Y49370D02*
X398993Y53000D01*
X393000D01*
X383725Y62275D01*
X383128D01*
G01Y66192D02*
Y62275D01*
G01D02*
G01X274700Y123300D02*
X276600Y121400D01*
G01X369552Y15118D02*
X391918D01*
X398500Y21700D01*
X404000D01*
X410000Y27700D01*
Y53000D01*
X404800Y58200D01*
X394800D01*
X389000Y64000D01*
Y75500D01*
X395000Y81500D01*
Y86611D01*
X394568Y87043D01*
G01X328742Y393377D02*
Y404243D01*
G01X322001Y209501D02*
X315343Y202843D01*
G01X324900Y205600D02*
X318443Y199143D01*
G01X215976Y175871D02*
Y179819D01*
X239000Y202843D01*
G01X294500D02*
X315343D01*
G01X294500Y199143D02*
X273500D01*
G01X318443D02*
X294500D01*
G01X274000Y202843D02*
X294500D01*
G01X273500Y199143D02*
X251500D01*
G01Y202843D02*
X274000D01*
G01X251500Y199143D02*
X240200D01*
G01X239000Y202843D02*
X251500D01*
G01X240200Y199143D02*
X222000Y180943D01*
Y180543D01*
G01X335500Y223000D02*
X322001Y209501D01*
G01X341000Y222500D02*
Y221700D01*
X324900Y205600D01*
G01X428742Y393377D02*
Y401500D01*
G01X549174Y-375700D02*
X554174D01*
X557174Y-378700D01*
Y-383700D01*
X554174Y-386700D01*
G01D02*
X549174D01*
G01X522400Y35200D02*
Y40200D01*
X525400Y43200D01*
X530400D01*
X533400Y40200D01*
Y35200D01*
X530400Y32200D01*
X525400D01*
X522400Y35200D01*
G01X497500Y383600D02*
Y388600D01*
X500500Y391600D01*
X505500D01*
X508500Y388600D01*
Y383600D01*
X505500Y380600D01*
X500500D01*
X497500Y383600D01*
G01X549374Y330700D02*
X554374D01*
X557374Y327700D01*
Y322700D01*
X554374Y319700D01*
X549374D01*
G54D52*
X114495Y341011D03*
X111345D03*
X108195D03*
X105046D03*
X101896D03*
X98747D03*
X95597D03*
X92447D03*
X76699D03*
X73550D03*
X100321Y307941D03*
X103471D03*
X106621D03*
X109770D03*
X112920D03*
X97172D03*
X94022D03*
X90873D03*
X75125D03*
X71975D03*
X70400Y341011D03*
X67251D03*
X64101D03*
X60951D03*
X57802D03*
X54652D03*
X51503D03*
X48353D03*
X45203D03*
X42054D03*
X38904D03*
X35755D03*
X32605D03*
X29455D03*
X26306D03*
X23156D03*
X68825Y307941D03*
X65676D03*
X62526D03*
X59377D03*
X56227D03*
X53077D03*
X49928D03*
X46778D03*
X43629D03*
X40479D03*
X37329D03*
X34180D03*
X31030D03*
X27881D03*
X24731D03*
X21581D03*
G54D25*
X57591Y92543D03*
X69009D03*
X9091Y37543D03*
X20509D03*
X137291Y341500D03*
X148709D03*
X137291Y249500D03*
X148709D03*
X194209Y242500D03*
X182791D03*
X137291Y332500D03*
X148709D03*
X194209Y321000D03*
X182791D03*
X194209Y330000D03*
X182791D03*
X137291Y241000D03*
X148709D03*
X194209Y233000D03*
X182791D03*
X137291Y204000D03*
X148709D03*
X194209Y198000D03*
X182791D03*
X194209Y188500D03*
X182791D03*
X137291Y195500D03*
X148709D03*
X194209Y286000D03*
X182791D03*
X194209Y277000D03*
X182791D03*
X137591Y284043D03*
X149009D03*
X137591Y294043D03*
X149009D03*
X435009Y66273D03*
X423591D03*
X323709Y81500D03*
X312291D03*
X291791D03*
X303209D03*
G54D34*
X140174Y22638D03*
X150174Y28622D03*
X179978Y22638D03*
X189978Y28622D03*
X187576Y66929D03*
X177576D03*
X167576D03*
X157576D03*
X147576D03*
X182576Y76929D03*
X172576D03*
X162576D03*
X152576D03*
X142576D03*
X221288Y22503D03*
X231288Y28487D03*
X261092Y22503D03*
X271092Y28487D03*
X268690Y66794D03*
X258690D03*
X248690D03*
X238690D03*
X228690D03*
X263690Y76794D03*
X253690D03*
X243690D03*
X233690D03*
X223690D03*
G54D70*
X369552Y32834D03*
X405772D03*
X372701Y49370D03*
X379001D03*
X369552Y15118D03*
X402229D03*
X373095Y23385D03*
X402623Y49370D03*
G54D61*
X388006Y134807D03*
X386432D03*
X384857D03*
X383282D03*
X381707D03*
X380132D03*
X378557D03*
X376983D03*
X375408D03*
X373833D03*
X372258D03*
X370684D03*
X388006Y158429D03*
X386432D03*
X384857D03*
X383282D03*
X381707D03*
X380132D03*
X378557D03*
X376983D03*
X375408D03*
X373833D03*
X372258D03*
X370684D03*
G54D43*
G01X33300Y24192D02*
Y19543D01*
G01X38619Y90669D02*
X29300D01*
G01X15981D02*
X29300D01*
G01X50327Y30043D02*
X50178Y29894D01*
G01D02*
X33300D01*
G01X162844Y99929D02*
X162843D01*
Y94929D01*
G01X162576Y76929D02*
Y94661D01*
X162843Y94929D01*
G01X167576Y66929D02*
X162576Y71929D01*
Y76929D01*
G01X162844Y94929D02*
X162843D01*
G01X166308Y99929D02*
X166308Y94929D01*
G01X38619Y76917D02*
X27300D01*
G01X15981D02*
X27300D01*
G01X38619Y106417D02*
X27300D01*
G01X15981D02*
X27300D01*
G01X166308Y94929D02*
G01D02*
Y92500D01*
G01X104182Y370043D02*
X104182Y388433D01*
G01Y363858D02*
Y370043D01*
G01X23300Y278042D02*
Y280334D01*
X21300Y282334D01*
X19300Y280334D01*
Y278042D01*
G01X42300Y377673D02*
G01X70800D02*
G01Y377673D02*
Y387043D01*
G01X42300Y377673D02*
Y387043D01*
G01X121300Y353992D02*
Y358543D01*
G01D02*
Y363094D01*
G01X116749Y358543D02*
X121300D01*
G01D02*
X125851D01*
G01X94182Y392504D02*
Y398433D01*
G01D02*
Y404362D01*
G01X88252Y398433D02*
X94182D01*
G01D02*
X100111D01*
G01X114182Y392504D02*
Y398433D01*
G01D02*
Y404362D01*
G01X108253Y398433D02*
X114182D01*
G01D02*
X120111D01*
G01X114182Y372504D02*
Y378433D01*
G01D02*
Y384362D01*
G01X108253Y378433D02*
X114182D01*
G01D02*
X120111D01*
G01X94182Y372504D02*
Y378433D01*
G01D02*
Y384362D01*
G01X88252Y378433D02*
X94182D01*
G01D02*
X100111D01*
G01X65676Y307941D02*
X65676Y307940D01*
Y291275D01*
G01X39800Y348543D02*
X42300Y351043D01*
G01X68300Y348543D02*
X70800Y351043D01*
G01X73300Y348543D02*
X70800Y351043D01*
G01X19300Y298043D02*
Y295752D01*
X21300Y293752D01*
G01X44800Y348543D02*
X42300Y351043D01*
G01X70800Y356413D02*
G01X42300D02*
G01X65676Y291275D02*
X46568D01*
X39800Y298043D01*
G01X65676Y291275D02*
G01X21300Y293752D02*
X23300Y295752D01*
Y298043D01*
G01X21300Y293752D02*
G01X70800Y351043D02*
Y356413D01*
G01X42300Y351043D02*
Y356413D01*
G01X349139Y55468D02*
Y61968D01*
G01X297407Y55468D02*
Y61968D01*
G01D02*
Y68467D01*
G01X290908Y61968D02*
X297407D01*
G01D02*
X303906D01*
G01X349139Y33028D02*
Y39528D01*
G01D02*
Y46027D01*
G01X342640Y39528D02*
X349139D01*
G01X297407Y33028D02*
Y39528D01*
G01D02*
Y46027D01*
G01X290908Y39528D02*
X297407D01*
G01D02*
X303906D01*
G01X456438Y21497D02*
Y26618D01*
G01D02*
Y31740D01*
G01Y26618D02*
X459591D01*
G01X422422Y21497D02*
Y26618D01*
G01D02*
Y31740D01*
G01X419269Y26618D02*
X422422D01*
G01D02*
X425575D01*
G01X456438Y8705D02*
Y14417D01*
G01X453088Y8705D02*
X456438D01*
G01D02*
X459788D01*
G01X422422D02*
Y14417D01*
G01X419072Y8705D02*
X422422D01*
G01D02*
X425772D01*
G01X472079Y98790D02*
X476226D01*
X494500Y80516D01*
G01X472079Y98790D02*
X467304D01*
X463894Y102200D01*
G01X462732Y106500D02*
Y103362D01*
X463894Y102200D01*
G01X459268Y96500D02*
Y97574D01*
X463894Y102200D01*
G01X485039Y50000D02*
Y60307D01*
X485232Y60500D01*
G01D02*
X486851Y62119D01*
Y65000D01*
G01X452912Y76182D02*
Y70412D01*
X448675Y66175D01*
Y41275D01*
G01Y41275D02*
G01Y41275D02*
X452175D01*
G01X431175Y41275D02*
X427675Y41275D01*
G01D02*
Y44461D01*
G01Y41275D02*
G01X479500Y80516D02*
Y84500D01*
G01X248690Y66794D02*
X243690Y71794D01*
Y76794D01*
G01X241758Y99929D02*
X241758Y94929D01*
G01X241758D02*
Y87242D01*
X243690Y85310D01*
Y76794D01*
G01X483303Y69000D02*
Y73091D01*
G01X245222Y91064D02*
Y94929D01*
G01X221898Y125141D02*
Y137043D01*
X223898Y139043D01*
X232844D01*
G01X234050Y120293D02*
X233963Y120380D01*
X223898D01*
X221898Y122380D01*
Y125141D01*
G01X481768Y58000D02*
Y60500D01*
G01X232844Y134196D02*
Y139043D01*
G01X225756Y125141D02*
X221898D01*
G01X245222Y94929D02*
G01D02*
Y99929D01*
G01X475697Y73091D02*
Y70452D01*
X481149Y65000D01*
G01X377000Y118232D02*
X381160D01*
X382972Y120044D01*
G01X368000Y118232D02*
X371381D01*
X372500Y119351D01*
G01X377000Y118232D02*
X375881Y119351D01*
X372500D01*
G01X364000Y119059D02*
X364827Y118232D01*
X368000D01*
G01X377000Y114768D02*
X381160D01*
X382972Y112956D01*
G01X218500Y258000D02*
Y258500D01*
X214515Y262485D01*
X212039D01*
G01X371000Y355000D02*
Y358000D01*
X368742Y360258D01*
Y369361D01*
G01X206000Y278000D02*
X206234Y278234D01*
G01D02*
X212039D01*
G01X477149Y250000D02*
Y252851D01*
X472000Y258000D01*
X469851D01*
G01X491189Y231500D02*
X477149Y245540D01*
Y250000D01*
G01X469851Y263000D02*
X477000D01*
X480000Y260000D01*
G01X468732Y267500D02*
Y270732D01*
G01X490000Y260000D02*
Y253000D01*
X487000Y250000D01*
X482851D01*
G01X490697Y73091D02*
Y68846D01*
X486851Y65000D01*
G01X498303Y69000D02*
Y73091D01*
G01X490000Y287000D02*
X495000D01*
X501000Y293000D01*
Y305000D01*
X498000Y308000D01*
X493351D01*
G01X490926Y293926D02*
X493351Y291500D01*
X93300Y3543D03*
X97800D03*
X102800D03*
X107800D03*
X88800D03*
X197300D03*
Y8543D03*
X192800D03*
X187800D03*
X182800D03*
X178300D03*
X192800Y3543D03*
X187800D03*
X182800D03*
X178300D03*
X172300Y8543D03*
X167300D03*
X162300D03*
X157800D03*
X172300Y3543D03*
X167300D03*
X162300D03*
X157800D03*
X153300Y8543D03*
X148300D03*
X143300D03*
X138800D03*
X153300Y3543D03*
X148300D03*
X143300D03*
X138800D03*
X119800Y8543D03*
X124300D03*
X129300D03*
X134300D03*
X119800Y3543D03*
X124300D03*
X129300D03*
X134300D03*
X62300D03*
X66800D03*
X71800D03*
X76800D03*
X23800D03*
X28300D03*
X33300D03*
X38300D03*
X43300D03*
X47800D03*
X52800D03*
X57800D03*
X3800Y164043D03*
Y157543D03*
Y152543D03*
Y147543D03*
Y142543D03*
Y136543D03*
Y131543D03*
Y126543D03*
Y121543D03*
X4300Y115543D03*
Y110543D03*
Y105543D03*
Y100543D03*
Y95043D03*
Y90043D03*
Y85043D03*
Y80043D03*
Y75543D03*
Y70543D03*
Y65543D03*
Y60543D03*
X4800Y48043D03*
Y44043D03*
X5209Y35543D03*
Y39543D03*
X33300Y19543D03*
X5300Y54043D03*
Y51043D03*
X29300Y90669D03*
X37300Y55543D03*
Y52543D03*
X34300Y55543D03*
X31300D03*
X28300D03*
X25300D03*
X34300Y52543D03*
X31300D03*
X28300D03*
X25300D03*
X63400Y129843D03*
Y132843D03*
Y135843D03*
X60400Y129843D03*
Y132843D03*
Y135843D03*
X63400Y138843D03*
X60400D03*
X66300Y26043D03*
X62800D03*
X66300Y30543D03*
X62800D03*
X66300Y35543D03*
X62800D03*
X66300Y40043D03*
X62800D03*
X75300Y95543D03*
Y99354D03*
X163800Y143204D03*
X151800Y118043D03*
X172800Y148543D03*
X195000Y120500D03*
X172800Y122000D03*
X162600Y122600D03*
X189000Y119500D03*
X180500Y120000D03*
X165000Y122600D03*
X196800Y103543D03*
X22800Y74043D03*
Y103543D03*
X86000Y158543D03*
X154500Y138500D03*
X166500Y155000D03*
X193300Y105543D03*
X75300Y83732D03*
Y87543D03*
X163500Y155000D03*
X169500D03*
X191043Y141480D03*
Y135480D03*
X179043Y141480D03*
Y135480D03*
Y129480D03*
X191043D03*
X185043Y141480D03*
Y129480D03*
Y135480D03*
X166308Y92500D03*
X170000Y117500D03*
X52300Y95043D03*
X56800Y110543D03*
X52300D03*
Y100543D03*
Y106043D03*
X56800D03*
Y100543D03*
X52300Y90543D03*
X150100Y121543D03*
X140500Y126345D03*
X148500Y139499D03*
X166000Y135500D03*
X160300Y125043D03*
X156000Y147500D03*
X16202Y155534D03*
X20202D03*
X57800Y156543D03*
X53800D03*
X27300Y106417D03*
X75800Y158543D03*
X22800Y94543D03*
X31800Y42043D03*
X17300Y51043D03*
Y54043D03*
X29300Y43192D03*
X22800Y48043D03*
Y44043D03*
X24391Y39543D03*
Y35543D03*
X22800Y65043D03*
Y69543D03*
Y99043D03*
X27300Y76917D03*
X109800Y67543D03*
Y71543D03*
Y75543D03*
X105300D03*
X116300Y104543D03*
X112300D03*
X108300D03*
X104800D03*
X29426Y61169D03*
X149000Y231000D03*
Y233000D03*
X147000Y235000D03*
X149000D03*
X147000Y231000D03*
Y233000D03*
X155500Y258500D03*
X145000Y221232D03*
X25800Y409800D03*
X21100Y409900D03*
X3800Y289043D03*
Y294043D03*
X3300Y373543D03*
Y368543D03*
Y363543D03*
Y358543D03*
Y336543D03*
Y351543D03*
Y346543D03*
Y341543D03*
X3800Y323543D03*
Y318543D03*
Y313543D03*
Y308543D03*
Y283543D03*
Y278543D03*
Y273543D03*
Y268543D03*
Y261543D03*
Y256543D03*
Y251543D03*
Y246543D03*
Y230543D03*
Y225543D03*
Y221043D03*
Y216043D03*
Y211043D03*
Y206043D03*
Y200043D03*
Y195043D03*
Y190043D03*
Y185043D03*
Y179043D03*
Y174043D03*
Y169043D03*
X47073Y315451D03*
X43335D03*
X122000Y271500D03*
X182500Y179500D03*
X180500D03*
Y181500D03*
Y183500D03*
X182500Y181500D03*
Y183500D03*
Y224732D03*
X180050D03*
X180000Y227000D03*
X182500Y269232D03*
X180050D03*
X184000Y316000D03*
X181500D03*
X184000Y313732D03*
X181550D03*
X180000Y271500D03*
X182500D03*
Y227000D03*
X77800Y287543D03*
X53300Y334543D03*
X71800Y271543D03*
X71800Y268043D03*
X79655Y191043D03*
X71800Y257543D03*
X170000Y176768D03*
X84300Y272543D03*
X82700Y175400D03*
X162800Y167543D03*
X170800D03*
X168300D03*
X165300D03*
X103471Y315129D03*
X149000Y185500D03*
Y187500D03*
Y189500D03*
X147000Y185500D03*
Y187500D03*
Y189500D03*
X144500Y177732D03*
X113500Y278500D03*
X37300Y271543D03*
X72000Y216000D03*
Y213500D03*
X159353Y165543D03*
X79800Y182043D03*
X85000Y217000D03*
X87500D03*
Y219500D03*
X85000D03*
X86000Y209043D03*
X64000Y190000D03*
X86000Y194043D03*
Y179543D03*
Y172543D03*
Y165543D03*
Y201543D03*
X72500Y224000D03*
X75000D03*
X97300Y334700D03*
X71100Y297100D03*
X64013Y236043D03*
Y240838D03*
X119700Y409900D03*
X114600Y409700D03*
X48500D03*
X38500D03*
X33500D03*
X43500D03*
X53200D03*
X78200D03*
X68200D03*
X58200D03*
X63200D03*
X73200D03*
X84600Y409600D03*
X109600D03*
X99600D03*
X89600D03*
X94600D03*
X104600D03*
X123900Y409900D03*
X148900D03*
X138900D03*
X128900D03*
X133900D03*
X143900D03*
X153800Y410000D03*
X178800D03*
X168800D03*
X158800D03*
X163800D03*
X173800D03*
X184300D03*
X189300D03*
X194300D03*
X16406Y168043D03*
X20406D03*
X58101Y227198D03*
X54101D03*
X58097Y214988D03*
X54097D03*
X16302Y217351D03*
X20302D03*
X157500Y181000D03*
X154500D03*
X160500D03*
X155000Y224000D03*
X161000D03*
X169500Y310000D03*
Y313000D03*
Y266500D03*
X158000Y269500D03*
X155000D03*
X161000D03*
X157500Y315000D03*
X155000D03*
X152500D03*
X99100Y352800D03*
X109500Y352500D03*
X104400Y358600D03*
X84600Y300500D03*
X88000Y297000D03*
X106500Y280500D03*
Y295000D03*
Y265500D03*
X96543Y255543D03*
X88300Y303043D03*
X93300Y313543D03*
X91843Y299500D03*
X101800Y267300D03*
X84300Y260043D03*
X133292Y396500D03*
Y391386D03*
X83300Y295043D03*
X127800Y303043D03*
X173578Y401500D03*
X156861Y404500D03*
X191300Y379543D03*
X81300Y268543D03*
X35755Y334500D03*
X169500Y180043D03*
X50300Y315543D03*
X65676Y285043D03*
X160000Y314000D03*
X91044Y334543D03*
X155353Y165543D03*
X94300Y291346D03*
X40107Y315543D03*
X109800Y302543D03*
X68997Y334543D03*
X103300D03*
X151300Y165500D03*
X92600Y275311D03*
X45204Y334000D03*
X62355Y334543D03*
X75800Y179543D03*
X26135Y314408D03*
X60851Y314543D03*
X169300Y358643D03*
X164071Y359043D03*
X133300Y344043D03*
Y340543D03*
Y331043D03*
Y334543D03*
X75800Y172543D03*
X53475Y295043D03*
X57800D03*
X169616Y225616D03*
X133300Y247543D03*
Y251043D03*
Y237543D03*
Y241043D03*
X81300Y275043D03*
X98800Y302543D03*
X81300Y253543D03*
X195000Y269500D03*
X189800Y298543D03*
X189300Y292543D03*
X197800Y291543D03*
X193300D03*
X98300Y314543D03*
X81300Y264543D03*
X79532Y284775D03*
X80438Y291267D03*
X128300Y309043D03*
X68300Y300043D03*
X75125Y314543D03*
X56398Y334543D03*
X49757Y334000D03*
X71068Y284775D03*
X169300Y269543D03*
X93800Y178043D03*
X89200Y179643D03*
X133300Y193043D03*
Y196043D03*
Y203543D03*
Y206543D03*
Y292543D03*
Y296043D03*
Y286043D03*
Y282543D03*
X197800Y245043D03*
Y241043D03*
Y235043D03*
Y232043D03*
Y200043D03*
X187300Y168490D03*
X19300Y278042D03*
X23300D03*
X20306Y229561D03*
X16306D03*
X64195Y180148D03*
X70800Y244787D03*
X79031Y242543D03*
X75300Y190043D03*
X75800Y165543D03*
Y194043D03*
Y201543D03*
Y209043D03*
X77800Y185043D03*
X84031Y242543D03*
X42300Y387043D03*
X70800D03*
X14800Y298248D03*
Y303043D03*
Y240838D03*
Y236043D03*
X47262D03*
Y240838D03*
X94800Y353043D03*
Y356543D03*
Y360043D03*
X113800Y353043D03*
Y356543D03*
Y360043D03*
X116300Y365043D03*
Y368543D03*
Y372043D03*
X94800Y364543D03*
Y368043D03*
Y371543D03*
X100100Y364543D03*
Y368043D03*
Y371543D03*
X110300Y364843D03*
Y368343D03*
Y371843D03*
X108200Y375400D03*
X100100Y375043D03*
X100000Y382000D03*
X108200Y381900D03*
X114300Y390543D03*
Y386043D03*
X93800Y390543D03*
Y386043D03*
X106300Y398543D03*
X101800D03*
X169500Y379000D03*
X181300Y394543D03*
X181000Y391000D03*
X165000Y401500D03*
X113000Y283697D03*
X125000Y296500D03*
X149000Y323000D03*
X147000D03*
X149000Y321000D03*
X147000D03*
X149000Y319000D03*
X147000D03*
X20178Y314408D03*
X39800Y348543D03*
X44800D03*
X73300D03*
X68300D03*
X153300Y343543D03*
Y340043D03*
Y334043D03*
Y330543D03*
X114300Y302543D03*
X19300Y298043D03*
X23300D03*
X39800D03*
X145000Y311232D03*
X177300Y231643D03*
X161800Y230043D03*
X161500Y320000D03*
X177111Y322354D03*
X161900Y185700D03*
X177800Y188543D03*
X161900Y275300D03*
X177300Y277543D03*
X149000Y276000D03*
Y278000D03*
Y274000D03*
X147000D03*
X153300Y285543D03*
X153300Y282043D03*
X147000Y278000D03*
Y276000D03*
X145500Y265732D03*
X179300Y265768D03*
X178000Y203500D03*
X179500Y220803D03*
X180000Y176768D03*
X177800Y308700D03*
X287000Y94500D03*
X326000Y100000D03*
X429800Y87043D03*
X425700Y85843D03*
X287000Y92000D03*
Y97000D03*
X323500Y100000D03*
X321000D03*
X469800Y3543D03*
X474300D03*
X479300D03*
X484300D03*
X465300D03*
X434300Y4043D03*
X438800D03*
X443800D03*
X448800D03*
X429800D03*
X356300D03*
X360800D03*
X365800D03*
X370800D03*
X389800D03*
X384800D03*
X379800D03*
X375300D03*
X408800D03*
X403800D03*
X398800D03*
X394300D03*
X334300D03*
X338800D03*
X343800D03*
X348800D03*
X334300Y9043D03*
X338800D03*
X343800D03*
X348800D03*
X315300Y4043D03*
X319800D03*
X324800D03*
X329800D03*
X315300Y9043D03*
X319800D03*
X324800D03*
X329800D03*
X310800D03*
X305800D03*
X300800D03*
X296300D03*
X310800Y4043D03*
X305800D03*
X300800D03*
X296300D03*
X290300Y3543D03*
Y8543D03*
X275800Y3543D03*
X280300D03*
X285300D03*
X275800Y8543D03*
X280300D03*
X285300D03*
X256800Y3543D03*
X261300D03*
X266300D03*
X271300D03*
X256800Y8543D03*
X261300D03*
X266300D03*
X271300D03*
X252300D03*
X247300D03*
X242300D03*
X237800D03*
X252300Y3543D03*
X247300D03*
X242300D03*
X237800D03*
X216300D03*
X220800D03*
X225800D03*
X230800D03*
X216300Y8543D03*
X220800D03*
X225800D03*
X230800D03*
X201800Y3543D03*
X206800D03*
X211800D03*
X201800Y8543D03*
X206800D03*
X211800D03*
X200800Y114543D03*
X287206Y110161D03*
X444100Y17700D03*
X450000Y33800D03*
X427675Y44461D03*
X449800Y74354D03*
X299000Y118500D03*
X479500Y84500D03*
X216300Y159043D03*
X217800Y145543D03*
X218300Y130811D03*
X300916Y148427D03*
X222300Y150043D03*
X356000Y84000D03*
X225300Y150043D03*
X356000Y75500D03*
X385175Y81985D03*
Y86985D03*
Y91985D03*
X380175D03*
X375175D03*
Y86985D03*
Y81985D03*
X380175D03*
Y86985D03*
X400500Y84500D03*
X386500Y64500D03*
X385672Y74171D03*
X383128Y56000D03*
X367300Y21043D03*
X367700Y63600D03*
X378800Y24543D03*
X391000Y98000D03*
X298800Y127543D03*
Y159043D03*
X214150Y157150D03*
X298666Y138177D03*
X301666Y145177D03*
X218500Y121000D03*
X441486Y34046D03*
X437374Y16711D03*
X298800Y115543D03*
X218416Y126927D03*
X315000Y74000D03*
X316000Y76000D03*
X313500D03*
X442873Y91543D03*
X276600Y121400D03*
X245300Y121543D03*
X289800Y151543D03*
Y147543D03*
X254200Y148043D03*
X249800Y144535D03*
X207000Y147543D03*
X206500Y151543D03*
X200500Y142043D03*
X281000Y142000D03*
X443400Y116300D03*
Y118700D03*
X465421Y84822D03*
X441232Y85207D03*
X436696D03*
X447100Y76743D03*
X465421Y72822D03*
X434400Y75843D03*
X483303Y69000D03*
X467500Y55000D03*
X466000Y65000D03*
X302193Y121000D03*
X222500Y116500D03*
X278000Y154543D03*
X298800Y111543D03*
X280800Y101543D03*
X277800D03*
X199800Y103543D03*
X218000Y111000D03*
X411382Y137543D03*
X395300Y150043D03*
X367068Y160543D03*
X396300Y139543D03*
X385700Y162143D03*
X380250Y162093D03*
X368500Y132000D03*
X409000Y67000D03*
X406500D03*
X361120Y116820D03*
X338800Y160043D03*
Y157043D03*
X454300Y128043D03*
Y132043D03*
X423800Y112543D03*
Y109043D03*
X410300D03*
X420300D03*
X355000Y81000D03*
X324500Y88000D03*
X289500D03*
X292000D03*
X322000D03*
X327000Y81500D03*
X250000Y154500D03*
Y156500D03*
X247500Y154500D03*
X436100Y19300D03*
X442700Y15200D03*
X444000Y35200D03*
X436100Y35300D03*
X332000Y85500D03*
X342500D03*
X410500Y77100D03*
X407700D03*
X468500Y49500D03*
X481768Y58000D03*
X456000Y104500D03*
Y107000D03*
X457500Y118500D03*
X457000Y124000D03*
X467900Y156600D03*
X461600Y154600D03*
X464100Y154500D03*
X466500Y154600D03*
X483000Y155500D03*
Y153000D03*
X378200Y111900D03*
X377500Y105000D03*
X405900Y130000D03*
X352100Y147500D03*
X368000Y135000D03*
X300800Y151543D03*
X410300Y132543D03*
X465421Y76822D03*
X405300Y140707D03*
X424800Y124043D03*
X454300D03*
X433151Y117531D03*
X365500Y158000D03*
X455300Y118543D03*
X424602Y78543D03*
X378951Y140194D03*
X372951D03*
Y146194D03*
X384951Y152194D03*
X372951D03*
X378951D03*
Y146194D03*
X384951Y140194D03*
X441232Y73143D03*
X413860Y80483D03*
X427300Y78243D03*
X429964Y96043D03*
X425464Y97162D03*
X439800Y62043D03*
X443001D03*
X439800Y65043D03*
X443001D03*
Y68043D03*
X439800D03*
X416800Y90856D03*
X465421Y80822D03*
X442873Y106500D03*
X444300Y84043D03*
X349300Y124043D03*
X357800D03*
X355844Y142043D03*
X206300Y108196D03*
X235137Y117282D03*
X245222Y91064D03*
X274300Y104043D03*
X272043Y141480D03*
Y135480D03*
X260043Y141480D03*
Y135480D03*
Y129480D03*
X272043D03*
X266043Y141480D03*
Y129480D03*
Y135480D03*
X212800Y154543D03*
X287206Y106696D03*
X241658Y135401D03*
X221898Y125141D03*
X234050Y120293D03*
X232844Y139043D03*
X288000Y83000D03*
Y80500D03*
X231300Y141543D03*
X238300Y146043D03*
X434675Y44461D03*
X438175D03*
X429800Y18000D03*
X445175Y44461D03*
X452716Y34584D03*
X448000Y19943D03*
X441675Y44461D03*
X424300Y43543D03*
X416500Y99500D03*
X361200Y158500D03*
X352100Y149800D03*
X368000Y112200D03*
X466500Y108790D03*
X456500Y95000D03*
X337500Y85500D03*
X348000D03*
X245000Y154500D03*
X327000Y84000D03*
X438398Y34046D03*
X440462Y16711D03*
X218300Y115543D03*
X298800Y123543D03*
Y131543D03*
Y155543D03*
X218166Y134677D03*
X356000Y88043D03*
X446300Y13500D03*
X433997Y14000D03*
X416300Y68543D03*
X419501D03*
X416300Y65543D03*
X419501D03*
X416300Y62543D03*
X419501D03*
X456700Y80822D03*
X396400Y143500D03*
X397200Y136000D03*
X395200Y135100D03*
X395172Y137171D03*
X363700Y154900D03*
X353200Y158200D03*
Y161200D03*
X207500Y119500D03*
X289900Y118442D03*
X366290Y82335D03*
X447500Y339000D03*
X445000Y336500D03*
Y339000D03*
X442500D03*
X227000Y385000D03*
X229449D03*
X422500Y372000D03*
Y374500D03*
X212000Y373500D03*
X212149Y370000D03*
X246000Y208000D03*
X278000Y217000D03*
X327000Y344000D03*
X269800Y301043D03*
X290300Y297543D03*
X230800Y358043D03*
Y338543D03*
X276800Y272043D03*
X277300Y298043D03*
X234800Y338543D03*
X295800Y297543D03*
X292800Y294543D03*
X298989Y351943D03*
X322276Y333543D03*
X238800Y349043D03*
X306300Y352543D03*
X326213Y337043D03*
X230800Y354043D03*
X284800Y277043D03*
X224300Y346043D03*
X266800Y304543D03*
X289000Y290000D03*
X284300Y269543D03*
X293300Y287543D03*
X276800Y283043D03*
X276800Y275043D03*
X276800Y278543D03*
X283550Y285293D03*
X282800Y274543D03*
X230800Y341343D03*
X224300Y350043D03*
X318742Y407043D03*
X308742Y407843D03*
X333800Y373543D03*
Y376243D03*
X298742Y407043D03*
X288800Y406543D03*
X216800Y195556D03*
X257300Y226043D03*
X251300Y186043D03*
X267800Y181543D03*
X287300Y170543D03*
X218500Y258000D03*
X220800Y199493D03*
X224800Y199543D03*
X232800Y203543D03*
X216800Y191619D03*
X297000Y191443D03*
X229300Y199543D03*
X309489Y351000D03*
X241300Y370543D03*
X219800Y207543D03*
X257300Y229543D03*
X227300Y194543D03*
X276300Y168543D03*
X263300Y185043D03*
X254800Y190043D03*
X272300Y168543D03*
X302489Y351943D03*
X314400Y335543D03*
X364400Y234926D03*
X305300Y185043D03*
X267800Y189043D03*
X257300Y222760D03*
X252400Y222343D03*
X218800Y203430D03*
X250000Y210000D03*
X294716Y181459D03*
X235100Y294843D03*
X298654Y181543D03*
X351100Y211043D03*
X202300Y203543D03*
X257300Y219043D03*
X351200Y207943D03*
X284300Y170543D03*
X277300Y181543D03*
X232300Y289043D03*
X251300Y190043D03*
X236800Y207343D03*
X333300Y190043D03*
X216624Y207367D03*
X336300Y192043D03*
X331300Y185043D03*
X220800Y297918D03*
X260800Y226043D03*
X247000Y167000D03*
X249300Y167043D03*
X252000Y167000D03*
X244500D03*
X475000Y387900D03*
X475100Y385100D03*
X423500Y395000D03*
Y392500D03*
X202200Y370000D03*
X407000Y316500D03*
Y319000D03*
Y321500D03*
X409500Y316500D03*
X406500Y280000D03*
Y277500D03*
X409000D03*
Y280000D03*
X222000Y403500D03*
X219137Y402068D03*
X319989Y355000D03*
X403000Y388500D03*
X401800Y386543D03*
X280300Y171143D03*
X388700Y171343D03*
X399100Y165300D03*
X422500Y174311D03*
X221000Y263000D03*
X218800D03*
X438600Y410200D03*
X443800Y410000D03*
X209300D03*
X199300D03*
X204300D03*
X215900Y409900D03*
X240900D03*
X230900D03*
X220900D03*
X225900D03*
X235900D03*
X246500Y410000D03*
X271500D03*
X261500D03*
X251500D03*
X256500D03*
X266500D03*
X277100Y410100D03*
X302100D03*
X292100D03*
X282100D03*
X287100D03*
X297100D03*
X314700D03*
X339700D03*
X329700D03*
X319700D03*
X324700D03*
X334700D03*
X344900D03*
X369900D03*
X359900D03*
X349900D03*
X354900D03*
X364900D03*
X375800D03*
X400800D03*
X390800D03*
X380800D03*
X385800D03*
X395800D03*
X448900D03*
X473900D03*
X463900D03*
X453900D03*
X458900D03*
X468900D03*
X480000D03*
X484900Y397100D03*
X482500D03*
X482400Y399500D03*
X432500Y373000D03*
X433500Y387500D03*
Y390500D03*
X295000Y395000D03*
X221500Y391386D03*
X363000Y278234D03*
X457800Y185300D03*
X457900Y187800D03*
Y190400D03*
X407000Y273000D03*
X409500D03*
X404500Y291500D03*
Y289000D03*
X407000Y291500D03*
Y289000D03*
X396000Y278000D03*
X393500D03*
X396000Y280500D03*
X393500D03*
X393000Y317500D03*
Y315000D03*
X395500D03*
Y317500D03*
X444500Y328000D03*
X442500D03*
X451500Y327500D03*
Y330000D03*
X254700Y368800D03*
X295900Y376700D03*
X378800Y407043D03*
X404500Y391663D03*
X331800Y387043D03*
X344800Y394443D03*
X314300Y388043D03*
X416500Y377000D03*
X330800Y355043D03*
X334600Y393143D03*
X342800Y390443D03*
X315900Y404243D03*
X328742D03*
X212800Y357543D03*
X217800Y359043D03*
X238800Y403543D03*
X224110Y360179D03*
X235151Y394043D03*
X207300Y359043D03*
X202200Y357543D03*
X268742Y378543D03*
X262400Y368743D03*
X306300Y380543D03*
X382200Y171343D03*
X291800Y165775D03*
X362537Y179808D03*
X310465Y171043D03*
X364800Y327543D03*
X304300Y350043D03*
X322300Y337043D03*
X248742Y360179D03*
X305100Y345043D03*
X318300Y342043D03*
X478781Y358043D03*
X432500Y376000D03*
X413698Y398500D03*
X428742Y401500D03*
X268300Y168490D03*
X198300Y323043D03*
Y319043D03*
Y329043D03*
Y333043D03*
Y288043D03*
Y284043D03*
Y279043D03*
Y275043D03*
X203800Y283543D03*
X205800Y289043D03*
X204300Y300043D03*
X229300Y279043D03*
X226300D03*
X229300Y283043D03*
Y289043D03*
X226800D03*
X226300Y283043D03*
X206800Y258548D03*
X230200Y172143D03*
X276800Y171543D03*
X219100Y337543D03*
X216800Y215241D03*
X239598Y171043D03*
X232500Y166000D03*
X206800Y254611D03*
X216500Y340343D03*
X284250Y187693D03*
X285250Y182793D03*
X222000Y180543D03*
X335500Y223000D03*
X341000Y222500D03*
X213300Y170543D03*
X332000Y322000D03*
X329000Y325000D03*
X207300Y225043D03*
X255100Y220943D03*
X430500Y235275D03*
X221500Y396500D03*
X201137Y392443D03*
X458000Y193000D03*
X304000Y398982D03*
X366800Y223115D03*
X236500Y165500D03*
X219500Y277000D03*
X217000D03*
Y274500D03*
X219500D03*
X204500Y206043D03*
X309800Y181043D03*
X233075Y302518D03*
X298900Y187043D03*
X337800Y181543D03*
X220800Y301856D03*
X263220Y181543D03*
X229300Y203543D03*
X226900Y301443D03*
X224300Y298043D03*
X328800Y182543D03*
X243000Y206000D03*
X462700Y311800D03*
X465500Y311900D03*
X468100D03*
X470400D03*
X458200Y219500D03*
Y212000D03*
Y214500D03*
Y217000D03*
X473000Y314500D03*
Y317000D03*
Y319500D03*
X460500Y287500D03*
X458000Y290000D03*
X463000Y287500D03*
X458000D03*
X471500Y273000D03*
X472500Y278500D03*
Y281000D03*
X471500Y275500D03*
X461000Y247900D03*
X458800Y245400D03*
Y240400D03*
Y247900D03*
Y242900D03*
X454100Y240400D03*
X456400D03*
X458000Y319000D03*
X460500Y316500D03*
Y319000D03*
X472000Y253000D03*
X455900Y283000D03*
X452800Y280700D03*
X449800D03*
X455800D03*
X323800Y390543D03*
X323300Y387043D03*
X384564Y387543D03*
X368742Y407043D03*
X399300D03*
X358742D03*
X338742D03*
X448742D03*
X383300D03*
X344300Y372543D03*
X394300Y364043D03*
X348742Y407043D03*
X305300Y377543D03*
X353068Y376543D03*
X364879Y387464D03*
X372800Y393043D03*
X360942Y377543D03*
X393800Y407043D03*
X388800D03*
X438742D03*
X374800Y389043D03*
X382910Y370154D03*
X300800Y378043D03*
X458742Y407043D03*
X357005Y377543D03*
X468742Y407043D03*
X495300Y3543D03*
X499800D03*
X504800D03*
X509800D03*
X490800D03*
X486600Y155900D03*
Y158000D03*
X498303Y69000D03*
X536900Y140900D03*
Y150900D03*
Y160900D03*
Y155900D03*
Y145900D03*
Y105900D03*
Y115900D03*
Y125900D03*
Y135900D03*
Y130900D03*
Y120900D03*
Y110900D03*
Y70900D03*
Y80900D03*
Y90900D03*
Y100900D03*
Y95900D03*
Y85900D03*
Y75900D03*
Y40900D03*
Y50900D03*
Y60900D03*
Y65900D03*
Y55900D03*
Y45900D03*
Y35900D03*
X504076Y93790D03*
Y98790D03*
Y123790D03*
Y108790D03*
X514000Y140877D03*
X519900Y74643D03*
X516568Y58543D03*
Y84811D03*
X514000Y130413D03*
X491189Y154211D03*
X492800Y387600D03*
X492700Y385000D03*
X511200Y359900D03*
Y362500D03*
X508700Y359900D03*
X508800Y362600D03*
X505000Y410100D03*
X495000D03*
X485000D03*
X490000D03*
X500000D03*
X536900Y360900D03*
Y364900D03*
Y210900D03*
Y215900D03*
Y175900D03*
Y185900D03*
Y195900D03*
Y205900D03*
Y200900D03*
Y190900D03*
Y180900D03*
Y170900D03*
Y165900D03*
X485000Y399400D03*
X488781Y358043D03*
X490000Y287000D03*
X491189Y231500D03*
X490926Y293926D03*
X491189Y178500D03*
X536900Y250900D03*
Y260900D03*
Y265900D03*
Y280900D03*
Y320900D03*
Y330900D03*
Y315900D03*
Y240900D03*
Y235900D03*
Y325900D03*
Y310900D03*
Y305900D03*
Y300900D03*
Y295900D03*
Y290900D03*
Y285900D03*
Y275900D03*
Y270900D03*
Y255900D03*
Y245900D03*
Y230900D03*
Y225900D03*
X487000Y313000D03*
X495000Y314500D03*
X491500D03*
X497500Y295000D03*
X536900Y340900D03*
Y345900D03*
Y335900D03*
Y350900D03*
X496000Y326000D03*
Y323500D03*
X493500D03*
Y326000D03*
X518900Y410100D03*
X512700Y410200D03*
X537200Y391300D03*
Y386800D03*
X537100Y383200D03*
X527800Y377300D03*
X524200D03*
X521300Y377200D03*
X519000D03*
G54D16*
X178300Y156240D03*
Y165846D03*
X415300Y124346D03*
Y114740D03*
X258830Y155240D03*
Y164846D03*
G54D62*
X379345Y146618D03*
G54D26*
X8682Y46043D03*
X18919D03*
G54D44*
X191300Y156700D03*
X156800Y117100D03*
Y115200D03*
X186500Y151000D03*
X184500D03*
X149000Y97000D03*
Y105448D03*
X180000Y97000D03*
Y105448D03*
X134500Y99500D03*
X175547Y378796D03*
X182500Y378500D03*
X136861Y405000D03*
X150000Y378000D03*
X148000Y380043D03*
X163736Y378543D03*
X146861Y405500D03*
X166861Y404500D03*
X185500Y378543D03*
X176861Y404500D03*
X186861D03*
X196861D03*
X194000Y168500D03*
X173600Y347736D03*
X156700Y360543D03*
X194800Y378000D03*
X191300Y168500D03*
X146700Y360543D03*
X158100Y259700D03*
X159300Y354543D03*
X166700Y360443D03*
X364756Y124153D03*
X367354D03*
X472500Y128000D03*
X475000Y130000D03*
X445500Y142500D03*
X381556Y128451D03*
X343978Y101210D03*
X384154Y128451D03*
X346576Y101210D03*
X336067D03*
X389984Y127312D03*
X333469Y101210D03*
X387386Y127312D03*
X456879Y84121D03*
X478000Y118790D03*
X449000Y107500D03*
X449500Y161500D03*
X377300Y17900D03*
X412050Y26000D03*
Y54450D03*
X406200Y60300D03*
X395700D03*
X397000Y83000D03*
X400300Y55543D03*
X379000Y62000D03*
X393000Y84000D03*
X401548Y146584D03*
X385548Y98548D03*
X345949Y160711D03*
X331150Y109650D03*
X467500Y60500D03*
X449000Y110500D03*
X331200Y112000D03*
X327000Y107900D03*
X254500Y123000D03*
X245100Y113400D03*
Y115400D03*
X261712Y120487D03*
X269586Y120414D03*
X272300Y156900D03*
X284300D03*
X288200Y156800D03*
X282500Y90000D03*
X211500D03*
X207300Y157000D03*
X203500Y90000D03*
X234700Y112100D03*
X234800Y114300D03*
X265500Y150500D03*
X380500Y130843D03*
X381159Y98500D03*
X267500Y150743D03*
X476500Y30300D03*
X381000Y75000D03*
X396000Y76700D03*
X395800Y74600D03*
X331000Y101500D03*
X338500D03*
X375700Y128800D03*
X369600Y129500D03*
X425700Y103400D03*
Y106100D03*
X340600Y163200D03*
X347400Y163100D03*
X404300Y143900D03*
Y146600D03*
X362400Y124100D03*
X369800D03*
X230500Y97000D03*
Y105448D03*
X261000D03*
X396000Y114500D03*
X383000Y102000D03*
X384500Y123700D03*
X380000Y126500D03*
X386436Y129500D03*
X392000Y128500D03*
X396400Y121000D03*
X342000Y100000D03*
X348500D03*
X472500Y30100D03*
X363800Y140275D03*
X482500Y30100D03*
X261000Y97000D03*
X216000Y99000D03*
X203500Y99500D03*
X276500Y96732D03*
X342161Y160711D03*
X401548Y143986D03*
X331100Y114700D03*
X451000Y105000D03*
X449500Y158500D03*
X327000Y105200D03*
X374576Y130743D03*
X428240Y103469D03*
X371516Y130743D03*
X428240Y106067D03*
X203300Y157000D03*
X378500Y74000D03*
X293200Y220700D03*
X303600Y231300D03*
X334000Y341000D03*
X420000Y164500D03*
X246500Y264000D03*
X323489Y355000D03*
X367500Y286108D03*
X203300Y168500D03*
X207300D03*
X386500Y296500D03*
X352000Y299000D03*
X312989Y356000D03*
X362500Y250674D03*
X333989Y344043D03*
X358556Y165653D03*
X338000Y224500D03*
X399100Y193300D03*
X332900Y266300D03*
X198000Y379500D03*
X401500Y191000D03*
X346500Y217500D03*
X341879Y216122D03*
X301550Y238050D03*
X312000Y210500D03*
X382500Y298500D03*
X352000Y301856D03*
X199300Y168500D03*
X397500Y271500D03*
X240500Y166000D03*
X330422Y171421D03*
X343272Y170071D03*
X356300Y165200D03*
X363400Y165400D03*
X206000Y187682D03*
X207000Y179500D03*
X199500Y170743D03*
X241500Y220343D03*
Y225000D03*
X240200Y199143D03*
X239000Y202843D03*
X251500Y199143D03*
Y202843D03*
X273500Y199143D03*
X274000Y202843D03*
X318443Y199143D03*
X294500D03*
Y202843D03*
X315343D03*
X324900Y205600D03*
X322001Y209501D03*
X469900Y200800D03*
X409000Y243000D03*
X397500Y258000D03*
X409000Y248000D03*
X371000Y355000D03*
X357400Y172043D03*
X361154Y165653D03*
X384500Y301000D03*
X364604Y317604D03*
X352500Y254611D03*
X295489Y355043D03*
X204271Y404514D03*
X244000Y266000D03*
X414500Y370500D03*
X412800Y366043D03*
X505000Y118700D03*
X486500Y30300D03*
X485500Y198532D03*
G54D71*
X387662Y37165D03*
G54D53*
X117251Y324476D03*
G54D80*
X429115Y29590D03*
X431084D03*
X433052D03*
X435021D03*
X436989D03*
X438958D03*
X440926D03*
X442895D03*
X444863D03*
X446832D03*
X448800D03*
X450769D03*
G54D35*
X50327Y48547D03*
Y30043D03*
Y11539D03*
G54D17*
X19416Y133924D03*
X116660D03*
G54D90*
X452898Y278000D03*
Y273000D03*
Y268000D03*
Y263000D03*
Y258000D03*
Y253000D03*
Y248000D03*
Y243000D03*
X415102D03*
Y248000D03*
Y253000D03*
Y258000D03*
Y263000D03*
Y268000D03*
Y273000D03*
Y278000D03*
G54D45*
X21300Y282334D03*
Y293752D03*
X517300Y373109D03*
Y361691D03*
G54D63*
X485039Y50000D03*
G54D27*
X21320Y21377D03*
X23900Y15057D03*
X21300Y8757D03*
X15000Y6157D03*
X8700Y8757D03*
X6100Y15057D03*
X8720Y21337D03*
X15000Y23957D03*
X21320Y404763D03*
X23900Y398443D03*
X21300Y392143D03*
X15000Y389543D03*
X8700Y392143D03*
X6100Y398443D03*
X8720Y404723D03*
X15000Y407343D03*
X531816Y21377D03*
X534396Y15057D03*
X531796Y8757D03*
X525496Y6157D03*
X519196Y8757D03*
X516596Y15057D03*
X519216Y21337D03*
X525496Y23957D03*
X531816Y404763D03*
X534396Y398443D03*
X531796Y392143D03*
X525496Y389543D03*
X519196Y392143D03*
X516596Y398443D03*
X519216Y404723D03*
X525496Y407343D03*
G54D36*
X144960Y126345D03*
Y135401D03*
X152048Y126345D03*
Y135401D03*
X348756Y129015D03*
Y138071D03*
X355844Y129015D03*
Y138071D03*
X225756Y125141D03*
Y134196D03*
X232844Y125141D03*
Y134196D03*
G54D72*
X373285Y77831D03*
Y96139D03*
X375254Y77831D03*
Y96139D03*
X377222Y77831D03*
Y96139D03*
X379191Y77831D03*
Y96139D03*
X381159Y77831D03*
Y96139D03*
X383128Y77831D03*
Y96139D03*
X385096Y77831D03*
Y96139D03*
X387065Y77831D03*
Y96139D03*
G54D81*
X297407Y39528D03*
X349139D03*
X297407Y61968D03*
X349139D03*
G54D18*
X157300Y125007D03*
Y128471D03*
X193300Y108311D03*
Y111775D03*
X169000Y159268D03*
Y162732D03*
X163600Y116468D03*
Y119932D03*
X159353Y159311D03*
Y162775D03*
X191300Y159311D03*
Y162775D03*
X195300Y159311D03*
Y162775D03*
X134500Y93768D03*
Y97232D03*
X148000Y217768D03*
Y221232D03*
X65676Y287811D03*
Y291275D03*
X148000Y307768D03*
Y311232D03*
X147500Y174268D03*
Y177732D03*
X148500Y262268D03*
Y265732D03*
X151500Y307768D03*
Y311232D03*
X89300Y275311D03*
Y278775D03*
X151500Y217768D03*
Y221232D03*
X151000Y174268D03*
Y177732D03*
X152000Y262268D03*
Y265732D03*
X361300Y129811D03*
Y133275D03*
X383128Y58811D03*
Y62275D03*
X452175Y37811D03*
Y41275D03*
X427675Y37811D03*
Y41275D03*
X375254Y58811D03*
Y62275D03*
X238300Y125007D03*
Y128471D03*
X249500Y159268D03*
Y162732D03*
X274300Y106670D03*
Y110134D03*
X368000Y114768D03*
Y118232D03*
X240500Y159268D03*
Y162732D03*
X431175Y37811D03*
Y41275D03*
X448675Y37811D03*
Y41275D03*
X283824Y106697D03*
Y110161D03*
X203324Y108197D03*
Y111661D03*
X280300Y159311D03*
Y162775D03*
X199300Y159311D03*
Y162775D03*
X476500Y23725D03*
Y27189D03*
X272300Y159311D03*
Y162775D03*
X276300Y159311D03*
Y162775D03*
X284300Y159311D03*
Y162775D03*
X288300Y159311D03*
Y162775D03*
X203300Y159311D03*
Y162775D03*
X207300Y159311D03*
Y162775D03*
X242300Y128472D03*
Y131936D03*
X377000Y114768D03*
Y118232D03*
X385700Y105368D03*
Y108832D03*
X479900Y150068D03*
Y153532D03*
X476400Y150068D03*
Y153532D03*
X211500Y93268D03*
Y96732D03*
X203500Y93268D03*
Y96732D03*
X283500Y93268D03*
Y96732D03*
X441675Y37811D03*
Y41275D03*
X445175Y37811D03*
Y41275D03*
X434675Y37811D03*
Y41275D03*
X332000Y79268D03*
Y82732D03*
X337500Y79268D03*
Y82732D03*
X342500Y79268D03*
Y82732D03*
X348000Y79268D03*
Y82732D03*
X438175Y37811D03*
Y41275D03*
X482500Y23725D03*
Y27189D03*
X472500Y23725D03*
Y27189D03*
X478900Y195068D03*
Y198532D03*
X482400Y195068D03*
Y198532D03*
X469900Y195068D03*
Y198532D03*
X473400Y195068D03*
Y198532D03*
X443000Y330768D03*
Y334232D03*
X486400Y150068D03*
Y153532D03*
X486500Y23725D03*
Y27189D03*
X511000Y137413D03*
Y140877D03*
X491500Y317268D03*
Y320732D03*
X497500Y298268D03*
Y301732D03*
X496000Y317268D03*
Y320732D03*
G54D54*
X125912Y335893D03*
X10164D03*
G54D91*
X415173Y319500D03*
Y309500D03*
Y299500D03*
Y289500D03*
X451827D03*
Y299500D03*
Y309500D03*
Y319500D03*
G54D82*
X291300Y95043D03*
X302300D03*
X323300D03*
X312300D03*
G54D46*
X109300Y358543D03*
X99064D03*
G54D55*
X37300Y293083D03*
Y286003D03*
G54D19*
X157300Y135400D03*
Y131936D03*
X151300Y162775D03*
Y159311D03*
X155353Y162775D03*
Y159311D03*
X167100Y119975D03*
Y116511D03*
X187300Y162775D03*
Y159311D03*
X161300Y131936D03*
Y128472D03*
X140000Y97232D03*
Y93768D03*
X155000Y311232D03*
Y307768D03*
X84300Y278775D03*
Y275311D03*
X37300Y278675D03*
Y275211D03*
X155000Y221232D03*
Y217768D03*
X154500Y177732D03*
Y174268D03*
X155500Y265732D03*
Y262268D03*
X361300Y140275D03*
Y136811D03*
X238300Y135400D03*
Y131936D03*
X408500Y74232D03*
Y70768D03*
X429964Y93341D03*
Y89877D03*
X389200Y108832D03*
Y105368D03*
X268300Y162775D03*
Y159311D03*
X232500Y162732D03*
Y159268D03*
X236500Y162732D03*
Y159268D03*
X279500Y96732D03*
Y93268D03*
X216000Y96732D03*
Y93268D03*
X199000Y96732D03*
Y93268D03*
X469400Y153532D03*
Y150068D03*
X472900Y153532D03*
Y150068D03*
X425300Y177775D03*
Y174311D03*
X445300Y177775D03*
Y174311D03*
X435300Y177775D03*
Y174311D03*
X425300Y235275D03*
Y231811D03*
X435300Y235275D03*
Y231811D03*
X445300Y235275D03*
Y231811D03*
X388700Y168575D03*
Y165111D03*
X382200Y168575D03*
Y165111D03*
X511000Y133877D03*
Y130413D03*
G54D73*
X371021Y80095D03*
Y82064D03*
Y84032D03*
Y86001D03*
Y87969D03*
Y89938D03*
Y91906D03*
Y93875D03*
X389329Y80095D03*
Y82064D03*
Y84032D03*
Y86001D03*
Y87969D03*
Y89938D03*
Y91906D03*
Y93875D03*
G54D64*
X450177Y84365D03*
X451751D03*
Y78853D03*
X450177D03*
G54D37*
X74930Y73043D03*
X53670D03*
G54D28*
X15000Y15057D03*
Y398443D03*
X525496Y15057D03*
Y398443D03*
G54D47*
X104182Y363858D03*
Y353228D03*
G54D92*
X461500Y330732D03*
X471500D03*
X481500D03*
X491500D03*
G54D29*
X198100Y116843D03*
X165800Y127043D03*
X132300Y304543D03*
Y311043D03*
X87800Y355043D03*
X131800Y176543D03*
Y184043D03*
Y168543D03*
X191300Y356043D03*
X399000Y152000D03*
X364500Y106000D03*
X354500D03*
X359500D03*
X354000Y96500D03*
Y91500D03*
X279300Y118043D03*
X247800Y127043D03*
X462500Y111000D03*
X313500Y101500D03*
X302500D03*
X508043Y103700D03*
G54D83*
X392028Y112956D03*
X382972D03*
X392028Y120044D03*
X382972D03*
G54D38*
X96650Y21811D03*
G54D65*
X453917Y83971D03*
Y82396D03*
Y80822D03*
Y79247D03*
X448011Y83971D03*
Y82396D03*
Y80822D03*
Y79247D03*
G54D56*
X165300Y282094D03*
Y300992D03*
Y192594D03*
Y211492D03*
X165800Y327594D03*
Y346492D03*
X165300Y237094D03*
Y255992D03*
G54D74*
X380175Y86985D03*
G54D48*
X104182Y388433D03*
G54D39*
X96650Y45433D03*
G54D84*
X472079Y93790D03*
Y98790D03*
Y103790D03*
Y123790D03*
Y118790D03*
Y113790D03*
Y108790D03*
X498497Y93790D03*
Y98790D03*
Y103790D03*
Y108790D03*
Y113790D03*
Y118790D03*
Y123790D03*
G54D93*
X479784Y295269D03*
X465216D03*
X479784Y304731D03*
X465216D03*
G54D75*
X465040Y49500D03*
X457960D03*
G54D57*
X70800Y356413D03*
Y377673D03*
X42300Y356413D03*
Y377673D03*
G54D66*
X429326Y83684D03*
X427751D03*
X426177D03*
X424602D03*
X429326Y82109D03*
X427751D03*
X426177D03*
X424602D03*
Y80534D03*
X426177D03*
X427751D03*
X429326D03*
G54D67*
X336743Y97150D03*
Y90850D03*
X332793Y97150D03*
Y90850D03*
X347252Y97150D03*
Y90850D03*
X343302Y97150D03*
Y90850D03*
G54D94*
X415300Y222448D03*
X425300D03*
X435300D03*
X445300D03*
X415300Y185637D03*
X425300D03*
X435300D03*
X445300D03*
G54D49*
X94182Y378433D03*
X114182D03*
Y398433D03*
X94182D03*
G54D85*
X475697Y73091D03*
X483303D03*
X479500Y80516D03*
X490697Y73091D03*
X498303D03*
X494500Y80516D03*
G54D58*
X90209Y283740D03*
Y291346D03*
X82784Y287543D03*
X117091Y291303D03*
Y283697D03*
X124516Y287500D03*
X442873Y94806D03*
Y102412D03*
X435448Y98609D03*
G54D76*
X449745Y23665D03*
X447776D03*
X445808D03*
X443839D03*
X441871D03*
X439902D03*
X437934D03*
X435965D03*
X433997D03*
X432028D03*
X430060D03*
X428091D03*
G54D95*
X253781Y381369D03*
X483781D03*
G54D68*
X464453Y60500D03*
X458547D03*
G54D86*
X483400Y162875D03*
X480841D03*
X478282D03*
X475723D03*
X473164D03*
X470605D03*
X468046D03*
X465487D03*
X483400Y186103D03*
X480841D03*
X478282D03*
X475723D03*
X473164D03*
X470605D03*
X468046D03*
X465487D03*
G54D59*
X136861Y369360D03*
X146861D03*
X156861D03*
X136861Y393376D03*
X146861D03*
X156861D03*
X166861Y369360D03*
X176861D03*
X186900D03*
X196900D03*
X166861Y393376D03*
X176861D03*
X186861D03*
X196861D03*
X206900Y369360D03*
X216900D03*
X226900D03*
X206861Y393376D03*
X216861D03*
X226861D03*
X248742Y369361D03*
X258742D03*
X268742D03*
X278742D03*
X288742D03*
X248742Y393377D03*
X258742D03*
X268742D03*
X278742D03*
X288742D03*
X298742Y369361D03*
X308742D03*
X318742D03*
X328742D03*
X338742D03*
X348742D03*
X358742D03*
X368742D03*
X378742D03*
X388742D03*
X298742Y393377D03*
X308742D03*
X318742D03*
X328742D03*
X338742D03*
X348742D03*
X358742D03*
X368742D03*
X378742D03*
X388742D03*
X398742Y369361D03*
X408742D03*
X418742D03*
X398742Y393377D03*
X408742D03*
X418742D03*
X428742Y369361D03*
X438742D03*
X448781D03*
X458781D03*
X468781D03*
X478781D03*
X428742Y393377D03*
X438742D03*
X448742D03*
X458742D03*
X468742D03*
X478742D03*
X488781Y369361D03*
X488742Y393377D03*
G54D77*
X422422Y8705D03*
X456438D03*
G54D78*
X422422Y26618D03*
X456438D03*
G54D69*
X428985Y127980D03*
Y124043D03*
Y120106D03*
X439615D03*
Y127980D03*
G54D87*
X420839Y54500D03*
X438161D03*
G54D96*
X489961Y50000D03*
G54D97*
X502650Y133670D03*
X496350D03*
X502650Y137620D03*
X496350D03*
G54D88*
X212039Y321540D03*
X357709Y183745D03*
Y187682D03*
Y191619D03*
Y195556D03*
Y199493D03*
Y203430D03*
Y207367D03*
Y211304D03*
Y215241D03*
Y219178D03*
Y223115D03*
Y227052D03*
Y230989D03*
Y234926D03*
Y238863D03*
Y242800D03*
Y246737D03*
Y250674D03*
Y254611D03*
Y258548D03*
Y262485D03*
Y266422D03*
Y270359D03*
Y274296D03*
Y278234D03*
Y282170D03*
Y286108D03*
Y290045D03*
Y293982D03*
Y297918D03*
Y301856D03*
Y305793D03*
Y309730D03*
Y313666D03*
Y317604D03*
Y321540D03*
X212039Y313666D03*
Y309730D03*
Y305793D03*
Y301856D03*
Y297918D03*
Y293982D03*
Y290045D03*
Y286108D03*
Y282170D03*
Y278234D03*
Y274296D03*
Y270359D03*
Y266422D03*
Y262485D03*
Y258548D03*
Y254611D03*
Y250674D03*
Y246737D03*
Y242800D03*
Y238863D03*
Y234926D03*
Y230989D03*
Y227052D03*
Y223115D03*
Y219178D03*
Y215241D03*
Y211304D03*
Y207367D03*
Y203430D03*
Y199493D03*
Y195556D03*
Y191619D03*
Y187682D03*
Y183745D03*
Y317604D03*
Y325478D03*
X357709D03*
Y179808D03*
X212039D03*
G54D79*
X423721Y24649D03*
X455139D03*
G54D89*
X219913Y175871D03*
X349835Y329415D03*
X345898D03*
X341961D03*
X338024D03*
X334087D03*
X330150D03*
X326213D03*
X322276D03*
X318339D03*
X314402D03*
X310465D03*
X306528D03*
X302590D03*
X298654D03*
X294716D03*
X290780D03*
X286842D03*
X282906D03*
X278968D03*
X275032D03*
X271094D03*
X267158D03*
X263220D03*
X259283D03*
X255346D03*
X251409D03*
X247472D03*
X243535D03*
X239598D03*
X235661D03*
X231724D03*
X227787D03*
X223850D03*
X219913D03*
X223850Y175871D03*
X227787D03*
X231724D03*
X235661D03*
X239598D03*
X243535D03*
X247472D03*
X251409D03*
X255346D03*
X259283D03*
X263220D03*
X267158D03*
X271094D03*
X275032D03*
X278968D03*
X282906D03*
X286842D03*
X290780D03*
X294716D03*
X298654D03*
X302590D03*
X306528D03*
X310465D03*
X314402D03*
X318339D03*
X322276D03*
X326213D03*
X330150D03*
X334087D03*
X338024D03*
X341961D03*
X345898D03*
X349835D03*
X215976Y329415D03*
X353772D03*
Y175871D03*
X215976D03*
G54D98*
X526391Y114106D03*
Y121980D03*
Y129854D03*
G54D99*
Y106232D03*
M02*
